<?xml version="1.0" encoding="utf-8"?>
<!-- Generator: Adobe Illustrator 20.1.0, SVG Export Plug-In . SVG Version: 6.00 Build 0)  -->
<svg version="1.1" xmlns="http://www.w3.org/2000/svg" xmlns:xlink="http://www.w3.org/1999/xlink" x="0px" y="0px"
	 viewBox="0 0 517.6 384.5" style="enable-background:new 0 0 517.6 384.5;" xml:space="preserve">
<style type="text/css">
	.st0{opacity:0.4965;}
	.st1{fill:#0096BA;}
	.st2{fill:#00596F;}
	.st3{opacity:0.3021;}
	.st4{opacity:0.7326;}
	.st5{fill:#6EDAF4;}
</style>
<g id="Layer_1" class="st0">
	<path class="st1" d="M444,139.6c0,0-0.1,0-0.1,0C443.9,139.6,444,139.6,444,139.6L444,139.6z"/>
	<path class="st1" d="M444.1,139.6C444.1,139.6,444.1,139.6,444.1,139.6C444.1,139.6,444.1,139.6,444.1,139.6
		C444,139.6,444,139.6,444.1,139.6L444.1,139.6z"/>
	<path class="st1" d="M444.2,139.6C444.1,139.6,444.1,139.6,444.2,139.6C444.1,139.6,444.1,139.6,444.2,139.6L444.2,139.6z"/>
	<path class="st2" d="M288.7,76c-0.9,0.1-1.8,0.4-3,0.9c-0.8,0.1-1.6,0.2-2.5,0.3c-0.5,0.1-1,0.2-1.5,0.3c-0.3,0.1-0.7,0.2-1,0.2
		c-0.1,0-0.2,0-0.3,0c-0.8,0.1-1.7,0.2-2.5,0.3c-1.1,0.1-2,0.2-2.9,0.5c-0.6,0.2-1.2,0.3-1.7,0.5l-0.7,0.2c-1,0.3-1.9,0.7-2.8,1
		l-0.9,0.4c-1.7,0.7-3.5,1.4-5.3,2.3c-0.7,0.3-1.4,0.8-2,1.2l-0.3,0.2c-0.5,0.3-1.1,0.6-1.7,0.9c-0.3,0.2-0.7,0.3-1,0.5
		c-0.9,0.5-1.7,1-2.6,1.5c-1,0.6-2,1.2-3.1,1.7c-0.9,0.5-1.8,0.9-2.7,1.4c-2.9,1.6-6,3.2-8.8,5.1c-4.8,3.3-8.8,6.7-12.5,10.4
		c-3.5,3.5-6.7,6.5-9.8,9.2c-3.2,2.7-6.3,5.7-9.6,9.3c-2.3,2.5-4.3,5.4-6.1,7.8c-1.2,1.7-2.3,3.6-3.1,5.6l-0.3,0.7
		c-1.1,2.6-2.3,5.3-2.9,8.2c-0.2,1.2-0.5,2.4-0.8,3.6c-0.2,0.9-0.4,1.9-0.6,2.8c-0.8,3.8-1.4,7.6-1.7,11.6c-0.1,1-0.1,2.1-0.1,3.1
		c0,0.5,0,1,0,1.5c0,0.9-0.1,1.8-0.1,2.7c0,0.6-0.1,1.1-0.1,1.7c-0.1,3.4,0,6.4,0.3,9.2l-0.8,3.1l-0.8,3.1c-0.9,3.4-1.5,7-2.2,10.4
		c-0.2,1.2-0.5,2.3-0.7,3.5c-0.4,1.9-0.7,4-1,6.8l0,0.2l0,0.2c0,3,0.8,5.9,2.3,8.6c0.5,0.9,1.1,1.7,1.8,2.5c0,4.9,1.2,10.2,3.5,16
		l0.1,0.2c0.8,1.9,1.6,3.9,2.5,5.8c1.2,0.4,2.1,1,2.8,1.8c0.4,0.4,0.8,0.9,1,1.5c0.2,0.5,0.5,1.1,0.7,1.7l0.3,0.9
		c0.3,1,0.2,2.2-0.3,3.3c0.3,0.7,0.7,1.4,1,2c0.3,0.6,0.6,1.2,0.9,1.8c0.3,0.2,0.6,0.4,0.8,0.6l0.2,0.2c0.5,0.4,1,0.8,1.5,1.3
		l0.5,0.5c0.4,0.4,0.8,0.7,1.1,1.1c1.1,1.1,2.1,2.2,3.2,3.4l1,1c1.7,1.7,3.4,3.6,4.9,5.5c0.5,0.6,1,1.2,1.5,1.8
		c1.4,1.7,2.7,3.4,4.2,5c0.3,0.4,0.6,0.7,1,1.1c1.1,0.9,2.3,2,2.9,3.3c0.2,0.2,0.4,0.4,0.6,0.6c0.4,0.2,0.7,0.5,1.1,0.7
		c0.2,0.1,0.4,0.3,0.5,0.4l0.1-0.1l0.4-0.3c1.5-1.1,3.2-2.3,5-3.4c1.4-0.8,2.8-1.5,4.4-2.1c1.9-0.8,3.9-1.5,6-2.2
		c0.8-0.3,1.6-0.6,2.4-0.9c0.9-0.3,1.7-0.6,2.6-0.9c1.7-0.6,3.4-1.2,5-1.8c0.5-0.2,1.1-0.4,1.6-0.6c0.7-0.3,1.4-0.5,2.2-0.8l0.3-0.2
		c1.3-0.6,2.6-1.1,3.9-1.5c1.7-0.5,3.4-0.7,5-0.9c1-0.1,2.1-0.2,3.2-0.3l0.2,0c0.1,0,0.3,0,0.4,0c0.6,0,1.5,0,2.2,0.3
		c0.3,0.1,0.6,0.2,0.9,0.3c0.8,0.1,1.7,0.5,2.6,1.2c1.2,0.9,2.4,1.9,3.8,2.9l0.4,0.3c0.5,0.4,1,0.8,1.4,1.2c0.3,0.3,0.7,0.7,1,1
		c0.3,0.2,0.7,0.5,1,0.7c0.3-0.2,0.7-0.3,1-0.4c0.5-0.3,1.1-0.5,1.6-0.6c0.5-0.1,1-0.2,1.5-0.2l0.4,0c0.2,0,0.3,0,0.5,0
		c0.1,0,0.1,0,0.2,0c0.9,0,1.7,0.2,2.4,0.6l1,0.7c0.9,0.9,1.4,2.2,1.4,3.4c0,0.9-0.2,1.7-0.6,2.5c-0.5,0.8-1,1.2-1.7,1.7l-0.2,0.2
		c-0.3,0.3-0.7,0.5-1.1,0.7l-0.4,0.2c-0.4,0.2-0.8,0.5-1.2,0.7c-0.7,0.6-1.3,1.2-1.9,1.9l-0.2,0.3c-0.6,0.8-1.2,1.6-1.9,2.4
		c-0.7,0.8-1.4,1.6-2.2,2.3c-1.4,1.3-2.6,2.6-3.7,3.9c-0.4,0.6-0.8,1.3-1.1,1.9c-0.2,0.6-0.3,1.2-0.5,1.8c-0.3,0.7-0.6,1.5-0.8,2.2
		c-0.6,1.6-1.3,3.2-1.8,4.9l-0.1,0.3l-0.1,0.4c0.8,0.2,1.7,0.4,2.5,0.6c0.3-0.6,0.8-1,1.2-1.5c0.4-0.4,0.9-0.7,1.4-1l0.1-0.1
		c0.9-0.4,1.8-0.8,2.9-1c0.9-0.2,1.7-0.2,2.5-0.2l0.2,0h0.2c2.1,0,3.7,0.1,5.1,0.5c0.4,0.1,0.8,0.2,1.2,0.3c0.3,0.1,0.6,0.2,0.9,0.3
		c0.6,0.2,1.2,0.3,1.8,0.4l0.5,0.1c1.2,0.2,2.5,0.5,4.3,0.7c0.5,0,0.9,0.1,1.4,0.1c0.7,0,1.4,0,2.2-0.1l0.5-0.1
		c1.6-0.2,3.2-0.5,4.8-0.5c0.3,0,0.6,0,0.9,0c1.2,0,2.6,0.1,4.3,0.2c1.5,0.1,2.5,0.5,3.4,1.4c0.8,0.8,1.2,1.8,1.4,2.8
		c2.3-0.2,4.7-0.6,6.9-0.9c1.2-0.2,2.3-0.3,3.5-0.5c2.2-0.3,4.3-0.6,6.3-1.2c2.1-0.6,4.2-1.2,6.5-2c2.8-0.9,5.6-1.8,8.3-2.9
		c3.2-1.2,6.5-2.6,9.6-4l1.8-0.7c4.4-1.8,9.1-3.8,13.7-6c4.2-2,8.4-4.1,11.9-5.9l0.8-0.4c3.8-2,7.8-4,11.6-6.1
		c4.5-2.4,8.5-5.6,12.4-8.7l1-0.8c7.3-5.6,13.8-10.6,20.2-15.9c0.3-0.2,0.5-0.4,0.8-0.7c0-0.9,0.1-1.8,0.2-2.9
		c0.4-2.7,0.9-5.1,1.8-7.3c0.9-2.3,1.9-4.6,2.9-6.6l0.6-1.1c0.7-1.4,1.4-2.9,2.1-4.3c0.9-2.4,1.8-5,2.4-7.7c0.5-1.8,0.8-3.4,1.3-4.9
		c0.2-0.7,0.5-1.5,0.8-2.3c-0.1-0.7-0.2-1.4-0.3-2.2c-0.1-0.8-0.1-1.5-0.2-2.3l0-0.3l0-0.2c-0.1-0.8-0.1-1.6,0-2.4
		c0.1-0.6,0.1-1.2,0.2-1.8c-1.2-0.1-2.3-0.2-3.3-0.3c-3.1-0.4-6.1-1-9.2-2c-2.4-0.7-4.7-1.3-7.2-1.6c-1.1-0.1-2.2-0.2-3.4-0.3
		c-2.5-0.2-5-0.5-7.5-1c-1.3-0.3-3.1-0.7-4.8-1.1l-0.3-0.1c-1.2-0.3-2.5-0.7-3.8-0.9c-1.1-0.1-2.3-0.1-3.6-0.1c-1.3,0-2.5,0-3.7,0.1
		c-2.6,0.1-5.2,0.3-7.9,0.5c-2.6,0.4-4.5,0.7-6.4,1.2c-0.8,0.2-1.5,0.4-2.3,0.6c-1.4,0.4-2.9,0.7-4.3,1.1c-0.5,0.1-0.9,0.2-1.3,0.2
		c-0.3,0-0.7,0-1-0.1c-1.1,0.4-2.3,0.8-3.4,1.2c-2.7,1-4.8,1.8-6.8,2.5c-1.4,0.6-2.9,1.3-4.3,2.3c-0.4,0.3-0.8,0.6-1.3,0.9
		c-1,0.7-2,1.4-3,2c-3.4,1.8-7.1,2.9-10.6,3.9l-0.2,0c-3.1,0.9-6.8,2-10.6,3.2c-3.1,1-6.1,2.2-9.1,3.4l-0.7,0.3
		c-0.6,0.2-1.1,0.5-1.7,0.7c-2.4,1-4.8,2-7.4,2.4c-2.6,0.4-5.1,0.5-7.7,0.5l-0.2,0l-1.9,0c-2,0-3.9,0-5.9,0c-1.8,0-3.6,0-5.5,0
		c-2.8,0-5.5,0.1-8.3,0.1c-1.8,0-3.7,0-5.6,0l-0.4,0c-2,0-4-0.1-6-0.3c-0.3,0-0.6-0.1-1-0.1c-0.6-0.1-1.3-0.2-1.9-0.3
		c-1.7-0.3-3-0.7-4.2-1.3c-1.3-0.6-2.3-1.5-2.9-2.5c-0.3-0.6-0.7-1.6-0.7-2.4c-0.1-0.6-0.2-1.1-0.2-1.7c0-0.6,0.1-1.1,0.2-1.7
		c0.2-0.4,0.4-0.9,0.5-1.3c0.5-1.1,1.9-2,3-2.3c0.1,0,0.2,0,0.3-0.1c0.3-0.1,0.6-0.1,0.9-0.1c0.9,0,1.8,0.2,2.7,0.7
		c0.2,0.1,0.3,0.2,0.5,0.3l0.2,0.2c0.4,0.3,0.8,0.5,1.3,0.7c1.4,0.5,2.8,0.9,4.2,1.2c0.8,0.1,1.6,0.1,2.5,0.1c0.8,0,1.6,0,2.3,0
		l1.1,0c0.4,0,0.8,0,1.3,0c0.9,0,1.8,0,2.7,0c0.7,0,1.3,0,2,0c0.4,0,0.8,0,1.2,0c0.2-1.5,1-2.8,2.3-3.7c0.5-0.3,1.1-0.6,1.7-0.8
		c0.2-0.1,0.4-0.2,0.7-0.3l0.7-0.3c3.9-1.7,7.7-3.7,11.5-5.5c1.3-0.6,2.5-1.3,3.8-1.9c2.2-1.1,4.8-2.4,7.1-3.8
		c2.2-1.4,4.3-2.8,6.3-4.3l-0.2,0.2l0.8-0.6c1.8-1.4,3.6-2.8,5.4-4.1l1.1-0.8c1.2-0.9,2.4-1.7,3.5-2.6c0.8-0.7,1.6-1.3,2.4-2
		c2.9-2.5,6-5.1,9.4-7.1c0.6-0.4,1.2-0.7,1.8-1.1c0.1-1.3,0-2.6-0.1-3.9c1.9-0.8,3.7-1.6,5.2-2.4c1.3,0.6,2.7,1.1,4.1,1.3
		c0.2-0.1,0.3-0.2,0.5-0.3c0.7-0.7,1.4-1.4,2.1-2.2c0.2-0.3,0.5-0.6,0.7-0.8c1.2-1.4,2.8-2.5,4.2-3.6c2.7-2,5.5-3.6,7.9-4.9
		c1-0.6,2.1-1.2,3.1-1.8l1.2-0.7c1.1-0.6,2.2-1.2,3.4-1.8l0.7-0.4c3.5-1.9,6.5-3.3,9.4-4.5l-0.5,0.2c1.2-0.5,2.4-1.1,3.6-1.6
		c2.3-1,4.6-2.1,7-3c1-0.4,2-0.7,2.9-0.9c1.1-0.3,2.3-0.4,3.5-0.6l0.1,0c0.9-0.1,1.8-0.2,2.6-0.2c0.7,0,1.4-0.1,2-0.2
		c0.8-0.2,1.5-0.3,2.3-0.5c1-0.2,2.1-0.5,3.2-0.7c2-0.3,4.2-0.6,6.4-0.8c1.5-0.1,2.8-0.2,4-0.2c0.6,0,1.3,0,1.9,0.1
		c1.3,0.1,2.5,0.2,3.7,0.4c0.5,0.1,0.9,0.1,1.4,0.2c1.3,0.2,2.7,0.2,4,0.3c0.5,0,1,0,1.4,0.1c2.1,0.1,4.1,0.3,6,0.5l0.8,0.1
		c0.1-1.1,0.2-2.2,0.1-3.3c-0.5,0.1-0.9,0.2-1.3,0.2c-0.4,0-0.8-0.1-1.2-0.2c-0.1,0-0.1,0-0.2,0c-0.6,0.4-1.3,0.6-2.1,0.6
		c-0.8,0-1.7-0.2-2.5-0.6c-0.2-0.1-0.5-0.2-0.9-0.4c-0.4-0.2-0.8-0.5-1.1-0.8c-0.4-0.3-0.6-0.7-0.9-1c-1.6,0-3.1-0.9-4-2.4
		c-0.3-0.5-0.5-1.1-0.7-1.6c-0.1-0.2-0.1-0.4-0.2-0.6l-0.1-0.3l-0.1-0.3l-0.1-0.2c-0.2-0.5-0.4-1-0.6-1.5c-0.5-1.4-1-2.8-1.5-4.1
		c0-0.1-0.1-0.3-0.1-0.4c-0.4-0.9-0.7-1.8-1.1-2.7l-0.2-0.6c-0.2-0.6-0.5-1.2-0.7-1.8c-0.3-0.8-0.6-1.8-0.7-2.8
		c-1.4-0.5-2.8-1-4.2-1.5c-0.7-0.3-1.4-0.5-2.1-0.8c-0.5-0.2-1-0.5-1.5-0.7c-0.9-0.4-1.7-0.9-2.6-1.3l-0.9-0.4
		c-1.7-0.8-3.5-1.6-5.2-2.5c-1.3-0.7-2.5-1.6-3.7-2.5c-0.5-0.4-1-0.8-1.5-1.1c-1.6-1.1-3.6-2.5-5.6-3.6l-0.6-0.3l-0.6-0.3
		c-0.2,0.2-0.4,0.3-0.6,0.4c-0.5,0.3-1,0.5-1.5,0.7c-0.5,0.1-1.1,0.2-1.8,0.2c-0.9,0-1.8-0.1-2.6-0.3l-0.4-0.1
		c-0.3,0-0.5-0.1-0.8-0.1c-1.7-0.4-3.4-1-5.2-1.8c-1.8-0.8-3.2-1.6-4.3-2.4l-0.2-0.2c-0.2-0.2-0.5-0.3-0.7-0.5
		c-1.2-0.1-2.3-0.3-3.3-0.4c-1-0.2-2-0.3-3-0.5c-0.8-0.2-1.7-0.7-2.3-1.5c-2.3,0.3-4.1,0.8-6.9,2.4c-1.7,0.9-3,2-4.3,3.2
		c0.1,1.6,0,3.2-0.4,4.9c0,0.2-0.1,0.4-0.1,0.6c-0.1,0.4-0.2,0.8-0.3,1.2c-0.1,0.5-0.3,0.9-0.4,1.4c-0.1,0.3-0.2,0.7-0.3,1
		c-0.1,0.4-0.3,0.9-0.5,1.3c-0.4,1.3-0.9,2.5-1.3,3.7l-0.2,0.4l-0.2,0.4c-0.4,2.7-1,4.8-1.9,6.6c-0.5,1.1-1.2,2.1-2.2,3.3
		c-0.7,0.9-1.5,1.8-2.5,2.6c-0.2,0.2-0.4,0.3-0.6,0.5c-0.7,0.6-1.4,1.2-2.2,1.5c-0.3,0.1-0.6,0.2-0.8,0.4c-0.4,0.4-0.9,0.8-1.4,1.2
		l-0.3,0.2c-0.6,0.4-1.2,0.9-1.8,1.3c-0.7,0.4-1.4,0.7-2.4,1.1c-1.2,0.5-2.4,0.8-3.7,1c-1.3,0.2-2.5,0.3-3.6,0.3
		c-0.5,0-1.1,0-1.6-0.1c-1-0.1-2-0.2-3-0.3c-0.7,0.3-1.4,0.5-2,0.8c-3.2,1.3-6.3,2.7-9.4,4l-0.5,0.2c-0.4,0.1-0.7,0.2-1.1,0.4
		c-0.2-0.2-0.5-0.5-0.7-0.7l-1.4-1.8l-1.4-1.8c-2.4-2.4-5.3-4.1-8.6-5c-0.2-0.1-0.4-0.1-0.5-0.1l-0.1-0.8l-0.1-0.8l-0.2-1.8
		c-0.3-0.3-0.7-0.6-1-0.9c-0.9-0.9-1.6-1.6-2.3-2.3c-0.3-0.4-0.7-0.8-1-1.2c-0.3-0.3-0.5-0.6-0.8-1c-0.7-0.8-1.4-1.7-2.2-2.5
		l-0.4-0.4c-1-1.1-2.1-2.3-2.7-3.7c-1.4-2.8-2.2-5.9-2.3-9c-0.1-1.6-0.1-3.2-0.2-4.7l-0.1-1.6c0-0.8-0.1-1.6-0.1-2.4
		c-0.1-0.1-0.2-0.2-0.3-0.4c-0.1-0.1-0.2-0.2-0.4-0.3l0.1-0.1l0.3-0.2l0.2-0.1l0.1-0.1c0-1,0.1-2,0.2-2.9c0.2-1.7,0.4-3.5,0.7-5.2
		l0.2-1.5c0.1-0.5,0.1-1,0.2-1.5c0.2-1.7,0.4-3.5,0.8-5.2c0.4-1.8,1.1-3.1,1.9-4.1c0.1-0.1,0.2-0.2,0.3-0.3c-1-0.7-2.1-1.2-3.3-1.5
		c-1-0.3-1.9-0.4-2.9-0.4C290.6,75.6,289.7,75.7,288.7,76L288.7,76z"/>
</g>
<g id="Layer_2" class="st3">
	<path class="st1" d="M272.4,263.5c0,0.7-0.3,1.4-0.8,1.8c-0.3,0.3-0.7,0.5-1.1,0.7c-0.1,0-0.3,0-0.4,0.1c0,0,0,0-0.1,0
		c0,0,0,0,0.1,0c0.1,0,0.1,0,0.2,0c-0.4,0.1-1,0.1-1.4,0.2c-0.4,0.2-0.7,0.3-1.2,0.2c-0.1,0-0.2,0-0.3,0c-0.3,0.1-0.6,0.3-0.9,0.4
		c-0.3,0.1-0.7,0.2-1,0.3c-1.1,0.3-2.2,0.3-3.3,0.1c-0.3-0.1-0.6-0.1-0.9-0.2c-1.1,0.5-2.3,1-3.4,1.5c-0.4,0.1-0.8,0.3-1.2,0.4
		c-1.1,0.3-2.2,0.5-3.3,0.8c-3,0.9-6,2.1-8.8,3.5c-4.3,2.1-8.3,4.6-12.2,7.4c-2.7,1.9-5.2,4-7.6,6.2c-1.6,1.5-3.1,3.2-4.5,4.9
		c-3.6,4.1-6.8,8.7-9.8,13.3c-0.9,1.5-1.9,2.9-2.8,4.4c-0.2,0.4-0.4,0.7-0.6,1.1c0,0.1-0.1,0.3-0.1,0.4c-0.4,1.3-0.7,2.6-1.1,3.9
		c-0.7,2.4-1.4,4.9-2.1,7.3c-0.3,1.4-0.6,2.8-0.9,4.2c-0.6,2.7-1,5.3-1.5,8c0.7,0.3,1.3,0.6,1.8,1.2c0.2,0.2,0.4,0.4,0.5,0.6
		c0.1,0.1,0.1,0.2,0.2,0.2c0.3,0.1,0.7,0.3,1,0.4c0.2,0.1,0.4,0.3,0.6,0.4c0.9,0.6,2,1,2.9,1.4c0.8,0.4,1.7,0.8,2.5,1.2
		c0.4,0.2,0.8,0.3,1.1,0.5c0.6,0.4,1.1,0.8,1.5,1.3c0.9,0.3,1.8,0.6,2.7,0.9c1.1,0.3,2.2,0.8,3.2,1.3c1.1,0.4,2.2,0.8,3.3,1.1
		c1.2,0.4,2.4,0.7,3.6,1.2c1.2,0.5,2.3,0.9,3.5,1.4c1.1,0.5,2.3,1,3.4,1.4c1.2,0.4,2.4,0.8,3.7,1.1c1.3,0.3,2.6,0.8,3.9,1.1
		c2.4,0.6,4.8,1.1,7.2,1.6c1.9,0.2,3.7,0.2,5.6,0.2c2.1,0,4.1,0,6.2,0c2.1,0,4.2,0,6.3,0.1c2.3,0.1,4.6,0.5,6.9,0.8
		c1.2,0.1,2.5,0.3,3.7,0.3c1.5,0,3-0.1,4.5-0.1c0.5,0,1,0,1.6,0c0.6-0.7,1.1-1.4,1.6-2.2c0.4-0.7,0.7-1.3,1-2
		c-0.1-0.3-0.3-0.6-0.4-0.9c-0.3-0.7-0.6-1.4-0.7-2.1c-0.2-0.9-0.3-1.8-0.4-2.7c-0.1-0.4-0.1-0.8-0.2-1.2c-0.1-0.4-0.2-0.8-0.2-1.2
		c-0.1-0.6-0.2-1.3-0.3-1.9c-0.1-0.9-0.3-1.8-0.3-2.7c0-0.6,0-1.3,0-1.9c0-0.2,0-0.5,0-0.7c-0.3-0.4-0.6-0.8-0.9-1.2
		c-0.7-1.9-1.2-3.9-1.8-5.9c0.4-1,0.8-2,1.2-3c1-2.9,1.3-6,1.6-9c0.1-1,0.2-1.9,0.3-2.9c0.2-0.6,0.3-1.2,0.5-1.8
		c0.7-2.5,1.4-5,1.8-7.6c0.5-2.6,0.8-5.2,1.1-7.8c0.2-1.2,0.5-2.3,0.8-3.5c0.7-0.7,1.4-1.4,2.1-2.1c0.1-0.1,0.2-0.2,0.3-0.3
		c-0.1-0.7,0-1.4,0.3-2.1c0.2-0.3,0.4-0.5,0.7-0.8c0.2-0.3,0.4-0.6,0.7-0.9c0.2-0.2,0.4-0.4,0.6-0.6c0,0,0,0,0,0c0,0,0,0,0,0
		c0,0,0,0,0,0c0.2-0.2,0.4-0.4,0.6-0.6c0.2-0.1,0.3-0.3,0.5-0.5c0,0,0,0,0,0c0,0,0,0,0,0c0,0,0,0,0,0c0,0,0,0,0,0c0,0,0,0,0,0
		c0,0,0,0,0,0c0-0.1,0.1-0.1,0.1-0.2c0,0,0,0,0,0c0,0-0.1,0.1-0.1,0.1c0-0.1,0.1-0.1,0.1-0.2c0,0,0-0.1,0-0.1
		c0.1-0.3,0.2-0.5,0.4-0.8c0.2-0.5,0.7-0.9,1.2-1.1c0.4-1.8,0.4-3.6-0.1-5.4c-1.1-3.9-4.1-6.7-7.8-7.8c-1.1-0.3-2.2-0.5-3.3-0.4
		c-1.4-1.2-3.2-2.1-4.9-2.6c-0.3-0.1-0.6-0.1-0.8-0.2c-0.2-0.1-0.5-0.2-0.7-0.3c-0.2-0.1-0.4-0.3-0.6-0.4c-1.4-0.8-2.8-1.2-4.4-1.2
		C272.4,263.1,272.4,263.3,272.4,263.5L272.4,263.5z M269.8,266.1c0,0,0.1,0,0.1,0C269.9,266.1,269.9,266.1,269.8,266.1L269.8,266.1
		z M269.8,266.1C269.8,266.1,269.8,266.1,269.8,266.1c-0.1,0-0.1,0-0.2,0C269.6,266.1,269.7,266.1,269.8,266.1L269.8,266.1z"/>
	<path class="st1" d="M293.5,283.2C293.5,283.2,293.5,283.2,293.5,283.2c0,0,0.1-0.1,0.1-0.1C293.5,283.1,293.5,283.2,293.5,283.2
		L293.5,283.2z"/>
	<ellipse transform="matrix(0.7044 -0.7098 0.7098 0.7044 -114.5662 291.9528)" class="st1" cx="293.2" cy="283.5" rx="0" ry="0"/>
	<path class="st1" d="M293.2,283.6C293.2,283.6,293.2,283.6,293.2,283.6C293.2,283.6,293.2,283.6,293.2,283.6L293.2,283.6z"/>
	<path class="st1" d="M259.5,336.6c-1.9,1.9-3,4.6-3,7.3c0,2.6,1,5.6,3,7.3c0.6,0.5,1.2,1,1.7,1.5c1.6,0,3.3,0,4.9,0.1
		c2.3,0.1,4.6,0.5,6.9,0.8c1.2,0.1,2.5,0.3,3.7,0.3c1.5,0,3-0.1,4.5-0.1c2,0,4.1-0.1,6.1-0.3c-0.9-1.6-1.6-3.2-2.3-4.8
		c-0.3-0.7-0.6-1.4-0.7-2.1c-0.1-0.2-0.1-0.5-0.1-0.7c-0.1-0.1-0.3-0.2-0.4-0.2c-1.3-1.1-2.5-2.2-3.6-3.4c-1.9-1.9-3.9-3.8-6-5.6
		c-2.2-1.9-4.4-3-7.3-3C264.1,333.5,261.4,334.6,259.5,336.6L259.5,336.6z"/>
	<path class="st1" d="M418.2,263.6c-1.6-0.5-3.3-0.7-4.9-0.7c-0.2,0.2-0.3,0.3-0.5,0.5c-0.5,0.6-1,1.1-1.5,1.7
		c-0.6,0.6-1.1,1.2-1.7,1.8c-0.6,0.6-1.1,1.2-1.7,1.7c-1.4,1.2-2.9,2.4-4.4,3.5c-1.1,0.8-2.3,1.6-3.4,2.3c-0.4,2-0.3,4.1,0.2,6.1
		c0.1,0,0.1,0,0.2,0c0.7,0,1.4,0.1,2.1,0.4c0.1,0,0.2,0.1,0.3,0.1c0.9-0.6,1.8-1.2,2.8-1.6c0.5-0.2,1-0.2,1.5-0.3
		c0.6-0.1,1.2,0,1.8,0.3c1.5,0.9,1.5,2.6,1.8,4.1c0.2,1.1,0.4,2.1,0.5,3.2c0.1,1.1,0.2,2.2,0,3.3c-0.1,1.4-0.5,2.8-0.8,4.2
		c-0.2,1.1-0.6,2.2-0.9,3.2c-0.4,1.2-0.7,2.3-1.2,3.5c-0.5,1.3-1.2,2.6-1.9,3.9c-0.6,1.2-1.2,2.3-2,3.4c-0.9,1.2-1.9,2.3-3,3.3
		c-2,1.8-4,3.5-6.1,5.1c-1,0.8-1.9,1.6-2.9,2.4c-0.3,0.2-0.5,0.4-0.8,0.6c0.2,0.3,0.4,0.5,0.6,0.8c0.5,0.7,0.8,1.5,1.2,2.2
		c0.3,0.5,0.7,1,1,1.6c0.3,0.4,0.5,0.8,0.8,1.2c0.3,0.4,0.7,0.7,1.1,1c0.5,0.4,1.1,0.8,1.6,1.1c0.6,0.4,1.2,0.9,1.8,1.3
		c1.1,0.8,2.3,1.5,3.6,2c0.9,0.3,1.9,0.6,2.9,0.8c1,0.3,1.9,0.6,2.9,0.8c2,0.4,3.9,0.7,5.9,1c0.9,0.1,1.8,0.2,2.7,0.3
		c0.9,0.1,1.8,0.2,2.7,0.3c1.2,0.2,2.4,0.3,3.6,0.4c0.6,0.1,1.3,0.1,1.9,0.1c0.5,0,1,0.1,1.5,0.2c2.2,0.3,4.5,0.5,6.8,0.3
		c1.1-0.2,2.2-0.5,3.3-0.8c1-0.2,2.1-0.4,3.1-0.7c1.9-0.5,3.9-0.8,5.8-1.5c0.4-0.2,0.9-0.4,1.3-0.7c1.2-1,2.2-2.2,3.1-3.3
		c0.8-1.1,1.5-2.4,2.1-3.7c0.3-0.9,0.6-1.7,0.7-2.6c0.1-1.3,0.1-2.6,0-3.9c-0.1-1.5-0.1-3-0.3-4.4c-0.3-1.5-0.6-3-0.9-4.6
		c-0.3-1.9-0.6-3.8-0.7-5.7c-0.1-1.6-0.1-3.2-0.1-4.7c0-1,0-1.9,0-2.9c-0.7-1.8-1.5-3.5-2.4-5.3c-1.6-3-3.7-5.7-5.5-8.6
		c-1.5-2.5-2.4-5.3-4.1-7.6c-0.4-0.6-0.9-1.3-1.3-1.9c-0.2-0.3-0.4-0.6-0.6-0.9c-2.7-3.6-2.5-3.4-6-6.1c-2.5-1.9-5.9-2.3-8.9-2.6
		c-0.2,0-0.5,0-0.7,0C420.9,262.7,419.6,263.1,418.2,263.6L418.2,263.6z"/>
	<path class="st1" d="M424,140.5c-2.7,0.2-5.3,0.6-7.9,1.2c-2.6,0.6-5,1.8-7.4,2.9c-1.6,0.8-3.2,1.5-4.9,2.3
		c-2.4,0.9-4.8,1.8-7.2,2.6c-4.3,1.5-8.5,3.3-12.6,5.1c-2.9,1.3-5.7,2.9-8.5,4.5c-3.1,1.8-6,4.1-8.7,6.4c-3.1,2.1-6.6,3.6-9.8,5.4
		c-4,2.3-7.7,5-11.5,7.5c-3.7,2.4-7.7,4.1-11.4,6.4c-3.9,2.4-7.8,4.8-11.6,7.3c-3.4,2.3-6.7,4.6-9.9,7.1c0.6-0.5,1.2-0.9,1.8-1.4
		c-1.8,1.4-3.6,2.7-5.5,4c-2.1,1.3-4.3,2.3-6.5,3.3c-2.1,1-4.3,2-6.4,3c-1.7,0.8-3.5,1.7-5.2,2.5c-1.3,0.4-2.5,0.8-3.8,1
		c-1.6,0.2-3.2,0.3-4.8,0.2c-1.5-0.3-3-0.8-4.5-1.3c-0.8-0.4-1.6-0.8-2.4-1.2c-3.3-1.7-7.4-0.9-9.3,2.4c-1.8,3.1-0.8,7.6,2.4,9.3
		c2.2,1.2,4.4,2.2,6.6,3.4c1.5,0.8,2.9,1.7,4.4,2.4c1.6,0.7,3.2,1.4,4.9,1.8c3.3,0.8,6.9,1.3,10.3,1c3-0.3,5.9-0.8,8.9-1.2
		c2.2-0.3,4.3-0.8,6.5-1.3c2-0.5,4.1-0.8,6.1-1.4c3-0.9,5.7-1.9,8.6-3.1c2-0.8,3.9-1.9,5.7-2.9c3.9-2.1,7.9-3.8,11.9-5.6
		c1.3,0.9,2.8,1.6,4.4,2c0.9-0.1,1.8-0.3,2.8-0.4c2.9-0.5,5.6-1.3,8.3-2.3c3-1.4,5.8-3.1,8.8-4.4c1.6-0.7,3.1-1.4,4.7-2.1
		c1.8-0.9,3.7-1.8,5.7-2.1c2-0.4,4.1-0.8,6.1-1c1.8-0.2,3.6-0.3,5.3-0.4c2.8-0.1,5.6,0.2,8.3,0.7c2.3,0.1,4.6,0.3,6.8,0.5
		c4.6,0.7,9.1,1.4,13.7,2c-1.1-0.1-2.1-0.3-3.2-0.4c2.3,0.3,4.6,0.7,6.8,1.2c2.2,0.5,4.3,1.1,6.5,1.6c2.1,0.5,4.3,0.9,6.4,1.4
		c2.1,0.5,4.2,1,6.2,1.4c6,1.2,12.2,1.9,18.4,1.7c3.7-0.1,7.4-0.7,11.1-1.4c3.4-0.6,6.6-1.8,9.7-3.5c2.3-1.2,5.2-3.7,7-6.2
		c0.1-0.5,0.2-1.1,0.3-1.7c0.3-2.1,0.4-4.2,0.5-6.4c0.1-2.1,0.1-4.1,0-6.2c-0.1-0.4-0.2-0.8-0.3-1.2c-0.2-0.3-0.4-0.6-0.6-1
		c-1.2-1.3-2.5-2.5-3.7-3.8c-0.8-0.9-1.6-1.8-2.5-2.6c-0.3-0.2-0.6-0.4-0.9-0.7c-0.5-0.4-0.9-0.7-1.4-1.1c-0.7-0.6-1.4-1.6-1.6-2.5
		c-0.2-1.1-0.3-1.7,0-2.8c0.1-0.5,0.4-1.2,0.6-1.5c0.4-0.7,0.9-1.3,1.4-1.9c0.6-0.7,1.2-1.4,1.8-2.1c0.8-0.8,1.6-1.6,2.4-2.4
		c0.5-0.5,1.1-1.1,1.8-1.5c-0.1-0.3-0.2-0.5-0.4-0.8c-0.9-2-1.9-3.7-3.2-5.4c-1.3-1.7-2.6-3.8-4.4-5.2c-1.5-1.1-2.9-2.5-4.5-3.4
		c-2.5-1.4-5.2-2.6-7.9-3.2c-2.1-0.5-4.3-0.8-6.4-1.3c-2-0.5-4-0.9-6.1-1.3c-2-0.3-4-0.9-6-1.2c-4.3-0.7-8.4-1.2-12.7-1.2
		c-0.6,0-1.3,0-1.9,0C428.1,140.2,426,140.3,424,140.5L424,140.5z"/>
	<path class="st1" d="M157.2,153.1c-0.5,0.8-1,1.5-1.4,2.3c-0.6,1.7-1,3.5-1.5,5.2c-0.5,2.1-0.9,4.2-1.6,6.2
		c-0.8,2.2-1.4,4.4-2.1,6.7c-0.1,0.3-0.2,0.7-0.3,1c0.2,0.2,0.5,0.5,0.7,0.7c0,0.2,0,0.4,0,0.6c-0.1,0.7-0.2,1.5-0.3,2.2
		c-0.3,2.4-0.7,4.8-0.9,7.2c-0.3,5,0.5,9.9,1.3,14.8c0,0.2,0,0.4,0,0.7c-0.1,0.1-0.1,0.3-0.2,0.5c-0.5,1.1-0.5,2.4-0.6,3.6
		c0.2,0.5,0.4,0.9,0.6,1.4c0.3,0.9,0.5,1.6,0.6,2.6c0.4,0.5,0.8,1.1,1.1,1.7c0.9,1.6,1.5,3.4,2.5,4.9c0.2,0.3,0.5,0.6,0.7,0.9
		c0.9,0.6,1.9,1,3,1.3c0.5,0.1,0.9,0.2,1.4,0.3c0.4-0.4,0.9-0.8,1.3-1.2c0.9-0.9,1.8-1.6,2.8-2.4c1.4-1,2.9-2,4.3-3
		c1.3-1,2.7-2,4.1-2.9c1.4-0.9,2.9-1.7,4.2-2.7c1-0.8,2-1.7,3.2-2.4c1.5-0.9,3.2-1.6,4.9-2.1c1.9-0.6,3.9-0.6,5.9-0.7
		c0.5,0,0.9-0.1,1.4-0.1c0.2-0.3,0.4-0.6,0.5-0.9c0.3-0.6,0.7-1.4,1-2.1c-0.6-0.3-1.2-0.7-1.7-1.2c-0.6-0.2-1.2-0.6-1.8-1.2
		c-1.2-1.2-1.7-3-1.2-4.6c0.4-1.6,1.6-3.1,2.8-4.2c0.8-0.8,1.9-1.7,3-2.1c0.1,0,0.1-0.1,0.2-0.1c-0.1-0.6-0.2-1.1-0.3-1.7
		c-0.1-0.7-0.3-1.4-0.5-2.1c-0.6-2.4-1.2-4.9-1.8-7.3c0-0.1,0-0.1-0.1-0.2c-0.1-0.1-0.3-0.1-0.4-0.2c-3.1-1.5-6-3.4-9-5.1
		c-3.1-1.8-6.2-3.4-9.2-5.4c-1.7-1.1-3.3-2.2-4.8-3.5c-1.2-1-2.3-2-3.5-3c-0.5-0.4-1-0.8-1.5-1.1c-1.4-1.1-2.9-2.2-4.5-3.1
		c-0.5,0-1-0.1-1.4-0.2C157.8,151.8,157.5,152.5,157.2,153.1L157.2,153.1z"/>
	<path class="st1" d="M160.3,151.4c-0.2,0-0.3-0.1-0.5-0.1C159.9,151.3,160.1,151.4,160.3,151.4L160.3,151.4z"/>
	<path class="st1" d="M145.2,103.7c-0.1,0.1-0.1,0.2-0.2,0.3c-0.3,0.5-0.8,1.2-1.3,1.6c-0.9,0.8-1.7,1.4-2.8,1.8
		c-0.4,0.7-0.9,1.4-1.4,2.1c-0.8,1.2-1.6,2.4-2.6,3.4c-0.8,0.9-1.8,1.8-2.6,2.7c-0.5,0.7-0.9,1.5-1.4,2.2c0,0,0,0.1-0.1,0.1
		c0.1,0.3,0.3,0.7,0.5,1c0,0-0.1,0-0.1,0c-0.3,0-0.7,0-1-0.1c-1.1,1.3-2.4,2.3-3.9,3.1c-1.1,0.6-2.2,1.2-3.3,1.8
		c-0.9,0.5-1.8,1.1-2.7,1.6c-1.5,0.8-3.1,1.7-4.6,2.5c-0.3,1.1-0.4,2.3-0.4,3.4c0.2,0,0.4,0,0.6,0.1c1.4,0.1,2.7,0.4,4,0.9
		c1.6,0.6,3.2,1.3,4.7,2.1c1.4,0.8,2.9,1.6,4.2,2.6c0.9,0.6,1.7,1.3,2.7,1.9c0,0,0,0,0.1,0c0.1,0,0.2,0,0.3,0c0.1,0,0.1,0,0.2,0
		c2.1,0.1,4,1.4,4.6,3.5c0.3,1.2,0.2,2.6-0.5,3.7c-0.1,0.2-0.2,0.3-0.3,0.5c0.4,0,0.7,0,1.1,0c3.3-0.1,4.9-0.8,7.8-2.1
		c2.5-1.1,4.6-2.9,6.7-4.6c0.7-0.6,1.4-1.2,2-1.8c2.1-1.9,4-4,5.9-6.2c1.2-1.4,2.3-2.8,3.3-4.2c0.8-1.2,1.5-2.6,1.7-4.1
		c0.5-1.3,0.6-2.7,0.5-4c-0.1-0.9-0.2-1.7-0.3-2.6c-2.1-1-4.2-2.4-6.2-3.7c-2.5-1.5-4.9-3.1-7.1-5.1c-1-0.9-1.9-1.8-2.9-2.7
		c-1.1-1-2.1-2-3.1-3c-0.1-0.1-0.3-0.3-0.4-0.4C146.3,102.5,145.7,103.1,145.2,103.7L145.2,103.7z"/>
	<path class="st1" d="M239.1,25.2c-1.7,0-3.4,0.1-5.1,0.1c-0.5,0-1,0-1.5,0c-0.4,0.6-0.8,1.2-1.1,1.9c0.3,0.1,0.6,0.3,1,0.4
		c0.9,0.4,1.7,0.9,2.4,1.6c0.8,0.8,1.6,1.7,2.2,2.7c0.7,1.2,1.3,2.5,1.4,3.9c0.1,1.1,0.3,2.2,0.4,3.2c0.1,0.7,0.2,1.5,0.1,2.2
		c0,0.8-0.1,1.6-0.3,2.3c-0.2,0.8-0.5,1.5-0.8,2.3c-0.4,0.8-0.7,1.6-1.3,2.3c-1,1.3-1.9,2.5-3.4,3.3c-1.6,0.8-3.4,1.1-5.2,1
		c-1.9-0.2-3.8-0.8-5.7-1.1c-1.7,0.7-3.1,1.7-4.5,3.1c-0.9,0.9-1.7,2-2.4,3.2c1.2,0.7,2.2,1.6,2.8,2.9c0.8,1.5,1.4,3.3,1.2,4.9
		c-0.1,1-0.2,1.9-0.5,2.9c-0.3,0.8-0.6,1.5-1,2.2c0,0.1-0.1,0.3-0.1,0.4c-0.5,1.7-1.5,3.2-3,4.1c-1.4,0.8-3,0.8-4.6,0.5
		c-0.9,0.6-1.9,1.1-2.9,1.7c-1.3,0.1-2.5,0.5-3.7,1.2c-0.8,0.4-1.5,0.9-2,1.6c-0.6,0.3-1.3,0.6-1.9,0.9c-2.6,1.3-5.2,3.1-7,5.4
		c0.7,0.5,1.5,1,2.1,1.7c0.7,0.8,1.3,1.7,1.9,2.6c0.1,0.1,0.2,0.3,0.3,0.4c0.7,0.4,1.3,0.9,1.7,1.7c0.1,0.3,0.2,0.5,0.3,0.7
		c0.7,0.9,1.1,1.9,1.1,3.1c0,0.9-0.2,1.9-0.7,2.7c-0.3,0.6-0.8,1-1.3,1.4c1.4-0.6,2.9-1,4.3-1.5c2.1-0.7,4.1-1.5,6.2-2.3
		c2-0.8,4.1-1.5,6.2-2c1.9-0.4,3.8-0.6,5.7-0.9c1.7-0.3,3.3-0.9,5-1.2c1.1-0.2,2.3-0.3,3.4-0.6c1.2-0.2,2.4-0.5,3.6-0.5
		c0.1,0,0.2,0,0.4,0c1.4,0.1,2.9,0.3,4.3,0.6c1,0.2,1.9,0.5,2.9,0.7c0.5-0.1,0.9-0.2,1.4-0.3c2.9-0.3,5.8-0.6,8.7-1.2
		c2.6-0.6,5.2-1.3,7.8-1.7c2.4-0.4,4.7-1.4,7-2.3c0.8-0.3,1.5-0.6,2.3-1c0.1-0.1,0.2-0.1,0.2-0.1c2.2-1.3,4.6-2.3,7-3.3
		c3.5-1.5,7.1-2.9,10.8-3.8c1.7-0.4,3.4-0.9,5.1-1.3c0.8-0.2,1.6-0.5,2.3-0.6c0.9-0.2,1.8-0.3,2.7-0.3c0.2,0,0.5,0,0.7,0
		c0.9,0.1,1.8,0.1,2.7,0.3c0.5,0.1,1,0.3,1.4,0.5c0.3,0,0.5,0,0.8,0.1c0.3-0.6,0.5-1,1.1-1.6c0.2-0.3,0.5-0.5,0.8-0.8
		c0.8-0.7,1.7-1.4,2.6-2c0.2-0.1,0.4-0.2,0.6-0.4c0.7-0.9,1.6-1.6,2.6-2.1c1.6-0.9,3.4-1.6,5.3-1.9c0.7-0.1,1.4-0.2,2.1-0.2
		c1.6,0,3.2,0.3,4.4,1.3c0.7-1.1,1.2-2.4,1.6-3.7c0.2-1.4,0.4-2.8,0.6-4.2c0-2.1-0.4-4-1.2-5.9c-0.6-0.4-1.2-0.9-1.8-1.3
		c-0.9-0.7-1.6-1.5-2.5-2.2c-0.9-0.7-1.8-1.4-2.7-2.2c-3.1-2.2-6.3-4.5-9.7-6.1c-0.4-0.2-0.8-0.6-1-1.1c-3.3-1.6-6.5-3.4-9.7-5.1
		c-4.8-2.5-9.9-4.5-15-6.3c-3.8-1.3-7.7-2.2-11.6-3.5c-1.8-0.6-3.4-1.5-5.3-1.9c-1.3,0-2.6-0.1-3.9-0.2c-3.2-0.2-6.4-0.6-9.7-0.5
		c-1.6,0-3.2-0.1-4.7-0.2c-1.4-0.1-2.8-0.2-4.2-0.2C239.4,25.2,239.3,25.2,239.1,25.2L239.1,25.2z"/>
	<path class="st1" d="M194.4,102.1c0.3-0.2,0.5-0.3,0.8-0.5c0.2-0.1,0.4-0.2,0.6-0.3c-0.8,0.1-1.7,0-2.5-0.1
		C193.7,101.5,194,101.8,194.4,102.1L194.4,102.1z"/>
	<path class="st1" d="M196.6,90.5C196.6,90.5,196.6,90.5,196.6,90.5c-0.1,0-0.1-0.1-0.2-0.1C196.5,90.5,196.5,90.5,196.6,90.5
		L196.6,90.5z"/>
	<path class="st1" d="M151.7,253.4c-0.1,0.1-0.2,0.3-0.4,0.4c-1.5,1.4-3.8,1.8-5.6,0.9c-0.1,0-0.1,0-0.2,0c-0.8,0-1.5-0.1-2.3-0.2
		c-0.6-0.1-1.1-0.3-1.6-0.4c-0.4-0.1-0.9-0.1-1.3-0.2c0,0,0,0,0,0c-0.9-0.1-1.8-0.2-2.8-0.1c-0.8,0.1-1.6,0-2.5-0.2c0,0,0,0-0.1,0
		c-0.3,0-0.5,0.1-0.8,0.1c-0.3,0-0.6,0-0.9-0.1c-0.4,0.6-0.6,1.1-0.9,1.8c0.4,0.1,0.7,0.3,1,0.5c0.8,0.5,1.5,1,2.3,1.6
		c1,0.8,1.7,2.2,2,3.5c0.3,1.2,0.6,2.3,0.8,3.5c0.3,0.4,0.6,0.8,0.9,1.3c0.5,0.7,0.9,1.5,1.4,2.2c1.1,1.4,2.3,2.7,3.4,4.2
		c1.1,1.5,2,3.2,3,4.7c0.9,1.4,1.8,2.7,2.6,4.2c0.2,0.4,0.4,0.7,0.5,1.1c0.6,0.1,1.2,0.3,1.7,0.6c0.7,0.4,1.3,1,1.7,1.7
		c0.6,0.9,1.1,1.9,1.6,2.8c0.5,0.8,1,1.6,1.4,2.5c0.6,1.1,1.2,2.2,1.9,3.3c0.1,0,0.3,0,0.4,0c0.3-0.1,0.6-0.1,0.9-0.2
		c0.9-0.3,1.9-0.4,2.8-0.5c1.7-0.1,3.4-0.2,5.1-0.3c0.2-0.1,0.5-0.1,0.7-0.2c1.1-0.6,2.2-1.2,3.3-2c0.8-0.7,1.6-1.4,2.2-2.2
		c0.3-0.4,0.6-0.9,0.9-1.4c0.3-0.5,0.5-1,0.8-1.6c0.4-0.8,0.9-1.6,1.3-2.4c0.4-1.3,0.8-2.5,1.7-3.5c0.5-0.5,1.1-0.9,1.7-1.1
		c0-0.1-0.1-0.2-0.1-0.3c-0.7-1.9-1.1-3-2.2-4.4c-1.2-1.5-2.2-3.1-3.7-4.3c-1-0.9-2-1.7-3.2-2.4c-1.3-0.7-2.7-1.3-4.1-1.7
		c-0.8-0.2-1.6-0.4-2.4-0.5c-0.3-0.5-0.6-1.1-1-1.6c-1.2-1.8-2.2-3.8-3.7-5.5c-0.6-0.7-1.4-1.3-2.1-2c-1.6-1.4-3.4-2.6-5.6-2.7
		C152.2,252.7,152,253.1,151.7,253.4L151.7,253.4z M155.4,286.5C155.4,286.6,155.4,286.6,155.4,286.5c0.1,0.1,0.1,0.1,0.1,0.2
		C155.5,286.7,155.5,286.6,155.4,286.5L155.4,286.5z"/>
	<path class="st1" d="M47.8,125.2c-0.3,0.3-0.7,0.6-1,0.9c-0.3,0.3-0.6,0.6-0.9,0.9c0,0.2-0.1,0.4-0.1,0.6c-0.2,1.3-0.4,2.6-0.6,3.9
		c-0.5,3.7-0.9,7.5-0.8,11.3c0.1,1.9,0.3,3.8,0.5,5.7c0,0.5,0.1,1.1,0.1,1.6c0.4,1.1,0.8,2.1,1.2,3.2c0.2,0.2,0.4,0.5,0.5,0.7
		c1,2,1.6,4.2,2.3,6.4c0.5,1.4,0.9,2.7,1.5,4.1c0.3,0.7,0.6,1.5,0.8,2.2c0.5,0.4,0.9,0.8,1.3,1.4c0.3,0.5,0.5,1,0.6,1.5
		c0.1,0.4,0.2,0.8,0.3,1.1c0.1,0.6,0.3,1.2,0.4,1.8c0.2,0.2,0.4,0.4,0.6,0.6c1,0.4,1.8,0.9,2.6,1.6c0.4,0.3,0.7,0.7,1,1.1
		c1.1,1.2,2.5,2.5,3.3,3.9c0.6,1,0.8,2.1,0.6,3.1c0.2,0.2,0.4,0.5,0.5,0.7c0.6,1.1,0.8,2.4,0.5,3.7c-0.3,1.1-1.1,2.3-2.2,2.9
		c-1.7,0.8-3.4,1.7-4.9,2.8c-0.6,0.5-1.1,1.1-1.6,1.8c-0.7,0.9-1.4,1.8-2.2,2.7c-0.8,1.1-1.6,2.1-2.4,3.2c-0.8,1.2-1.5,2.5-2.2,3.7
		c-1.3,2.5-2.6,5-3.8,7.6c-0.7,1.9-1.4,3.9-1.9,5.9c0,0.4-0.1,0.8-0.1,1.1c-0.1,1.5-0.1,3.2,0.1,4.7c-0.1,0.4-0.1,0.9-0.2,1.3
		c0.1,1,0.2,2,0.3,3c0.5,3.8,1,7.5,1.5,11.3c0.2,1.7,0.5,3.5,0.9,5.2c0,0.1,0,0.1,0,0.2c0,0.1,0,0.1,0,0.2c0.3,0.5,0.5,1,0.8,1.6
		c0.8,1.6,1.6,3.2,2.4,4.8c0.9,1.9,1.8,3.8,2.6,5.7c1.3,3.1,2.4,6.2,3.3,9.5c0,0,0,0,0,0c0.3,0,0.6,0,0.9-0.1c0.7,0,1.5-0.1,2.2-0.2
		c1-0.2,2-0.4,3-0.7c1.5-0.4,3.1-0.7,4.6-1c3.1-0.7,6.2-1.4,9.1-2.6c3.3-1.5,6.5-3.2,9.8-4.8c1.9-0.9,3.8-1.6,5.6-2.7
		c1.4-0.8,2.8-1.7,4.1-2.7c1.8-1.5,3.5-3.3,5-5.1c1.5-1.7,3-3.4,4.4-5.2c0.7-0.9,1.3-1.9,1.8-2.9c0.5-1.4,0.9-2.8,1.2-4.2
		c0.3-1.5,0.5-3,0.8-4.5c0.1-0.5,0.2-0.9,0.3-1.4c0.1-0.5,0.2-1,0.4-1.5c0.2-0.4,0.3-0.8,0.5-1.3c-0.2-0.5-0.4-0.9-0.6-1.4
		c-0.3-0.7-0.6-1.3-0.9-2c-1.7-3.4-4.3-6.5-6.6-9.5c-1.5-1.9-3.4-3.4-5.3-4.9c0-1.5,0-3.1-0.1-4.6c-0.2-1.9-0.4-3.7-0.4-5.6
		c0.3-1.3,0.6-2.5,0.8-3.8c0.5-2.1,0.7-4.2,1-6.4c-0.6-2-0.9-4-0.7-6.1c0.2-2.1,0.4-4.1,0.2-6.2c-0.1-1.3-0.1-2.6,0.2-3.9
		c0-0.2,0.1-0.5,0.2-0.7c0.2-0.5,0.4-1.2,0.8-1.7c0.8-1.1,1.8-2.1,3.2-2.4c0.7-0.1,1.3-0.2,2-0.2c0.2,0,0.5,0,0.7,0.1
		c0.3-0.1,0.6-0.2,0.9-0.3c0.4-0.1,0.7-0.2,1.1-0.4c0.7-0.3,1.4-0.7,2-1.1c-0.3-0.3-0.5-0.6-0.7-0.9c-0.4-0.7-0.6-1.5-0.6-2.4
		c0-0.2,0-0.4,0-0.5c-0.2-0.6-0.4-1.2-0.6-1.8c-0.2-0.5-0.3-1.1-0.5-1.6c-0.4-0.8-0.8-1.5-1.2-2.3c-0.7-1.4-1.3-2.8-2-4.1
		c-0.7-1.3-1.5-2.7-2.2-4c-0.6-1.1-1.1-2.2-1.8-3.2c-1.5-1.8-3.1-3.4-4.7-5c-1.9-1.9-3.8-3.7-5.9-5.4c-1.6-1.2-3.2-2.3-4.9-3.3
		c-1.6-1-3.3-1.8-5-2.6c-1.1-0.4-2.2-0.8-3.4-1.1c-0.9-0.3-1.9-0.4-2.9-0.6c-0.7,0-1.4,0-2.1-0.1c-0.6,0-1.2-0.2-1.8-0.4
		c-1.5,0-2.9,0-4.4,0c-2.9,0-5.7-0.1-8.5-0.2c-0.3,0-0.6,0-0.9,0C50.4,125,49.1,125.1,47.8,125.2L47.8,125.2z"/>
	<path class="st1" d="M53.9,172.9c0.1,0.1,0.2,0.1,0.3,0.2c0,0,0,0,0,0c0,0,0,0,0,0c0,0,0,0,0,0C54,173,54,172.9,53.9,172.9
		C53.9,172.9,53.9,172.9,53.9,172.9L53.9,172.9z"/>
	<path class="st1" d="M55,173.5c-0.1,0-0.2-0.1-0.3-0.1C54.8,173.4,54.9,173.5,55,173.5L55,173.5z"/>
	<path class="st1" d="M399.6,143.9c-0.9,0.1-1.7,0.3-2.6,0.5c-1.2,0.3-2.3,0.8-3.4,1.3c-1.1,0.4-1.8,1-2.7,1.8c-0.5,0.5-1,1-1.3,1.6
		c-1.3,0.9-2.6,1.7-3.8,2.7c-1.7,1.4-3,3.2-3.7,5.3c-0.4,1.3-0.7,2.6-1.1,3.9c-0.7,2.8,0.4,5.7,2.9,7.1c1.5,0.9,3.2,1.1,4.9,0.6
		c0.5-0.2,1-0.4,1.5-0.6c1-0.6,1.7-1.3,2.3-2.3c0.5-1.1,0.9-2.2,1.4-3.3c0.2-0.5,0.5-1,0.8-1.4c0.8-0.8,1.6-1.5,2.5-2.2
		c0,0,0,0,0.1-0.1c0.6,0.5,1.4,0.8,2.2,0.9c0.7,0.1,1.3,0.2,2,0.2c0.8,0,1.6-0.1,2.3-0.2c1-0.1,1.9-0.4,2.8-0.6c0.3,0,0.5,0,0.8,0
		c0.3,0,0.6,0,0.9,0c0.5,0,1-0.1,1.5-0.1c0.2,0.1,0.4,0.2,0.6,0.3c-0.1,0.1-0.3,0.2-0.4,0.3c-1,0.8-0.8,2.4,0,3.2
		c0.9,0.9,2.3,0.8,3.2,0c0.8-0.7,1.6-1.3,2.4-2c0.7-0.6,1.2-1.2,1.7-1.9c0.5-0.7,0.7-1.9,0.4-2.8c-0.5-1.6-1.8-2.8-3.5-3.1
		c-0.1,0-0.1,0-0.2,0c-0.3-0.3-0.6-0.6-0.9-0.8c-0.4-0.3-1-0.5-1.5-0.6c-0.3-0.1-0.6-0.1-0.9-0.1c0.3-1,0.3-2,0-2.9
		c-0.5-1.7-1.8-3-3.3-3.8c-1.4-0.8-3-1-4.5-1C401.8,143.7,400.7,143.8,399.6,143.9L399.6,143.9z M413.2,156.6c0,0.1-0.1,0.2-0.1,0.3
		C413.1,156.8,413.2,156.7,413.2,156.6L413.2,156.6z"/>
</g>
<g id="Layer_3" class="st4">
	<path class="st5" d="M165.4,199c0,0.2-0.1,0.4-0.1,0.7c0,0,0,0,0.1,0c2.7-1.3,5.4-2.3,8.2-3.3c0,0,0,0,0.1,0
		C170.4,196.6,168.7,197.5,165.4,199L165.4,199z"/>
	<path class="st5" d="M92.8,171.2c0.1,0,0.2-0.1,0.3-0.1C93,171.1,92.9,171.1,92.8,171.2L92.8,171.2z"/>
	<path class="st5" d="M92.2,171.6C92.2,171.6,92.2,171.6,92.2,171.6C92.2,171.6,92.2,171.6,92.2,171.6
		C92.2,171.6,92.2,171.6,92.2,171.6L92.2,171.6z"/>
	<path class="st2" d="M232.5,91.4c-2.6,0.4-5.2,0.9-8.2,1.6c-2.4,0.6-4.9,1-7.3,1.4c-3,0.5-5.9,0.9-8.9,1.1c-1,0.1-2.1,0.1-3.1,0.1
		l-1.1,0c-1.3,0.7-2.4,1.2-3.5,1.7c-0.9,0.3-1.8,0.7-2.8,1c-3.5,1.2-7.1,2.5-10.2,4.6c-1.9,1.3-3.7,2.6-5.5,3.9
		c-1.9,1.4-3.9,2.8-5.9,4.2c-0.8,0.5-1.6,1-2.4,1.6c-0.9,0.6-1.9,1.2-2.8,1.9l-0.5,0.3c-1.8,1.2-3.6,2.5-5.2,4
		c-0.7,0.7-1.4,1.5-2,2.3l-0.2,0.3c-0.7,0.9-1.5,1.8-2.2,2.7c-0.6,0.7-1.2,1.4-1.8,2.1l-0.6,0.7c-0.8,1-1.6,2-2.4,3
		c-0.1,0-0.3,0-0.4,0c-0.1,0-0.2,0-0.4,0l-0.2,0.3l-0.2,0.3c-1.6,1.7-3.3,3.3-4.9,4.8c-1,0.9-1.9,1.8-2.9,2.8
		c-1.5,1.5-2.9,2.9-4.6,4.7c-1.5,1.5-3.3,3.4-4.9,5.3c-0.4,0.5-0.8,0.9-1.1,1.4c-1,1.2-2,2.4-3.1,3.6c-1.7,1.8-3.3,3.4-5.1,4.7
		c-1.1,0.8-2.2,1.7-3.3,2.5c-0.6,0.4-1.3,0.9-2.1,1.2c-1.1,0.5-2.5,1.1-3.9,1.4c-0.6,0.1-1.1,0.3-1.7,0.4c-0.4,0.1-0.8,0.2-1.1,0.3
		c-1.3,0.3-2.6,0.8-3.9,1.2c-0.7,0.2-1.4,0.5-2.1,0.7c-2.2,0.7-4.3,1.1-6.2,1.1c-0.2,0-0.4,0-0.6,0c-0.4,0.4-0.7,0.8-1.1,1.1
		c-1.3,1.2-2.6,1.9-3.9,2.3c-0.2,0.1-0.5,0.1-0.8,0.1c-0.2,0-0.3,0-0.5,0.1l-0.2,0.1c-0.2,0.2-0.5,0.3-0.8,0.4
		c-1.2,0.5-2,0.9-3.4,0.9c-0.2,0.3-0.4,0.6-0.6,0.9c-0.3,0.9-0.6,1.8-0.8,2.7c-0.2,0.7-0.4,1.3-0.6,1.9c-0.7,2.1-1.1,3.7-1.4,5.3
		c-0.3,2.2-0.3,4.1-0.2,5.9c0.1,0.6,0.3,1.3,0.4,1.9c0.1,0.4,0.2,0.7,0.2,1.1c0.2,0.8,0.3,1.6,0.5,2.6l0.3,0.7
		c0.1,0.3,0.2,0.5,0.3,0.6c0.5,1.1,1.1,2.3,1.9,3.5l0.4,0.7c-0.4,0.8-0.8,1.7-1,2.5c0.4,0.5,0.8,1.1,1.2,1.6
		c1.9,2.6,3.4,5.4,4.9,8.2c1.4,2.7,2.9,5.4,4.7,7.9c0.7-0.2,1.3-0.3,2-0.4c0.1,0,0.2,0,0.4,0c0.9,0,1.8,0.2,2.6,0.5l0.3,0.1l0.7,0.2
		c1.6,0.4,3.2,0.9,4.9,1.2c0.4,0.1,0.8,0.2,1.2,0.2c1.6,0.3,3.3,0.7,4.9,1.2c2.6,0.9,4.5,1.8,6.1,2.9c1.7,1.3,3.1,2.7,4.2,3.9
		c0.6,0.6,1.2,1.2,1.7,1.7c0.6,0.5,1.1,1.1,1.7,1.7c1.2,1.3,2.3,2.7,3.3,4l0.1,0.1c0.9,1.1,1.7,2.3,2.7,3.7c2.3,1.8,4.3,3.2,6.2,4.3
		c2.1,1.2,4.4,2.1,6.6,3l1.3,0.5l0.2,0.1l0.4,0.2c2,1.1,3.9,2.4,5.8,3.7c2.2,1.7,4.3,3.5,6.5,5.2c2.8,2.3,5.7,4.6,8.5,6.8
		c1.6,2.5,3.5,4.8,5.3,7.1c0.5,0.6,1,1.3,1.5,1.9l0.1,0.2c0.6,0.7,1.1,1.4,1.7,2.2l0.8,1c1.2,1.5,2.3,3.1,3.5,4.6
		c0.3-0.1,0.7-0.1,1-0.1c0.8,0,1.6,0.2,2.5,0.6c1,0.5,1.9,0.9,2.9,1.4c2.2,1.1,4.5,2.2,6.8,3.2l1.2,0.5c1.5,0.6,3.1,1.2,4.6,1.9
		c1.6,0.7,3.2,1.6,5,2.7l0.3,0.2c1.4,0.9,2.9,1.8,4.4,2.6l0.1,0.1l0.2,0.1c0.9-1.2,1.9-2.3,2.9-3.4l0.6-0.6c0.8-0.8,1.6-1.7,2.4-2.6
		c1-1.6,1.8-3.3,2.6-5l0.3-0.7c0.9-1.9,1.9-3.6,3-5.2l0.1-0.1c-0.9-0.7-1.7-1.4-2.5-2.2c-0.3-0.3-0.5-0.5-0.8-0.8
		c-0.4-0.4-0.9-0.8-1.3-1.2c-0.3-0.3-0.7-0.6-1-1c-2.4-2.2-4.9-4.6-6.8-7.4c-1.1-1.6-1.9-3.4-2.8-5.1c-0.3-0.5-0.5-1-0.8-1.6
		c-0.2-0.3-0.3-0.6-0.5-0.9c-0.4-0.7-0.7-1.3-1-2c-0.1-0.2-0.1-0.3-0.2-0.5c-0.2-0.4-0.4-0.7-0.5-1.1c-0.1-0.5-0.2-1.1-0.2-1.6
		c0-0.2,0-0.4,0-0.6l-0.1-0.1l-0.1-0.1l-0.6-0.9c-0.9-1.3-1.8-2.7-2.6-4c-1-1.8-1.9-3.7-2.7-5.6l-0.2-0.4c-0.9-2-1.8-4.2-2.9-6.7
		c-1-2.4-1.7-4.4-2.3-6.2c-0.2-0.7-0.5-1.5-0.7-2.2c-0.4-1.1-0.7-2.3-1.1-3.4c-0.7-1.9-1.3-3.6-1.8-5.4c-0.4-1.5-0.8-3-1.2-4.5
		l-0.1-0.3c-0.4-1.7-0.8-3.4-1-5.1L193,206l-0.3-0.3c-0.6-0.6-1.2-1.1-1.7-1.8c-0.2-0.3-0.4-0.6-0.7-0.8c-0.4,0.3-0.8,0.6-1.3,0.8
		c-0.7,0.4-1.5,0.6-2.4,0.6c-1,0-2-0.3-2.8-0.8c-0.3,0-0.6,0-0.9,0c-0.2,0-0.5,0-0.7,0c-1.7,0.3-3.5,0.9-5.1,1.4l-0.1,0
		c-2.1,0.7-3.9,1.3-5.5,1.9l-0.1,0.1c-2.1,1-4.3,2-6.2,3.3l-0.4,0.3c0,0.3,0,0.6,0,0.8c0,2.3-1.2,5.2-3.8,5.8
		c-0.4,0.1-0.8,0.1-1.2,0.1c-2.2,0-4.1-1.4-4.7-3.5c-0.3-0.9-0.2-2,0.1-2.9c0-0.2,0-0.5-0.1-0.7c0-0.2,0-0.4-0.1-0.6
		c-0.1-0.9-0.1-1.9,0-2.8l0-0.2c-0.2-0.6-0.4-1.1-0.5-1.5c-0.3-1.3-0.5-2.6-0.6-3.9l0-0.3c0-0.4-0.1-0.9-0.2-1.3
		c-0.1-0.6-0.2-1.3-0.2-1.9c-0.1-1.1,0-2.1,0-3.2l0-0.6c0-1.2,0-2.5,0-3.7c0-0.5-0.1-1.1-0.1-1.6c-0.1-0.8-0.1-1.6-0.1-2.3
		c-1.2-1.2-1.6-3-1.2-4.6c0.2-0.8,0.4-1.7,0.6-2.5c-0.5-0.7-1.1-1.4-1.8-2c0.9-0.8,1.8-1.6,2.6-2.5c0-0.5,0-1,0.1-1.5
		c0-0.4,0-0.7,0-1.1c0-0.9,0.1-1.8,0.2-2.6l0.1-0.5l0.1-0.8c0.1-1.1,0.3-2.3,0.5-3.4c0.1-0.3,0.1-0.6,0.2-1l0-0.2
		c-0.1-0.3-0.2-0.5-0.2-0.8c0-0.1,0-0.3-0.1-0.4c-0.1-0.4-0.2-0.9-0.1-1.4l0-0.1l0-0.1c-0.1-0.1-0.1-0.2-0.2-0.4l0-0.1
		c-0.4-1-0.7-1.7-0.8-2.8c0-1.3,0.5-2.6,1.4-3.5c0.9-0.9,2.2-1.4,3.5-1.4c0.8,0,1.7,0.2,2.4,0.6c0.9,0.5,1.4,1.2,2,2
		c0.1,0.2,0.3,0.4,0.4,0.6l0.1,0.1c0.5,0.6,1.2,1.1,1.7,1.6c1.7,1.3,3.2,2.3,4.6,3.1c1.7,1,3.4,2,5.1,3c1,0.6,2.1,1.1,3.2,1.6
		c0.7,0.3,1.4,0.7,2,1c0.8,0.4,1.4,0.8,2.1,1.2c0.7,0.5,1.4,1.1,2,1.6l0.1,0.1l0.1,0.1c0.4-0.1,0.7-0.2,1.1-0.2c0,0,0.1,0,0.1,0
		c1.6-0.9,3-1.3,4.2-1.3c0.5,0,1,0.1,1.5,0.2c1.7,0.5,2.9,1.8,3.3,3.5c3.3-2.3,5.5-5.4,6.6-9.2c0.8-3,0.8-5.9,0-8.9
		c-0.4-1.4-1-2.8-1.7-4l1.6-1.9c2.4-3,4.9-6.1,7.5-9c1.9-2.1,4-4.2,6.3-6.4c1-2.4,1.8-4.6,2.7-6.6c0.2-0.5,0.4-1.1,0.7-1.6
		c0.7-1.8,1.5-3.6,2.3-5.3l0.4-0.7c1-1.9,2-3.8,3.2-5.6l0.7-1c0.9-1.4,1.9-2.9,3-4.3c1.4-1.9,2.9-3.7,4.3-5.5c0.4-0.5,0.7-1,1.1-1.5
		c0.2-0.2,0.3-0.5,0.5-0.7c0.3-0.5,0.6-0.9,1-1.3c0.7-0.7,1.5-1.2,2.3-1.5c0.4-0.1,0.9-0.1,1.4-0.2c0.1,0,0.2,0,0.3,0
		c0.2,0,0.5,0,0.8,0.1l0-0.2c0-0.1,0-0.2-0.1-0.3c-0.5-1.1-0.9-2.2-1.4-3.3c-0.5-0.8-1-1.5-1.5-2.1c0,0,0,0,0,0
		C234.9,91.1,233.7,91.2,232.5,91.4L232.5,91.4z"/>
</g>
<g id="Layer_4">
	<path d="M252.7,172.6c-4.7,0.4-8.9,2.4-12.5,5.3c-0.8,0.7-1.6,1.4-2.5,2.1c-0.7,0.6-1.3,1.3-1.9,2c-1.4,1.4-2.5,3-3.7,4.6
		c-1,1.3-1.8,2.8-2.6,4.2c-0.5,0.9-0.9,1.8-1.4,2.7c-0.6,1.2-1.2,2.5-1.8,3.7c0,0,0,0,0,0c2.1-1.8,4.2-3.7,6.3-5.5
		c0.9-0.8,1.8-1.7,2.8-2.4c1-0.8,2-1.6,3-2.4c3.8-2.8,7.6-5.7,12-7.7c1.7-0.6,3.4-1.2,5.1-1.5c1-0.2,2-0.4,3-0.6
		c1.4-0.3,2.8-0.6,4.3-0.9c2.4-0.6,4.8-1.3,7.3-1.8c0,0,0,0,0,0c0,0,0,0,0,0c0,0,0,0,0,0c0,0,0,0,0,0c0.3,0,0.6-0.1,0.9-0.1
		c0,0,0,0,0,0c-1.7-0.5-3.5-0.8-5.2-1c-1.8-0.2-3.6-0.4-5.3-0.5c-1.8-0.2-3.6-0.3-5.3-0.3C254.2,172.5,253.5,172.6,252.7,172.6
		L252.7,172.6z M270,174.5C270,174.5,270,174.5,270,174.5C270,174.5,270,174.5,270,174.5C270,174.5,270,174.5,270,174.5L270,174.5z"
		/>
	<path d="M436.2,135.6c-4.4,0.1-8.9,0.3-13.3,0.6c-4.5,0.3-9,0.7-13.4,1.4c-2.1,0.4-4.3,0.7-6.4,1.3c-2.2,0.6-4.4,1.3-6.6,2.2
		c-4.1,1.7-8,3.8-11.9,5.9c-3.7,2-7.5,4-11.1,6.2c-4,2.4-7.7,5.2-11.3,8c-0.1,0.1-0.2,0.1-0.3,0.2c-3.2,2.5-6.4,4.9-9.7,7.3
		c-3.5,2.5-7.1,5.1-10.7,7.5c-3.7,2.4-7.4,4.9-11.1,7.4c-1.8,1.3-3.7,2.6-5.5,3.8c-1.7,1.2-3.6,2.2-5.4,3.3c-3.3,2-6.5,4-9.9,5.9
		c-1.6,0.9-3.2,1.8-4.9,2.7c-1.5,0.8-3,1.5-4.6,2.2c-1.6,0.6-3.3,1.2-5,1.6c-1.6,0.4-3.1,0.7-4.7,1c-1.6,0.2-3.2,0.4-4.7,0.3
		c-1.7,0-3.4-0.1-5.2-0.3c-1.1-0.2-2.2-0.4-3.4-0.7c-1.2-0.3-2.4-0.7-3.6-1.1c-2.6-0.9-5.3-1.8-7.9-2.8c-2.3-1.1-4.3-2.5-6.4-4.1
		c-0.7-0.6-1.3-1.1-2-1.7c-0.7-0.6-1.3-1.3-1.8-2c-0.7-1-1.4-1.9-2.1-2.9c-0.7-1.2-1.4-2.4-2-3.7c-0.6-1.2-1.1-2.5-1.8-3.6
		c-0.8-1.5-1.7-3-2.6-4.5c0,0,0,0,0,0c0.4,2.3,0.9,4.5,1.2,6.8c0.3,1.9,0.5,3.9,1,5.8c0.6,2.2,1.4,4.4,2.3,6.5
		c0.9,2,2.3,3.8,3.7,5.5c1.8,2.3,4,4.3,6.5,5.8c2.1,1.3,4.5,2.2,6.8,3.1c2,0.8,4,1.5,6.1,2c1.3,0.3,2.6,0.5,3.9,0.7
		c1.2,0.1,2.3,0.3,3.5,0.3c4.7,0.1,9.3-0.5,13.8-1.8c4.4-1.2,8.5-3.2,12.3-5.5c3.8-2.3,7.5-4.6,11.2-7c3.6-2.4,7.4-4.7,10.9-7.3
		s7.1-5.1,10.8-7.5c3.7-2.4,7.4-4.9,11-7.4c3.5-2.4,6.9-4.9,10.3-7.4c3.6-2.7,7.2-5.4,11-8c4.2-2.8,8.5-5.2,12.9-7.7
		c4.4-2.5,8.8-4.9,13.4-7c1.8-0.7,3.6-1.2,5.5-1.6c2-0.4,4-0.8,6.1-1.2c3.1-0.4,6.3-0.6,9.4-0.7c3.5-0.1,6.9-0.1,10.4-0.1
		c3.6,0,7.2,0.1,10.7,0.2c3.3,0.1,6.6,0.5,9.8,0.9c1.9,0.3,3.8,0.5,5.6,0.9c1.9,0.4,3.8,1,5.6,1.6c1.2,0.5,2.3,1.1,3.4,1.7
		c1.3,0.7,2.5,1.5,3.7,2.4c0.7,0.5,1.3,1.1,1.9,1.7c0.7,0.7,1.3,1.4,1.9,2.1c1.1,1.5,2,3.1,2.8,4.8c0.3,0.8,0.5,1.7,0.7,2.6
		c0,0.6,0,1.1,0,1.7c-0.2,0.9-0.5,1.8-0.8,2.6c-0.4,0.7-0.7,1.5-1.2,2.1c-1.3,1.5-2.8,2.8-4.3,4c-0.8,0.6-1.6,1.2-2.5,1.7
		c-1,0.6-2,1.1-3.1,1.7c-2.1,1.2-4.3,2.3-6.5,3.4c0,0,0,0,0,0c0.6-0.1,1.2-0.2,1.8-0.3c0,0,0,0,0,0c2-0.3,4-0.5,6-0.7
		c2.1-0.3,4.3-0.6,6.3-1.4c1.1-0.5,2.2-0.9,3.3-1.5c2.4-1.1,4.4-2.9,6-5c1-1.4,1.9-2.9,2.5-4.6c1-3,0.8-6.2-0.2-9.2
		c-0.8-2.5-2.1-4.8-3.7-6.9c-1.6-2.2-3.7-4-5.9-5.6c-3.7-2.7-7.7-4.9-12.1-6.2c-1.9-0.6-3.9-1-6-1.3c-2.5-0.4-5-0.7-7.6-1
		c-3.2-0.3-6.5-0.4-9.8-0.4C438.6,135.6,437.4,135.6,436.2,135.6L436.2,135.6z M362.6,161c-0.2,0.2-0.4,0.3-0.7,0.5
		C362.2,161.3,362.4,161.2,362.6,161L362.6,161z"/>
	<path d="M428.4,168.1c-2,0-4,0-6,0c-4.4,0-8.9,0-13.2,0.3c-5,0.3-10,1-14.9,1.9c-2.2,0.4-4.4,0.8-6.6,1.3c-2.2,0.5-4.4,1-6.5,1.6
		c-2,0.5-4.1,1-6.1,1.7c-2.3,0.8-4.6,1.7-6.9,2.8c-1.9,0.9-3.9,1.9-5.8,2.8c-1.9,0.9-3.9,1.8-5.8,2.8c-1.8,1-3.6,2.1-5.4,3.1
		c-1.9,1.1-3.8,2.2-5.6,3.3c-2,1.2-3.9,2.3-5.9,3.5c-1.7,1-3.4,2.1-5.1,3.2c-3.6,2.3-7.3,4.6-11.1,6.6c-2.7,1.5-5.5,2.8-8.3,4
		c-2,0.8-4,1.5-6,2c-2.1,0.5-4.1,1-6.2,1.4c-4.1,0.9-8.2,1.7-12.4,2.4c-1.7,0.2-3.4,0.3-5.1,0.2c-1.8-0.1-3.5-0.2-5.2-0.4
		c-1.8-0.3-3.5-0.6-5.3-1c-2.9-0.7-5.8-1.6-8.5-2.7c-2.1-0.9-4.2-2-6.2-3.2c-0.6-0.9-1.1-1.7-1.7-2.6c-0.7-1.1-1.3-2.3-1.8-3.5
		c-0.5-1.2-1-2.4-1.5-3.7c-0.6-1.5-1.1-3-1.7-4.5c-0.6-1.4-1.4-2.8-2.2-4.1c-1-1.5-1.9-3.1-2.8-4.6c0,0,0,0,0,0
		c0.4,1.6,0.9,3.2,1.4,4.8c0.5,1.5,0.9,3,1.2,4.5c0.2,2,0.3,3.9,0.4,5.9c0,0.5,0.1,1,0.1,1.5c0,0,0,0,0,0c0,0,0,0,0,0
		c0.1,1.7,0.4,3.5,0.8,5.2c0.5,2.1,1.2,4.2,1.8,6.2c0.8,2.2,1.5,4.5,2.6,6.6c1.2,2.4,2.7,4.5,4.6,6.5c0.9,0.9,1.9,1.7,2.9,2.4
		c1,0.7,2,1.3,3.1,1.9c4.6,2.2,9.6,3.2,14.6,3.4c4.4,0.3,8.8,0.2,13.2-0.2c4.8-0.4,9.6-1.4,14.4-2.3c2.1-0.4,4.2-0.7,6.3-1.1
		c2.3-0.4,4.6-0.9,6.9-1.5c2.1-0.5,4.2-1,6.3-1.5c2.1-0.5,4.3-1,6.4-1.6c2.7-0.7,5.3-1.5,8-2.4c2.9-0.9,5.6-2,8.4-3.1
		c5.4-2.2,10.7-4.6,16.1-7c3-1.2,6-2.2,9.1-3.1c3.2-0.9,6.5-1.5,9.8-2c5.6-0.6,11.3-0.5,16.9,0.1c-0.4-0.1-0.8-0.1-1.2-0.2
		c2.1,0.3,4.3,0.5,6.4,0.9c2,0.4,4.1,0.9,6.1,1.5c2.1,0.6,4.3,1.3,6.4,2c2,0.7,4.1,1.3,6.2,1.9c2.2,0.7,4.4,1.3,6.7,1.8
		c2.5,0.5,5,0.9,7.5,1.2c2.2,0.3,4.5,0.5,6.7,0.7c2.1,0.2,4.1,0.4,6.2,0.6c4.3,0.4,8.7,0.4,13,0.1c2.5-0.2,5-0.7,7.4-1.5
		c2.9-0.9,5.8-2.3,7.9-4.5c0.9-0.9,1.6-1.9,2.3-3c0.7-1.1,1.2-2.3,1.7-3.5c0.4-1.2,0.8-2.3,1.1-3.5c0.3-1.4,0.5-2.8,0.6-4.2
		c0-0.5,0.1-1,0.1-1.6c0.1-1.3,0-2.6-0.2-3.9c-0.4-2.9-1.2-5.6-2.6-8.2c-1.1-2-2.5-3.8-4.1-5.4c-1.3-1.3-3-2.3-4.5-3.2
		c-3.9-2.3-8.4-3.1-12.8-3.7c-4.9-0.7-9.9-1.2-14.8-1.7c-5.4-0.6-10.8-0.7-16.2-0.7C431.8,168.1,430.1,168.1,428.4,168.1
		L428.4,168.1z M411.4,177.8c2.2-0.2,4.4-0.3,6.6-0.4c4.6-0.2,9.2-0.3,13.8-0.5c4.6-0.2,9.2-0.1,13.8,0.2c4.5,0.3,9,0.9,13.4,1.5
		c0.2,0,0.5,0.1,0.7,0.1c3.9,0.5,7.8,1.2,11.6,2.4c1.3,0.6,2.5,1.3,3.7,2.2c0.7,0.6,1.3,1.2,1.9,1.9c0.5,0.8,1,1.6,1.4,2.5
		c0.5,1.2,0.8,2.5,1,3.8c0,0.5,0.1,0.9,0.1,1.4c0,0.7,0,1.3-0.1,2c-0.1,0.9-0.3,1.8-0.6,2.7c-0.2,0.8-0.5,1.6-0.8,2.4
		c-0.4,0.7-0.8,1.4-1.2,2c-0.3,0.4-0.6,0.7-1,1c-0.6,0.3-1.2,0.6-1.8,0.9c-2.3,0.8-4.7,1.4-7.1,1.8c-4,0.4-8.1,0.3-12.1,0.2
		c-4-0.1-8-0.4-12-0.9c-2.1-0.3-4.3-0.7-6.4-1.2c-2.2-0.5-4.3-1.2-6.5-1.9c-4.1-1.4-8.2-2.7-12.4-3.6c-2.4-0.5-4.9-0.8-7.4-1.1
		c-2.1-0.2-4.3-0.4-6.4-0.5c-4.8-0.2-9.7,0-14.5,0.8c-3.2,0.5-6.3,1.2-9.5,2c-3.1,0.8-6.2,1.7-9.2,2.7c-3.3,1-6.5,2.5-9.6,3.9
		c-2.7,1.2-5.4,2.5-8.1,3.7c-3.8,1.5-7.7,2.9-11.7,4.1c-4,1.1-7.9,2.2-12,3c-4.2,0.9-8.4,1.7-12.6,2.5c-4.2,0.8-8.4,1.3-12.6,1.9
		c-1.8,0.2-3.6,0.5-5.3,0.6c-2.2,0.2-4.4,0.3-6.6,0.4c-0.8,0-1.5,0-2.3,0c2.1-0.2,4.2-0.5,6.3-0.8c2.2-0.4,4.4-0.8,6.6-1.3
		c2.1-0.4,4.3-0.8,6.4-1.2c8.8-1.7,16.8-5.9,24.4-10.6c3.6-2.2,7.2-4.7,10.8-6.8c2-1.1,4-2.2,6-3.3c1.9-1,3.7-2,5.6-3
		c1.9-1,3.8-2,5.7-3c1.9-1,4-1.8,6-2.7c2-0.8,4-1.7,5.9-2.6c1.7-0.8,3.5-1.7,5.2-2.5c1.9-0.7,3.9-1.3,5.9-1.8
		c2.3-0.6,4.5-1.2,6.8-1.7c4.5-1,9-1.8,13.5-2.5C407.3,178.2,409.3,178,411.4,177.8L411.4,177.8z M250.9,191.6c0,0.1,0,0.2,0,0.2
		C250.9,191.8,250.9,191.7,250.9,191.6L250.9,191.6z M268.6,216.9c1.9,1.1,3.8,2,5.8,2.7c2,0.8,4.1,1.5,6.3,1.9
		c0.7,0.1,1.3,0.3,2,0.4c-0.6-0.1-1.2-0.1-1.8-0.2c-1.3-0.2-2.6-0.4-3.9-0.7c-1.3-0.3-2.5-0.7-3.8-1.2c-1.3-0.6-2.5-1.3-3.7-2.1
		C269.2,217.4,268.9,217.1,268.6,216.9L268.6,216.9z M304.9,221.1c-0.1,0-0.2,0-0.4,0C304.6,221.1,304.8,221.1,304.9,221.1
		L304.9,221.1z"/>
	<path d="M277,75c-2.4,0.3-4.8,0.6-7.2,1c-4.3,0.8-8.4,2.1-12.3,3.8c-4.4,1.8-8.7,4.1-12.8,6.6c-1.9,1.2-3.7,2.5-5.6,3.7
		c-2.2,1.5-4.3,3-6.3,4.6c-1.8,1.4-3.5,2.9-5.1,4.5c-1.6,1.5-3,3.1-4.4,4.7c-2.9,3.2-5.7,6.7-8.4,10.1c-3.1,3.8-6,7.8-8.8,11.9
		c-5.2,7.7-9.4,16.1-12.7,24.8c-0.8,2.1-1.5,4.3-2.1,6.5c-0.7,2.2-1.4,4.5-2,6.7c-1.2,4.3-2.2,8.6-3,12.9c-0.9,4.8-1.4,9.8-1.7,14.7
		c-0.4,4.5-0.4,9.2,0,13.7c0.4,5.1,1.3,10.1,2.3,15c0.9,4.4,2.5,8.7,4.1,12.9c1,2.5,2,5.1,3.1,7.6c0.9,2.1,2,4.1,3.1,6.1
		c1,1.9,2,3.9,3.1,5.8c1.2,2,2.5,3.9,3.8,5.9c2.6,4.1,5.7,7.9,9.1,11.4c1.7,1.7,3.6,3.1,5.5,4.5c1.7,1.3,3.5,2.4,5.4,3.5
		c2.4,1.5,5,2.7,7.5,4c0,0,0,0,0,0c-1.3-1.8-2.7-3.6-4-5.4c0.1,0.1,0.2,0.2,0.2,0.3c-2.5-3.3-4.8-6.6-7-10c-1.1-1.8-2-3.7-3-5.6
		c-1-2-2-4.1-3-6.1c-0.9-1.9-1.8-3.8-2.8-5.7c-1.1-2-2.1-3.9-3.2-5.8c-2.1-3.7-4.2-7.5-5.9-11.5c-1.7-4.1-3.4-8.2-4.6-12.4
		c-0.7-2.2-1.1-4.5-1.6-6.7c-0.4-2.1-0.7-4.2-1-6.3c-0.2-2-0.4-4-0.4-6c0-2.3,0-4.6,0-6.9c0.1-4,0.5-7.9,1-11.8
		c0.4-2.5,0.8-5.1,1.4-7.5c0.7-3,1.6-6,2.4-9c0.8-2.7,1.7-5.5,2.5-8.2c0.8-2.7,1.8-5.3,2.9-8c0.9-2.1,1.8-4.2,2.9-6.3
		c1.1-2.2,2.3-4.3,3.6-6.4c2.7-4.5,5.6-8.9,8.8-13.1c2.9-3.7,5.9-7.3,8.9-10.9c3.2-3.7,6.6-7.1,10.4-10.2
		c5.1-3.8,10.5-7.3,16.1-10.3c5.8-3.1,11.5-6.2,17.5-8.8c3.6-1.5,7.3-2.9,11-4.1c1.9-0.6,3.9-1.2,5.8-1.5c2.3-0.4,4.5-0.8,6.8-1.3
		c0,0,0,0,0,0c-2.3-0.5-4.6-1-6.9-1.4c-2.1-0.4-4.3-0.5-6.5-0.5c-0.1,0-0.2,0-0.3,0C281.1,74.7,279,74.8,277,75L277,75z"/>
	<path d="M377.7,96.1c-3.4,0-6.6,0.3-9.9,0.9c0,0,0,0,0,0c1.4,0.2,2.8,0.5,4.3,0.8c1.4,0.3,2.8,0.7,4.2,1.1c2.6,0.7,5.1,1.7,7.6,2.7
		c3.2,1.4,6.4,2.9,9.5,4.4c3.4,1.7,6.7,3.7,10,5.6c3.4,1.9,6.8,3.9,10.1,5.9c3.2,2,6.4,4.1,9.4,6.4c-0.1,0-0.1-0.1-0.2-0.1
		c0.2,0.2,0.4,0.3,0.7,0.5c2.7,2.1,5.5,4.2,8.2,6.3c1.4,1.1,2.7,2.2,3.9,3.5c1.3,1.3,2.5,2.8,3.7,4.2c0.2,0.2,0.3,0.4,0.4,0.7
		c0,0.2,0.1,0.4,0.1,0.5c0,0.2,0,0.4,0,0.6c-0.1,0.3-0.1,0.5-0.2,0.8c0,0,0,0,0,0c-0.3,0.6-0.5,1.1-0.8,1.7c0,0,0,0,0,0
		c0.8-0.6,1.6-1.2,2.2-1.9c0.7-0.8,0.8-1.8,0.8-2.8c0-0.6-0.3-1.3-0.4-2c-0.1-0.5-0.3-0.9-0.4-1.4c-0.7-2.2-1.5-4.4-2.7-6.4
		c-1.1-1.8-2.3-3.5-3.6-5.2c-1.5-2-3-4.1-4.6-5.9c-3.3-3.6-7.1-6.8-11.2-9.3c-4.2-2.6-8.8-4.7-13.3-6.5c-5.9-2.4-12.2-3.8-18.5-4.6
		c-3-0.4-6.1-0.6-9.1-0.6C377.9,96.1,377.8,96.1,377.7,96.1L377.7,96.1z M439.8,139.2C439.8,139.3,439.8,139.3,439.8,139.2
		C439.8,139.3,439.8,139.3,439.8,139.2L439.8,139.2z"/>
	<path d="M448.9,216.4c-0.3,0.7-0.6,1.4-0.8,2.1c-0.8,1.8-1.7,3.6-2.6,5.4c-0.9,1.8-1.9,3.6-3.1,5.3c-2.6,3.2-5.4,6.1-8.3,9
		c-3.1,3-6.1,6.2-9.1,9.4c-1.5,1.6-3,3.3-4.6,4.9c-1.6,1.6-3.3,3.1-4.9,4.6c-1.5,1.5-3,3-4.5,4.5c-1.7,1.6-3.4,3.2-5.2,4.7
		c-1.5,1.3-3,2.5-4.5,3.7c-2.6,1.9-5.3,3.7-8,5.4c-2.8,1.8-5.7,3.5-8.6,5.1c-2.9,1.6-6,2.9-9,4.3c-3,1.3-5.9,2.6-8.9,3.9
		c-3.3,1.4-6.7,2.7-10.1,3.9c-3.6,1.2-7.1,2.2-10.8,2.9c-3.5,0.7-7.1,1.2-10.6,2c-3.6,0.7-7.1,1.6-10.7,2.1
		c-7.8,0.9-15.6,1.2-23.4,2c-4.1,0.4-8.2,1-12.4,1.2c-1.9,0.1-3.9-0.1-5.8-0.1c-1,0-2,0-3,0.1c-1.2,0.1-2.4,0.1-3.6,0.1
		c-0.2-0.1-0.3-0.1-0.5-0.1c-0.1-0.1-0.2-0.2-0.3-0.2c0,0,0,0,0,0c0.6,1,1.9,1.4,2.9,1.8c1,0.4,2,0.7,3,1.1c2.1,0.8,4.2,1.7,6.3,2.3
		c2,0.7,4.2,1,6.2,1.3c2.4,0.3,4.9,0.6,7.3,0.8c4.4,0.4,8.9,0.7,13.3,0.7c4.8,0,9.6-0.3,14.3-1.1c4.3-0.7,8.5-1.6,12.8-2.3
		c4.4-0.7,8.8-1.1,13.1-2.2c8.7-2.1,16.8-5.9,25-9.4c2.2-0.9,4.5-1.9,6.7-2.9c1.9-0.8,3.7-1.8,5.5-2.8c3.8-2.1,7.5-4.2,11.2-6.4
		c7.8-4.8,14.6-10.9,21-17.3c3.1-3.2,6.5-6.1,9.3-9.6c3-3.7,5.7-7.6,8.2-11.6c1.2-1.8,2.2-3.8,3.2-5.7c1.1-2.2,2.1-4.4,2.9-6.7
		c0.8-2.2,1.1-4.5,1.2-6.8c0.2-2.1,0.2-4.3,0.1-6.4C449.2,218.4,449,217.4,448.9,216.4C448.9,216.4,448.9,216.4,448.9,216.4
		C448.9,216.4,448.9,216.4,448.9,216.4L448.9,216.4z M448.1,218.4C448.1,218.4,448.1,218.4,448.1,218.4
		C448.1,218.4,448.1,218.4,448.1,218.4L448.1,218.4z M380.5,295.4c-0.2,0.1-0.3,0.1-0.5,0.2C380.1,295.5,380.3,295.4,380.5,295.4
		L380.5,295.4z M379.7,295.7c-0.2,0.1-0.4,0.2-0.7,0.3C379.3,295.9,379.5,295.8,379.7,295.7L379.7,295.7z"/>
	<path d="M222.8,91.1c-4.1,0.4-8.1,1.1-12.1,1.8c-4,0.7-8.1,1.5-12.1,2.5c-2,0.5-4.1,1-6.1,1.6c-1.9,0.6-3.8,1.3-5.7,1.9
		c-0.9,0.3-1.7,0.7-2.6,1c-1.1,0.4-2.3,0.9-3.3,1.5c-0.9,0.5-1.7,0.9-2.5,1.4c-0.9,0.6-1.8,1.2-2.7,1.8c-1.9,1.3-3.7,2.8-5.4,4.3
		c-1.5,1.3-3,2.6-4.4,4c-2.8,2.8-5.5,5.8-8.4,8.6c-2.3,2.3-4.5,4.5-6.8,6.7c-2.2,2.1-4.5,4.1-6.7,6.2c-2.3,2.2-4.5,4.4-6.9,6.4
		c-2.4,2-4.8,4-7.2,5.9c-1.4,1-2.8,2.1-4.3,3.1c-1.6,1.1-3.2,2.1-4.7,3.2c-1.5,1.1-3.1,2.2-4.7,3.2c-1.5,1-3.2,1.9-4.8,2.7
		c-3.4,1.8-6.9,3.4-10.4,4.9c-2.1,0.9-4.1,1.8-6.1,2.9c-1.9,1-3.5,2.4-5,3.9c-0.8,0.8-1.6,1.6-2.4,2.4c0,0,0,0,0,0
		c1.4-0.8,2.9-1.4,4.4-2.1c1.7-0.7,3.5-1.1,5.4-1.4c4.3-0.5,8.7-0.9,13-1.8c2-0.4,3.9-0.9,5.8-1.6c2.2-0.8,4.4-1.6,6.4-2.7
		c7.6-4.2,14.5-9.7,21.1-15.3c3-2.6,5.8-5.4,8.7-8.2c1.5-1.4,3-2.8,4.5-4.3c1.4-1.3,2.7-2.7,4-4.1c2.8-3,5.6-5.9,8.3-8.9
		c1.3-1.4,2.5-2.8,3.9-4.2c1.5-1.5,3-3,4.6-4.4c1.5-1.4,3-2.6,4.6-3.9c1-0.7,2-1.5,3.1-2.1c1.4-0.8,2.8-1.4,4.2-2.1
		c3.3-1.4,6.7-2.7,10.1-3.8c3.9-1.2,7.9-2.2,11.8-3.3c3.9-1,7.8-2.2,11.8-3.3c3.9-1,7.8-2,11.8-2.8c4.4-0.9,8.9-1.7,13.4-2.5
		c0,0,0,0,0,0c-3.5-0.1-6.9-0.2-10.4-0.2C232.8,90.4,227.8,90.6,222.8,91.1L222.8,91.1z"/>
	<path d="M101.4,217.2c-2.1,0.5-4.2,1.3-6.3,2.1c0,0,0,0,0,0c2.4,0,4.8,0,7.2,0.3c3.8,0.6,7.3,2,10.8,3.5c2.7,1.2,5.4,2.3,7.9,3.7
		c2.6,1.5,5.1,3,7.5,4.8c3.2,2.8,5.9,6.1,9,8.9c1.6,1.4,3.2,2.8,4.8,4.3c1.7,1.6,3.4,3.2,5,4.9c1.6,1.6,3.1,3.3,4.7,4.9
		c1.5,1.5,3.1,3,4.7,4.5c3.3,3.1,6.8,5.8,10.2,8.8c3.8,3.3,7.7,6.4,11.7,9.5c1.9,1.4,3.8,2.9,5.8,4.2c1.9,1.3,3.9,2.4,6,3.6
		c4,2.2,8.3,4,12.7,5.3c1,0.3,2.1,0.7,3.1,1c1.4,0.4,2.8,0.7,4.2,1c2.1,0.5,4.2,0.9,6.3,1.3c1.9,0.4,3.9,0.8,5.8,1.2c0,0,0,0,0,0
		c-5-2.4-9.8-5.2-14.5-8c-1.1-0.7-2.2-1.5-3.3-2.2c-1.2-0.8-2.3-1.6-3.5-2.4c-1.9-1.3-3.8-2.7-5.7-4.1c-3.4-2.7-6.9-5.4-10.2-8.2
		c-3.5-3-7-6.2-10.3-9.4c-3.2-3.1-6.6-6-9.7-9.1c-1.7-1.7-3.3-3.3-5-5c-1.6-1.6-3-3.2-4.6-4.8c-1.6-1.6-3.2-3.1-4.9-4.5
		c-1.7-1.4-3.5-2.7-5.1-4.2c-1.7-1.5-3.4-3.1-5.1-4.6c-1.8-1.7-3.7-3.3-5.7-4.6c-2.1-1.3-4.5-2.3-6.9-3.2c-2.1-0.8-4.2-1.5-6.4-2
		c-2.2-0.5-4.5-0.9-6.8-1.2c-2.2-0.3-4.6-0.7-6.8-0.7c-0.7,0-1.4,0-2.1,0c0,0-0.1,0-0.1,0C104.5,216.6,102.9,216.9,101.4,217.2
		L101.4,217.2z"/>
	<path d="M98.6,166c-0.7,0.3-1.3,0.6-1.9,1c-0.9,0.5-1.6,1.4-2.3,2.1c-1.3,1.6-2.2,3.4-3,5.3c-0.9,2.1-1.6,4.4-2,6.7
		c-0.3,1.9-0.6,3.9-0.7,5.8c-0.1,2,0.1,4,0.4,5.9c0.7,4.3,1.7,8.7,3.7,12.5c0.6,1,1.3,2,2,2.9c0.4,0.5,0.9,1.1,1.4,1.6
		c1.2,1.2,2.5,2.2,3.9,3.1c0,0,0,0,0,0c-0.4-0.8-0.7-1.6-1.1-2.3c-0.9-2.4-1.6-4.9-2-7.5c-0.3-2.8-0.3-5.6-0.4-8.4
		c-0.1-1.9-0.3-3.8-0.4-5.6c-0.1-2.2-0.3-4.5-0.4-6.7c-0.1-3.3,0-6.6,0.4-9.9c0.2-1.4,0.5-2.8,1-4.2C97.6,167.5,98.1,166.8,98.6,166
		C98.6,166,98.6,166,98.6,166C98.6,166,98.6,166,98.6,166L98.6,166z"/>
	<path d="M329.8,59.9c-0.7,0.1-1.5,0-2.2,0.1c-3.5,0.2-7,0.9-10.3,2.2c-4.8,1.8-9.1,4.7-12.8,8.3c-1,0.6-2,1.2-3,1.9
		c-2.8,1.9-5.3,4.2-7.5,6.7c-4.1,4.8-7.1,10.6-8.2,16.8c-1.1,6.1-1.1,12.6,0.2,18.7c0.7,3.2,2,6.3,3.4,9.2c1.5,3.2,3.7,6.1,5.9,8.8
		c1.8,2.3,4,4.2,6.2,6c2.8,2.2,5.7,4.1,8.9,5.6c6.1,2.9,12.7,4.5,19.4,4.4c3,0,6-0.4,9-0.9c3.4-0.6,6.5-1.9,9.6-3.3
		c5.8-2.6,11-6.7,15.1-11.6c2.1-2.5,3.9-5.1,5.4-7.9c1.6-2.9,2.8-6.1,3.7-9.3c0.8-2.8,1.2-5.6,1.5-8.5c0.3-2.8,0.2-5.5-0.2-8.2
		c-0.4-2.9-0.9-5.8-1.8-8.7c-1-3.3-2.5-6.5-4.3-9.4c-3.4-5.7-8.1-10.4-13.6-14.1c-2.5-1.7-5.2-2.9-8-4.1c-3.2-1.3-6.6-2-10-2.4
		c-1.6-0.2-3.1-0.3-4.7-0.4c-0.1,0-0.2,0-0.3,0C330.8,59.8,330.3,59.9,329.8,59.9L329.8,59.9z M328.3,70.4c0.8,0,1.6,0,2.4,0.1
		c0.9,0.1,1.8,0.1,2.7,0.2c2.9,0.5,5.7,1.3,8.5,2.4c2.9,1.3,5.6,2.9,8.2,4.8c2.2,1.8,4.1,3.7,5.9,5.9c1.7,2.4,3.2,4.9,4.4,7.5
		c0.5,1.2,0.9,2.4,1.3,3.6c0.4,1.5,0.8,3,1,4.5c0.3,3.2,0.3,6.4,0,9.6c-0.4,2.5-1.1,4.9-2,7.3c-1.2,2.6-2.6,5.1-4.2,7.4
		c-1.8,2.2-3.8,4.2-6,6c-2.2,1.6-4.6,3.1-7.1,4.2c-2.9,1.1-5.9,1.9-9,2.4c-3,0.3-5.9,0.3-8.9,0c-2.8-0.5-5.6-1.2-8.3-2.2
		c-2.5-1.1-4.8-2.5-7-4.1c-2.2-1.8-4.1-3.8-5.9-5.9c-1.7-2.3-3.1-4.8-4.3-7.4c-0.6-1.6-1.2-3.2-1.6-4.8c-0.4-1.6-0.8-3.3-1.1-5
		c-0.3-2.6-0.2-5.1,0.1-7.7c0.6-3.9,1.6-7.7,3-11.3c1.4-3.2,3.1-6.3,5.2-9.1c0.9-1.1,1.8-2.2,2.8-3.2c1.1-0.6,2.3-1.2,3.5-1.7
		c3.7-1.5,7.4-2.4,11.3-3C324.9,70.7,326.6,70.5,328.3,70.4L328.3,70.4z"/>
	<path d="M374.2,58.3c-4.9,0.7-9.7,2.7-13.8,5.3c-4.1,2.6-7.5,6.1-10.2,10.1c0,0,0,0,0,0c1.7-1,3.5-1.9,5.3-2.7
		c3.5-1.4,7.1-2.4,10.8-2.9c3.7-0.4,7.4-0.4,11.1,0c1.8,0.3,3.5,0.7,5.3,1.1c2.3,0.6,4.6,1.5,6.8,2.4c2.7,1.2,5.1,2.7,7.5,4.4
		c3,2.5,5.8,5.4,8.2,8.4c2,2.7,3.8,5.5,5.1,8.5c1.6,3.9,2.7,7.9,3.4,12.1c0.3,2.6,0.6,5.3,0.4,8c0,0,0,0,0,0c1.8-3,3.1-6.2,3.9-9.6
		c0.5-2,0.7-4,0.9-6.1c0.2-2.4-0.1-4.8-0.4-7.2c-0.7-4.7-2.2-9.1-4.5-13.2c-1.2-2.2-2.8-4.2-4.4-6.1c-2-2.3-4.4-4.1-6.8-5.9
		c-1.8-1.4-3.9-2.5-5.9-3.5c-2.5-1.2-5-2.2-7.7-2.8c-2.4-0.5-5-0.8-7.5-1c-0.3,0-0.6,0-1,0C378.5,57.7,376.4,58,374.2,58.3
		L374.2,58.3z"/>
	<path d="M281.5,101.9c-2.4,0.2-4.5,1.7-6.1,3.5c-1.8,2.1-2.9,4.7-3.7,7.3c-0.9,2.9-1.2,6.2-0.9,9.2c0.3,2.6,1,5.1,2.5,7.4
		c1.4,2.2,3.6,3.9,6,4.9c2.2,1,4.7,1.5,7.2,1.6c0,0,0,0,0,0c-1.8-1.4-3.5-3.2-5-5c-0.6-0.8-1.1-1.7-1.6-2.6c-0.4-1-0.7-2.1-0.9-3.1
		c-0.2-2.1,0-4.3,0.1-6.4c0.2-2.2,0.3-4.5,0.6-6.7c0.2-1.6,0.6-3.1,1.1-4.6c0.3-0.7,0.7-1.3,1.1-1.9c0.3-0.4,0.7-0.7,1-1
		c0.2-0.2,0.5-0.3,0.7-0.4c0.9-0.3,1.8-0.6,2.7-0.7c0,0,0,0,0,0c-1.4-0.8-2.7-1.4-4.3-1.4C282,101.9,281.8,101.9,281.5,101.9
		L281.5,101.9z M280,128.6c0,0.1,0,0.1,0.1,0.2C280,128.7,280,128.6,280,128.6L280,128.6z"/>
	<path d="M369.6,106c0.1,3.2,0,6.5-0.4,9.7c-0.6,3.7-1.7,7.3-3.1,10.9c-0.8,1.8-1.7,3.5-2.6,5.3c-1.4,2.8-3,5.5-4.8,8
		c-1.5,1.8-3.1,3.5-4.8,5c-1.1,1-2.2,1.9-3.3,2.8c-2.4,1.8-4.8,3.5-7.3,5.1c-3,1.9-5.9,3.8-9.1,5.2c-1.9,0.7-3.9,1.3-5.9,1.6
		c-4.7,0.5-9.5,0.4-14.2,0.3c0,0,0,0,0,0c6.6,3.8,13.9,7,21.7,6.2c2.9-0.3,5.7-1.1,8.4-2.1c2.5-0.9,4.9-1.9,7.2-3
		c4.6-2.3,8.8-5.2,12.5-8.7c1.8-1.7,3.3-3.7,4.7-5.8c0.8-1.2,1.4-2.6,2-4c0.8-1.9,1.5-3.8,2-5.8c1.2-4.3,1.8-8.7,1.8-13.2
		C374.3,117.4,372.4,111.4,369.6,106C369.6,106,369.6,106,369.6,106C369.6,106,369.6,106,369.6,106L369.6,106z"/>
	<path d="M407.4,279c0.4,0.4,0.8,0.8,1.2,1.3c0.2,0.3,0.4,0.6,0.5,0.9c0.2,0.5,0.3,1,0.4,1.6c0.2,2,0,4-0.2,6.1
		c-0.6,3.7-1.8,7.2-3.3,10.6c-1.4,3.1-3,6.1-5,8.8c-2.6,3.2-5.5,5.9-8.4,8.8c-1.4,1.4-2.8,2.8-4.4,4.1c0,0,0,0,0,0
		c2.7-0.4,5.2-1.1,7.8-1.8c2.7-0.8,5.2-1.8,7.7-3.1c3.4-1.8,6.2-4.6,8.4-7.7c0.9-1.3,1.6-2.8,2.2-4.3c0.4-1.2,0.8-2.3,1.1-3.5
		c0.6-2.7,0.9-5.5,0.7-8.3c-0.2-3.3-1.2-6.6-3-9.5c-0.7-1.1-1.5-2.1-2.6-2.9C409.7,279.3,408.5,279.1,407.4,279
		C407.4,279,407.4,279,407.4,279C407.4,279,407.4,279,407.4,279L407.4,279z M409.1,281.2c0,0.1,0,0.1,0.1,0.2
		C409.1,281.4,409.1,281.3,409.1,281.2L409.1,281.2z"/>
	<path d="M453.3,308.9c-0.2,1.4-0.5,2.9-0.8,4.3c-0.5,2.3-0.9,4.6-1.8,6.7c-0.3,0.7-0.7,1.3-1.1,1.9c-0.3,0.3-0.6,0.6-0.9,0.9
		c-0.3,0.2-0.6,0.4-1,0.5c-2.6,0.9-5.4,1.5-8.1,1.9c-4.4,0.5-8.8,0.4-13.2-0.1c-2-0.2-3.9-0.4-5.9-0.5c-2.4-0.2-4.7-0.1-7.1,0
		c-2.7,0.1-5.4,0.2-8.1-0.1c-2.5-0.4-5-1.1-7.3-2.1c-1.6-0.7-3.1-1.5-4.5-2.5c-0.3-0.2-0.6-0.5-0.8-0.8c-0.3-0.4-0.6-0.8-0.8-1.2
		c0,0,0,0,0,0c-0.1,2.1,0.8,3.8,1.9,5.5c1.3,2,3.1,3.7,4.9,5.2c3.7,3,8.1,4.6,12.8,5.5c1.9,0.4,3.9,0.7,5.8,1c2,0.4,4.1,0.8,6.1,1.2
		c1.9,0.3,3.9,0.6,5.9,0.7c2.9,0.2,5.9-0.2,8.8-0.8c2.8-0.6,5.5-1.7,8-2.9c2.5-1.2,4.9-2.6,6.9-4.5c0.9-0.9,1.6-2.2,2-3.4
		c0.5-1.4,0.7-2.8,0.8-4.2c0.1-1.9-0.3-3.9-0.8-5.8C454.4,313.2,453.9,311.1,453.3,308.9C453.3,308.9,453.3,308.9,453.3,308.9
		C453.3,308.9,453.3,308.9,453.3,308.9L453.3,308.9z"/>
	<path d="M424.5,257.3c1.6,2.8,3.3,5.6,5.1,8.3c1.2,1.7,2.3,3.5,3.4,5.3c1.2,2,2.4,3.9,3.6,5.9c0.6,1.1,1.2,2.2,1.8,3.3
		c0.4,0.8,0.8,1.7,1.2,2.5c0.1,0.3,0.3,0.7,0.4,1c0.5,1.3,1,2.5,1.5,3.8c0.3,0.8,0.7,1.7,1,2.5c1.6,4,3.2,7.9,4.9,11.8
		c1.2,3,2.1,6.1,2.6,9.3c0.5,3.8,0.6,7.6,0.7,11.4c0,0,0,0,0,0c0.9-2.1,1.9-4.1,2.7-6.2c0.5-1.2,1-2.4,1.4-3.6
		c1.1-3.2,1.7-6.5,1.8-9.9c0-2.1-0.3-4.1-0.7-6.2c-0.2-1.2-0.5-2.4-0.7-3.6c-0.5-2.2-1-4.3-1.7-6.5c-0.8-2.5-2-4.9-3.2-7.2
		c-1-1.9-2.2-3.7-3.5-5.5c-3.1-4-6.9-7.4-11.1-10.3C432.2,261.1,428.3,259.1,424.5,257.3C424.5,257.2,424.5,257.2,424.5,257.3
		C424.5,257.2,424.5,257.2,424.5,257.3L424.5,257.3z"/>
	<path d="M255,256.3C255,256.3,255,256.3,255,256.3c2.8,2,5.8,3.8,8.7,5.7c2.9,1.8,5.8,3.8,8.6,5.7c1.1,0.8,2.2,1.6,3.4,2.3
		c1.8,1.2,3.6,2.3,5.5,3.3c3.5,1.8,7.3,3.1,10.6,5.4c0.7,0.6,1.2,1.2,1.8,1.8c1.1,1.5,1.9,3,2.6,4.7c0.7,1.7,1.4,3.3,1.9,5.1
		c0,0,0,0,0,0c0.4-1.8,0.6-3.6,0.8-5.5c0.2-2.1,0.1-4.1-0.3-6.1c-0.5-2.3-1.5-4.3-2.9-6.1c-2-2.5-4.5-4.4-7.1-6.2
		c-1.4-1-2.8-1.9-4.3-2.8c-3.8-2.3-7.9-4.2-12.1-5.6c-4.3-1.3-8.7-1.8-13.2-1.8C257.7,256.2,256.4,256.2,255,256.3L255,256.3z
		 M296.3,285.2c0,0.1,0.1,0.2,0.1,0.3C296.3,285.4,296.3,285.3,296.3,285.2L296.3,285.2z"/>
	<path d="M263.8,266.2c-1.9,0.1-3.8,0.2-5.7,0.1c-2.1,0-4.2-0.1-6.3,0.1c-2.3,0.2-4.6,0.5-6.8,0.9c-2.1,0.3-4.2,0.7-6.3,1.2
		c-2.2,0.6-4.4,1.5-6.5,2.5c-1.8,0.9-3.7,1.9-5.4,3.1c-1,0.7-2,1.4-3,2.2c-1.2,0.9-2.3,1.9-3.5,2.8c-1.4,1.2-2.8,2.5-4.1,3.9
		c-1.7,1.8-3.2,3.7-4.6,5.7c-1.6,2.2-3.1,4.5-4.3,6.9c-1.1,2.3-2,4.6-2.6,7.1c-0.7,2.5-1,5-1.3,7.6c-0.3,2-0.4,4.1-0.6,6.2
		c-0.6,6.8-0.9,13.6-1.8,20.4c0,0,0,0,0,0c2-4.7,3.9-9.4,5.7-14.2c2.3-6.1,3.8-12.4,6.3-18.5c1.7-3.9,4-7.5,6.5-10.9
		c1.2-1.5,2.4-2.9,3.7-4.2c0.8-0.8,1.6-1.5,2.4-2.2c1-0.9,2.1-1.8,3.2-2.7c2.2-1.6,4.4-3.1,6.7-4.5c1.3-0.8,2.6-1.6,4-2.3
		c1.1-0.6,2.2-1.1,3.4-1.6c4.4-1.7,8.8-3.5,13.4-4.8c2.4-0.7,4.8-1.4,7.2-2.2c2.5-0.9,5.1-1.8,7.6-2.6c0,0,0,0,0,0
		c-1.4-0.1-2.9-0.1-4.3-0.1C265.8,266.1,264.8,266.1,263.8,266.2L263.8,266.2z"/>
	<path d="M295,281c-1.4,0.6-2.7,1.2-3.9,2c-1.2,0.7-2.4,1.7-3.5,2.6c-2.4,2.1-4.4,4.5-6.3,7c-1.8,2.4-2.9,5.3-3.8,8.1
		c-0.5,1.5-0.9,3-1.3,4.6c-0.6,2.4-0.9,4.9-1.2,7.4c-0.2,2.1-0.4,4.2-0.3,6.2c0.2,5.2,1.1,10.2,2.2,15.3c0.6,2.9,1.3,5.9,2.5,8.6
		c0.6,1.4,1.2,2.6,2.1,3.8c0.8,1.1,1.7,2,2.6,3c1,0.9,2.1,1.8,3.2,2.6c0,0,0,0,0,0c-0.5-0.9-1-1.9-1.5-2.9c-0.7-1.7-1.1-3.4-1.4-5.2
		c-0.2-2.9,0.1-5.8,0.3-8.6c0.1-1.7,0.3-3.3,0.4-5c0.2-3,0.2-6.1,0.5-9.1c0.2-3.3,0.5-6.7,0.6-10c0.2-3.5,0.5-7.1,0.9-10.6
		c0.3-2,0.7-3.9,1.3-5.8c0.7-2.1,1.5-4.2,2.4-6.2c0.6-1.4,1.2-2.8,2-4.1C293.4,283.4,294.2,282.2,295,281
		C295.1,281.1,295.1,281,295,281C295,281,295,281,295,281L295,281z"/>
	<path d="M197.7,331.4c1.4,1.3,2.9,2.7,4.4,3.9c1.6,1.2,3.2,2.4,4.8,3.6c3.2,2.2,6.5,4.2,10,6c1.6,0.8,3.3,1.6,4.9,2.3
		c1.9,0.8,3.7,1.6,5.6,2.2c1.9,0.7,3.9,1.3,5.8,1.9c1.8,0.5,3.6,0.9,5.4,1.2c7.9,1.5,15.9,2.3,23.9,3.1c3.6,0.3,7.1,0.6,10.7,0.6
		c3.8,0,7.5-0.3,11.2-0.7c2.6-0.3,5.2-0.6,7.8-0.9c0,0,0,0,0,0c-0.3,0-0.7-0.1-1-0.1c0,0,0,0,0,0c-3.5-0.5-7-1-10.5-1.7
		c-3.7-0.7-7.3-1.5-10.9-2.3c-2-0.5-3.9-1-5.8-1.5c-1.7-0.4-3.4-0.9-5.1-1.2c-3.7-0.8-7.5-1.4-11.3-1.9c-1.9-0.3-3.7-0.5-5.6-0.9
		c-2-0.4-4.1-0.8-6.1-1.2c-3.5-0.7-6.9-1.6-10.3-2.5c-2-0.5-4-1.1-6-1.6c-1.8-0.5-3.6-1.1-5.5-1.7c-3.5-1.1-6.9-2.5-10.3-3.8
		c-0.4-0.2-0.9-0.3-1.3-0.5C200.9,332.8,199.3,332.1,197.7,331.4C197.7,331.4,197.7,331.4,197.7,331.4
		C197.7,331.4,197.7,331.4,197.7,331.4L197.7,331.4z"/>
	<path d="M230.6,23.1c-3.5,0.2-7.1,0.5-10.5,1.3c0,0,0,0,0,0c1.8,0.1,3.5,0.3,5.3,0.5c0.8,0.1,1.7,0.2,2.5,0.3c-0.1,0-0.2,0-0.3,0
		c7.7,1.3,15.3,2.8,22.9,4.9c3.6,1,7.3,2,11,2.9c2.1,0.5,4.1,1,6.2,1.6c1.9,0.5,3.9,1.2,5.8,1.8c4,1.3,8,2.8,11.9,4.4
		c1.6,0.7,3.2,1.4,4.8,2c1,0.4,1.9,0.8,2.9,1.2c0.8,0.3,1.5,0.7,2.3,1c0,0-0.1,0-0.1-0.1c5.3,2.4,10.7,4.8,15.9,7.4
		c2.4,1.2,4.7,2.5,7,3.9c1.4,0.8,2.7,1.7,4,2.5c1.4,0.9,2.6,1.9,3.9,2.9c0,0,0,0,0,0c-0.7-1-1.4-2.1-2.2-3.1
		c-0.6-0.8-1.3-1.6-1.9-2.3c-1.3-1.5-2.7-2.8-4.1-4.2c-2.9-2.8-6.1-5.2-9.5-7.5c-3.2-2.1-6.5-4.2-9.9-5.9c-3.8-1.9-7.7-3.6-11.6-5.2
		c-3.6-1.4-7.3-2.8-11-3.9c-2-0.6-4.1-1.2-6.1-1.8c-1.9-0.5-3.8-0.9-5.6-1.3c-3.6-0.8-7.3-1.5-11-2c-2.1-0.3-4.3-0.6-6.4-0.8
		c-2.2-0.2-4.3-0.3-6.5-0.4c-1.6-0.1-3.3-0.1-4.9-0.1C233.8,23,232.2,23,230.6,23.1L230.6,23.1z M290.4,42.9
		c0.2,0.1,0.3,0.1,0.5,0.2C290.7,43,290.5,42.9,290.4,42.9L290.4,42.9z"/>
	<path d="M219.4,25.3C219.4,25.3,219.4,25.3,219.4,25.3c0.3,0,0.5-0.1,0.8-0.1c0,0,0,0,0,0c0.7-0.1,1.3,0,1.9,0
		c0.9,0.2,1.7,0.4,2.5,0.8c1.2,0.6,2.4,1.2,3.5,2c1.6,1.3,3,2.9,4.3,4.5c0.9,1.3,1.6,2.6,2.2,4c0.4,1,0.7,2,0.9,3
		c0.1,0.7,0.1,1.5,0,2.2c-0.1,0.5-0.2,1-0.4,1.4c-0.1,0.2-0.3,0.5-0.4,0.7c-0.7,0.8-1.4,1.5-2.2,2.2c-1.2,0.9-2.5,1.6-3.9,2.2
		c-1.9,0.7-3.7,1.4-5.7,1.9c-2.3,0.6-4.6,1.1-6.9,1.7c-4.2,0.9-8.4,1.9-12.6,2.5c-2.1,0.3-4.3,0.5-6.4,0.7c0,0,0,0,0,0
		c2.1,0.4,4.2,1,6.4,1.4c2.1,0.5,4.3,0.8,6.5,1c4.3,0.5,8.6,0.8,12.9,0.8c2.4,0,4.9-0.3,7.3-0.8c1-0.2,2-0.5,3-0.8
		c0.5-0.2,0.9-0.4,1.4-0.6c0.8-0.4,1.6-0.7,2.4-1.2c1-0.5,1.9-1.3,2.8-2c1.3-1,2.2-2.4,3.2-3.7c0.5-0.7,0.9-1.6,1.2-2.4
		c0.2-0.6,0.4-1.2,0.5-1.9c0.1-0.9,0.2-1.7,0.2-2.6c0-0.8-0.2-1.6-0.3-2.4c-0.2-1.5-0.9-2.9-1.5-4.2c-0.6-1.4-1.7-2.6-2.6-3.8
		c-1-1.3-2.2-2.4-3.5-3.4c-1.8-1.3-3.6-2.4-5.6-3.3c-2-0.9-4-1.3-6.1-1.4c-0.3,0-0.5,0-0.8,0C222.4,23.9,220.8,24.3,219.4,25.3
		L219.4,25.3z"/>
	<path d="M204.7,53.1c-2.4,0.3-4.8,1-7.2,1.6c0,0,0,0,0,0c2.3,0.2,4.7,0.3,7,0.5c2,0.3,4,0.8,6,1.6c1.3,0.6,2.4,1.3,3.5,2.1
		c0.9,0.7,1.7,1.4,2.4,2.2c0.4,0.6,0.8,1.3,1.2,2c0.2,0.5,0.3,1.1,0.4,1.6c0,0.6,0,1.2,0,1.8c-0.1,0.6-0.3,1.1-0.5,1.7
		c-0.2,0.5-0.5,0.9-0.8,1.3c-0.6,0.7-1.2,1.3-1.9,1.8c-0.9,0.6-1.7,1.1-2.7,1.5c-3.2,1.2-6.7,1.9-10,2.5c-2.8,0.5-5.7,0.9-8.5,1.5
		c-2.7,0.5-5.4,1-8.1,1.6c-2.6,0.5-5.2,1-7.9,1.4c0,0,0,0,0.1,0c-0.5,0.1-1,0.1-1.5,0.2c0,0,0,0,0,0c8.6,2,17.4,3,26.3,3.5
		c2.2,0.1,4.4,0.1,6.6-0.1c2.4-0.2,4.7-0.6,7-1.4c0.8-0.3,1.6-0.7,2.4-1.1c0.8-0.4,1.6-1,2.3-1.6c1.5-1.2,2.7-2.7,3.8-4.3
		c0.5-0.7,0.8-1.6,1.1-2.3c0.2-0.6,0.4-1.2,0.5-1.8c0.3-1.4,0.4-2.8,0.3-4.2c-0.1-1.4-0.4-2.7-0.9-4c-0.3-0.7-0.6-1.3-0.9-2
		c-0.4-0.7-1-1.4-1.5-2c-2.5-2.9-6.2-4.6-9.9-5.5c-1.5-0.4-3.1-0.5-4.7-0.5C207.3,52.8,205.9,52.9,204.7,53.1L204.7,53.1z"/>
	<path d="M178.5,79.7C178.4,79.7,178.4,79.8,178.5,79.7c1.4,0.6,2.7,1.1,4.1,1.6c0.4,0.2,0.9,0.4,1.3,0.5c1.8,0.8,3.6,1.6,5.2,2.7
		c1.7,1.1,3.5,2.1,5.2,3.3c2.1,1.7,3.8,3.9,5.6,6.1c0,0,0,0,0,0c0.1,0.2,0.3,0.4,0.4,0.5c0,0,0,0,0,0c0-1.9-0.2-3.8-0.6-5.7
		c-0.8-3.4-3.7-6.3-6.8-7.8c-1.7-0.8-3.3-1.4-5.2-1.7c-1.1-0.2-2.1-0.2-3.2-0.3c-0.2,0-0.3,0-0.5,0C182.1,79,180.2,79.3,178.5,79.7
		L178.5,79.7z"/>
	<path d="M235.7,53.6c-4,0.1-8,0.3-12,0.5c-2.1,0.1-4.2,0.2-6.3,0.2c0,0,0,0,0,0c4.1,0.6,8.1,0.9,12.2,1.3c1.7,0.1,3.4,0.3,5,0.4
		c0.7,0,1.5,0.1,2.2,0.1c1,0.1,2.1,0.2,3.1,0.3c0.5,0,1.1,0.1,1.6,0.1c1.6,0.2,3.2,0.5,4.8,0.7c0.4,0.1,0.8,0.1,1.3,0.2
		c1.1,0.2,2.2,0.4,3.3,0.6c1.5,0.3,3,0.6,4.4,0.9c3.2,0.7,6.4,1.6,9.4,2.9c1.7,0.8,3.5,1.6,5.1,2.5c1.7,1,3.5,2.1,5.1,3.3
		c1.3,1.1,2.5,2.2,3.7,3.4c0,0,0,0,0,0c-0.9-1.3-1.9-2.6-3-3.8c-0.8-0.9-1.7-1.7-2.6-2.4c-1-0.8-2-1.6-3.1-2.4
		c-2-1.5-4.2-2.7-6.5-3.7c-1.1-0.5-2.3-1-3.5-1.4c-0.9-0.3-1.9-0.7-2.8-0.9c-1.7-0.5-3.3-0.9-5-1.3c-1.9-0.4-3.7-0.8-5.6-1
		c-1.2-0.1-2.4-0.3-3.7-0.4c-0.6-0.1-1.2-0.1-1.7-0.1c-1.3,0-2.6-0.1-4-0.1C236.6,53.6,236.2,53.6,235.7,53.6L235.7,53.6z"/>
	<path d="M195,81.2C195,81.2,195,81.3,195,81.2c2.9,1.2,5.9,2.4,8.9,3.4c0.8,0.3,1.5,0.6,2.3,0.9c1.5,0.6,3.1,1.1,4.6,1.5
		c0.8,0.2,1.6,0.5,2.4,0.7c1.2,0.3,2.5,0.6,3.7,0.9c2.5,0.7,5.1,1.2,7.6,2.1c0,0,0,0,0,0c-2.1-1.6-4.3-2.9-6.6-4.1
		c-1-0.6-2.2-1-3.2-1.5c-0.9-0.4-1.8-0.8-2.8-1.2c-1.5-0.5-3-1-4.6-1.3c-0.8-0.2-1.7-0.4-2.5-0.6c-3.2-0.4-6.3-0.7-9.6-0.7
		C195.1,81.2,195.1,81.2,195,81.2L195,81.2z"/>
	<path d="M155.7,144.9c-0.3,0.8-0.6,1.5-0.4,2.4c0.2,0.9,0.6,1.8,1,2.6c0.5,1.2,1.1,2.3,1.8,3.3c1.7,2.6,3.6,5,5.6,7.2
		c2.1,2.3,4.5,4.3,7.2,6c3.2,2,6.9,3.2,10.7,3.7c1.8,0.2,3.5,0.3,5.3,0.2c1.8-0.1,3.5-0.5,5.2-0.9c0,0,0,0,0,0
		c-0.4-0.2-0.9-0.4-1.3-0.5c-2.4-1.1-4.8-2.2-7.1-3.5c-2.6-1.5-5.2-3.1-7.6-4.9c-2.3-1.6-4.5-3.2-6.8-4.8c-3.5-2.4-7-4.6-10.4-6.9
		c-0.4-0.3-0.8-0.6-1.2-0.9c-0.5-0.4-0.9-0.8-1.4-1.2c0,0,0.1,0.1,0.1,0.1c-0.2-0.2-0.4-0.5-0.5-0.8
		C155.9,145.6,155.8,145.2,155.7,144.9C155.8,144.9,155.8,144.9,155.7,144.9C155.7,144.9,155.7,144.9,155.7,144.9L155.7,144.9z
		 M156,145.9C156,145.9,156,145.9,156,145.9C156,145.9,156,145.9,156,145.9L156,145.9z M156,145.9C156,146,156,146,156,145.9
		C156,146,156,146,156,145.9L156,145.9z M157.6,147.7C157.6,147.7,157.6,147.7,157.6,147.7C157.6,147.7,157.6,147.7,157.6,147.7
		L157.6,147.7z"/>
	<path d="M180.4,201.5c-2.7,0-5.5,0.6-8,1.4c-1.3,0.4-2.5,0.9-3.7,1.4c-1.2,0.5-2.3,1.1-3.3,1.9c-1,0.7-1.9,1.5-2.7,2.4
		c-1,1.1-1.8,2.4-2.5,3.7c-1.8,3.2-2.9,6.8-5.2,9.8c-0.2,0.2-0.3,0.4-0.5,0.6c0,0,0,0,0,0c2-0.7,4-1.5,5.7-2.7
		c2.5-1.8,4.8-3.9,7.2-5.8c1.4-1,3-1.9,4.5-2.8c1.7-1,3.5-2,5.2-3c3.5-2.1,7-4.2,10.4-6.5c0,0,0,0,0,0c-2.2-0.3-4.3-0.5-6.5-0.5
		C180.7,201.4,180.5,201.5,180.4,201.5L180.4,201.5z"/>
	<path d="M159.1,149.4c-5.4,4.7-10,10.6-12.7,17.3c-0.9,2.2-1.6,4.5-2.1,6.9c-0.6,2.6-0.8,5.4-1,8c-0.1,2.4-0.1,4.7,0.1,7.1
		c0.2,2.9,0.8,5.7,1.8,8.4c0.6,1.7,1.4,3.3,2.1,4.9c1.9,4.1,4.5,8,6.8,11.8c1.1,1.8,2.1,3.6,3.4,5.2c0,0,0,0,0,0
		c-0.1-0.7-0.2-1.3-0.3-2c-0.3-2.9-0.6-5.8-1-8.7c-0.4-3.1-1-6.2-1.5-9.3c-0.1-0.7-0.2-1.4-0.3-2.1c-0.3-2.2-0.4-4.5-0.4-6.7
		c0-1.3,0.1-2.5,0.1-3.8c0.1-1.8,0.1-3.6,0.1-5.4c0-1.9,0-3.7,0-5.6c0-1.8,0.2-3.5,0.3-5.3c0,0.2-0.1,0.5-0.1,0.7
		c0.1-0.9,0.2-1.7,0.3-2.6c0.4-2,0.7-4,1.1-6C156.9,157.9,157.9,153.7,159.1,149.4C159.1,149.4,159.1,149.4,159.1,149.4
		C159.1,149.4,159.1,149.4,159.1,149.4L159.1,149.4z M157.3,217C157.3,217.1,157.3,217.1,157.3,217
		C157.3,217.1,157.3,217.1,157.3,217L157.3,217z M157.3,217.1C157.3,217.1,157.3,217.1,157.3,217.1
		C157.3,217.1,157.3,217.1,157.3,217.1L157.3,217.1z"/>
	<path d="M164.6,172.3c1,1.3,2.3,2.3,3.7,3.1c1.9,1,4,1.6,6,2c4.4,0.9,8.9-0.2,13-1.7c0,0,0,0,0,0c-3-0.6-6-1-8.9-1.3
		c-1.7-0.2-3.3-0.4-5-0.5c-1.7-0.1-3.4-0.2-5.1-0.3c-1.1-0.2-2-0.4-3-0.9C165.1,172.6,164.9,172.4,164.6,172.3
		C164.6,172.3,164.6,172.3,164.6,172.3C164.6,172.3,164.6,172.3,164.6,172.3L164.6,172.3z M168.2,173.5c0.1,0,0.1,0,0.2,0
		C168.3,173.5,168.2,173.5,168.2,173.5L168.2,173.5z"/>
	<path d="M165.1,181c2.6,2,5.6,3.3,8.8,4c1.4,0.3,2.8,0.4,4.3,0.3c2.2-0.1,4.4-0.5,6.5-1.1c0,0,0,0,0,0c-3.3-1.4-6.8-2.4-10.3-2.9
		C171.4,180.9,168.2,181.2,165.1,181C165.1,180.9,165.1,181,165.1,181L165.1,181z"/>
	<path d="M176.1,191c-3.2,0.4-6,2-8.5,4c-2.3,1.8-4.2,4.1-6.1,6.3c0,0,0,0,0,0c2.4-0.6,4.7-1.2,7-2c5.8-1.9,11.3-4.7,16.4-8.2
		c0,0,0,0,0,0c-1.2-0.2-2.5-0.4-3.8-0.5c-0.3,0-0.6,0-1,0C178.8,190.7,177.4,190.8,176.1,191L176.1,191z"/>
	<path d="M146.1,99.8c0.4,1.7,0.8,3.4,1.6,5c1,2.1,2.5,4,4.2,5.6c2.8,2.8,6.5,4.5,10.3,5.6c1.6,0.5,3.3,0.8,5,0.8
		c1.6,0,3.1-0.3,4.6-0.5c0,0,0,0,0,0c0,0,0,0,0,0c0,0,0,0,0,0c0,0,0,0,0,0c0.1,0,0.2,0,0.2,0c0,0,0,0,0,0c-2.5-1.6-5.1-2.9-7.5-4.7
		c-2.5-1.9-5.1-3.7-7.8-5.2c-1.9-1.1-3.8-2.1-5.6-3.2C149.4,102.1,147.8,100.8,146.1,99.8C146.1,99.7,146.1,99.7,146.1,99.8
		C146.1,99.7,146.1,99.8,146.1,99.8L146.1,99.8z M171.8,116.3C171.8,116.3,171.8,116.3,171.8,116.3
		C171.8,116.3,171.8,116.3,171.8,116.3C171.8,116.3,171.8,116.3,171.8,116.3L171.8,116.3z"/>
	<path d="M148.5,98.4c-1.6,1.7-3.1,3.4-4.7,5c-0.8,0.8-1.5,1.7-2.4,2.5c-0.9,0.9-1.8,1.8-2.7,2.7c-1.5,1.5-3,2.9-4.5,4.4
		c-0.8,0.8-1.7,1.5-2.5,2.3c-0.8,0.7-1.7,1.3-2.5,2c-1.1,0.9-2.3,1.8-3.4,2.7c-0.3,0.2-0.5,0.4-0.8,0.6c-1.3,1-2.7,1.9-4.1,2.8
		c-1.4,0.9-2.8,1.6-4.3,2.3c-1.4,0.6-2.8,1.2-4.3,1.6c-2,0.7-4,1.4-6.1,1.8c-0.2,0-0.4,0-0.6,0c0,0,0,0,0,0c1.3,0.6,2.7,0.8,4.1,1
		c1.1,0.2,2.2,0.3,3.3,0.4c2.3,0.1,4.7,0.1,7-0.4c1-0.2,2.1-0.5,3.1-0.8c1.4-0.5,2.7-1.1,4-1.7c2.1-1,4-2.5,5.8-3.9
		c1-0.7,1.8-1.5,2.7-2.4c0.9-0.9,1.8-1.9,2.6-2.9c1.6-1.9,3-4.1,4.3-6.2c2.5-3.9,4.2-8.3,5.6-12.7C148.3,99.2,148.4,98.8,148.5,98.4
		C148.6,98.4,148.5,98.4,148.5,98.4C148.5,98.4,148.5,98.4,148.5,98.4L148.5,98.4z"/>
	<path d="M111,128.8C111,128.8,111,128.8,111,128.8c1.3,0.8,2.6,1.5,4,2.2c0.9,0.5,1.9,0.9,2.9,1.4c2.3,1.2,4.6,2.3,7,3.3
		c1.7,0.8,3.4,1.4,5.1,2.1c1.5,0.5,3,1.1,4.5,1.7c2.9,1.1,5.7,2.1,8.7,3.1c0,0,0,0,0,0c-0.8-1.1-1.5-2.2-2.4-3.3
		c-0.9-1.1-1.8-2.2-2.9-3.2c-1-1-2.2-2-3.4-2.9c-1.2-0.9-2.5-1.8-3.9-2.4c-1.6-0.7-3.3-1.3-5-1.8c-1.6-0.4-3.2-0.6-4.8-0.8
		c-1-0.1-2-0.2-3-0.2C115.6,128.1,113.3,128.3,111,128.8L111,128.8z"/>
	<path d="M145.1,109c2.2,1.8,4.6,3.4,7.3,4.5c2.3,1,4.7,1.6,7.1,2.6c0,0,0,0,0,0c-1.8-1.7-3.8-3.2-6-4.3
		C150.8,110.4,148,109.6,145.1,109C145.1,109,145.1,109,145.1,109C145.1,109,145.1,109,145.1,109L145.1,109z"/>
	<path d="M143.9,114.2c1.7,1.6,3.5,3.1,5.5,4.2c1.9,1.1,4,1.9,6.1,2.6c0,0,0,0,0,0c-1.5-1.5-3.1-2.9-4.9-4.1
		C148.5,115.7,146.2,114.9,143.9,114.2C143.9,114.2,143.9,114.2,143.9,114.2C143.9,114.2,143.9,114.2,143.9,114.2L143.9,114.2z"/>
	<path d="M139.9,119c2.3,1.9,4.7,3.7,7.5,4.9c2.4,1.1,5.1,1.8,7.7,2.4c0,0,0,0,0,0c-2-1.6-3.9-3.1-6.1-4.4
		C146.3,120.2,143.1,119.4,139.9,119C139.9,118.9,139.9,119,139.9,119L139.9,119z"/>
	<path d="M135.5,123.6c1.6,1.4,3.4,2.8,5.3,3.9c1.8,1,3.7,1.7,5.6,2.4c0,0,0,0,0,0c-1.4-1.5-3-2.8-4.7-3.9
		C139.8,124.7,137.6,124.1,135.5,123.6C135.5,123.6,135.5,123.6,135.5,123.6C135.5,123.6,135.5,123.6,135.5,123.6L135.5,123.6z"/>
	<path d="M130.5,125.9c2.3,2.1,4.9,4,7.7,5.4c2.5,1.2,5.1,2.1,7.7,3c0,0,0,0,0,0c-1.9-2-4.1-3.7-6.4-5.2c-1-0.6-2.1-1.1-3.2-1.5
		C134.4,126.9,132.4,126.3,130.5,125.9C130.5,125.9,130.5,125.9,130.5,125.9C130.5,125.9,130.5,125.9,130.5,125.9L130.5,125.9z"/>
	<path d="M156.2,253c-0.3,0.1-0.5,0.2-0.8,0.4c0,0,0,0,0.1,0c-0.5,0.2-1,0.3-1.6,0.4c-1.2,0.1-2.4,0.1-3.6,0.1
		c-1.7-0.1-3.5-0.2-5.2-0.3c-2.2-0.1-4.3-0.1-6.5-0.1c-2.2,0-4.5,0.1-6.7,0.2c0,0,0,0,0,0c2.6,1.1,5.2,2.1,8,2.8
		c1.2,0.3,2.5,0.5,3.8,0.7c1.9,0.2,3.9,0,5.7-0.3c1.6-0.3,3.1-0.8,4.6-1.6C154.9,254.7,155.7,254,156.2,253
		C156.3,253.1,156.2,253,156.2,253C156.2,253,156.2,253,156.2,253L156.2,253z"/>
	<path d="M130.6,251.9c1.4,3.4,2.9,6.7,4.6,9.9c0.4,0.7,0.8,1.4,1.3,2.1c0.4,0.6,0.8,1.2,1.2,1.8c1.2,1.6,2.4,3.1,3.6,4.6
		c0.3,0.4,0.7,0.9,1,1.3c1.4,2.1,2.8,4.2,4.2,6.4c1.4,2.2,2.4,4.7,3.5,7c1.1,2.3,2.7,4.5,4.3,6.5c1.7,2.1,3.6,4.1,5.8,5.8
		c0,0,0,0,0,0c-0.4-0.7-0.8-1.5-1.1-2.3c0,0,0,0.1,0.1,0.1c-1.6-3.8-2.9-7.7-4-11.6c-0.6-2.1-0.9-4.1-1.6-6.2c-0.7-2.1-1.8-4.1-3-6
		c-1.2-2-2.7-3.7-4.4-5.4c-1.5-1.5-3.1-2.8-4.7-4.1c-0.9-0.7-1.7-1.5-2.5-2.3c-0.8-0.7-1.5-1.5-2.3-2.2c-1.6-1.5-3.3-3.1-5-4.5
		C131.2,252.4,130.9,252.1,130.6,251.9C130.6,251.8,130.6,251.8,130.6,251.9C130.6,251.8,130.6,251.8,130.6,251.9L130.6,251.9z"/>
	<path d="M182.5,274.5c-1.9,2-3.7,4.2-5.7,6.2c-1.8,1.8-3.7,3.6-5.7,5.1c-2.8,2.1-5.8,3.6-8.9,5.1c-1.5,0.7-2.9,1.4-4.4,2
		c0,0,0,0,0,0c-0.3,0.1-0.6,0.3-1,0.4c0,0,0,0,0,0c1.7,0.3,3.4,0.5,5.1,0.6c2.7,0.2,5.5-0.1,8.1-0.8c1.8-0.5,3.5-1.3,4.9-2.5
		c1.7-1.3,3-2.9,4.2-4.7C181.4,282.7,182.1,278.6,182.5,274.5C182.5,274.6,182.5,274.5,182.5,274.5
		C182.5,274.5,182.5,274.5,182.5,274.5L182.5,274.5z M157.7,293.1C157.7,293.1,157.7,293.1,157.7,293.1
		C157.7,293.1,157.7,293.1,157.7,293.1L157.7,293.1z"/>
	<path d="M153.1,263.2c-2.4,0.7-4.7,1.8-6.9,2.9c0,0,0,0,0,0c2.5-0.1,4.9-0.3,7.3-0.9c2.7-0.6,5.3-1.8,7.7-3.1c0,0,0,0,0,0
		C158.5,262.2,155.7,262.5,153.1,263.2L153.1,263.2z"/>
	<path d="M162.2,269.8C162.2,269.8,162.2,269.8,162.2,269.8C162.2,269.8,162.2,269.8,162.2,269.8c-0.1,0-0.1,0-0.2,0.1c0,0,0,0,0,0
		c-1.5,0.7-3,1.5-4.4,2.3c0,0,0,0,0,0c1.9,0.1,3.9,0,5.8-0.5c2.3-0.6,4.3-1.9,6.1-3.4c0,0,0,0,0,0
		C167,268.4,164.5,268.8,162.2,269.8L162.2,269.8z M162,269.9C162,269.9,162,269.9,162,269.9C162,269.9,162,269.9,162,269.9
		L162,269.9z"/>
	<path d="M173.7,272.9c-2.9,1-5.7,2.1-8.4,3.6c-2.4,1.4-4.5,3-6.8,4.5c0,0,0,0,0,0c2.6-0.7,5.2-1.7,7.6-2.9c1.1-0.5,2.1-1.2,3.1-1.9
		C170.8,275.2,172.3,274.1,173.7,272.9C173.7,272.9,173.7,272.9,173.7,272.9C173.7,272.9,173.7,272.9,173.7,272.9L173.7,272.9z"/>
	<path d="M59.2,123.8c-2.6,0.1-5.3,0.4-7.9,0.8c-1.1,0.2-2.2,0.4-3.2,0.7c-1.4,0.3-2.7,0.8-4,1.4c-1.1,0.5-2,1.3-2.9,2.1
		c0,0,0,0,0,0c1.1-0.4,2.2-0.7,3.4-0.9c-0.1,0-0.1,0-0.2,0c2.2-0.2,4.3,0.1,6.5,0.4c2.7,0.5,5.4,1,8.1,1.7c3.9,1,7.8,2.1,11.5,3.6
		c2.4,1.1,4.6,2.3,6.8,3.7c1.2,0.8,2.3,1.6,3.5,2.3c1.4,1,2.8,2,4.2,3.1c5.6,4.5,10.9,9.4,15.5,14.9c1.7,2.3,3.3,4.7,4.7,7.2
		c0,0,0,0,0,0c-0.1-4.5-1-9-2.7-13.2c-0.9-2-1.8-4.1-2.9-6c-1.4-2.3-2.9-4.4-4.6-6.6c-3-3.9-7-7-11.1-9.8c-2.4-1.6-5.3-2.8-8-3.7
		c-1.5-0.5-3-0.8-4.5-1.1c-1.6-0.3-3.2-0.5-4.7-0.6c-1.9-0.1-3.7-0.2-5.6-0.2C60.4,123.8,59.8,123.8,59.2,123.8L59.2,123.8z"/>
	<path d="M46.1,124.9c-1.5,4.6-2.6,9.2-3,13.9c-0.4,4.8-0.4,9.5,0.2,14.2c0.3,2.5,0.7,5,1.5,7.3c0.8,2.6,1.8,5.1,3.1,7.4
		c1.1,2,2.4,4,3.7,5.9c2.2,3.2,4.5,6.3,7.4,8.9c2.6,2.3,5.7,4.1,8.8,5.4c-0.1,0-0.1-0.1-0.2-0.1c1.6,0.7,3.2,1.3,4.9,1.7
		c0,0,0,0,0,0c-0.2-0.2-0.5-0.3-0.7-0.5c0,0,0,0,0,0c-2.3-1.8-4.2-3.9-6-6.2c-2-2.6-3.5-5.5-4.8-8.6c-0.7-1.8-1.4-3.6-2.1-5.4
		c-0.8-2-1.8-4.1-2.5-6.2c-0.7-2-1.5-4-2.1-6.1c-0.7-2.3-1.3-4.5-1.9-6.8c-1.1-4.1-2-8.2-3.1-12.3C48,133.6,47.1,129.2,46.1,124.9
		C46.1,124.9,46.1,124.9,46.1,124.9C46.1,124.9,46.1,124.9,46.1,124.9L46.1,124.9z"/>
	<path d="M109.1,217.5c-1,2.7-2,5.4-3.1,8c-1.7,3.9-3.5,7.7-6,11.1c-3.3,4.1-7.5,7.4-11.5,10.8c-1.4,1.2-2.8,2.6-4.2,3.8
		c-0.8,0.7-1.6,1.4-2.4,2.1c-0.6,0.6-1.3,1.1-2,1.6c-0.7,0.5-1.3,1-2,1.5c-0.8,0.6-1.6,1-2.4,1.5c-0.7,0.5-1.6,0.9-2.3,1.3
		c-0.8,0.5-1.8,0.8-2.6,1.3c-1,0.4-2,0.8-3,1.3c-1.8,0.7-3.6,1.4-5.4,2c-0.9,0.3-1.7,0.6-2.6,0.9c-1.2,0.4-2.4,0.8-3.6,1
		c0,0,0,0,0,0c-0.5,0.1-0.9,0.1-1.4,0c0,0,0,0,0,0c1.4,0.4,2.9,0.3,4.3,0.3c0.9-0.1,1.9-0.1,2.8-0.2c2-0.2,3.9-0.5,5.9-0.8
		c3.7-0.6,7.3-1.4,10.8-2.9c1.7-0.7,3.5-1.5,5.1-2.5c1.7-1,3.3-2,4.9-3.2c3.2-2.4,6.3-4.8,9.2-7.6c0.6-0.6,1.3-1.2,1.9-1.9
		c1.3-1.3,2.4-2.7,3.5-4.1c2.4-3.1,3.9-6.9,4.9-10.7C109,227.4,109.2,222.4,109.1,217.5C109.1,217.5,109.1,217.5,109.1,217.5
		C109.1,217.5,109.1,217.5,109.1,217.5L109.1,217.5z"/>
	<path d="M59,188.1c-2.1,1-3.8,2.7-5.4,4.4c-1.3,1.4-2.5,3-3.6,4.5c-1.3,1.9-2.6,3.9-3.7,5.9c-0.7,1.2-1.2,2.5-1.8,3.8
		c-0.4,1-0.8,1.9-1.1,2.9c-0.4,1.2-0.7,2.3-1,3.5c-0.5,1.8-0.8,3.6-1.1,5.4c-0.4,2.4-0.7,4.8-0.9,7.2c-0.4,4.1,0.2,8.2,0.9,12.2
		c0.3,2,0.8,4,1.3,6c1,4.3,2.4,8.6,4.2,12.7c1,2.2,2.2,4.4,3.7,6.3c1.5,1.9,3.2,3.4,5.2,4.8c1.6,1.2,3.3,2.3,5,3.4c0,0,0,0,0,0
		c-1.5-1.7-2.9-3.4-4.3-5.1c-1.2-1.6-2.1-3.2-2.9-5c-1.1-2.9-1.7-5.9-2.2-8.9c-0.2-1.4-0.4-2.9-0.5-4.3c0,0,0,0.1,0,0.1
		c-0.3-3.2-0.7-6.5-1-9.7c-0.2-2.5-0.6-4.9-0.8-7.4c-0.2-2.7,0.1-5.3,0.4-7.9c0.4-2.6,0.8-5.3,1.4-7.9c0.6-2.7,1.1-5.3,1.9-7.9
		c0.6-1.8,1.3-3.6,2-5.3c0.4-0.9,0.8-1.8,1.2-2.7c1-2.3,2.3-4.5,3.8-6.6c0.8-1,1.7-1.8,2.6-2.6c1.6-1.2,3.4-2.2,5.2-3.1
		c1-0.5,2-0.9,3.1-1.3c0,0,0,0,0,0C66.5,185.7,62.6,186.3,59,188.1L59,188.1z"/>
	<path d="M89.5,198.6c-0.1,0.1-0.2,0.1-0.3,0.2c-1.4,0.6-2.9,0.8-4.4,1c-3.5,0.4-7,1-10.4,2c-3.4,1-6.7,2.3-9.8,3.9c0,0,0,0,0,0
		c4.9,0.9,10.2,1.2,15-0.4c2.3-0.8,4.4-1.9,6.4-3.2C87.3,201.1,88.6,200,89.5,198.6C89.5,198.6,89.5,198.6,89.5,198.6
		C89.5,198.6,89.5,198.6,89.5,198.6L89.5,198.6z"/>
	<path d="M97.7,211.4c-0.2,0.2-0.4,0.4-0.7,0.5c0,0,0,0,0,0c-1.6,1.2-3.3,2.2-5.1,3c-2.1,0.8-4.4,1.3-6.6,1.8
		c-2.4,0.5-4.7,1.1-7.1,1.8c-2.3,0.6-4.6,1.5-6.9,2.3c-2.4,0.9-4.8,1.5-7.3,1.9c-0.6,0.1-1.2,0.1-1.8,0.2c-0.9,0.1-1.7-0.1-2.6-0.2
		c0,0,0,0,0,0c-0.5-0.1-0.9-0.1-1.4-0.2c0,0,0,0,0,0c5.5,5.9,14.8,4.8,21.8,2.7c2.1-0.6,4.1-1.6,6-2.5c2-1,4-2.1,5.7-3.6
		c1.4-1.2,2.6-2.5,3.7-4C96.5,214,97.1,212.7,97.7,211.4C97.7,211.4,97.7,211.3,97.7,211.4C97.7,211.3,97.7,211.3,97.7,211.4
		L97.7,211.4z M59.8,222.8C59.8,222.8,59.9,222.8,59.8,222.8C59.9,222.8,59.8,222.8,59.8,222.8L59.8,222.8z"/>
	<path d="M99.3,218.4c-1.6,1.8-3.4,3.4-5.2,5c-2.5,2-4.9,4.1-7.4,6c-2.7,2-5.5,3.8-8.4,5.6c-3.1,1.9-6.2,3.6-9.5,5
		c-2.9,1.2-6,2-9,2.8c0,0,0,0,0,0c2.8,0.4,5.7,0.8,8.6,0.6c3.2-0.2,6.3-1.1,9.3-2.3c2.9-1.1,5.7-2.6,8.1-4.6
		c2.3-1.8,4.4-3.9,6.2-6.3C94.7,226.6,97.6,222.8,99.3,218.4C99.3,218.4,99.3,218.4,99.3,218.4C99.3,218.4,99.3,218.4,99.3,218.4
		L99.3,218.4z"/>
	<path d="M65.9,143.3c-1.9,0.1-3.8,0.2-5.8,0.4c0,0,0,0,0,0c2.6,0.7,5.1,1.6,7.6,2.6c2.7,1.2,5.3,2.8,7.8,4.5
		c2.7,1.8,5.3,3.7,7.9,5.6c1.9,1.5,3.7,3,5.5,4.7c1.8,1.8,3.6,3.5,5.4,5.2c0,0,0,0,0,0c-0.6-2.2-1.2-4.3-2-6.4
		c-0.9-2.3-2.1-4.3-3.6-6.2c-1.4-1.8-3-3.5-4.9-4.9c-2.1-1.6-4.3-2.7-6.7-3.7c-3.1-1.2-6.4-1.8-9.7-1.8
		C67,143.3,66.5,143.3,65.9,143.3L65.9,143.3z M83,156.1c0.1,0.1,0.2,0.1,0.2,0.2C83.2,156.2,83.1,156.1,83,156.1L83,156.1z"/>
	<path d="M66.9,158.3c-1.5,0-3,0.2-4.4,0.4c0,0,0,0,0,0c0.7,0.2,1.4,0.5,2,0.7c2.2,0.9,4.3,2,6.4,2.9c2.4,1.1,4.8,2.1,7.2,3.1
		c2.4,1,4.9,1.9,7.3,2.9c2.8,1.2,5.4,2.7,7.9,4.5c0,0,0,0,0,0c-0.6-1.6-1.3-3.1-2.2-4.6c-0.9-1.6-2.2-2.9-3.6-4.1
		c-1.5-1.3-3.2-2.3-4.9-3.2c-2.1-1.1-4.5-1.6-6.8-2c-2.4-0.4-4.9-0.5-7.3-0.5C68,158.3,67.5,158.3,66.9,158.3L66.9,158.3z"/>
	<path d="M67,168.9c-1.4,0-2.8,0.1-4.2,0.2c0,0,0,0,0,0c1,0.5,2,1.1,3,1.7c2,1.2,4,2.4,6.1,3.5c1.4,0.8,2.7,1.6,4.1,2.4
		c1.6,0.9,3.3,1.7,4.9,2.5c2.8,1.3,5.6,2.5,8.5,3.6c0,0,0,0,0,0c-1.5-2.8-3.3-5.3-5.4-7.6c-1.2-1.3-2.7-2.4-4.2-3.4
		c-1.5-1-3.3-1.7-5-2.2c-2.4-0.7-4.9-0.8-7.3-0.8C67.2,168.9,67.1,168.9,67,168.9L67,168.9z"/>
	<path d="M371.1,82.4c-0.6,0.5-1.1,1-1.4,1.6c-0.4,0.7-0.4,1.6-0.6,2.4c0,0,0,0,0,0c0.7-0.5,1.3-1,2.1-1.4c0.2,0,0.3-0.1,0.5-0.1
		c0.6,0,1.1,0,1.7,0c0.6,0.1,1.2,0.3,1.8,0.5c0.4,0.2,0.7,0.4,1,0.6c0.2,0.2,0.3,0.3,0.5,0.5c0.2,0.3,0.4,0.6,0.5,0.9
		c0.2,0.7,0.4,1.4,0.5,2.1c0.1,1,0.2,2,0.1,3.1c0,0.2-0.1,0.4-0.1,0.5c-0.1,0.1-0.1,0.2-0.2,0.3c-0.3,0.4-0.6,0.7-1,1
		c-0.4,0.3-0.8,0.5-1.2,0.7c-0.3,0.1-0.6,0.2-0.9,0.2c-0.2,0-0.3,0-0.5,0c-0.2,0-0.3-0.1-0.5-0.1c0,0,0,0,0,0
		c0.7,0.9,1.5,1.4,2.6,1.6c1.6,0.2,3.6-0.1,4.8-1.2c2.4-2.4,3-6.1,2.3-9.2c-0.3-1.5-1.4-2.9-2.6-3.9c-1.4-1.1-2.8-1.5-4.5-1.7
		c-0.2,0-0.3,0-0.5,0C374.1,80.9,372.3,81.4,371.1,82.4L371.1,82.4z M377.8,90c0,0.1,0,0.1,0,0.2C377.8,90.1,377.8,90,377.8,90
		L377.8,90z"/>
	<path d="M371.2,83.6c-1.4,0.8-2.3,2.2-2.7,3.7c-0.4,1.6-0.1,3.3,0.6,4.8c0.4,0.8,0.9,1.6,1.6,2.2c0.1,0.2,0.3,0.3,0.4,0.5
		c0.4,0.5,1.4,1,2,1.2c0.5,0.2,1.1,0.2,1.7,0.2c1.4-0.1,2.5-0.6,3.5-1.5c0.3-0.2,0.5-0.5,0.8-0.8c0.1-0.1,0.3-0.2,0.4-0.4
		c0.9-0.9,1.5-2,1.8-3.2c0.4-1.5,0.2-3.4-0.7-4.7c-0.6-0.8-1-1.4-1.9-1.9c-0.9-0.5-1.9-0.7-2.9-0.7c-0.1,0-0.1,0-0.2,0
		c-0.5-0.1-0.9-0.2-1.5-0.2c-0.1,0-0.2,0-0.2,0C373,82.7,371.9,83.1,371.2,83.6L371.2,83.6z M374.5,89.6
		C374.5,89.6,374.5,89.6,374.5,89.6c0,0,0,0.1,0,0.1C374.5,89.6,374.5,89.6,374.5,89.6L374.5,89.6z M374.8,89.9L374.8,89.9
		C374.8,89.9,374.8,89.9,374.8,89.9L374.8,89.9C374.8,89.9,374.8,89.9,374.8,89.9L374.8,89.9z M374.7,89.9
		C374.7,89.9,374.7,89.9,374.7,89.9C374.7,89.9,374.7,89.9,374.7,89.9C374.7,89.9,374.7,89.9,374.7,89.9L374.7,89.9z"/>
	<path d="M306.3,98.3c-1.9,1.6-3.3,3.9-3.6,6.4c-0.2,0.7-0.2,1.4-0.2,2.1c0,0.9,0.2,1.9,0.3,2.8c0.2,1.4,0.8,2.7,1.4,3.9
		c0.2,0.3,0.4,0.7,0.6,1c0.5,0.7,0.9,1.2,1.5,1.7c1.1,0.9,2.1,1.5,3.5,1.8c1.3,0.3,2.7,0.2,3.9-0.1c1.2-0.3,2.2-1.1,3.1-2
		c1-0.9,1.8-2,2.4-3.3c0.6-0.3,1.1-0.7,1.6-1.1c0.4-0.3,0.8-0.7,1.1-1.1c0.7-0.9,1.1-1.6,1.6-2.6c1.1-2.6,0.7-5.8-1-8.1
		c-0.3-0.6-0.7-1-1.2-1.4c-0.6-0.6-1.4-1.1-2.1-1.5c-1.4-0.9-3.1-1.2-4.7-1.4c-0.3,0-0.7-0.1-1-0.1
		C310.7,95.5,308.3,96.6,306.3,98.3L306.3,98.3z M314.4,105.3C314.4,105.3,314.4,105.4,314.4,105.3
		C314.4,105.4,314.4,105.3,314.4,105.3L314.4,105.3z M314.3,106.1C314.3,106.1,314.3,106.2,314.3,106.1
		C314.3,106.2,314.3,106.2,314.3,106.1C314.3,106.2,314.3,106.1,314.3,106.1L314.3,106.1z M314.2,106.6
		C314.2,106.6,314.2,106.6,314.2,106.6c0,0.1-0.1,0.2-0.1,0.3C314.1,106.7,314.2,106.6,314.2,106.6L314.2,106.6z M314.4,106.6
		C314.4,106.6,314.4,106.6,314.4,106.6c0,0,0,0.1,0,0.1C314.4,106.6,314.4,106.6,314.4,106.6L314.4,106.6z M314.7,106.6
		C314.7,106.6,314.8,106.7,314.7,106.6c0.1,0.2,0.1,0.3,0.2,0.5C314.9,107,314.8,106.8,314.7,106.6L314.7,106.6z M315,106.9
		c0,0,0.1,0.1,0.1,0.1c0,0,0,0,0,0C315.1,107,315.1,106.9,315,106.9L315,106.9z"/>
	<path d="M310.1,99.7c-1.4,0-2.7,0.6-3.8,1.5c-0.6,0.5-1.1,0.9-1.6,1.5c-0.8,0.9-1.2,1.8-1.6,2.9c-0.6,1.4-0.3,3.1,0,4.6
		c0.1,0.7,0.5,1.4,0.8,2c0.3,0.8,1,1.5,1.6,2.1c1,1,2.2,1.5,3.6,1.7c0.9,0.1,1.8-0.1,2.6-0.4c0,0,0,0,0,0c0.9,0,1.5-0.3,2.2-0.8
		c1.1-0.6,2.1-1.5,2.9-2.4c0.8-0.9,1.3-2,1.7-3.2c0.2-0.6,0.2-1.4,0.2-2.1c0-0.4-0.1-0.9-0.2-1.3c-0.2-0.4-0.3-0.8-0.5-1.2
		C316.1,101.8,313.3,99.7,310.1,99.7C310.1,99.7,310.1,99.7,310.1,99.7L310.1,99.7z M312,106.8c-0.1,0.1-0.3,0.1-0.4,0.2
		c0,0,0,0,0,0C311.7,106.9,311.9,106.8,312,106.8L312,106.8z M311.2,107.2C311.2,107.2,311.2,107.2,311.2,107.2c0,0-0.1,0.1-0.1,0.1
		C311.1,107.3,311.2,107.2,311.2,107.2L311.2,107.2z M311.3,107.2c0.5,0.1,1.1,0.3,1.6,0.5c0.1,0,0.1,0.1,0.2,0.1
		c-0.1,0.2-0.3,0.5-0.4,0.7c-0.2,0.2-0.4,0.4-0.6,0.6c-0.2,0.1-0.4,0.2-0.5,0.3c-0.3,0.1-0.5,0.2-0.8,0.2c-0.1-0.2-0.1-0.4-0.2-0.6
		c0-0.2,0-0.5,0-0.7c0-0.1,0.1-0.2,0.1-0.3c0-0.1,0.1-0.1,0.1-0.2C310.9,107.6,311.1,107.4,311.3,107.2L311.3,107.2z M310.5,108.3
		c0,0.1-0.1,0.2-0.1,0.2C310.4,108.5,310.5,108.4,310.5,108.3L310.5,108.3z M310.3,109.5c0.1,0.1,0.1,0.1,0.2,0.2c0,0,0,0,0,0
		C310.4,109.6,310.4,109.5,310.3,109.5L310.3,109.5z"/>
	<path d="M315.5,99.3c-1.1,0.6-1.6,1.5-2.2,2.6c0,0,0,0,0,0c0.4-0.2,0.8-0.4,1.2-0.6c0.2,0,0.3-0.1,0.5-0.1c0.1,0,0.3,0,0.4,0
		c0.1,0,0.1,0,0.2,0c0,0,0.1,0.1,0.1,0.1c0.1,0.1,0.1,0.1,0.2,0.2c0.3,0.5,0.6,1.1,0.9,1.6c0.3,0.9,0.6,1.7,0.7,2.6c0,0.5,0,1,0,1.6
		c-0.1,0.6-0.3,1.2-0.5,1.7c-0.5,1.1-1.2,2.2-1.9,3.2c-0.5,0.6-1.1,1.2-1.7,1.7c0.1-0.1,0.2-0.2,0.3-0.2c-0.3,0.3-0.7,0.5-1.1,0.7
		c-0.2,0.1-0.3,0.1-0.5,0.2c-0.1,0-0.3,0-0.4,0c-0.1,0-0.2,0-0.3-0.1c-0.3-0.1-0.6-0.3-0.8-0.5c0,0,0,0,0,0
		c-0.1-0.1-0.1-0.1-0.2-0.2c0,0,0,0,0,0c0.1,0.7,0.2,1.6,0.8,2c0.5,0.3,1,0.6,1.7,0.7c0.9,0.1,1.7,0,2.6-0.2c1.6-0.4,3-1.4,4.2-2.4
		c1.4-1.2,2.4-2.9,2.9-4.7c0.5-1.9,0-3.9-0.8-5.7c-0.3-0.8-1-1.5-1.6-2.1c-0.5-0.5-1-1-1.6-1.4c-0.7-0.5-1.6-1-2.5-1
		C316.1,99.1,315.8,99.2,315.5,99.3L315.5,99.3z M310.9,114.2C310.9,114.2,310.9,114.2,310.9,114.2
		C310.9,114.2,310.9,114.2,310.9,114.2L310.9,114.2z"/>
	<path d="M266,271.5c-1.9,0.9-3.7,1.8-5.5,2.8c-0.8,0.4-1.7,0.9-2.5,1.3c-0.4,0.2-0.7,0.3-1.1,0.5c-0.4,0.2-0.9,0.4-1.3,0.6
		c-1.2,0.4-2.4,0.9-3.6,1.3c-0.6,0.2-1.2,0.5-1.8,0.8c-0.5,0.2-0.9,0.5-1.4,0.7c-0.6,0.3-1.2,0.6-1.7,0.9c-0.6,0.4-1.3,0.8-1.9,1.2
		c-0.9,0.6-1.9,1.2-2.8,1.8c-1,0.7-2,1.3-3,2c-1,0.7-2.1,1.5-3.1,2.2c-1.1,0.8-2.2,1.6-3.2,2.5c-0.5,0.4-0.9,0.7-1.4,1.1
		c-0.6,0.5-1.2,1-1.7,1.5c-0.9,0.8-1.8,1.7-2.7,2.5c-0.5,0.5-0.9,1-1.3,1.4c-0.6,0.7-1.2,1.5-1.8,2.2c-0.5,0.7-1,1.4-1.4,2.1
		c-0.3,0.5-0.6,1-0.9,1.6c-0.4,0.7-0.7,1.4-1.1,2.2c-0.2,0.5-0.4,0.9-0.7,1.4c-0.3,0.6-0.5,1.2-0.8,1.7c-0.3,0.7-0.6,1.4-0.8,2.2
		c-0.3,0.9-0.6,1.7-0.9,2.6c-0.1,0.4-0.2,0.8-0.3,1.2c-0.1,0.5-0.3,1.1-0.4,1.6c-0.6,2.7-1,5.5-1,8.3c0,1.4,0,2.8,0.1,4.2
		c0.2,1.3,0.5,2.7,0.9,4c0,0,0,0,0,0c-0.1-0.3-0.1-0.7-0.2-1c0,0,0,0,0,0c-0.1-0.7-0.2-1.4-0.2-2.1c-0.1-0.7-0.1-1.4,0-2.2
		c0-1.4,0.2-2.9,0.4-4.3c0.2-1.8,0.6-3.5,1-5.2c0.2-0.9,0.5-1.8,0.8-2.7c0.2-0.5,0.3-1,0.5-1.5c0.3-0.7,0.5-1.3,0.8-2
		c0.3-0.8,0.7-1.5,1-2.3c0.3-0.8,0.8-1.5,1.1-2.3c0.4-0.7,0.8-1.4,1.2-2.1c0.8-1.4,1.7-2.8,2.7-4.1c0.5-0.6,0.9-1.2,1.4-1.7
		c0.5-0.5,0.9-1.1,1.5-1.6c0.5-0.5,1-1,1.5-1.5c0.3-0.3,0.6-0.6,1-0.9c0.6-0.5,1.2-1,1.8-1.6c0.8-0.7,1.7-1.4,2.6-2.2
		c0.5-0.4,0.9-0.7,1.4-1.1c0.4-0.3,0.9-0.7,1.3-1c0.5-0.4,1-0.7,1.5-1.1c0.4-0.3,0.8-0.6,1.2-0.9c1.1-0.7,2.1-1.5,3.2-2.2
		c1.1-0.8,2.3-1.6,3.4-2.4c0.4-0.3,0.9-0.6,1.3-0.8c0.5-0.3,1-0.7,1.5-0.9c0.7-0.3,1.3-0.7,2-1c0.2-0.1,0.4-0.2,0.5-0.2
		c0.4-0.2,0.8-0.3,1.1-0.5c0.6-0.3,1.2-0.5,1.8-0.7c0.5-0.2,1-0.5,1.6-0.8c0.5-0.2,0.9-0.5,1.4-0.8c0.6-0.4,1.3-0.8,1.9-1.2
		c1-0.7,2.1-1.4,3.1-2C264.5,272.4,265.2,271.9,266,271.5C266,271.5,266,271.5,266,271.5C266,271.5,266,271.5,266,271.5L266,271.5z
		 M225.8,300.1c0,0-0.1,0.1-0.1,0.1C225.8,300.2,225.8,300.1,225.8,300.1L225.8,300.1z M216.6,331
		C216.6,330.9,216.6,330.9,216.6,331C216.6,330.9,216.6,330.9,216.6,331L216.6,331z"/>
	<path d="M274.2,273.4c-1.9,1.3-3.9,2.6-5.8,3.9c-2,1.3-3.9,2.5-5.9,3.9c-1.9,1.3-3.9,2.7-5.7,4.1c-1,0.8-1.9,1.5-2.9,2.3
		c-0.4,0.3-0.8,0.6-1.2,0.9c-0.5,0.5-1.1,0.9-1.6,1.4c-0.8,0.7-1.6,1.5-2.3,2.2c-0.4,0.4-0.9,0.9-1.3,1.3c-0.3,0.3-0.6,0.7-0.9,1
		c-0.8,0.9-1.5,1.7-2.2,2.6c-0.8,1.1-1.7,2.1-2.5,3.2c-0.7,0.9-1.4,1.8-2.1,2.8c-0.4,0.5-0.7,1-1,1.5c-0.3,0.5-0.6,1-0.9,1.5
		c-0.6,1-1.2,2.1-1.8,3.2c-0.5,0.9-1,1.9-1.4,2.9c-0.3,0.7-0.6,1.5-0.9,2.2c-0.2,0.6-0.5,1.3-0.7,1.9c-0.2,0.8-0.5,1.6-0.7,2.4
		c-0.5,1.6-0.8,3.2-1,4.9c-0.3,2.1-0.5,4.1-0.6,6.2c-0.1,2.1,0,4.2,0,6.3c0,0,0,0,0,0c0.2-2.2,0.4-4.3,0.7-6.5
		c0.5-3.4,1.2-6.8,2.2-10c0.2-0.6,0.4-1.3,0.6-1.9c0.3-0.9,0.6-1.8,1-2.7c0.8-1.7,1.6-3.4,2.6-5.1c0.5-0.8,1-1.7,1.5-2.5
		c0.6-0.9,1.2-1.8,1.8-2.7c0.5-0.7,1.1-1.4,1.6-2.2c1.4-1.8,2.7-3.5,4.2-5.3c0.4-0.5,0.8-1,1.2-1.5c0.4-0.5,0.8-0.9,1.2-1.3
		c0.3-0.4,0.6-0.7,1-1.1c0.5-0.5,1-1,1.5-1.6c0.3-0.3,0.7-0.7,1-1c0.4-0.4,0.8-0.8,1.2-1.2c0.9-0.8,1.7-1.6,2.6-2.3
		c1.7-1.5,3.4-3,5.1-4.4c0.8-0.7,1.7-1.3,2.5-2c0,0,0,0,0,0c1.7-1.3,3.4-2.6,5.1-3.8C270.9,276,272.6,274.7,274.2,273.4
		C274.3,273.4,274.2,273.4,274.2,273.4C274.2,273.4,274.2,273.4,274.2,273.4L274.2,273.4z"/>
	<path d="M278.9,276.4c-1.8,0.9-3.5,1.9-5.1,3c-0.7,0.5-1.5,1.1-2.2,1.7c-0.5,0.4-1,0.9-1.5,1.3c-1.1,1-2.2,2.1-3.3,3.1
		c-0.2,0.2-0.3,0.4-0.5,0.5c-0.3,0.4-0.7,0.8-1,1.2c-0.4,0.4-0.7,0.8-1.1,1.2c-0.6,0.7-1.1,1.5-1.7,2.2c-0.4,0.6-0.8,1.2-1.2,1.8
		c-1.6,2.4-3.1,4.9-4.6,7.4c-0.7,1.2-1.4,2.4-2,3.6c-0.7,1.2-1.2,2.5-1.8,3.8c-0.6,1.3-1.1,2.7-1.6,4.1c-0.5,1.3-1,2.6-1.5,4
		c-0.5,1.3-0.9,2.6-1.4,3.9c-0.5,1.5-0.9,2.9-1.2,4.5c-0.2,0.9-0.3,1.9-0.4,2.8c0,0.5-0.1,1-0.1,1.5c0,0.5,0,1,0,1.5
		c0.1,1.6,0.1,3.2,0.2,4.9c0.1,1.8,0.2,3.6,0.3,5.4c0,0,0,0,0,0c0-2,0.1-4,0.1-6c0-0.8,0.1-1.6,0.1-2.4c0.1-1.5,0.1-3,0.3-4.4
		c0.2-1.2,0.4-2.4,0.8-3.5c0.3-1.2,0.8-2.3,1.2-3.4c1.1-2.5,2.1-5,3.3-7.5c0.3-0.7,0.6-1.4,0.9-2.1c0.2-0.5,0.4-1.1,0.7-1.6
		c0.4-0.8,0.8-1.5,1.2-2.3c0.2-0.4,0.4-0.9,0.7-1.3c1.5-2.5,2.9-5,4.4-7.5c0.7-1.2,1.4-2.4,2.1-3.5c0.5-0.7,1-1.5,1.4-2.2
		c0.4-0.6,0.8-1.1,1.2-1.7c0.2-0.3,0.4-0.5,0.6-0.8c0.7-0.8,1.3-1.7,2-2.5c1-1.1,1.9-2.2,2.9-3.3c0.8-1,1.7-1.9,2.6-2.8
		c0.7-0.7,1.4-1.3,2.1-1.9c0.7-0.6,1.5-1.2,2.2-1.8c0,0,0,0,0,0C278.2,276.9,278.5,276.7,278.9,276.4
		C278.9,276.5,278.9,276.4,278.9,276.4C278.9,276.4,278.9,276.4,278.9,276.4L278.9,276.4z M268.3,286.8c0,0.1-0.1,0.1-0.1,0.2
		C268.2,286.9,268.2,286.9,268.3,286.8L268.3,286.8z M249.7,320.1C249.7,320.1,249.7,320.1,249.7,320.1
		C249.7,320.1,249.7,320.1,249.7,320.1L249.7,320.1z M277.9,277.2C277.9,277.2,277.9,277.2,277.9,277.2
		C277.9,277.2,277.9,277.2,277.9,277.2L277.9,277.2z"/>
	<path d="M281.9,281.5c-1.4,1.3-2.7,2.8-3.9,4.3c-1.7,2-3.1,4.2-4.6,6.4c-0.3,0.5-0.6,0.9-0.9,1.4c-0.5,0.8-0.9,1.6-1.3,2.3
		c-0.7,1.2-1.3,2.5-2,3.7c-0.6,1.1-1.1,2.2-1.6,3.3c-0.4,0.9-0.7,1.8-1.1,2.8c-0.2,0.7-0.5,1.4-0.7,2.1c-0.2,0.8-0.4,1.6-0.6,2.5
		c-0.1,0.5-0.3,1-0.4,1.6c-0.6,3-1.2,6-1.7,8.9c-0.3,1.3-0.5,2.6-0.7,4c-0.2,1.3-0.5,2.6-0.7,3.9c-0.1,0.6-0.2,1.2-0.3,1.9
		c-0.1,0.7-0.2,1.5-0.3,2.2c-0.1,0.6-0.2,1.2-0.2,1.7c-0.1,0.9-0.1,1.7-0.2,2.6c-0.1,0.7,0,1.4,0,2.1c0,0.7,0,1.4,0,2.1
		c0,1.7,0,3.5,0.1,5.2c0,0,0,0,0,0c0.1-1.6,0.2-3.1,0.3-4.7c0.1-1.5,0.2-3,0.3-4.4c0,0,0,0,0,0c0.2-1.2,0.3-2.5,0.6-3.7
		c0.3-1.3,0.5-2.7,0.9-4c0.3-1.3,0.6-2.6,1-4c0.4-1.4,0.7-2.7,1.1-4.1c0.7-2.7,1.4-5.3,2-8c0.3-1.2,0.6-2.3,0.9-3.5
		c0.2-0.6,0.3-1.2,0.5-1.8c0.2-0.8,0.5-1.7,0.8-2.5c0.3-0.8,0.6-1.6,0.9-2.4c0,0,0,0,0,0c0.8-1.8,1.6-3.5,2.4-5.3
		c0.6-1.2,1.2-2.3,1.8-3.5c0.2-0.4,0.4-0.8,0.7-1.2c0.4-0.8,0.9-1.5,1.3-2.3c0.7-1.3,1.5-2.6,2.3-3.8c1-1.6,2-3.1,3.1-4.6
		c0.8-1,1.5-2,2.5-2.8c0,0,0,0,0,0c0.2-0.2,0.4-0.3,0.7-0.4c0.3-0.1,0.5-0.2,0.8-0.2c0,0,0,0,0,0c0.1,0,0.2,0,0.2,0c0,0,0,0,0,0
		c-0.1,0-0.2,0-0.3,0C284.2,279.3,283,280.5,281.9,281.5L281.9,281.5z M285,279.6C285,279.6,285,279.6,285,279.6
		C285,279.6,285,279.6,285,279.6L285,279.6z M270.3,303.2C270.3,303.2,270.3,303.3,270.3,303.2C270.3,303.3,270.3,303.2,270.3,303.2
		L270.3,303.2z"/>
	<path d="M411.6,274.5c-0.1,0-0.2,0.1-0.3,0.2c-0.1,0.1-0.1,0.3-0.1,0.4c0,0,0,0,0,0c0-0.1,0.1-0.1,0.1-0.2c0,0,0,0,0,0
		c0,0,0-0.1,0.1-0.1c0,0,0.1,0,0.1-0.1c0,0,0,0,0,0c0.1,0,0.2-0.1,0.3-0.1c0,0,0,0,0,0c0.1,0,0.2,0,0.3,0c0.2,0,0.4,0.1,0.6,0.2
		c0,0,0,0,0,0c0,0,0,0,0,0c0,0,0,0,0,0c0,0,0,0,0,0c0.4,0.2,0.7,0.4,1.1,0.7c0,0,0,0,0,0c0.6,0.5,1.2,1.1,1.7,1.7
		c1.1,1.4,1.9,3,2.6,4.6c0.7,1.6,1.2,3.2,1.7,4.8c0.5,1.6,0.9,3.3,1.1,5c0.4,2.8,0.4,5.6,0.1,8.4c-0.1,1-0.3,2-0.6,3
		c-0.3,1.1-0.7,2.1-1.1,3.1c-0.3,0.8-0.7,1.6-1,2.3c-0.4,0.8-0.8,1.7-1.3,2.5c-0.4,0.8-0.9,1.7-1.3,2.5c-0.3,0.6-0.6,1.1-0.9,1.7
		c-0.3,0.6-0.6,1.3-1,1.9c0,0,0,0,0,0c0.4-0.6,0.8-1.1,1.2-1.7c0.4-0.6,0.8-1.1,1.1-1.7c0.6-0.9,1.2-1.8,1.8-2.6
		c1.1-1.6,2.1-3.2,3-5c0.9-1.7,1.6-3.5,2-5.5c0.4-2,0.5-3.9,0.4-5.9c-0.1-2-0.4-4-1-5.9c-0.6-1.9-1.3-3.7-2.2-5.4
		c-0.6-1.2-1.2-2.4-1.9-3.5c-0.7-1.1-1.5-2.2-2.4-3.2c-0.4-0.5-0.9-0.9-1.4-1.2c-0.2-0.2-0.5-0.3-0.7-0.5c-0.3-0.2-0.5-0.3-0.8-0.4
		c-0.3-0.1-0.6-0.2-0.8-0.2C411.9,274.5,411.8,274.5,411.6,274.5L411.6,274.5z M411.5,274.7C411.5,274.7,411.5,274.7,411.5,274.7
		C411.5,274.7,411.5,274.7,411.5,274.7L411.5,274.7z M420.9,299.9c0,0,0,0.1,0,0.1C420.9,300,420.9,299.9,420.9,299.9L420.9,299.9z
		 M420.9,300c0,0,0,0.1,0,0.1C420.9,300.1,420.9,300.1,420.9,300L420.9,300z M412.6,274.8C412.6,274.8,412.6,274.8,412.6,274.8
		C412.6,274.8,412.6,274.8,412.6,274.8C412.6,274.8,412.6,274.8,412.6,274.8L412.6,274.8z M411.8,274.6
		C411.8,274.6,411.8,274.6,411.8,274.6C411.8,274.6,411.8,274.6,411.8,274.6L411.8,274.6z"/>
	<path d="M415.6,267.8c0.3,0.5,0.7,0.9,1,1.4c0.4,0.6,0.8,1.2,1.2,1.9c0.7,1.2,1.4,2.4,2.1,3.6c0.8,1.6,1.6,3.3,2.5,4.9
		c0.6,1.1,1.3,2.2,1.9,3.3c0.5,0.8,1,1.5,1.5,2.2c0.4,0.6,0.8,1.2,1.2,1.8c0.3,0.5,0.6,1.1,0.9,1.7c0.5,1.3,0.8,2.6,1.1,4
		c0.2,1.5,0.2,3,0,4.5c-0.2,1.6-0.6,3.3-1,4.9c-0.2,0.8-0.5,1.6-0.8,2.4c-0.3,0.8-0.5,1.6-0.8,2.3c-0.9,2.1-2.3,4-3.6,5.9
		c-0.8,1.2-1.6,2.3-2.4,3.4c0,0,0,0,0,0c1-1.1,2-2.2,3-3.4c0.6-0.7,1.2-1.3,1.8-2c0.6-0.6,1.1-1.3,1.6-2c0.7-0.9,1.2-1.9,1.7-2.9
		c1-1.9,1.8-3.8,2.4-5.9c0.6-2.1,1.1-4.2,1-6.4c0-1-0.1-2.1-0.4-3.1c-0.2-1.1-0.6-2.2-1.1-3.3c-0.4-1-1.1-1.8-1.7-2.7
		c-0.6-0.9-1.3-1.7-1.9-2.5c-0.5-0.6-0.9-1.3-1.4-1.9c-0.5-0.8-1.1-1.5-1.6-2.3c-0.6-0.8-1.1-1.6-1.6-2.4c-0.6-0.9-1.2-1.8-1.9-2.7
		c-0.7-0.9-1.4-1.7-2.2-2.5C417.3,269.3,416.5,268.6,415.6,267.8C415.6,267.8,415.6,267.8,415.6,267.8
		C415.6,267.8,415.6,267.8,415.6,267.8L415.6,267.8z M428,288.6c0,0,0,0.1,0.1,0.1C428,288.7,428,288.7,428,288.6L428,288.6z
		 M428.9,297.2c0,0,0,0.1,0,0.1C428.9,297.3,428.9,297.2,428.9,297.2L428.9,297.2z"/>
	<path d="M420.3,266.1c0.7,0.1,1.3,0.4,1.9,0.6c0,0,0,0,0,0c0,0,0,0,0.1,0c0,0,0,0,0,0c0,0,0,0,0,0c0.4,0.2,0.8,0.4,1.2,0.7
		c0.6,0.5,1.2,1.1,1.7,1.7c0.5,0.7,1,1.5,1.5,2.2c0.5,0.8,0.9,1.7,1.3,2.6c0-0.1-0.1-0.2-0.1-0.2c0.4,1,0.8,2.1,1.3,3.1
		c0-0.1-0.1-0.1-0.1-0.2c0.8,2,1.6,3.9,2.4,5.8c0-0.1-0.1-0.2-0.1-0.3c0.6,1.5,1.2,2.9,1.8,4.4c0,0,0-0.1-0.1-0.1c1,2.5,2,5,2.8,7.6
		c0.4,1.4,0.8,2.8,1.1,4.3c0.3,1.3,0.6,2.7,0.8,4c0.3,2.2,0.2,4.4,0.2,6.6c0,1.2,0,2.5-0.1,3.7c0,0,0,0,0,0c0.3-1.7,0.5-3.5,0.8-5.2
		c0.2-1.5,0.4-3.1,0.4-4.6c0-1.1-0.1-2.2-0.2-3.3c-0.1-1.2-0.3-2.5-0.5-3.7c-0.6-3.8-1.7-7.4-3.2-10.9c-0.6-1.6-1.3-3.1-2-4.7
		c-0.5-1.1-1-2.2-1.6-3.3c-0.5-1.1-1.1-2.1-1.6-3.2c-0.5-1-1.1-2-1.8-2.9c-0.6-0.9-1.4-1.7-2.2-2.4c-0.7-0.7-1.5-1.3-2.4-1.7
		C422.6,266.2,421.4,266.1,420.3,266.1C420.3,266.1,420.3,266.1,420.3,266.1C420.3,266.1,420.3,266.1,420.3,266.1L420.3,266.1z
		 M422.3,266.7C422.3,266.7,422.3,266.7,422.3,266.7C422.3,266.7,422.2,266.7,422.3,266.7C422.2,266.7,422.3,266.7,422.3,266.7
		L422.3,266.7z"/>
</g>
</svg>
