<?xml version="1.0" encoding="utf-8"?>
<!-- Generator: Adobe Illustrator 20.1.0, SVG Export Plug-In . SVG Version: 6.00 Build 0)  -->
<svg version="1.1" xmlns="http://www.w3.org/2000/svg" xmlns:xlink="http://www.w3.org/1999/xlink" x="0px" y="0px"
	 viewBox="0 0 934.1 975.6" style="enable-background:new 0 0 934.1 975.6;" xml:space="preserve">
<style type="text/css">
	.st0{opacity:0.8;}
	.st1{fill:#FC0606;}
</style>
<g id="Layer_2" class="st0">
	<polygon class="st1" points="776.4,276.9 686.8,219 550.4,195.3 411.3,184.7 278.1,210.7 198.9,247.4 166.8,278.8 138.8,309.7 
		125.5,348.9 147.9,404.6 198.8,553.3 239.5,609.5 319.4,656.4 392.9,677.5 522.5,677.5 643.8,636.1 723.1,556 793.2,388.2 
		799.9,334.7 	"/>
</g>
<g id="Layer_4">
	<path d="M456.9,178.9c-10.5,0.1-21,0.5-31.5,1.1c-10.7,0.6-21.3,1.6-32,2.6c-21,2.1-41.8,5.6-62.4,10c-10,2.1-19.9,4.4-29.7,6.8
		c-10,2.4-19.9,5.3-29.7,8.5c-4.5,1.5-9.1,3-13.6,4.5c-4.9,1.7-9.8,3.7-14.7,5.5c-2.3,0.9-4.6,1.9-6.8,2.9c-2.3,1-4.5,2-6.8,3
		c-2.3,1-4.5,2.1-6.7,3.1c-0.9,0.4-1.9,0.8-2.8,1.2c-1.3,0.6-2.5,1.2-3.8,1.8c-3.3,1.6-6.6,3.3-9.8,5c-0.5,0.1-1,0.3-1.4,0.6
		c-0.5,0.3-0.9,0.5-1.4,0.8c0,0-0.1,0.1-0.1,0.1c-0.9,0.5-1.8,1.1-2.8,1.6c-0.2,0.1-0.5,0.3-0.7,0.5c-2.9,1.8-5.9,3.6-8.7,5.5
		c-3.8,2.5-7.5,5-11.2,7.7c-3,2.2-5.9,4.6-8.8,6.9c-3.9,3.2-7.7,6.5-11.3,9.9c-7.1,6.6-13.4,13.9-19.2,21.7
		c-2.5,3.5-4.8,7.1-6.9,10.8c-2.3,4-4.2,8.2-6,12.5c-1.5,3.7-2.8,7.5-3.8,11.4c-1.1,4.3-1.8,8.7-2.4,13.1c-1,8.3-0.4,16.7,1,24.9
		c1.5,8.3,4.4,16.2,8,23.8c3.8,8.1,8.9,15.4,14.4,22.4c5.9,7.5,12.7,14.4,20,20.7c7.1,6.2,14.7,11.8,22.6,17
		c16.5,10.9,34.2,19.8,52.3,27.5c19,8.1,38.6,14.4,58.6,19.8c9.6,2.6,19.4,4.9,29.1,6.9c9.8,2.1,19.6,3.8,29.4,5.4
		c20.4,3.3,41.1,5.4,61.7,6.6c10.3,0.6,20.6,0.8,30.9,1c2.6,0,5.2,0.1,7.9,0.1c2.5,0,5-0.1,7.6-0.1c5.6,0,11.2-0.1,16.9-0.3
		c10.5-0.3,20.9-0.9,31.3-1.7c10.7-0.8,21.4-1.9,32.1-3.1c4.9-0.6,9.8-1.3,14.6-2c5.5-0.8,10.9-1.6,16.3-2.5
		c10.2-1.7,20.3-3.7,30.4-5.9c11.3-2.5,22.5-5.4,33.6-8.7c0.8-0.2,1.7-0.5,2.5-0.7c9.8-2.8,19.5-6.1,29.1-9.6
		c4.9-1.8,9.7-3.7,14.5-5.8c5.1-2.1,10.1-4.3,15.1-6.6c9.3-4.3,18.3-9,27.2-14.2c4.4-2.5,8.7-5.2,12.9-8.1c4.4-3,8.7-6.2,12.9-9.4
		c8.2-6.4,16-13.4,23-21.1c6.8-7.5,12.8-15.7,17.6-24.6c2.3-4.2,4.2-8.7,5.9-13.2c1.9-5,3.2-10.2,4.1-15.4
		c0.9-5.1,1.3-10.2,1.3-15.3c0-5.4-0.8-10.8-1.7-16.1c-0.9-4.9-2.4-9.8-4.2-14.5c-1.9-5-4.2-9.9-6.8-14.5c-2.3-4-4.8-7.9-7.6-11.6
		c-3.1-4.2-6.4-8.2-9.8-12c-6.8-7.5-14.4-14.3-22.4-20.4c-3.8-2.9-7.7-5.8-11.7-8.5c-4.3-3-8.8-5.7-13.3-8.4
		c-8.6-5.1-17.6-9.7-26.7-13.9c-9.5-4.4-19.2-8.4-28.9-12.1c-9.7-3.7-19.6-6.9-29.5-10c-19.9-6.2-40.3-10.7-60.8-14.6
		c-10.5-2-21.1-3.6-31.7-4.9c-10.5-1.3-21-2.4-31.5-3.2c-10.6-0.8-21.3-1.2-31.9-1.6c-7.7-0.3-15.4-0.4-23.2-0.4
		C462.1,178.9,459.5,178.9,456.9,178.9L456.9,178.9z M386.9,193.6c3.9-0.4,7.8-0.9,11.7-1.2c4.3-0.4,8.7-0.7,13.1-1
		c15.4-1.1,30.9-1.6,46.4-1.8c15.5-0.1,31.1,0.2,46.6,1.3c15.6,1,31.2,2.6,46.6,4.6c-0.3,0-0.6-0.1-0.9-0.1c1.3,0.2,2.6,0.3,3.9,0.5
		c-0.2,0-0.5-0.1-0.7-0.1c0.3,0,0.6,0.1,0.8,0.1c0.2,0,0.4,0.1,0.7,0.1c-0.2,0-0.4-0.1-0.6-0.1c10.6,1.4,21.2,3.2,31.7,5.1
		c10.4,1.9,20.7,4.2,31,6.8c5.5,1.4,11,2.9,16.5,4.4c5.1,1.4,10.1,2.9,15.1,4.5c10.8,3.5,21.4,7.3,31.9,11.7c5.7,2.4,11.4,5,17,7.7
		c5.9,2.8,11.6,5.9,17.3,9.1c10.8,6,21.1,12.8,30.9,20.2c10.7,8.5,20.7,17.8,29.2,28.5c5.4,7.2,10.1,14.8,13.7,23
		c2.6,6.4,4.5,13.1,5.6,20c0.8,6.9,0.8,13.8,0,20.7c-0.5,3.5-1.3,7-2.2,10.4c-0.9,3.5-2.2,6.9-3.5,10.2c-3.7,8.5-8.6,16.4-14.2,23.8
		c-8.2,10.4-17.8,19.5-28.2,27.6c-9.4,7.2-19.3,13.7-29.5,19.6c-5.3,3.1-10.7,5.9-16.2,8.6c-5.4,2.7-10.9,5.2-16.5,7.6
		c-15.4,6.5-31.2,12.1-47.3,16.9c-5.5,1.6-11,3.1-16.5,4.5c-20.7,5.3-41.7,9.5-62.8,12.4c-15.1,2-30.2,3.6-45.3,4.6
		c-15.2,0.9-30.4,1.4-45.7,1.4c-3.8,0-7.6-0.1-11.5-0.2c-3.9-0.1-7.8-0.1-11.6-0.3c-7.3-0.3-14.6-0.7-21.9-1.2
		c-15.4-1-30.7-2.6-45.9-4.6c-11-1.5-21.9-3.3-32.8-5.3c-11.2-2.1-22.3-4.7-33.4-7.5c-11-2.8-21.8-6-32.5-9.5
		c-11.1-3.6-22-7.8-32.8-12.3c-21.8-9.3-42.8-20.6-61.6-35.1c-11-8.6-21.2-18.1-29.8-29.1c-5.4-7.1-10-14.7-13.5-22.9
		c-2.6-6.5-4.5-13.3-5.6-20.3c-0.8-6.6-0.8-13.2,0-19.8c1.1-7,3-13.9,5.7-20.5c3.6-8.3,8.3-16,13.8-23.1
		c7.7-9.7,16.6-18.4,26.4-26.1c0.8-0.5,1.5-1.1,2.3-1.7c1.1-0.8,2.2-1.6,3.3-2.4c2.5-1.8,5-3.6,7.6-5.3c4.5-3,9.1-5.9,13.8-8.6
		c0.3-0.1,0.6-0.3,0.9-0.4c1.4-0.8,2.9-1.6,4.3-2.4c0.4-0.2,0.8-0.5,1.2-0.8c5.3-3.1,10.7-5.9,16.1-8.8c1.4-0.8,2.9-1.4,4.4-2.1
		c1.9-0.9,3.9-1.8,5.8-2.7c3.5-1.6,7-3,10.5-4.6c8.6-3.6,17.3-7,26.1-10c9.8-3.3,19.7-6.3,29.6-9.1c19.7-5.5,39.9-9.3,60.2-12
		C372.4,195.3,379.7,194.4,386.9,193.6L386.9,193.6z M683.7,465.5c-0.2,0.1-0.4,0.2-0.6,0.2C683.3,465.7,683.5,465.6,683.7,465.5
		L683.7,465.5z M376.1,498.9c0.1,0,0.3,0,0.4,0.1C376.4,499,376.3,499,376.1,498.9L376.1,498.9z M554.5,195.9
		C554.5,195.9,554.5,195.9,554.5,195.9c-0.1,0-0.1,0-0.2,0C554.4,195.9,554.4,195.9,554.5,195.9L554.5,195.9z"/>
	<path d="M728.5,531.3c-1,1.5-2,3-3.1,4.6c-1.2,1.8-2.4,3.6-3.6,5.3c-2.5,3.6-4.9,7.3-7.5,10.9c-3,4.2-6.1,8.4-9.2,12.6
		c-2.8,3.9-5.6,7.8-8.5,11.6c-2.6,3.3-5.2,6.5-8,9.6c-2.9,3.3-6,6.4-9,9.6c-3.2,3.3-6.6,6.4-10.1,9.5c-3.5,3.1-7.2,6.1-10.9,8.9
		c-9,6.9-18.4,13.2-28.2,18.9c-10.1,5.9-20.6,11-31.4,15.6c-7,2.9-14.1,5.7-21.3,8.2c-7.5,2.6-15.2,4.9-22.9,7
		c-14.7,4.1-29.8,6.9-44.9,9c-8.5,1.1-17,2-25.6,2.6c-9,0.6-18,0.8-27.1,0.8c-8.5,0-17-0.3-25.5-0.9c-8.6-0.6-17.1-1.5-25.7-2.6
		c-7.1-1-14.1-2.2-21.2-3.6c-7.8-1.5-15.5-3.4-23.1-5.5c-7.5-2-14.9-4.4-22.3-6.9c-7-2.4-14-5.1-20.8-8c-5.7-2.4-11.4-5-17-7.8
		c-5.9-2.9-11.6-6-17.3-9.2c-5.6-3.2-11.1-6.7-16.5-10.3c-5.2-3.5-10.3-7.2-15.2-11c-6.9-5.4-13.6-11.2-19.8-17.3
		c-3.2-3.2-6.4-6.6-9.4-10c-2.9-3.3-5.7-6.8-8.4-10.3c-4.6-6.1-9-12.3-13.3-18.6c-2-2.9-3.9-5.9-5.7-8.9c-0.8-1.4-1.7-2.7-2.5-4.1
		c-0.4-0.7-0.8-1.4-1.2-2.1c-0.2-0.3-0.5-0.5-0.9-0.6c-0.5-0.1-0.9,0.1-1.2,0.5c0,0,0,0,0,0c-0.1,0.2-0.2,0.5-0.2,0.8
		c0,0.4,0.1,0.7,0.2,1.1c0.1,0.5,0.3,1,0.4,1.5c0.6,2.1,1.2,4.1,1.9,6.1c1.4,4.1,3.1,8.1,4.8,12c3.9,8.6,9.2,16.5,15,24
		c3,3.8,6,7.6,9.3,11.2c3.2,3.7,6.7,7.2,10.1,10.7c7,7.1,14.7,13.5,22.6,19.5c-0.4-0.3-0.8-0.6-1.2-0.9c6.6,5.1,13.4,9.8,20.4,14.2
		c6.8,4.2,13.7,8.2,20.9,11.8c14.9,7.6,30.4,13.9,46.3,18.9c16.2,5.2,32.7,9.2,49.5,12c8.1,1.4,16.2,2.6,24.4,3.5
		c8.2,0.9,16.4,1.5,24.7,1.9c16.7,0.8,33.4,0.4,50.1-0.9c8.5-0.7,17-1.6,25.5-2.8c3.9-0.6,7.7-1.2,11.6-1.8
		c4.2-0.7,8.3-1.6,12.5-2.5c8.4-1.7,16.7-3.8,24.9-6.1c8.3-2.3,16.4-5.1,24.5-8c15.9-5.8,31.2-13,46-21.3
		c11.7-6.5,22.9-13.9,33.4-22.1c5.3-4.1,10.4-8.4,15.4-12.9c4.7-4.3,9.3-8.7,13.6-13.4c4.5-4.9,8.7-10.1,12.8-15.4
		c1.9-2.5,3.6-5,5.3-7.7c1.6-2.6,3-5.4,4.4-8.2c1.5-3,2.8-6.2,4-9.4c0.9-2.5,1.7-5.1,2.5-7.7c1.6-5.1,2.3-10.5,2.8-15.8
		c0-0.1-0.1-0.2-0.2-0.2C728.6,531.2,728.6,531.2,728.5,531.3L728.5,531.3z"/>
	<path d="M787.8,527.1C787.8,527.1,787.8,527.1,787.8,527.1c-1.9,5.1-3.8,10.3-5.7,15.3c-2.5,6.4-5.2,12.8-7.8,19.2
		c-1.7,3.9-3.3,7.8-5,11.7c-3.2,7.6-6.9,14.9-11.1,22c-4.5,7.5-9.3,14.9-14.6,21.8c-1.3,1.6-2.5,3.2-3.8,4.8
		c-1.7,2.1-3.4,4.2-5.1,6.2c-3.8,4.3-7.7,8.4-11.7,12.4c-7.6,7.5-15.8,14.5-24.2,21c-2.1,1.6-4.3,3.2-6.4,4.8
		c-2.9,2.2-5.9,4.2-9,6.2c-5.8,3.9-11.7,7.6-17.7,11c-2.8,1.6-5.6,3.2-8.4,4.8c-3.1,1.7-6.3,3.5-9.5,5.1c-6.4,3.2-12.9,6.2-19.5,9
		c-32,13.4-65.9,22-100.3,26.8c-19.8,2.6-39.7,4.1-59.7,4.3c-10.6,0.1-21.2-0.1-31.8-0.8c-10.1-0.6-20.1-1.7-30.1-3.1
		c-17.9-2.5-35.6-6.2-53-10.9c-17.1-4.6-34-10.5-50.3-17.4c-0.4-0.2-0.8-0.3-1.2-0.5c0.1,0,0.2,0.1,0.2,0.1
		c-13-5.5-25.5-11.8-37.7-18.9c-5.9-3.4-11.7-7.1-17.4-10.9c-5.4-3.6-10.5-7.5-15.7-11.4c-8.4-6.6-16.3-13.7-24-21.1
		c-3.8-3.8-7.5-7.7-11.1-11.7c-3.7-4.1-7.2-8.4-10.7-12.8c-3.5-4.6-6.8-9.3-9.9-14.1c-3.5-5.3-6.6-10.8-9.5-16.4
		c-1.4-2.7-2.7-5.4-4.1-8.1c-1.6-3.4-3.1-6.8-4.7-10.2c-0.3-0.7-0.7-1.4-1.1-2.1c-0.2-0.6-0.5-1.2-0.8-1.7c-0.7-1.5-1.4-2.9-2.1-4.4
		c-1.2-2.5-2.4-5-3.5-7.6c-0.4-1-0.8-2-1.2-3c-0.2-0.5-0.5-0.9-0.8-1.1c-0.5-1.3-1-2.7-1.5-4c-0.5-1.3-0.8-2.7-1.2-4
		c-0.2-0.5-0.8-0.2-0.7,0.2c0.1,2.8,0.4,5.6,0.6,8.4c-0.2,0.3-0.3,0.7-0.3,1.1c0,0,0,0,0,0c0.2,2,0.4,4,0.5,6
		c0.2,1.9,0.4,3.9,0.7,5.8c0.3,2.5,0.8,4.9,1.4,7.4c0.6,2.6,1.3,5.2,2.1,7.8c0.8,2.4,1.8,4.7,2.7,7c0.9,2.2,1.9,4.4,2.9,6.6
		c2,4.3,4.2,8.5,6.5,12.6c2.2,3.9,4.6,7.8,7,11.5c2.8,4.3,5.8,8.4,8.9,12.5c2.8,3.7,5.8,7.3,8.8,10.9c3.2,3.8,6.7,7.3,10.2,10.9
		c6.6,6.7,13.6,13,20.9,18.8c3.7,2.9,7.4,5.8,11.1,8.7c3.9,2.9,7.9,5.6,12,8.3c16.2,10.8,33.4,20.1,51.2,28c8.9,4,18,7.6,27.2,10.9
		c9.4,3.3,19,6.2,28.6,8.9c10,2.7,20.1,5,30.3,7c5,1,10,1.7,14.9,2.5c5.2,0.8,10.5,1.5,15.7,2.2c10,1.3,20.1,2.1,30.2,2.7
		c10.2,0.6,20.3,1,30.5,1c19.4,0,38.9-1.4,58.1-4.1c20.5-2.9,40.9-7.1,60.8-12.9c9.6-2.8,19.2-5.9,28.6-9.5
		c9.2-3.5,18.3-7.2,27.3-11.3c4.5-2,8.9-4.2,13.3-6.4c4.7-2.3,9.3-4.7,13.9-7.3c8.6-4.8,16.9-10,25-15.7c3.8-2.6,7.5-5.3,11.2-8.1
		c4.1-3.1,8-6.3,12-9.6c7.6-6.4,14.8-13.3,21.6-20.6c3.7-4,7.4-8,10.8-12.3c3.8-4.7,7.5-9.5,10.9-14.4c6.2-8.9,11.4-18.3,16.1-28.1
		c2.4-4.9,4.5-10.1,6.2-15.3c1.7-5.4,2.8-10.9,3.6-16.5c1.2-8.7,1.3-17.6,0-26.3c0-0.2-0.2-0.3-0.4-0.3
		C788.1,526.8,787.8,526.9,787.8,527.1L787.8,527.1z M787.9,528.1C787.9,528.2,787.9,528.2,787.9,528.1
		C787.9,528.2,787.9,528.2,787.9,528.1C787.9,528.2,787.9,528.2,787.9,528.1L787.9,528.1z M769.1,573.9c-0.1,0.2-0.2,0.5-0.3,0.7
		C768.9,574.4,769,574.2,769.1,573.9L769.1,573.9z M303.6,702c0.1,0.1,0.2,0.1,0.4,0.2C303.9,702.1,303.8,702,303.6,702L303.6,702z
		 M628.6,702.5c-0.1,0-0.2,0.1-0.3,0.1C628.5,702.6,628.5,702.5,628.6,702.5L628.6,702.5z"/>
	<path d="M166,479.7c-0.2,0.2-0.3,0.4-0.5,0.7c-0.2,0.2-0.4,0.5-0.6,0.7c-0.5,0.9-1,1.7-1.5,2.6c-0.1,0.1-0.2,0.2-0.2,0.4
		c-0.2,0.4-0.4,0.8-0.7,1.2c-0.1,0.1-0.1,0.2-0.2,0.3c-1.2,2.3-2.5,4.5-3.6,6.8c-1,2.1-2,4.1-2.9,6.1c-0.1,0.2-0.2,0.4-0.2,0.7
		c-0.2,0.5-0.4,0.9-0.6,1.4c-1.1,2.2-2.1,4.5-3.1,6.8c-1,2.3-1.9,4.6-2.8,6.9c-0.1,0.1-0.1,0.3-0.2,0.4c-1,2.8-1.9,5.6-2.8,8.5
		c-0.8,2.8-1.4,5.6-2,8.4c-0.1,0.4-0.2,0.7-0.2,1.1c0,0.1,0,0.2-0.1,0.2c0,0,0,0,0,0c0,0.2,0,0.4,0,0.6c-0.8,4.8-1.1,9.7-1.2,14.5
		c0,0.7,0.1,1.3,0.3,1.9c-0.1,0.7,0.2,1.5,0.6,2.1c0,0.5,0.1,1,0.5,1.5c0.1,0.2,0.3,0.3,0.4,0.4c0.1,0.1,0.2,0.3,0.4,0.4
		c0.1,0.9,0.2,1.8,0.3,2.7c0,0,0,0,0,0c0.3-0.9,0.6-1.7,0.8-2.6c0.2-0.1,0.3-0.1,0.4-0.2c0.2-0.1,0.5-0.2,0.7-0.4
		c0.3-0.3,0.5-0.6,0.6-0.9c0,0,0,0,0,0c0-0.1,0-0.1,0.1-0.2c0.5-0.5,1-1.1,1.1-1.8c0.4-0.5,0.8-1.1,0.8-1.8
		c1.2-4.3,2.5-8.6,3.9-12.8c0.2-0.3,0.3-0.6,0.4-0.9c1.5-5.6,3.3-11.2,5.2-16.7c0.1-0.1,0.1-0.3,0.1-0.4c1.3-3.7,2.6-7.4,4-11.1
		c0.4-0.9,0.8-1.9,1.2-2.8c0.1-0.2,0.2-0.4,0.3-0.6c0.3-0.4,0.6-0.9,0.8-1.4c0.6-1.2,1.1-2.3,1.7-3.5c0.5-1,1-1.9,1.5-2.9
		c0.7-1.4,1.4-2.7,2.2-4.1c0.1-0.1,0.1-0.3,0.2-0.4c0.2-0.4,0.4-0.8,0.6-1.1c0.1-0.1,0.2-0.3,0.2-0.4c0.5-0.9,1-1.7,1.5-2.6
		c0.2-0.3,0.3-0.6,0.5-0.9c0.1-0.3,0.3-0.6,0.4-0.8c0.7-1,0.9-2.6,0.7-3.8c-0.2-1.3-1-2.6-2.1-3.3c-1.2-0.8-2.5-1.1-3.8-0.8
		C168,477.8,166.8,478.5,166,479.7L166,479.7z"/>
	<path d="M758.5,464.9C758.5,464.9,758.5,464.9,758.5,464.9c0.2,0.4,0.4,0.8,0.6,1.1c0,0-0.1-0.1-0.1-0.1c0.1,0.2,0.3,0.5,0.4,0.7
		c0,0.3,0,0.5,0.2,0.7c0.8,1.6,1.6,3.2,2.3,4.8c0.8,1.7,1.7,3.3,2.5,5c0.9,1.8,1.7,3.6,2.5,5.4c0.8,1.7,1.7,3.4,2.3,5.2
		c0.3,0.9,0.8,1.8,1.2,2.6c0.4,1,0.9,1.9,1.3,2.9c0.8,1.9,1.6,3.8,2.4,5.8c1.6,3.8,3,7.7,4.2,11.6c1.9,6.8,3.2,13.8,3.6,21
		c0.2,5.2-0.1,10.4-0.7,15.6c0-0.2,0.1-0.3,0.1-0.5c-0.2,0.9-0.3,1.8-0.4,2.7c-0.7,3.5-1.6,6.9-2.5,10.3c0,0,0,0.1,0,0.1
		c-0.1,0.2-0.1,0.4-0.2,0.6c-0.1,0.2-0.1,0.4-0.2,0.6c-0.7,2.4-1.5,4.8-2.4,7.1c-0.1,0.2-0.1,0.3-0.2,0.5c-0.1,0.2-0.2,0.5-0.3,0.7
		c0,0.1-0.1,0.2-0.1,0.3c-0.1,0.2-0.2,0.5-0.3,0.7c-0.2,0.4-0.4,0.8-0.6,1.3c-1.1,2.4-2.3,4.8-3.5,7.2c-0.1,0.2-0.3,0.4-0.4,0.6
		c-1.7,2.9-3.4,5.8-5.2,8.6c-2,3.1-4,6.1-6,9.2c-1.9,2.8-3.8,5.7-5.7,8.5c-1,1.5-2,2.9-3,4.3c-1.1,1.7-2.3,3.3-3.5,4.9
		c-2.1,2.7-4.2,5.4-6.5,7.9c0,0,0,0,0,0c3.1-1.6,6.3-3.3,9.3-5c1.5-0.8,3-1.8,4.5-2.7c1.6-1,3.2-2.1,4.8-3.2c2.8-2,5.4-4.2,7.9-6.6
		c2.9-2.8,5.4-6,7.9-9.3c-0.2,0.2-0.4,0.5-0.5,0.7c2.2-3,4.3-6.1,6.1-9.4c0.1-0.2,0.2-0.4,0.3-0.7c1.8-3.3,3.4-6.6,4.9-10.1
		c0,0,0,0,0-0.1c0.2-0.4,0.4-0.9,0.6-1.3c0.2-0.4,0.4-0.8,0.5-1.3c1.1-2.7,2.1-5.5,3-8.3c0.1-0.2,0.1-0.5,0.2-0.7
		c0-0.1,0-0.1,0.1-0.2c0.1-0.2,0.1-0.3,0.1-0.5c1-3.3,1.6-6.7,2.2-10.2c0.6-3.4,1-6.9,1.2-10.4c0.3-4.2,0.3-8.3,0.1-12.5
		c-0.2-4.9-0.7-9.7-1.6-14.5c-0.8-4.3-2-8.5-3.2-12.6c-1.2-3.9-2.7-7.7-4.4-11.4c-0.9-1.9-1.9-3.7-2.9-5.5c-1.1-2-2.3-3.9-3.5-5.8
		c-2-2.9-4.4-5.5-6.9-8c-1.4-1.5-2.9-3-4.4-4.4c-1.6-1.5-3.3-2.7-5-4.1c0,0,0,0,0,0c-0.2-0.2-0.4-0.3-0.7-0.3
		c-0.5-0.4-1-0.8-1.6-1.2c-0.1-0.1-0.3-0.2-0.4-0.2C758.5,463.5,758.1,464.4,758.5,464.9L758.5,464.9z M747,615c0,0-0.1,0.1-0.1,0.1
		C746.9,615,747,615,747,615L747,615z"/>
	<path d="M132.8,385.4c-1.5,1.5-2.1,3.7-1.6,5.8c1.5,6,3.5,11.9,5.8,17.7c2.6,6.5,5.1,12.9,7.5,19.4c2.4,6.4,4.8,12.8,7.1,19.2
		c2.3,6.4,4.6,12.8,7,19.2c2.3,6.3,4.7,12.5,7,18.7c2.4,6.5,4.8,13.1,7.2,19.6c1.1,2.9,2.1,5.9,3.3,8.8c1.3,3.2,2.6,6.4,4,9.5
		c1.1,2.4,2.2,4.8,3.4,7.2c1.2,2.4,2.5,4.8,3.8,7.1c2.8,5.1,5.9,10,9.1,14.8c0.1,0.2,0.2,0.3,0.3,0.4c0.2,0.3,0.4,0.5,0.5,0.8
		c0,0,0,0,0,0c0.1,0.2,0.3,0.4,0.6,0.4c0.3,0.5,0.6,0.9,0.9,1.4c0,0,0,0,0,0c0-0.3-0.1-0.5-0.1-0.8c0,0,0,0,0,0
		c0-0.3-0.1-0.6-0.1-0.8c0.1-0.1,0.2-0.3,0.2-0.5c0-0.1,0-0.2,0-0.3c0,0.1,0,0.2,0,0.2c0-0.4-0.1-0.7-0.1-1.1c0-0.1,0-0.2,0-0.2
		c0,0,0,0,0-0.1c0,0,0,0,0,0.1c0,0,0-0.1,0-0.1c0,0,0,0,0-0.1c0,0,0,0,0,0c0-0.4-0.1-0.8-0.1-1.2c0,0.1,0,0.3,0,0.4
		c-1.1-8.7-2.8-17.4-4.9-26c-0.6-2.6-1.5-5.1-2.3-7.7c-1-3.1-2-6.2-3.1-9.2c-1-2.9-2.2-5.8-3.3-8.6c-1.3-3.4-2.6-6.9-3.9-10.4
		c-1.2-3.1-2.4-6.3-3.6-9.4c-1.2-3.2-2.3-6.5-3.5-9.7c-2.4-6.3-4.8-12.6-7.2-18.9c-4.9-12.7-9.6-25.5-14.2-38.3
		c-1.6-4.5-3.1-9-4.9-13.5c-1.7-4.2-3.5-8.5-5.6-12.5c0,0,0,0,0,0c-1-1.8-2.9-3-5.1-3C135.4,383.6,133.9,384.3,132.8,385.4
		L132.8,385.4z M198.7,554.6C198.7,554.6,198.7,554.6,198.7,554.6C198.7,554.6,198.7,554.6,198.7,554.6L198.7,554.6z"/>
	<path d="M798.8,380.6c-2,2.5-3.8,5-5.6,7.6c-2.4,3.3-4.7,6.7-7,10.1c-4.4,6.8-8.4,13.8-11.8,21.1c-1.7,3.5-3.2,7.1-4.9,10.6
		c-1.8,3.9-3.6,7.7-5.5,11.5c-3.6,7.4-6.9,15-10.3,22.5c-1.7,3.7-3.4,7.3-5.2,11c-1.8,3.8-3.7,7.7-5.5,11.5
		c-3.6,7.6-6.9,15.3-10.5,22.9c-3.6,7.5-7.2,15-10.2,22.8c-2.7,7-5.2,14.1-7.1,21.3c-1,3.6-1.8,7.2-2.7,10.8c-0.6,2.6-1,5.3-1.6,7.9
		c0,0,0,0,0,0c0.8-1,1.7-2,2.5-3.1c3.3-4.3,6.6-8.7,9.6-13.2c4.3-6.3,8-12.9,11.7-19.6c3.9-7.2,7.1-14.7,10.4-22.1
		c3.4-7.6,7.1-15.1,10.5-22.7c3.4-7.6,6.7-15.3,10.3-22.8c3.5-7.4,7-14.8,10.3-22.3c1.6-3.6,3.2-7.3,4.9-10.9
		c1.8-3.8,3.6-7.6,5.3-11.5c3.4-7.6,6.1-15.3,8.4-23.2c1-3.2,1.8-6.5,2.6-9.8c0.9-3.4,1.7-6.7,2.3-10.1c0.1-0.5-0.3-0.7-0.6-0.7
		C799.1,380.3,798.9,380.4,798.8,380.6L798.8,380.6z M713.4,569.3C713.4,569.4,713.4,569.4,713.4,569.3
		C713.4,569.4,713.4,569.4,713.4,569.3L713.4,569.3z"/>
	<path d="M144.4,544.3c-1,0.6-1.1,1.9-1.3,2.7c-0.2,0.9-0.3,1.7-0.4,2.6c-0.2,1.4-0.2,2.8-0.2,4.2c0,2.7,0.4,5.4,1.3,8
		c0.9,2.8,2.3,5.5,3.9,8.1c0.7,1.1,1.4,2.2,2.3,3.3c0.5,0.6,1,1.3,1.6,1.9c0.5,0.5,1,1.1,1.6,1.6c0,0,0.1,0,0.1,0
		c-0.1-0.1-0.1-0.1-0.2-0.2c-0.5-1-0.7-2.1-1-3.2c-0.3-1.2-0.7-2.4-1-3.6c-0.6-2.2-1.2-4.3-1.9-6.5c-0.7-2.3-1.5-4.6-2.2-6.8
		c-0.7-2.2-1.1-4.5-1.6-6.8c0,0.1,0,0.2,0.1,0.3c-0.1-0.8-0.3-1.7-0.4-2.6c0.1-0.2,0.2-0.5,0.3-0.7c0.2-0.5,0.3-1.1,0.3-1.7
		c0-0.3-0.3-0.4-0.7-0.6c0,0-0.1,0-0.1,0C144.7,544.2,144.5,544.3,144.4,544.3L144.4,544.3z M145,545.2c0,0.1,0,0.1,0,0.2
		c0,0,0,0,0,0c0,0.3,0,0.6-0.1,0.9c0,0,0,0,0,0c0,0,0,0.1,0,0.1C145,545.9,145,545.6,145,545.2L145,545.2z M145,546.2
		C145,546.2,145,546.2,145,546.2C145,546.2,145,546.2,145,546.2L145,546.2z"/>
</g>
</svg>
