<?xml version="1.0" encoding="UTF-8" standalone="no"?>
<!-- Generator: Adobe Illustrator 20.1.0, SVG Export Plug-In . SVG Version: 6.00 Build 0)  -->

<svg
   xmlns:dc="http://purl.org/dc/elements/1.1/"
   xmlns:cc="http://creativecommons.org/ns#"
   xmlns:rdf="http://www.w3.org/1999/02/22-rdf-syntax-ns#"
   xmlns:svg="http://www.w3.org/2000/svg"
   xmlns="http://www.w3.org/2000/svg"
   xmlns:sodipodi="http://sodipodi.sourceforge.net/DTD/sodipodi-0.dtd"
   xmlns:inkscape="http://www.inkscape.org/namespaces/inkscape"
   version="1.1"
   x="0px"
   y="0px"
   viewBox="0 0 2168.2 2318.3"
   style="enable-background:new 0 0 2168.2 2318.3;"
   xml:space="preserve"
   id="svg2"
   inkscape:version="0.91 r13725"
   sodipodi:docname="Help.svg"><metadata
     id="metadata79"><rdf:RDF><cc:Work
         rdf:about=""><dc:format>image/svg+xml</dc:format><dc:type
           rdf:resource="http://purl.org/dc/dcmitype/StillImage" /><dc:title /></cc:Work></rdf:RDF></metadata><defs
     id="defs77" /><sodipodi:namedview
     pagecolor="#ffffff"
     bordercolor="#666666"
     borderopacity="1"
     objecttolerance="10"
     gridtolerance="10"
     guidetolerance="10"
     inkscape:pageopacity="0"
     inkscape:pageshadow="2"
     inkscape:window-width="2560"
     inkscape:window-height="1315"
     id="namedview75"
     showgrid="false"
     inkscape:zoom="0.10179873"
     inkscape:cx="-5836.4186"
     inkscape:cy="1159.15"
     inkscape:window-x="0"
     inkscape:window-y="1"
     inkscape:window-maximized="1"
     inkscape:current-layer="svg2" /><style
     type="text/css"
     id="style4">
	.st0{opacity:0.3056;}
	.st1{fill:#7F7F7F;}
	.st2{opacity:0.5417;}
	.st3{opacity:0.849;}
	.st4{fill:#5CBA6B;}
	.st5{opacity:0.5451;}
</style><g
     id="Layer_2"
     class="st0"><path
       class="st1"
       d="M1892.7,1583.8c-2.3,0.5-3.4,2.3-4.2,4.3c-0.4,0.9-0.9,1.8-1.2,2.7c-0.3,0.7-0.4,1.4-0.4,2.1   c0,0.1-0.1,0.2-0.1,0.3c-0.8,1.7-1.6,3.4-2.2,5.2c-0.8,1.9-1,3.9-1,5.9c-0.1,0.9-0.2,1.8-0.3,2.7c-0.3,0.5-0.6,1-1,1.6   c-1.8,2.3-3.4,4.6-4.4,7.4c-0.2,0.6-0.4,1.3-0.6,1.9c-1.2,2.1-2.6,4.1-3.8,6.2c-1.4,2.4-2.8,4.7-4.4,7c-1,1.4-2,2.7-2.5,4.4   c-0.2,0.6-0.3,1.2-0.5,1.7c-0.3,0.6-0.7,1.3-0.8,2c-0.2,0.9-0.2,1.9-0.1,2.7c-0.6,0.6-1.3,1.2-2,1.8c-3,2.8-5.5,5.8-8.2,8.9   c-2.7,3.2-5.7,6.2-8.4,9.4c-2.7,3.1-5.2,6.3-8,9.4c-1.4,1.5-2.8,3-4.3,4.4c-1.6,1.5-3.3,2.8-5,4.2c-3.3,2.8-6.7,5.4-10.1,8.1   c-1.4,1.2-2.7,2.5-3.9,3.8c-1.5,1.6-3.1,3.1-4.7,4.7c-3.2,3.1-6.1,6.5-9,9.9c-2.9,3.3-5.9,6.5-8.9,9.6c-1.5,1.5-2.9,3.1-4.4,4.6   c-1.1,1.2-2.4,2.2-3.7,3.2c-2,1.5-4.1,2.8-6.4,3.9c-4.2,1.6-8.5,3-12.8,4.1c-2.5,0.7-4.9,1.3-7.5,1.8c-1.2,0.2-2.4,0.4-3.5,0.8   c-1.2,0.4-2.3,0.9-3.5,1.3c-2.7,0.9-5.1,2.2-7.7,3.3c-1.6,0.7-2.9,1.7-4.2,2.7c-1.2,0.9-2.4,1.8-3.6,2.7c-1.1,0-2.1,0.1-3.2,0.2   c-1.8,0.2-3.7,0.4-5.5,0.7c-3,0.5-6,1-9,1.7c-4.9,1-9.7,2.1-14.6,3.1c-2.3-0.4-4.7-0.7-7-1c-3.5-0.4-7-0.6-10.5-0.8   c-4.5-0.2-9-0.3-13.5-0.3c-2.9,0-5.8,0-8.7,0.1c-7,0.1-14,0.4-21,0.8c-4.1,0.2-8.2,0.6-12.3,0.9c-2.1,0.2-4.2,0.5-6.4,0.8   c-3.6,0.5-7.5,1-10.4,3.4c-0.1,0.1-0.2,0.2-0.3,0.2c-1.1-0.1-2.2-0.2-3.3-0.2c-5.1-0.4-10.1-0.4-15.2-0.6   c-10.3-0.4-20.6-1.3-30.9-0.8c-0.9,0-1.8,0.1-2.6,0.1c-1.3,0.1-2.5,0.2-3.7,0.5c-1.4,0.2-2.7,0.9-4.1,1.5c-1,0.4-1.8,1.1-2.6,2   c-6.6-0.4-13.2-0.6-19.9-0.4c-4.8,0.2-9.7,0.5-14.5,0.6c-5.3,0.1-10.6,0.1-16,0.1c-4.4,0-8.8,0-13.2,0c-0.8-0.1-1.6-0.2-2.3-0.2   c-2.6-0.2-5.2-0.5-7.9-0.7c-6-0.3-11.9-0.6-17.9-0.8c-10.6-0.3-21.3-0.4-31.9-0.5c-21.3-0.3-42.7-0.4-64,0   c-3.2,0.1-6.4,0.2-9.6,0.3c-1.6,0-3.2,0.1-4.8,0.3c-2,0.2-3.8,0.6-5.4,1.6c-1.1,0-2.2-0.1-3.3-0.2c-10.5-0.6-21-1.4-31.6-2   c-5.4-0.3-10.7-0.6-16.1-0.9c-4.9-0.3-9.8-0.6-14.8-0.8c-11-0.3-22.1-0.3-33.2-0.3c-9.5,0-19-0.3-28.5-1c-10-0.8-20-1.9-30.1-1.9   c-17.6-0.1-35.2,0.8-52.7,1.7c-3.2-0.4-6.3-0.8-9.5-1.2c-8.8-1.1-17.6-1.6-26.4-2.1c-4.9-0.3-9.8-0.6-14.7-0.9   c-2.6-0.2-5.1-0.4-7.7-0.6c-0.9-0.1-1.9-0.1-2.8-0.2c-0.7,0-1.3-0.1-2-0.1c-1.7-0.1-3.4,0.3-5.1,0.6c-2,0.6-3.8,1.6-5.2,3   c-1.8,1.8-2.9,4.1-3.3,6.6c-3.6-0.3-7.2-0.4-10.8-0.5c-5.1-0.2-10.1-0.4-15.2-0.6c-10.4-0.5-20.8-0.8-31.2-1   c-21-0.4-42.1,0.4-63.2,0.4c-11.7,0.1-23.4-0.1-35-0.4c-1.6-0.6-3.2-0.9-4.9-1.1c-2.5-0.4-5-0.7-7.5-0.9c-2.5-0.2-5-0.4-7.5-0.6   c-4.5-0.4-9-0.6-13.5-0.8c-4.4-0.2-8.7-0.4-13-0.6c-5.5-0.3-11.4-1.1-16.8,0.2c-2.8,0.6-5.2,2.8-6.5,5.3   c-5.6,0.1-11.3,0.3-16.9,0.5c-5.8-0.5-11.6-0.9-17.3-1.2c-0.8,0-1.6-0.1-2.3-0.1c-7.7-1-15.4-2-23.1-2.9   c-5.2-0.6-10.3-1.2-15.5-1.7c-2.6-0.3-5.1-0.5-7.7-0.7c-3.4-0.3-7-0.9-10.3-0.1c-2.7,0.7-4.9,3-5.6,5.6c-0.1,0.2-0.1,0.4-0.2,0.6   c-0.3,1.1-0.4,2.2-0.2,3.3c-6.5,0-13,0.1-19.5-0.3c-4.4-0.2-8.7-0.6-13.1-0.7c-4.4-0.1-8.9,0.1-13.3,0.2   c-8.8,0.3-17.6,1.3-26.5,1.2c-7.7-0.1-15.4-0.4-23.1-0.8c-2.1-0.3-4.3-0.7-6.4-0.9c-4.6-0.5-9.1-1-13.7-1.5   c-9.3-0.9-18.7-1.8-28-2.3c-8.9-0.5-17.8-0.5-26.7-1c-9.4-0.5-18.6-1.2-28-1.1c-3.2,0-6.4,0.1-9.7,0.4c-0.1,0-0.1,0-0.2,0   c-3.8-0.2-7.5,2-9.6,5.1c-3.2-0.5-6.5-0.9-9.7-1.2c-4.3-0.5-8.5-0.8-12.8-1c-4.2-0.1-8.3,0.2-12.5,0.6c-8.8,0.8-17.8,1-26.7,0.7   c-4.5-0.2-8.9-0.5-13.4-0.6c-4.3-0.1-8.7-0.1-13-0.2c-6.2-0.1-12.3-0.4-18.5-0.6c-5.6-0.2-11.3-0.4-16.9-1c-7-1.2-14-2.6-20.6-5   c-6.8-2.5-13.6-5.1-20.3-7.9c-4.5-2-9-4-13.6-5.7c-1.9-0.7-3.9-1.4-5.8-2c-0.3-0.2-0.5-0.4-0.8-0.5c-1.9-1.4-3.9-2.7-5.9-4   c-3.7-2.6-7.5-5-11.4-7.3c-7.1-4.2-14.7-7.3-22.4-10.3c-0.9-0.7-1.7-1.5-2.5-2.3c-1.5-1.4-3-2.8-4.4-4.3c-1.2-1.3-2.3-2.6-3.4-4   c-1.1-1.6-2.2-3.3-3.2-4.9c-0.5-0.8-1-1.5-1.4-2.3c-1.7-3.1-4.1-5.9-7.8-6.7c-2.5-0.6-4.9-0.5-7.2,0.3c-1.1-0.6-2.3-1-3.6-1.2   c0.1-3-1-5.7-2.3-8.3c-0.8-1.5-1.7-2.9-2.5-4.4c-1.2-3.9-1.5-8.1-2.8-12c-1.2-3.4-2.5-6.4-5.1-9c-1.9-1.9-4.3-3.3-6.4-4.9   c-0.4-0.4-0.9-0.7-1.3-1.1c-0.8-0.8-1.6-1.7-2.3-2.6c-0.5-0.7-1-1.5-1.4-2.3c-0.6-1.9-0.9-3.8-1.6-5.7c-0.4-1.1-0.9-2.2-1.2-3.4   c0-0.9-0.1-1.8-0.1-2.7c-0.1-1.5-0.2-3-0.6-4.5c-0.4-1.6-1.1-2.8-1.9-4c-0.4-1.7-1.2-3.2-2.5-4.4c-1.6-1.6-3.7-2.6-5.8-2.9   c-0.2-0.2-0.5-0.5-0.8-0.6c0-0.1,0-0.2,0-0.4c0.1-0.4,0.2-0.9,0.2-1.3c0-0.9-0.2-1.8-0.6-2.5c-0.7-1.2-2-1.8-3.3-1.8   c-1.2,0-2.5,0.6-3.2,1.7c-0.6,1.1-0.7,2.7,0.1,3.7c0.3,0.4,0.6,0.7,0.9,1c0.1,0.1,0.2,0.2,0.3,0.3c0.1,0.1,0.1,0.2,0.2,0.3   c0.1,0.1,0.2,0.3,0.3,0.4c0,0,0,0.1,0,0.1c0,0,0,0,0,0c0,0.1-0.1,0.2-0.1,0.3c-3,1.8-5.4,5.6-5,9.2c0.4,3,0.3,2.6,1.5,5.3   c0.1,0.2,0.2,0.4,0.3,0.6c0.1,0.1,0.1,0.2,0.2,0.4c-0.1,1.4-0.3,2.8-0.2,4.2c0.2,2.3,0.8,4.5,1.2,6.7c0.2,2.1,0.3,4.2,0.7,6.3   c0,0.3,0.1,0.5,0.1,0.8c0,0.1,0,0.3,0,0.4c0,0,0,0,0,0c-0.1,1,0.2,2.2,0.7,3.2c-0.8,2.6-1.8,5.1-2.9,7.7c-1.4,1.2-2.6,2.6-3.6,4.3   c-2.1,3.4-2.2,7.5-2.4,11.3c-0.1,1.8-0.2,3.7-0.2,5.5c0,2.4,0.4,4.8,0.5,7.1c0.2,4,0.2,8,0.4,12.1c0.2,4.4,1,8.8,1.7,13.2   c0.3,3.1,0.6,6.3,0.3,9.4c-0.1,0.9-0.2,1.7-0.3,2.6c-0.4,3.4,0.1,6.8,0.8,10.1c0,1.4,0,2.8-0.1,4.3c-0.2,2.7-0.1,5.2,0.3,7.9   c0.4,3.5,0.9,6.9,1.7,10.3c1.1,4.4,2.3,8.8,3.1,13.2c0.3,2.6,0.7,5.2,1.5,7.7c0.2,0.8,0.5,1.6,0.7,2.4c0.3,1.4,0.8,2.8,1.4,4.1   c-1.1,3.1-0.9,6.7-0.7,9.8c0.1,1.4,0.2,2.7,0.2,4.1c0.1,1.5,0.1,3,0.1,4.5c0,1.7-0.3,3.3,0.2,5c0.3,1.1,0.7,2.2,1.2,3.3   c0.8,1,1.6,2.1,2.4,3.1c0.4,0.4,0.9,0.7,1.3,1.1c0.8,0.7,1.6,1.3,2.5,1.9c0.7,0.5,1.3,1,2.1,1.4c0.6,0.3,1.2,0.6,1.8,0.9   c1.4,3.6,2.5,7.2,3.6,10.9c0.5,1.9,1,3.7,1.5,5.6c1.2,4.6,2.9,9.1,5.3,13.2c1.8,3.2,3.9,6.4,6.1,9.3c1.9,2.5,3.8,5,5.7,7.4   c3.1,3.9,6.7,7,10.6,10c7.3,5.6,15.5,10,23.3,14.6c3.7,2.1,7.1,4.5,10.7,6.8c3.2,2.1,6.5,3.9,9.6,6c1.4,1.3,2.7,2.8,3.9,4.3   c1.8,2.3,3.5,4.6,5.3,6.9c1.2,1.5,2.4,3,3.8,4.4c2.5,2.5,5.6,4.5,8.4,6.6c2.4,1.7,4.8,3.7,7.3,5.1c2.9,1.6,5.9,3,8.8,4.5   c5.5,2.9,10.9,6,16.4,8.8c5.7,2.9,11.6,5.3,17.4,7.7c5.3,2.5,10.4,5.2,15.4,8.2c2.5,1.6,5.1,3.2,7.7,4.7c0.3,1.3,0.7,2.6,1.7,4.4   c1.4,2.4,3.6,4.7,6.1,6c1,0.6,3.4,1.7,5.1,2c2.9,0.6,6.6,1.1,9.6,1.1c0.4,0,0.7,0,1.1,0c2.9,0.4,5.8,0.7,8.7,0.7   c3.1,0.1,6.3,0.1,9.4,0.1c1.7,0,3.3,0,5,0c5.5,0,10.9-0.6,16.3-0.9c2.4-0.2,4.9-0.3,7.3-0.3c2.9,0,5.9,0.3,8.9,0.4   c10.9,0.4,21.6-1.2,32.3-2.6c10.9-1.5,21.8-1.9,32.8-1.2c11.3,0.7,22.6,0.7,33.9,0.2c11.4-0.6,22.7-1.3,34.1-1.8   c11.4-0.5,22.8-0.5,34.2-1.1c6.5-0.4,13-0.9,19.5-1.8c2.7,0.6,5.5,1.3,8.2,1.8c8,1.6,16.1,2.9,24.2,3.6c3.9,0.4,7.8,0.5,11.7,0.5   c4.1,0,8.1-0.7,12.1-1.3c6.5-1,12.5-3.7,18.9-5c10.3-1.2,20.8-1.2,31.2-0.9c4.9,0.1,9.9,0.3,14.8,0.4c5.5,0.1,10.9,0,16.3-0.1   c11.1-0.2,22.1-0.5,33.2-0.8c9.5-0.3,19.1-0.6,28.6,0.5c5.5,1,11,2.1,16.6,2.8c5.6,0.8,11.2,1,16.9,1.2c11.1,0.3,22.2,0.6,33.3,1.4   c5.1,0.4,10.1,0.9,15.2,1.1c5.5,0.2,11.1,0.3,16.6,0.3c5.3,0,10.5-0.5,15.8-0.8c5.9-0.3,11.7-0.5,17.6-0.8   c22.1-1.1,44.3-0.3,66.4-0.1c5.3,0.1,10.5,0,15.8-0.1c5.6-0.1,11.2-0.2,16.8-0.1c4.5,0.1,9.1,0.2,13.6,0.3c0,1.1,0.1,2.3,0.4,3.4   c1.7,6.1,8,9.4,14,8c4.5-1.1,8.9-2.1,13.4-3.2c5.8-1.4,11.6-2.9,17.5-3.9c9.1-0.8,18.1,0.2,27.1,1.2c5.8,0.6,11.7,0.7,17.5,0.8   c5.4,0.1,10.8-0.1,16.3-0.2c5.9-0.1,11.9-0.2,17.8-0.3c22.1-0.4,44.1-2.3,66.2-2.5c11.4-0.1,22.7-0.3,34.1-0.5   c11-0.2,22.1-0.5,33.1-0.7c23.1-0.5,46.3,0.6,69.3,2.1c11.3,0.7,22.7,0.6,34,0.8c10.6,0.2,21.2-0.1,31.9-0.2   c11.3-0.1,22.6-0.1,33.9,0.2c5.3,0.1,10.6,0.1,15.9,0.1c5.7,0,11.5,0.2,17.2-0.2c5.8-0.5,11.6-1.2,17.5-1.4   c6-0.2,12.1-0.4,18.1-0.6c10.2-0.2,20.4,0.4,30.6,1.7c6.8,1,13.7,1.8,20.6,2.4c6.9,0.6,13.8,0.5,20.7,0.4c1.4,0,2.8,0,4.2,0   c5.1,0,10.2,0,15.3-0.6c1.8-0.2,3.8-0.4,5.5-1c1.4-0.5,2.8-1.1,4.2-1.8c0.5-0.2,1-0.5,1.4-0.8c2.1,0.4,3.9,0,6.3-0.3   c1.8-0.2,3.5-0.6,5.2-1.2c4.4-1.4,8.8-3.4,13-5.3c3.4-1.6,6.7-3.5,10.1-5.2c3.4-1.7,6.9-3.1,10.3-4.7c3.4-1.7,6.9-3.3,10.2-5   c3.3-1.8,6.5-3.8,9.7-5.8c6.9-4.4,13.4-9.4,19.8-14.5c4.6-3.4,9.6-6.3,14.3-9.6c4.9-3.4,9.9-6.6,14.9-9.8c2.2-1.4,4.4-3,6.5-4.6   c2.9-2.1,6-4.1,8.5-6.7c4.3-4.4,7.5-9.7,11.2-14.6c-0.5,0.6-1,1.3-1.5,1.9c1.5-1.9,3-3.9,4.4-5.9c3.9-4.6,8.9-8,13.2-12.2   c1.5-1.5,2.7-3.3,3.9-5.1c0.9-1.3,1.9-2.6,2.7-4c1.6-2.7,3.1-5.5,4.9-8.1c1.1-1.4,2.3-2.8,3.4-4.2c1.3-1.7,2.6-3.3,4-4.9   c1.2-1.3,2.5-2.5,3.7-3.9c1.4-1.7,2.5-3.5,3.4-5.5c1.1-2.6,2.6-5,3.9-7.5c1.2-2.3,1.4-4.9,2.1-7.3c0.1-0.2,0.3-0.5,0.4-0.7   c0.5-0.7,0.8-1.4,1.2-2.2c0,0.1-0.1,0.2-0.1,0.3c0.6-1.3,1.2-2.7,1.8-4c0,0,0.1-0.1,0.1-0.1c0,0.1-0.1,0.2-0.1,0.2   c0-0.1,0.1-0.2,0.2-0.3c0.6-0.7,1.3-1.5,1.8-2.3c0.8-1.1,0.8-2.2,1.2-3.3c0.2-0.5,0.5-1,0.7-1.6c0.1-0.1,0.1-0.3,0.1-0.4   c0.1-0.1,0.2-0.2,0.3-0.4c0.6-0.8,0.9-2,1.2-3c0.9-2.8,0.2-6.6-2.1-8.5c-0.8-1.1-1.5-2.2-2.4-3.2c0.2-1.2,0.3-2.4,0.5-3.6   c0.7-4.8,1.3-9.6,1.6-14.4c0.2-4.7-0.2-9.4-0.5-14.1c-0.3-4.5-0.9-9-0.7-13.5c0.1-3.6,0.6-7.2,1.1-10.7c1-6.8,2.5-13.5,2.7-20.4   c0.2-5.9-0.3-11.6-1-17.4c-0.2-2.1-0.2-4.4,0-6.5c1-5.3,2.8-10.5,3.2-16c0.4-5.7-0.6-11.3-1.5-16.9c-0.5-6,0.2-12.1-0.2-18.1   c-0.4-6.5-1.2-12.9-2.2-19.3c-0.2-1.9-0.2-3.9,0-5.8c0.2-2.3,0.5-4.5,0.3-6.8c-0.2-2.8-0.9-5.4-1.8-8c-0.4-1.2-0.7-2.5-0.9-3.8   c0-0.1,0.1-0.2,0.1-0.3c0.7-1.5,1.3-2.9,1.3-4.6c0-0.4-0.1-0.8-0.2-1.2c0.1-0.1,0.1-0.2,0.2-0.3c1-2,1.4-4.6,0.1-6.6   c-1-1.7-2.9-2.7-4.9-2.7C1893.6,1583.7,1893.1,1583.7,1892.7,1583.8L1892.7,1583.8z M237.4,1648c0.5,0.4,1,0.7,1.5,1.1   C238.4,1648.7,237.9,1648.4,237.4,1648L237.4,1648z M243.8,1710C243.8,1710,243.8,1710,243.8,1710c0,0.1,0,0.2,0,0.3   C243.7,1710.2,243.7,1710.1,243.8,1710L243.8,1710z M1199.3,1773.4C1199.4,1773.4,1199.4,1773.4,1199.3,1773.4   c0.1,0.1,0.1,0.3,0.1,0.4C1199.4,1773.6,1199.4,1773.5,1199.3,1773.4L1199.3,1773.4z M845.8,1776.6   C845.9,1776.6,845.9,1776.6,845.8,1776.6c-0.1,0-0.2,0.1-0.3,0.1C845.7,1776.6,845.8,1776.6,845.8,1776.6L845.8,1776.6z    M508.7,1783.5c0.6,0.1,1.2,0.1,1.8,0.2v0C509.9,1783.6,509.3,1783.5,508.7,1783.5L508.7,1783.5z M510.5,1783.7   c0.3,0,0.5,0.1,0.8,0.1l0,0C511.1,1783.7,510.8,1783.7,510.5,1783.7L510.5,1783.7z M510.7,1783.7l-0.1,0c0.3,0,0.5,0.1,0.8,0.1   l0.7,0.1C511.6,1783.8,511.2,1783.8,510.7,1783.7L510.7,1783.7z M1692.4,1785.1c-0.3,0-0.6,0.1-0.9,0.1   C1691.8,1785.2,1692.1,1785.1,1692.4,1785.1L1692.4,1785.1z M245.8,1808.9C245.8,1808.9,245.8,1808.9,245.8,1808.9   c0.1,0.1,0.2,0.3,0.3,0.4C245.9,1809.2,245.8,1809.1,245.8,1808.9L245.8,1808.9z M1899.6,1810.3   C1899.6,1810.3,1899.6,1810.3,1899.6,1810.3C1899.6,1810.3,1899.6,1810.3,1899.6,1810.3C1899.6,1810.3,1899.6,1810.3,1899.6,1810.3   L1899.6,1810.3z M1870.3,1810.4c-0.2,0.3-0.5,0.6-0.7,0.9C1869.8,1811.1,1870.1,1810.8,1870.3,1810.4L1870.3,1810.4z M1899,1812.3   c-0.1,0.3-0.2,0.5-0.3,0.8C1898.7,1812.9,1898.8,1812.6,1899,1812.3L1899,1812.3z M1896.7,1815.8c-0.2,0.4-0.4,0.9-0.5,1.3   c0,0,0,0.1-0.1,0.1C1896.3,1816.8,1896.5,1816.3,1896.7,1815.8L1896.7,1815.8z M1870.2,1834.4c0,0,0,0.1-0.1,0.1   c-0.5,0.4-0.9,0.7-1.3,1.1C1869.3,1835.2,1869.7,1834.8,1870.2,1834.4L1870.2,1834.4z M377,1915.1L377,1915.1c0,0,0.1,0,0.1,0.1   C377.1,1915.1,377.1,1915.1,377,1915.1L377,1915.1z M377.6,1915.3C377.6,1915.3,377.6,1915.3,377.6,1915.3c0.1,0,0.2,0.1,0.3,0.1   c0,0,0,0,0,0C377.8,1915.4,377.7,1915.4,377.6,1915.3L377.6,1915.3z M378,1915.5c0.2,0.1,0.4,0.2,0.6,0.2   C378.4,1915.7,378.2,1915.6,378,1915.5L378,1915.5z M703.2,1961.6c-0.5,0-0.9,0-1.4,0.1c0,0,0,0,0,0   C702.3,1961.6,702.8,1961.6,703.2,1961.6L703.2,1961.6z"
       id="path7" /></g><g
     id="Layer_3"
     class="st2"><path
       class="st1"
       d="M1744.2,450.6c-0.9,0.2-1.6,0.7-2.3,1.3c-1,1-1.4,2.2-1.5,3.6c0,0.1,0,0.2,0,0.2c0,0.1-0.1,0.2-0.1,0.4   c-0.1,0.4-0.2,0.9-0.1,1.3c0,0,0,0,0,0c0,0,0,0,0,0c0,0.3,0.1,0.6,0.1,1c0,0.1,0,0.2,0,0.3c0,0,0,0,0,0v0c0,0.1,0.1,0.2,0.1,0.4   c0,0.1,0.1,0.2,0.1,0.3c-0.1,0.6-0.2,1.1-0.2,1.7c0,1,0.2,2,0.4,2.9c0.2,1,0.5,2,0.9,2.9c0,0.1,0.1,0.2,0.1,0.3c0,0.7,0,1.3,0.1,2   c0.1,1.8,0.4,3.6,0.7,5.4c0.5,2.8,2.5,5.3,4.2,7.5c0.4,0.5,0.7,1,1.2,1.4c0.7,0.6,1.3,1.1,2,1.4c0.2,0.2,0.3,0.4,0.5,0.6   c0.2,0.2,0.3,0.3,0.4,0.5c-0.5,0.7-1,1.4-1.5,2.1c-2.8,4-3,9-3.5,13.7c-0.7,7.3,1.2,14.6,2.5,21.8c0.3,5.1-0.6,10.2-0.8,15.4   c-0.1,4,0,7.9-0.2,11.9c-0.2,3.9-0.6,7.7-0.8,11.6c-0.9,16.1-1.9,32.1-2.5,48.2c-0.3,8.1-1,16.1-1.3,24.2c-0.3,8.8,0,17.4,0.8,26.2   c0.6,7.7,1,15.4,1.5,23.1c0.6,8.2,1,16.3,1.3,24.5c0.4,10.9,0.5,21.8,0.7,32.7c0.1,5.8,0,11.5,0.1,17.3c0,5.6,0.5,11.1,0.4,16.7   c0,5.5-0.3,10.9-0.6,16.4c-0.3,5.8-0.3,11.5-0.2,17.3c0.1,9.7,0.5,19.4-0.5,29c-0.5,3.8-1,7.6-1.4,11.4c-0.4,4-0.1,8,0,11.9   c0.2,9.3,2.2,18.4,5.7,27.1c2.3,5.8,4.6,11.6,6.9,17.4c-0.7,6.4-0.3,13.1-0.4,19.4c-0.1,7.2-0.3,14.4-0.9,21.5   c-1.3,14.3-3.8,28.5-4.2,42.8c-0.2,7.7-0.4,15.4-0.4,23.1c0,7.8,0.8,15.5,0.8,23.2c0,7.2,0.3,14.4,0,21.6c-0.3,5.3-0.6,10.6-1.1,16   c-0.6,1.2-1,2.5-1.2,3.8c-0.9,4.6-1.2,9.2-1.6,13.8c-0.5,2.9-1.1,5.7-1.7,8.6c-0.9,4.3-1.9,8.7-2.7,13c-0.4,2.4-0.9,4.8-1.2,7.2   c-0.9,6.3-3,13.6-0.5,19.7c0.7,2.5,1.8,4.9,3.1,7.1c-0.2,2-0.3,3.9-0.2,5.9c0.2,4.2,1,8.4,1.8,12.5c0.2,1.3,0.5,2.6,0.8,3.9   c0.3,1.4,0.6,2.4,1,3.7c0.2,0.7,0.4,1.3,0.7,1.9c-1.2,2.8-1.8,5.7-1.8,8.8c-0.4,3.2,0.4,5.9,1.5,8.6c-1.8,2.1-3.1,4.6-4,7.4   c-1.5,4.4-0.8,10.2-0.4,14.7c0,0.6,0.1,1.3,0.2,1.9c-0.1,0.6-0.2,1.2-0.3,1.8c-0.7,2.3-1.5,4.7-2.3,7c-2.1,6-3,12.5-3.7,18.8   c-0.3,2.8-0.4,5.6-0.6,8.5c-0.2,2.8-0.5,5.5-0.7,8.2c-0.1,2.4-0.1,4.8-0.3,7.1c-0.1,0.9-0.2,1.9-0.3,2.8   c-0.4,6.5,3.7,13.2,9.1,16.6c0,0.3,0,0.6,0,0.9c-0.2,3.4-0.3,6.9-0.6,10.3c-0.2,2.9-0.5,5.9-0.3,8.8c0.3,4.7,1.6,9,4.7,12.5   c-0.8,7.4-0.7,14.8-0.4,22.3c0.3,7.2,1.4,14.4,1.4,21.6c0,7,0.3,14-0.3,21c-1.1,7-2.1,14-2.8,21.1c-0.6,3-1.4,5.8-2.5,8.7   c-0.7,1.8-1.3,3.7-2,5.5c-1.3,3.9-1.8,7.9-2.3,11.9c-0.5,3.6-0.7,7.3-1.2,11c-0.5,3.7-0.9,7.4-1.4,11c-1,6.5-2.2,13-3.4,19.5   c-0.8,4.2-1.2,8.4-1.7,12.7c0,0.1,0,0.2,0,0.2c-2.4,4.8-4.9,9.4-7.8,14c-3.4,5.4-6.2,11.1-9.7,16.4c-3.5,5.4-7.4,10.6-11,16   c-3.2,4.9-6.2,9.9-9.6,14.6c-1.8,2.2-3.7,4.5-5.5,6.8c-3.2,4.1-6.2,8.3-9.4,12.4c1-1.3,2-2.6,3-3.9c-3.1,4-6.1,8-9,12.1   c-3.3,3.6-6.9,6.8-10.7,9.9c-3.4,2.8-6.8,5.6-10.3,8.4c-5.7,4.1-11.5,8.1-17.1,12.4c0.7-0.5,1.4-1.1,2.1-1.6   c-1.8,1.3-3.6,2.5-5.5,3.4c-5.6,1.9-11.6,2.8-17.4,3.9c-6.3,1.2-12.6,2.3-18.9,3.2c-14.4,1.7-28.8,2.7-43.3,3.4   c-6.6,0.3-13.2,0.3-19.8,0.3c-1.6,0-3.1,0-4.7,0c-7.7,0-15.4,0-23.2,0c-16.1-0.1-32.2-0.4-48.3,0.1c-8.8,0.3-17.5,0.8-26.2,1.2   c-8.1,0.4-16.3,0.2-24.4,0.1c-16.3-0.2-32.5-1.1-48.7-1.2c-16.9-0.1-33.8,0-50.6,0.7c-16.3,0.7-32.6,1.2-48.9,2   c-16.6,0.8-33.2,1.2-49.8,1.3c-18.2,0.1-36.4-0.2-54.4-2.1c-4.9-0.5-9.7-0.9-14.6-0.6c-5.9,0.4-11.7,1.2-17.5,2   c-8.9,1.3-17.7,3.4-26.6,4.8c-3.4,0.4-6.7,0.9-10.1,1.4c-4.3,0.3-8.5,0.4-12.7,0c-2.3-0.4-4.7-0.9-7-1.3c-3.5-1.7-7.1-3.4-11-4   c-4.5-0.7-9.1-1.4-13.7-1.8c-5.7-0.4-11.5-0.5-17.3-0.5c-5.7-0.1-11.4,0.2-17.1,0.3c-6,0.1-12,0-18-0.2   c-11.8-0.4-23.5-1.3-35.2-2.3c-6-0.5-11.9-1.3-17.8-1.7c-5.6-0.4-11.3-0.6-16.9-0.6c-12,0-23.9,0.4-35.9,0.6   c-5.9,0.1-11.8,0-17.7-0.1c-6.1-0.1-12.1-0.3-18.2-0.2c-12.1,0.2-23.9,2.5-35.9,3.3c-6.3,0.4-12.6,0.8-18.9,1.5   c-7.2,0.8-14.2,2.1-21.2,3.6c-2.5,0.5-5,1-7.5,1.5c-3.4,0.4-6.9,0.5-10.4,0.5c-4.4-0.1-8.7-0.6-13-1c-8.8-1-17.5-2.3-26.4-2.4   c-4.1-0.1-8.2,0.2-12.3,0.7c-2.4,0.3-4.8,0.6-7.2,0.9c-4.3,0.6-8.6,0.6-13,0.3c-8.3-0.6-16.6-0.8-24.9-1.7   c-8-1.3-16.1-2.5-24.2-2.6c-7.2-0.1-14.3-0.1-21.5-0.8c-6.4-0.6-12.9-0.7-19.3-1.5c-6.8-0.8-13.6-1.2-20.4-1.9   c-2.9-0.5-5.9-1-8.8-1.6c-3.5-0.8-6.9-1.9-10.3-2.9c-6.7-2-12.9-5.1-19.5-7.3c-3.4-1.1-6.7-2.3-10-3.6c-3.3-1.4-6.7-2.8-10.1-3.9   c-3.6-1.1-7.1-2.1-10.7-3.4c-2.2-0.8-4.4-1.6-6.6-2.5c-7.1-3.3-14-7.1-20.6-11.1c-6-3.6-11.7-7.4-17.3-11.5   c-6.5-5.3-12.5-11-17.8-17.5c-2.9-3.5-5.8-6.9-9-10.2c-2.8-2.8-5.8-5.4-8.5-8.3c-1.4-2.2-2.7-4.4-3.8-6.8c-2-5.3-3.7-10.7-6-15.9   c-2.4-5.4-5.8-10.6-9.9-14.8c-1.6-1.6-3.4-3-5.1-4.5c-2.1-1.9-3.9-3.9-5.7-6c-1.8-2.1-3.6-4.3-5.5-6.4c-2.3-2.5-4.9-4.8-7.9-6.4   c-0.5-0.3-1-0.5-1.6-0.7c-1.5-6.3-3-12.5-4.1-18.8c-1-8.3-1.4-16.5-2.6-24.8c-1.1-7.4-2.2-14.8-3.2-22.2   c-3.2-26.6-2.9-53.4-3.9-80.1c-0.2-6.6-0.7-13.1-0.7-19.7c0-5.6,0.4-11.3,0.6-16.9c0.5-13,0.3-25.9-0.1-38.9   c-0.6-16.7-0.2-33.6,1.7-50.3c1-6,2.4-11.9,3.5-17.8c1.5-7.5,2.7-15,3.5-22.6c1.3-12.8,0.2-25.7-0.1-38.6c-0.2-6.7-0.4-13.4-0.5-20   c0-6.8,0.1-13.6,0.1-20.4c0-13.3,0.2-26.7,0.2-40c0-14,0-28-1-42c-0.5-7.1-1-14.1-1.7-21.1c-0.6-6.6-1.6-13.2-2.2-19.8   c-0.7-6.9-0.5-13.9-0.5-20.8c0.1-6.6,0-13.2-0.2-19.8c-0.4-13.9-1.7-27.8-2.5-41.6c-0.4-6.7-0.6-13.3-1.1-20   c-0.6-6.8-1.5-13.6-2-20.4c-1-13.6-1.1-27.4-1.1-41c0-13.8,0.7-27.7,0.5-41.5c-0.1-6.7-0.7-13.3-1-19.9c-0.4-6.7-0.5-13.4-0.8-20.2   c-0.2-6.4,0-12.9,0-19.3c0.1-7.4,0-14.8,0.1-22.1c0.1-6.5,0.6-13.1,0.6-19.6c0.1-7.1,0-14.1-0.3-21.2c-0.6-12.6-2.5-25.1-2.6-37.7   c0-7.1,0.3-14.3,0.1-21.4c-0.1-6.7-0.5-13.4-0.7-20.1c-0.2-8.5-0.1-17.2,0.8-25.7c0.6-3.9,1.4-7.8,2.1-11.8c0.5-2.7,0.4-5.2-1-7.7   c-0.1-0.1-0.1-0.2-0.2-0.3c0.8-1,1.6-2,2.4-3.1c2.4-2.6,4.9-5.2,6.9-8c0.8-1.4,1.2-2.9,1.2-4.5c0-0.2,0-0.5,0-0.8   c0.5-0.9,1.1-1.7,1.7-2.5c0.5-0.7,1-1.3,1.5-2.1c2-3,2.2-6.6,1.6-10.1c-0.1-0.3-0.1-0.6-0.3-1c-0.2-1.1-0.7-2-1.3-2.9   c0-0.1-0.1-0.2-0.1-0.2c0.4-1.7,0.2-3.5-0.8-4.8c-0.6-1-1.4-1.8-2.5-2.5c-0.6-0.3-1.2-0.6-1.8-0.8c-0.5-0.2-1.2-0.3-1.8-0.3   c-0.9,0-1.8,0.1-2.4,0.4c-1.5,0.5-2.7,1.3-3.7,2.3c-0.2,0-0.4,0.1-0.5,0.1c-2.1,0.4-4.2,0.8-6.1,1.5c-1.9,0.7-3.7,1.5-5.6,2.4   c-3.3,1.4-6,3.9-8.7,6.1c-3.3,2.4-6.8,4.2-10.5,5.8c-6.6,2.9-12.2,7.7-17.8,12.2c-2,1.5-4,3-5.8,4.7c-2.2,2.1-4.2,4.3-6.4,6.4   c-4,3.8-8.4,7.2-12.7,10.7c-4,3.3-7.3,7.5-10.6,11.4c-2.3,2.7-4.3,5.7-6.4,8.5c-1.6,2.2-3.3,4.3-4.9,6.5c-3.9,5.1-7.8,10.2-10.7,16   c-2.8,5.6-4.5,11.7-6.7,17.6c-0.2,0.2-0.4,0.3-0.6,0.5c-1.4,1.1-2.6,2.6-3.7,4c-1.7,2-3.2,4.2-4.6,6.3c-2.2,3.3-4,6.7-5.9,10.2   c-2.4,4.4-4.3,8.9-6.2,13.5c-1.3,3.4-2,6.9-3.3,10.3c-1.4,3.3-2.8,6.6-4,10c-1.4,3.9-1.7,8.1-2.1,12.2c-0.4,4.3,0,8.6-0.3,12.9   c-0.5,2.2-1,4.5-1.4,6.7c-0.5,2.7-0.7,5.2-0.7,7.8c-1.4,1.8-1.9,4-2.1,6.3c-0.6,7.6,0,15.8,2.5,23.2c0,2.5,0.1,5.1,0.1,7.6   c0,0.5,0,0.9,0,1.4c-0.1,2-0.2,4.1-0.2,6.1c0,4.5,0,8.9,0.3,13.4c0.2,1.8,0.3,3.7,0.4,5.5c-1.2,3.3-1.9,7-1.5,10.5   c0.2,1.9,0.6,3.6,1,5.5c0.3,1.1,0.5,2.2,0.7,3.3c-0.8,5.2-1.7,10.5-2.3,15.8c-0.6,5.6-1.1,11.6-0.2,17.2c0.1,0.2,0.1,0.4,0.2,0.6   c-0.2,0.6-0.2,1.3-0.3,2c-0.3,2-0.6,4.1-0.8,6.2c-0.3,2.5-0.3,4.9,0.4,7.5c0.3,1.2,0.8,2.4,1.6,3.4c0.3,0.5,0.7,1,1,1.5   c0,1.8,0.1,3.6,0.2,5.4c-1,3-1,6.3-0.4,9.5c-0.8,1.7-1.1,3.5-1.3,5.5c-0.1,0.5-0.1,1-0.1,1.6c-0.3,2.4-0.6,4.8-0.3,7.2   c0.2,2.5,0.6,5,0.4,7.5c-0.5,3.4-0.9,6.8-1.1,10.2c-0.2,4.4,0.3,8.7,0.9,13c0.5,3.3,0.9,6.9,1.9,10.2c0,1.6,0,3.3-0.1,4.9   c-0.2,1.3-0.5,2.7-0.9,4c-0.5,1.7-1.2,3.4-1.6,5.2c-0.8,3-1.2,6-1.6,9c-0.3,2.7-0.1,5.4,0,8.1c0.2,7.5,0.9,15,2,22.5   c0.7,4.4,1.7,8.7,2.6,13.1c0.2,4.6-0.6,9.2-1.1,13.8c-0.6,6.1-0.8,12.1-0.9,18.3c-0.1,6.1,0.3,12.2,0.6,18.3   c0.2,6.1,0.2,12.3,0.3,18.4c0.2,11.5,1.1,22.9,1.7,34.4c-1.5,2.5-2.1,5.3-2.4,8.4c-0.1,1.2,0.1,2.5,0.2,3.7c0.1,2,0.2,4.1,0.2,6.1   c0.1,3.2,0.1,6.5,0.2,9.7c0.2,6.1,0.2,12.1-0.4,18.1c-0.7,4.2-1.4,8.4-1.9,12.6c-0.5,4-0.4,8.1-0.3,12.2c0.1,7.1,1.5,14.1,2.6,21.1   c0.3,3.3,0.3,6.6-0.2,10c-0.6,4.9-0.9,9.8-0.8,14.7c0.2,5.9,1,11.7,2.3,17.5c0.4,1.7,0.8,3.3,1.2,5c0,0.4-0.1,0.8-0.1,1.1   c-0.1,1-0.2,1.9-0.3,2.9c-0.2,2.7-0.4,5.3-0.7,8c-0.8,5.1-1.9,10.1-2,15.2c-0.1,5.6-0.1,11.1-0.6,16.7c-0.4,2.5-0.8,5.1-1.1,7.7   c-0.4,3.2-0.3,6.4-0.3,9.6c-0.1,7-0.1,14-0.1,21c0,6,0,12,0.1,18c0.1,6.2,0.7,12.4,1.2,18.6c0.8,11.7,1,23.5,1.8,35.3   c0.7,9.7,0.7,19.2-0.3,28.9c-0.5,2.8-1.2,5.5-1.8,8.2c-1.1,5-1.7,10.2-1.8,15.3c-0.2,7.8,0.9,15.7,1.8,23.4   c0.7,6.8,0.8,13.7,1.1,20.5c0.2,6.5,1.6,13,1.9,19.5c0.2,5.2-0.8,10.4-1.1,15.6c-0.4,7.5-0.2,15-0.8,22.5   c-0.6,7.4-1.4,14.8-1.4,22.3c0,3.7,0.2,7.3,0.3,10.9c0.2,3.9-0.1,7.6-0.3,11.5c-0.2,4-0.2,7.9,0.2,11.9c0.3,3.7,0.8,7.3,1,11   c0.4,7.8,0.5,15.4,1.8,23.2c0.4,2.4,1.2,4.8,2,7.1c-1,3-0.9,6.4,0,9.5c0.1,0.4,0.3,0.8,0.4,1.2c-0.1,2.8,1,5.7,2.6,8   c0.1,0.2,0.2,0.5,0.3,0.7c0.5,1,1.2,2,2,2.8c0.1,1.6,0.3,3.1,0.6,5c0.6,4.2,4.4,8.9,7.2,11.8c3.4,3.4,7.6,5.7,11.6,8.3   c3,2.6,5.6,5.6,8.3,8.4c4.6,5,10.7,8.4,16.2,12.2c7.4,6.2,14.2,13.2,22.4,18.4c5.3,3.4,11.6,5.5,17.4,7.8c2.7,1.1,5.4,2.1,8.2,3.2   c6.9,3.5,12.9,8.3,19.1,12.8c7.1,5.1,15.2,9.4,23.4,12.6c7,2.7,14.1,4.8,21.1,7.6c7.8,3.1,15.6,5.7,23.7,7.7   c7.7,1.9,15.3,4.3,23.1,6.1c8.2,1.9,16.2,4.6,24.4,6.3c8.5,1.8,17,3.4,25.6,4.4c6.8,0.8,13.6,1.1,20.4,1.9c7.4,1,14.9,1.9,22.4,2.4   c8.5,0.5,16.7-0.6,25-1.7c7.9-0.9,15.9-1.2,23.8-1.4c8.7-0.2,17.3,1.1,26,1.9c8.9,0.8,17.9,0.5,26.7,1.5c7.8,0.9,15.7,1.8,23.5,2.8   c13.8,2,27.6,3.1,41.5,4.2c6.3,0.5,12.7,0.7,19,0.2c6.8-0.5,13.6-1.7,20.3-2.7c17.3-1.7,34.8-2,52.1-2.5c17.4-0.4,35-0.6,52.4,0.6   c18,1.2,36,1.8,54,2c17.5,0.1,35.2-0.6,52.7-1.5c9.4-0.5,18.8-0.9,28.2-1.1c8.9-0.2,17.8-1,26.7-1.3c9.1-0.3,18.3,0.8,27.4,1.2   c8.5,0.4,17,0.5,25.6,0.7c17.8,0.3,35.6,0.6,53.4,1.2c8.5,0.3,17,1,25.6,0.8c9-0.2,18.1-0.6,27.1-1.1c8.9-0.5,17.7-0.9,26.6-1   c9.1-0.1,18.3-0.1,27.4-0.6c9.6-0.5,19.2-0.9,28.8-1.5c4.3-0.3,8.6-0.6,13-0.7c3.3-0.1,6.5,0.1,9.7,0.4c3.8,0.7,7.5,0.6,11.3-0.5   c1.7-0.5,3.4-1.1,4.9-2c0.4,0,0.8-0.1,1.2-0.1c3.6-0.2,7.1-0.6,10.6-0.9c6.5-0.6,13-1,19.5-1.1c6.3-0.1,12.5,0.4,18.8,0.8   c5.9,0.4,11.9,0.6,17.8,0.8c6.1,0.2,12.2,0.2,18.3,0.5c6.6,0.3,13.3,0.9,19.8,1.6c6.4,0.6,12.9,1.3,19.4,1.6   c7.1,0.3,14.2,0.4,21.3,0.5c13,0.1,26,0,39,0c5.8,0,11.5,0,17.3,0c8.1,0,16.3,0.1,24.4,0c13.4-0.1,26.9-0.9,40.3-1.3   c13.5-0.4,27-0.8,40.5-1c13-0.2,26.1-0.5,39.1,0.1c13.6,0.6,27.2,0.9,40.8,1c12.5,0,25-0.5,37.4-1.6c6.4-0.6,12.9-1.1,19.3-1.9   c7.4-0.9,15.1-1.8,22.1-4.4c9.5-3.4,17.6-9.3,25.2-15.9c2.7-2.4,5.3-4.8,8-7.2c3.7,0.7,7.5,0.2,10.8-1.8c0.7-0.4,1.3-0.8,2-1.2   c-0.2,0.1-0.3,0.1-0.5,0.2c1.2-0.6,2.4-1.2,3.5-2c1.4-1,2.8-2.1,4.3-3.1c4.4-2.8,9-5.3,12.7-9.2c3.8-4,7-8.6,10-13.2   c1.7-2.6,3.3-5.3,4.9-8c3.1-2.1,6.2-4.1,9.3-6.2c4.4-3,8.7-6.3,11.3-11.1c1.2-2.2,2.4-4.4,3.7-6.6c0.5-0.8,0.9-1.6,1.4-2.4   c3-3.1,5.8-6.4,8.3-9.9c0.8-1.1,1.6-2.2,2.4-3.3c0.2,0,0.5-0.1,0.7-0.2c7.6-1.7,12.4-8.4,15.9-14.9c3.1-5.6,5.7-11.4,8.2-17.3   c2.7-6.3,5.6-12.5,8.5-18.7c1.5-3.3,3-6.5,4.5-9.8c1.5-3.5,3-7,4.2-10.6c0.1-0.6,0.3-1.1,0.4-1.7c0.3-2.2,0.6-4.4,0.9-6.6   c0-1.9-0.2-3.7-0.6-5.5c-0.5-1.3-1-2.5-1.6-3.7c0.7-1.2,1.2-2.7,1.2-4.2c0.1-1.2-0.2-2.4-0.4-3.6c-0.1-0.7-0.5-1.3-0.9-1.9   c0.6-2.1,1.1-4.3,1.5-6.4c1.8-8.2,2.1-16.7,2.7-25.1c0.2-2.9,0.5-5.9,0.5-8.8c0-3.4-0.3-6.9-0.6-10.3c-0.3-3.6-0.6-7.3-0.5-10.9   c0-2,0.2-4,0.5-6c0.6-3.7,1.1-7.5,1.4-11.2c0.3-3.3,0-6.5,0-9.8c0-7,0.3-13.9,0.2-20.9c-0.2-7-1-14-1.7-21   c-0.7-6.5-1.3-13-1.8-19.5c-0.3-4.4-0.7-8.8-1-13.3c0.2-3.3,0.5-6.5,0.7-9.8c0.4-5.4,0.4-10.9,0.4-16.4c0-7.7-0.3-15.4-0.6-23   c0.6-8.2,1.5-16.5,2.2-24.7c1-10.5,1.3-21.1,1.7-31.6c0.2-5.8,0.3-11.5,0.4-17.3c0-2.7,0.1-5.3,0-8c-0.1-4.4,0.4-9.6-1.1-13.8   c-1.5-4.3-4.5-7.8-8.5-9.4c-0.2-10.7-0.8-21.4-0.8-32.1c-0.1-13.6,0.8-27.1,0.5-40.6c-0.2-6.8-0.2-13.7-0.4-20.5   c-0.2-6.4-0.7-12.8-0.8-19.2c-0.2-7-0.2-14,0-20.9c0.2-7.2,1-14.5,1.8-21.7c1.4-12.9,0.9-25.8,0.1-38.7   c-0.7-11.6,0.8-23.3,2.3-34.8c1.2-9.1,2.2-18.1,2.7-27.3c0.3-4.7,0.2-9.3,0-14c0-0.1,0-0.2,0-0.3c1.1-2.6,1.6-5.4,2.1-8.2   c0.6-3.1,1.2-6.3,1.7-9.4c1.1-7.1,2.2-14.2,3.1-21.4c1.4-11.8,1.8-23.6,2.8-35.4c0.5-5.7,1.2-11.4,0.9-17.1   c-0.2-6.1-0.6-12.2-1-18.3c-0.4-5.6-1.2-11.2-1.8-16.8c-0.7-6.1-1.2-12.2-1.9-18.3c-0.3-2.3-0.6-4.6-0.9-6.9   c-0.4-3.1-0.6-6.2-0.7-9.3c-0.1-4.1,0.2-8.3,0.5-12.4c0.5-7.5,1.5-15,2.1-22.5c0.6-7.1,0.3-14.3,0.7-21.4c0.2-3.6,0.6-7.2,1-10.8   c0.2-2.5,0.5-5,0.5-7.6c0.1-2.9-0.5-5.9-1-8.8c-0.8-7-1.4-14.1-1.4-21.1c0-3.7,0.3-7.3,0.2-10.9c-0.1-4.3-0.9-8.6-1.6-12.8   c-0.1-1.1-0.1-2.1-0.1-3.2c0.4-2.6,0.8-5.2,0.8-7.9c0-3.5-0.5-7.1-1.3-10.5c-0.5-2.4-1.4-4.8-2.1-7.2c-0.6-2.1-1.1-4.2-1.5-6.3   c-0.3-3.6-0.5-7.1-1.2-10.7c-0.8-4.2-3-7.2-5.6-10.3c-1.3-1.9-2.4-3.9-3.4-5.9c-1-2.8-1.7-5.6-2.6-8.3c-0.9-2.5-2.1-5-3.5-7.3   c-1.6-2.6-3.1-5.2-5.8-6.8c-0.2-0.1-0.3-0.2-0.5-0.3c-0.1-0.3-0.3-0.7-0.4-1c-1-2.5-2.1-5.3-4.4-6.9c-0.9-2-1.8-4-2.6-6   c-1.8-5-2.8-10.2-4.7-15.1c-1.7-4.4-4.2-8.4-6.3-12.7c-0.9-2.5-1.8-5-2.7-7.4c-0.9-2.4-1.9-4.8-3.1-7.1c-1.6-3.1-3.8-5.8-6.1-8.5   c-1.8-2.2-4.6-4-7-5.5c-1.2-0.8-2.5-1.5-3.8-2.2c-1.9-1-3.7-1.8-5.4-2.9c-4-3.7-6.9-8.3-10.9-11.9c-2.9-2.7-5.9-4.5-9.4-6.1   c-1.7-0.8-3.4-1.8-5-2.8c-1.4-1.3-2.6-2.6-4.1-3.8c-2.5-2.1-5.2-3.9-8.1-5.1c0-0.1-0.1-0.1-0.1-0.2c-0.4-0.7-0.9-1.3-1.4-1.9   c-0.3-0.4-0.6-0.7-1-1c-1-0.9-2-1.6-3.1-2.2c-1.5-0.9-2.9-1.9-4.5-2.6c-1.4-0.7-2.9-1.3-4.3-2c0,0,0,0,0,0l0,0   c-0.3-0.2-0.7-0.3-1-0.4c0.3,0.1,0.7,0.3,1,0.4c0.2,0.1,0.4,0.2,0.6,0.2c-0.4-0.2-0.7-0.4-1.1-0.6c-0.3-0.2-0.6-0.5-0.9-0.7   c-0.8-0.6-1.6-1.3-2.5-1.9c-0.5-0.4-1-0.7-1.6-1.1c-0.8-0.6-1.5-1.2-2.3-1.8c-0.7-0.5-1.4-0.9-2.1-1.4c-1.2-0.9-2.8-1.2-4.2-1.7   c-0.6-0.2-1.2-0.4-1.8-0.6c-0.2-0.1-0.4-0.2-0.6-0.4c-0.8-0.4-1.6-0.7-2.4-1c-0.8-0.3-1.6-0.4-2.4-0.5c0,0,0,0-0.1-0.1   c-0.8-0.8-1.7-1.3-2.8-1.6c-0.1,0-0.2-0.1-0.3-0.1c-0.9-1.1-2.4-1.7-3.9-1.7C1745.1,450.4,1744.6,450.5,1744.2,450.6L1744.2,450.6z    M1740.5,458.4c0,0.2,0.1,0.4,0.1,0.6C1740.5,458.8,1740.5,458.6,1740.5,458.4L1740.5,458.4z M1774.2,465.7   c0.2,0.1,0.3,0.2,0.4,0.3C1774.5,466,1774.4,465.9,1774.2,465.7L1774.2,465.7z M336.2,517.4C336.2,517.4,336.2,517.4,336.2,517.4   c-0.2,0.2-0.3,0.4-0.5,0.5C335.9,517.8,336.1,517.6,336.2,517.4L336.2,517.4z M355.5,522.1c0,0.3-0.1,0.5-0.1,0.8   C355.4,522.7,355.5,522.4,355.5,522.1L355.5,522.1z M264.5,590.9c-0.2,0.4-0.4,0.8-0.5,1.3c0,0,0,0,0,0   C264.2,591.8,264.3,591.3,264.5,590.9L264.5,590.9z M263.5,593.4c0,0.1-0.1,0.2-0.1,0.3c-0.1,0.3-0.3,0.6-0.4,0.9   c0.2-0.4,0.3-0.8,0.5-1.1L263.5,593.4L263.5,593.4z M1871.7,710.8c0,0.1,0,0.1,0,0.2c-0.3,1.3-0.6,2.6-0.9,3.8   C1871.1,713.5,1871.4,712.2,1871.7,710.8L1871.7,710.8z M235.7,773.7c0,0,0.1-0.1,0.2-0.2c0.1,0.6,0.2,1.2,0.2,1.8   C236.1,774.8,235.9,774.2,235.7,773.7L235.7,773.7z M240.3,827.6C240.3,827.6,240.3,827.6,240.3,827.6L240.3,827.6   c0,0.1,0,0.1,0,0.1C240.3,827.7,240.3,827.7,240.3,827.6L240.3,827.6z M1783.2,1406.9C1783.2,1406.9,1783.2,1406.9,1783.2,1406.9   c0.2,0,0.4,0,0.6,0.1c-0.2,0-0.4,0-0.6,0.1C1783.2,1406.9,1783.2,1406.9,1783.2,1406.9L1783.2,1406.9z M393.2,1552.7   C393.2,1552.7,393.2,1552.7,393.2,1552.7c0.1,0.3,0.2,0.6,0.2,0.8C393.4,1553.3,393.3,1553,393.2,1552.7L393.2,1552.7z    M1891.1,1568.4c-0.1,0.1-0.1,0.3-0.2,0.4C1891,1568.7,1891,1568.5,1891.1,1568.4L1891.1,1568.4z M412,1573.3   c0.8,0.9,1.5,1.9,2.3,2.8l0.5,0.7C413.9,1575.6,413,1574.4,412,1573.3L412,1573.3z M413.7,1575.3c0.2,0.2,0.3,0.4,0.5,0.6l0.1,0.1   C414.1,1575.8,413.9,1575.5,413.7,1575.3L413.7,1575.3z M671.6,1705.9c0.7,0.7,1.4,1.4,2.2,1.9c0,0,0,0-0.1,0   C672.9,1707.2,672.2,1706.6,671.6,1705.9L671.6,1705.9z"
       id="path10" /></g><g
     id="Layer_4"
     class="st3"><path
       class="st4"
       d="M625.2,338.9c-4.3,0-8.5,0.1-12.8,0.2c-9.1,0.1-18.2,0-27.3,0.3c-9.5,0.3-19,1.2-28.4,2.6   c-9,1.4-18.1,2.6-27,4.5c-5.5,1.1-10.7,2.7-16,4.6c-5.2,1.9-10.4,4-15.5,6.2c0.1,0,0.2-0.1,0.3-0.1c-1,0.4-2,0.8-3,1.3   c-1.2,0.5-2.5,1-3.7,1.6c-2.1,1-4.2,3.7-4.7,6c-0.7,0.4-1.4,0.8-2.2,1.2c-2.1,1.1-4.1,2.3-6.2,3.4c-2.1,0.9-4.3,1.8-6,3.5   c-1.2,1.2-2.1,2.6-2.5,4.2c-0.6,0.4-1.1,0.9-1.6,1.3c-2.9,2.4-5.6,4.9-8.5,7.2c-5.6,4.1-11.3,8-16.5,12.6   c-5.6,4.9-10.5,10.5-15.8,15.6c-1,0.9-1.9,1.8-2.8,2.8c-2-0.3-4-0.1-6,0.4c-2.4,0.3-4.5,1.6-6.7,2.6c-1.9,0.9-3.7,2.4-5.4,3.6   c-4.8,3.5-8.9,7.5-12.6,12.1c-3.3,4.1-6.2,8.4-9.2,12.7c-5.2,7.6-10.5,15.1-13.9,23.6c-2.4,6.1-4.3,12.6-6.1,18.9   c-1.7,5.8-2.7,11.8-3.1,17.9c-0.5,7,0,14-0.3,21c-0.3,7.8-0.8,15.6-1.3,23.4c-1,15.9-1.7,31.8-1.2,47.7c0.2,8.1,0.8,16.1,1.2,24.2   c0.5,8.9,0,17.8,0.4,26.7c0.4,9.8,1.3,19.4,2.6,29.1c1.1,8.1,2.5,16.1,3.7,24.1c0.8,6.6,1.3,13.3,1.3,20c0,8.5-0.9,16.8-2,25.2   c-2.2,16.8-3.5,33.7-4.4,50.6c-0.8,16.5-1.3,33.1-1.6,49.7c-0.1,8.3-0.3,16.7,0.1,25c0.4,8.3,1,16.6,1.6,24.9   c0.6,7.8,0.9,15.7,0.7,23.5c-0.1,7.5-0.9,15.1-1.3,22.6c-0.7,16.6-1.1,33.2-1,49.8c0.1,7.9,0.8,15.8,1,23.7   c0.3,8.6,0.2,17.2,0.3,25.7c0.1,7.9,0.4,15.8,1,23.7c0.6,9,2.5,17.8,4.2,26.6c0.3,1.5,0.6,3,0.8,4.4c0.5,4.6,0.7,9.2,0.6,13.9   c-0.2,5.2-0.8,10.3-1.4,15.5c-1.2,8.8-2.3,17.6-2.6,26.5c-0.3,7.7,0.1,15.4,0.3,23.1c0.3,8.6-0.3,17.3,0.2,25.9   c0.3,5.6,1.4,10.9,3.2,16.2c0.9,2.7,1.8,5.3,2.4,8c0.3,4.6,0.2,9.3,0.3,13.9c0.2,7.8,0.9,15.3,2.9,22.8c1.4,5.2,3.3,10.3,5,15.4   c2.3,6.8,4.8,13.4,8.6,19.6c3.9,6.4,8.3,12.3,12.9,18.1c2.9,3.7,6.3,7,9.8,10.3c0,0.1,0,0.2,0,0.3c0.2,7.6,4.4,14.4,8.9,20.3   c3.8,4.9,7.5,9.6,12.1,13.8c3.6,3.3,7.3,6.5,11,9.7c4.8,4.2,9.6,8.2,14.7,12c2,1.5,4,3.1,6.1,4.5c1,0.6,1.9,1.2,2.9,1.7   c1.3,0.8,2.5,1.6,3.8,2.4c4.2,2.5,8.9,4.3,13.5,6c5.9,2.1,12.3,3,18.4,4.1c6.4,1.1,12.8,2.1,19.2,3.3c5.9,1.1,11.7,2.4,17.6,3.4   c7.4,1.3,14.9,2.1,22.5,2.3c12.9,0.4,25.8-0.1,38.6-1.1c12.4-1,24.8-2.8,37.2-4.5c7.7-1,15.5-1.7,23.2-2.1c8.9-0.5,17.9-1,26.8-1.6   c17.3-1.1,34.6-1.6,52-1.4c9.3,0.1,18.6,0.1,27.9-0.6c9.1-0.7,18.2-1.9,27.4-2.6c8.8-0.7,17.5-1.1,26.3-1   c8.7,0.1,17.2,1.5,25.8,2.4c17.8,1.9,35.9,2,53.7,2.4c17.6,0.5,35.2,1.1,52.8,1.8c8.4,0.3,16.8,0.7,25.2,0.8   c9.2,0.1,18.5-0.5,27.7-0.9c17.6-0.7,35.2-0.8,52.8-0.8c11.9,0.1,23.7,0.9,35.6,1.3c11.8,0.4,23.7,0.7,35.5,1.4   c12.6,0.7,25.1,1.2,37.7,1.6c5.6,0.1,11.2,0.2,16.7,0.2c3,0,6,0.1,8.9,0.1c1.4,0,2.8,0,4.2-0.1c1.3,0,2.7-0.1,4.1-0.1   c6.3,1.2,12.8-0.4,17.5-4.6c6,1.5,11.9,3.1,18,4.3c9,1.7,17.9,2.1,27,1.7c7.2-0.3,14.5-1,21.7-1.3c31.8-1.3,63.6-1.3,95.4-1.4   c11.4,0,22.7,0.5,34.1,0.6c11.7,0.2,23.4-1.9,34.9-3.8c15.6-1.4,31.2,1.3,46.8,1.9c8.7,0.3,17.5,0.1,26.2,0c3.6,0,7.3,0.1,10.9,0.2   c4.5,0.1,9,0.2,13.6,0.1c4.9-0.2,9.8-1.1,14.5-2.1c3.6-0.7,7.1-1.7,10.6-2.7c8.3-2.5,16.2-6.1,24-9.9c6.6-3.2,13.1-6.8,19.2-10.8   c4.4-2.9,8.6-6,12.6-9.5c2.9-2.6,5.8-5.4,8.6-8.1c7.6-7.1,15.2-14.1,23.2-20.7c7.5-6.1,14.9-12.2,22.3-18.4   c7.3-6.2,14.1-13,20.2-20.4c1.3-1.5,2.5-3.1,3.7-4.7c2.3,0.2,4.7-0.4,6.7-1.5c0.8-0.6,1.6-1.2,2.3-1.8c1.2-1.2,2.1-2.7,2.7-4.3   c2.9-1.5,5.2-4.2,6.3-7.6c3.5-11,5.7-22.6,7-34.1c0.1-1.2,0.3-2.4,0.4-3.6c2.2-7.8,3.1-16,4.1-24c0.4-2,0.8-4,1.1-5.9   c1.1-5.7,1.9-11.4,2.9-17.2c1.1-6.6,1.9-13.3,2.5-20c0.6-7.3,0.1-14.6-0.3-21.9c-0.2-4.1-1.5-7.8-4.5-10.8   c-0.2-0.2-0.5-0.5-0.8-0.7c0-3.5-0.1-6.9-0.1-10.4c-0.1-17.3,0.5-34.7,0.2-52c-0.3-17.5-1.4-35-2.2-52.5   c-0.7-16.6-2.3-33.1-2.4-49.7c-0.1-17.7,0.4-35.3,1.2-52.9c0.7-17.6,1.5-35.2,2.4-52.8c0.9-17.6,1.7-35.1,2.1-52.7   c0.3-16.1-0.6-32.2-0.3-48.4c0.2-8.4,0.8-16.9,1.4-25.3c0.6-8.4,1.1-16.8,1.8-25.2c0.7-7.7,1.8-15.4,2.5-23.2   c0.7-8.6,0.7-17.3,0.8-26c0.2-17.5,0.2-34.9,0.6-52.4c0.3-17.2,2.9-34.2,5.2-51.3c1.1-8.3,2.2-16.7,2.3-25.1   c0.1-5.5-0.8-11.1-1.6-16.5c-0.6-4.6-1.7-9-3.2-13.4c-1-2.9-2.3-6.2-3.7-8.9c-1.4-2.6-3.3-4.9-5.1-7.3c-0.2-0.2-0.4-0.4-0.5-0.6   c0.1-2.2,0.3-4.4,0.4-6.6c0.2-2.9,0.5-6.3-0.5-9c-1.2-3.3-2.3-6.2-4.8-8.7c-2.1-2.1-5.6-4-8.5-4.8c-1.8-0.5-3.7-0.7-5.5-0.8   c-1.5-3.7-3.1-7.3-4.7-10.9c-1.7-3.7-3.9-7.2-6-10.7c-2.1-3.7-4.2-7.4-6.2-11.1c-4.4-8-10.5-15-16.1-22.1c0.8,1,1.5,2,2.3,2.9   c-3.6-4.7-7.2-9.4-11.2-13.9c-3.6-4-7.2-8-10.9-11.9c-4.3-4.5-9-8.6-14.1-12.2c-4.4-3.1-9.1-5.7-13.7-8.4   c-4.3-2.5-8.6-5.2-12.9-7.8c-4.5-2.7-8.7-5.7-13.3-8.1c-5.2-2.8-10.7-5.1-16.3-6.7c-4.1-1.2-8.1-2.4-12.1-4   c-4.1-1.8-8.1-3.8-12.4-5.1c-3.2-1-6.6-1.4-9.9-1.4c-1.8,0-3.7,0.1-5.4,0.3c-10.1,0.9-20.1,2.6-30.3,3.3c-10.2,0.7-20.3,1.2-30.5,2   c-5.6,0.4-11.2,0.8-16.8,1.1c-1.8,0.1-3.5,0.2-5.3,0.2c-3.3,0.1-6.5,0-9.8,0.2c-2.2,0.1-4.2,0.7-5.9,1.8c-3.4,0-6.7-0.1-10.1-0.1   c-0.3,0-0.7,0-1,0c0,0,0,0,0,0c-1.3-0.1-2.7-0.3-4-0.4c-2.6-0.2-5.2-0.3-7.8-0.4c-4.3-0.2-8.6-0.2-13-0.3c-4.3-0.1-8.6,0-12.9,0   c-4,0-8,0.4-12,1c-0.6,0.1-1.2,0.1-1.7,0.2c-0.6-0.3-1.1-0.5-1.7-0.7c-7-2.1-14.6-1.3-21.8-1.2c-5.7,0-11.4-0.2-17-0.4   c-11.1-0.4-22.1-0.3-33.1,0.3c-11.4,0.6-22.9,0.9-34.4,1c-11.1,0.1-22.3,0.1-33.4-0.3c-12-0.5-24-1.1-35.9-1.3   c-6.8-0.2-13.7-0.2-20.6-0.3c-12.7-0.6-25.4-1-38.2-1c-5.6,0-11.3,0-16.9,0c-9.1-0.3-18.3-0.7-27.5-0.9c-3.3-0.1-6.6-0.2-10-0.2   c-1.6,0-3.2,0-4.8,0.1c-1,0.1-2.1,0.1-3.1,0.2c-1.9,0.2-3.8,0.5-5.7,0.7c-1.3,0.5-2.5,1-3.7,1.6c-1.5,0.7-2.7,1.8-3.8,3.1   c-19.4-0.5-38.8-1.3-58.2-1.5c-11.9-0.2-23.9-0.3-35.8-0.7c-11.3-0.4-22.6-1.5-33.9-2.4c-11.2-0.9-22.4-1.6-33.6-2   c-11.4-0.4-22.9-0.2-34.3,0c-18.4,0.3-36.8,0.7-55.3,0.9c-18.8,0.1-37.6,0.4-56.4,0.8c-3.6,0.1-7,1.6-9.3,4.1   c-6.7-1.2-13.5-2.5-20.3-3.4c-6-0.8-12.1-1.7-18.2-2c-5.6-0.3-11.3-0.3-16.9-0.4c-5.4,0-10.9-0.3-16.3-0.2   c-5.5,0.1-10.9,0-16.4-0.2c-1,0-1.9,0-2.9,0c-8.5,0-16.8,0.9-25.2,2.2c-2.4-1.3-4.9-2.4-7.6-3.3c-3-1.1-6.5-1.3-9.7-1.5   c-1.4-0.1-2.9-0.2-4.3-0.2C627.2,338.9,626.2,338.9,625.2,338.9L625.2,338.9z M696,363.1c0.2,0,0.5,0.1,0.7,0.1l0.5,0.1L696,363.1   L696,363.1z M696.2,363.1c0.2,0,0.3,0,0.5,0.1l0,0C696.5,363.2,696.3,363.2,696.2,363.1L696.2,363.1z M551.3,365.3   C551.3,365.3,551.3,365.3,551.3,365.3c0.4,0.2,0.7,0.5,1,0.8C552,365.8,551.6,365.5,551.3,365.3L551.3,365.3z M401.3,677.6   c0,0.2,0.1,0.4,0.1,0.7c0,0,0,0,0,0.1C401.4,678,401.3,677.8,401.3,677.6L401.3,677.6z M401.6,679.6l0.1,0.8   C401.7,680.1,401.6,679.8,401.6,679.6L401.6,679.6z M401.7,680.2c0.1,0.6,0.2,1.1,0.2,1.7l0.1,1.1c-0.1-0.8-0.2-1.6-0.3-2.4   L401.7,680.2L401.7,680.2z M402.7,687.5C402.7,687.5,402.7,687.5,402.7,687.5C402.7,687.6,402.7,687.5,402.7,687.5L402.7,687.5z    M472.6,1348.9C472.6,1348.9,472.6,1348.8,472.6,1348.9c0.1,0.1,0.2,0.2,0.4,0.3C472.9,1349.1,472.8,1349,472.6,1348.9   L472.6,1348.9z M1214.1,1372.4c0.1,0,0.1,0,0.2,0c0,0,0,0,0,0C1214.2,1372.4,1214.2,1372.4,1214.1,1372.4L1214.1,1372.4z"
       id="path13" /></g><g
     id="Layer_5"
     class="st5"><path
       class="st4"
       d="M364.5,1318.4c-5.7,6.3-7.5,14-5.5,22.2c0.1,0.2,0.1,0.4,0.2,0.6c0.1,4.1,0.1,8.1,0.3,12.2   c0.4,7.4,1.4,14.8,2.7,22c0.6,3.3,1.2,6.7,1.9,10c0.7,3.6,1,7.2,1.9,10.8c0.3,1.3,0.6,2.6,1,3.9c-0.9,1.1-1.7,2.2-2.3,3.5   c-1,2.1-1.9,4.2-2.7,6.4c-0.5,1.7-1,5.9-1,8.4c-0.1,4.8,0.9,9.6,1.8,14.2c1.3,6.4,4.3,12.6,7,18.5c5.3,11.7,14,21,22.1,30.8   c4.5,6.5,7.8,13.5,13.4,19.3c1.1,1.1,2.3,2.2,3.6,3.2c0.5,1.2,1,2.4,1.6,3.6c2.1,3.9,5.2,6.9,8.5,9.6c0.4,0.5,0.8,0.9,1.2,1.4   c1.7,1.9,3.5,3.8,5.2,5.6c0.9,0.9,1.8,1.9,2.6,2.9c0,0.1,0,0.1,0,0.2c0,7.4,3,13.3,7.8,18.7c1.1,1.3,2.4,2.4,3.6,3.5   c2.4,2.1,4.9,4.2,7.4,6.3c6.7,5.4,13.1,11,20.1,16.1c5.5,4,10.6,8.1,16.6,11.3c7.3,3.8,15,7.5,23.1,9.2c5.8,1.2,11.7,2.3,17.6,3.4   c2,2.4,4.4,4.5,7.1,6.1c5.6,4.2,12.3,7.1,19.1,8.4c10.1,1.9,20.3,1.5,30.5,2.2c4.4,0.3,8.7,0.5,13.1,0.6c0.8,0.1,1.6,0.1,2.4,0.2   c18.4,1.5,37.1,0.7,55.6,0.7c17.5-0.1,35-0.9,52.5-1.2c18-0.3,36-0.4,54-1c18.4-0.6,36.8-2.5,55.2-3.2c18.6-0.7,37.3-0.7,55.9,0.1   c9.1,0.4,18.3,1.3,27.4,1.9c9.2,0.6,18.4,0.8,27.6,0.9c18.9,0.3,37.9,0.3,56.8-0.4c36.8-1.3,73.7-2.1,110.5-1.8   c18.6,0.1,37.2,1.3,55.8,1.8c18.3,0.5,36.6,1,54.9,1.4c75.3,1.6,150.5,2.8,225.8,2.8c18.2,0,36.4-0.5,54.6-1.1   c8.6-0.3,17.3-0.9,25.9-1.4c11-0.7,22.6-1,33.2-4.4c1.5-0.5,2.9-1.1,4.2-1.7c1,0.5,2,1,3,1.6c1.4,0.8,2.7,1.6,4.1,2.4   c2.5,1.3,5.2,2.4,7.8,3.4c3,1.2,5.3,1.2,9,1.6c5.4,0.7,11.2-0.8,16.5-2.2c9.1-2.5,18.2-5,25.9-10.5c7.2-5.1,13.2-11.4,20-17   c5.6-4.2,11.2-8.3,16.4-12.9c5.4-4.8,10.4-9.9,15.2-15.3c10-11.3,18.4-24,27.5-36c3.6-4.6,7.4-9,11.2-13.4   c3.7-4.4,7.5-8.7,11.7-12.5c0.8-0.5,1.5-0.9,2.3-1.3c4.6-2.7,7.4-5.9,10.5-10c2.8-3.9,4.4-9,5.1-13.7c0.9-6.4,1.3-12.3,1.3-18.7   c0-5.4-0.2-10.9-0.1-16.3c0.1-6,0.9-11.9,1.2-17.9c0.3-5.4,0.3-10.8,0.5-16.2c0.2-5.7,0.3-11.4,0-17.1c-0.4-6.2-1.4-12.4-2.3-18.6   c-0.2-1.8-0.4-3.5-0.7-5.3c-0.9-6.8-1.2-15-5.4-20.7c-3.1-4.3-6.3-7.5-11.6-8.9c-1.7-0.5-3.3-0.7-4.8-0.7c-3.5,0-6.8,1-10.1,2.6   c-4.2,2-8.2,7.1-9.1,11.7c-0.3,0.5-0.6,1-0.9,1.5c-1.5,1.7-3,3.3-4.5,4.9c-3.6,4-6.4,8.4-9.3,12.9c-0.5,0.6-1.1,1.1-1.7,1.6   c-6.5,4.6-13.8,8.4-21,11.6c-1.5,0.6-3,1.3-4.5,1.9c-13.1,5.3-26.3,10.6-38.7,17.4c-5.3,2.9-10.6,5.6-16,8c-1.4,0.6-2.8,1.3-4.2,2   c-0.2-0.4-0.4-0.8-0.6-1.2c-1.7-3-4.4-5.9-7.5-8.2c-2,1.4-4.2,2.5-6.8,3c-1.7,0.3-3.4,0.6-5.1,0.9c-4.2,0.6-8.3,1-12.5,1.3   c-2.6,0.5-5.2,1-7.7,1.6c-10.7,2.4-21.3,4.4-32.2,4.6c-6.4,0.1-12.9-0.1-19.4,0.7c-4.2,0.5-8.5,0.5-12.7,0.8   c-1.8,0.3-3.6,0.7-5.5,0.9c-3.2,0.4-7.1,1.4-10.5,1.1c-0.4,0-0.8-0.1-1.1-0.1c-9.8,1.6-19.5,2.2-29.4,1.6   c-4.7-0.3-9.4-0.4-14.1-0.5c-5.1,0-10.1,0.4-15.1,0.6c-4.4,0.1-8.7,0.3-13-0.2c-4.7-0.5-9.4-1.2-14-2c-3.3-0.5-6.5-1.1-9.8-1.6   c-8.2-0.7-16.4-1.2-24.7-1.6c-5.5-0.2-10.6-2.4-14.5-5.9c-13.1,0.4-26.3,0.9-39.4,1.2c-19.6,0.5-39.2,0.7-58.8,0.7   c-37.4,0-74.6-3.1-112-3.4c-37.2-0.3-74.3-0.6-111.4,1.1c-18.5,0.8-37.1,1.8-55.6,2.2c-18.8,0.4-37.5,0-56.3-0.1   c-18-0.1-36-0.5-53.9-1c-18.6-0.5-37.2-1.5-55.9-1.7c-37.1-0.5-74.2-0.1-111.3,0.6c-27.6,0.5-55.1,4.4-82.7,4.6   c-26,0.3-51.9-2.1-77.7-5.3c-20.9-3.4-41.3-9.9-61.1-17.6c-3.3-1.6-6.3-3.3-9.3-5.3c-3.2-2.9-6.2-6-9.1-9.2   c-4.3-4.8-8.7-9.5-14.1-12.9c-3.5-2.2-7.2-3.8-11.1-5c-2.1-0.6-4.2-0.9-6.4-1c-0.1-0.3-0.1-0.6-0.2-1c-2.6-13.9-4.8-32.1-20.9-36.5   c-2-0.6-4-0.8-6.1-0.8C374.5,1311.7,368.5,1313.9,364.5,1318.4L364.5,1318.4z M422.1,1423C422.1,1423,422.1,1423,422.1,1423   c0,0.1,0,0.1,0,0.1C422.1,1423.1,422.1,1423,422.1,1423L422.1,1423z"
       id="path16" /></g><g
     id="Layer_6"><path
       d="M1355.5,329.7c-15.2,0.1-30.5,0.1-45.7,0.2c-31,0.3-62,0.4-93,0.5c-21.5,0.1-43,0.1-64.5,0.1c-9.8,0-19.5,0-29.3,0   c-15.3,0-30.6-0.1-45.8-0.1c-15.3,0-30.5,0.1-45.8,0.1c-31.7,0-63.4,0.4-95.1,0.5c-31.7,0.1-63.4,0.1-95.1,0.2   c-25.6,0.1-51.2,0-76.8,0.3c-13.1,0.2-26.3,0.3-39.4,0.4c-13.6,0.1-27.3,0.1-40.9,0.5c-24.6,0.7-49.2,1.9-73.8,3   c-26.1,1.2-52.1,2.6-78.2,4.1c-0.1,0-0.1,0.1,0,0.1c32,1.9,64,3.5,96,5c30.3,1.4,60.6,2.5,91,2.6c16.4,0.1,32.9,0.3,49.3,0.4   c16,0.1,31.9,0.1,47.9,0.2c31.7,0.2,63.4,0.3,95,0.3c62.3,0,124.7,0.8,187,0.6c15.9,0,31.7-0.1,47.6,0c6.7,0,13.4,0,20.1,0   c9.3,0,18.5-0.1,27.8,0c30.3,0.2,60.6,0.3,90.9,0.4c24.9,0.1,49.8,0.4,74.8,0.5c12.5,0.1,25,0.2,37.5,0.1   c12.2-0.1,24.4-0.5,36.5-0.9c41.1-1.5,82.2-4.3,123-8.8c0.2,0,0.3-0.1,0.3-0.3c0-0.2-0.1-0.3-0.3-0.3   c-51.2-5.7-102.7-8.8-154.2-9.7c-5.3-0.1-10.6-0.1-16-0.1C1376,329.5,1365.8,329.7,1355.5,329.7L1355.5,329.7z"
       id="path19" /><path
       d="M724,1397.3c-17.9,0-35.8,0-53.7,0.5c-18.2,0.5-36.3,1.6-54.4,3c-35.5,2.7-70.9,6.7-106.2,11.7c0,0,0,0.1,0,0.1   c34.5,4.8,69.2,8.7,103.9,11.5c18.2,1.5,36.4,2.5,54.6,3.1c17.9,0.6,35.8,0.5,53.7,0.6c36.4,0.1,72.9,0.3,109.3,0.1   c14.8-0.1,29.7-0.1,44.6-0.1c22.3,0,44.6,0,66.9-0.3c37-0.5,74-0.6,111-1c37-0.4,74-0.8,110.9-1c37.7-0.3,75.4-0.7,113.1-1.1   c18.6-0.2,37.2-0.4,55.7-0.6c16.6-0.2,33.3-0.1,49.9-0.2c17.1-0.1,34.3-0.2,51.4-0.7c18.1-0.5,36.2-1.7,54.3-2.7   c14.9-0.8,29.7-1.7,44.6-2.9c16.6-1.4,33.2-3.3,49.8-4.8c0.1,0,0.1-0.1,0-0.1c-15.9-1.4-31.7-3.2-47.6-4.6   c-14.9-1.3-29.9-2.2-44.8-3c-18-1-36.1-2.2-54.1-2.8c-17.2-0.6-34.4-0.6-51.6-0.7c-16.5-0.1-33,0-49.5-0.1   c-18.6-0.2-37.3-0.4-55.9-0.6c-37.6-0.4-75.3-0.8-112.9-1.1c-37-0.3-74-0.6-111-1c-37-0.4-74.1-0.6-111.1-1   c-37.2-0.4-74.3-0.2-111.5-0.3c-10.7-0.1-21.4-0.1-32.1-0.1C775.5,1397.1,749.7,1397.2,724,1397.3L724,1397.3z"
       id="path21" /><path
       d="M358.7,472.2c-0.3,0-0.5,0-0.8,0.1c-0.6,0.2-1.1,0.5-1.4,0.9c-0.3,0.4-0.6,0.8-0.7,1.3c-0.8,3.2-0.9,6.6-1.2,9.9   c-0.4,4-0.8,7.9-1.1,11.9c-0.8,8.5-1.8,17-2.8,25.5c-2.1,17.3-3,34.7-4.5,52c-0.8,8.8-1.3,17.6-1.7,26.4   c-0.4,9.8-0.2,19.7-0.3,29.6c0,8.4-0.5,16.8-0.9,25.2c-0.5,9.1-0.7,18.2-0.8,27.3c-0.4,18.1-0.5,36.2-0.5,54.3   c0.1,18.3,0.7,36.7,1,55c0.3,17.9,0.7,35.7,1.2,53.6c0.6,17.9,0.8,35.9,1.1,53.8c0.2,12.5,0.4,25.1,0.5,37.6c0,6-0.2,11.9-0.3,17.9   c0,6.7,0,13.5,0.1,20.2c0.1,12.8,0.3,25.6-0.1,38.5c-0.4,12.6-0.6,25.3-0.6,37.9c0,13.2,0.2,26.4,0.2,39.7c0,5.6-0.1,11.2-0.3,16.8   c-0.2,6.2,0.2,12.5,0.5,18.6c0.2,4.7,0.2,9.4,0.6,14c0.5,6.4,1.2,12.8,2,19.2c1.3,9.9,2.4,19.7,3.8,29.6c-0.1-0.4-0.1-0.9-0.2-1.3   c0.4,3,0.8,5.9,1.2,8.9c2.3,19.7,4.2,39.5,6,59.2c0,0.1,0.1,0.1,0.1,0c1.8-19.8,3.6-39.6,6-59.4c0.4-2.9,0.8-5.8,1.2-8.7   c0,0.1,0,0.1,0,0.2c1.9-14.5,3.8-29,5.2-43.5c0.7-7.4,0.9-14.8,1.2-22.2c0.2-4.3,0.3-8.6,0.4-12.9c0.1-4.6-0.4-9.2-0.3-13.8   c0.1-9.3,0-18.6,0.1-27.9c0.1-10.2,0.2-20.4,0.1-30.6c-0.1-8.7-0.4-17.4-0.6-26.1c-0.3-9.8-0.1-19.5-0.1-29.3   c0.1-9,0.1-18.1,0.1-27.1c0-9.5-0.2-19-0.2-28.6c0.1-9,0.3-17.9,0.4-26.9c0.1-9,0.1-18,0.3-26.9c0.4-18.5,1.1-36.9,1.5-55.4   c0.4-18.1,0.6-36.3,1-54.4c0.5-24.6,0.4-49.3,0.1-73.9c-0.2-11.8-0.5-23.6-1.1-35.3c-0.3-5.4-0.6-10.8-0.7-16.3   c-0.2-7.1-0.1-14.2-0.1-21.3c-0.1-12.4-0.5-24.8-1.5-37.2c-1-12-1.8-23.9-2.8-35.9c-0.9-11.3-2.3-22.5-3.6-33.7   c-0.7-6.2-1.2-12.4-1.8-18.6c-0.2-2.5-0.5-5.1-0.7-7.6c-0.3-2.7-0.4-5.5-1-8.1c-0.1-0.5-0.4-0.9-0.7-1.3c-0.4-0.4-0.8-0.7-1.4-0.9   C359.2,472.3,359,472.2,358.7,472.2C358.7,472.2,358.7,472.2,358.7,472.2L358.7,472.2z M352.7,1197.1c0,0.2,0.1,0.4,0.1,0.6   C352.8,1197.5,352.8,1197.3,352.7,1197.1L352.7,1197.1z"
       id="path23" /><path
       d="M1744.2,491.4c-1.6,19.2-3.1,38.5-4.6,57.7c-1.5,19.3-2.6,38.7-3.9,58c-1.3,19.4-2.3,38.7-2.8,58.1   c-0.4,19.6-1,39.2-2,58.8c-0.5,9.3-1.1,18.5-1.3,27.8c-0.1,10-0.3,20-0.4,30c-0.1,9.4-0.4,18.7-0.6,28.1   c-0.3,9.8-0.9,19.5-0.9,29.3c0,19.3,0.4,38.6,0.6,57.9c0.2,18.4,0.3,36.9,0.5,55.3c0.4,26.4,1.1,52.9,1.4,79.3   c0.3,26.3,0.4,52.5,1.5,78.8c1,23.8,3,47.5,5.2,71.2c2.3,24.7,4.7,49.4,7.1,74c0,0.1,0.1,0.1,0.1,0c3.3-34.2,6.8-68.3,9.7-102.5   c1.4-17.2,2.4-34.4,3-51.6c0.7-18.3,0.8-36.5,0.9-54.8c0.4-37.2,1.5-74.5,1.8-111.7c0.2-19.1,0.3-38.3,0.6-57.4   c0.3-19,1-38.1-0.1-57.1c-1.5-26.9-0.7-53.9-1.9-80.9c-0.6-13.8-1.4-27.6-1.9-41.4c-0.5-14.3-0.7-28.5-1.1-42.8   c-0.3-13.3-1.2-26.5-2-39.8c-0.8-13.7-1.8-27.4-2.6-41.2c-0.9-13.9-1.9-27.8-3.1-41.6C1746.4,519.2,1745.4,505.3,1744.2,491.4   C1744.3,491.4,1744.3,491.4,1744.2,491.4C1744.2,491.4,1744.2,491.4,1744.2,491.4L1744.2,491.4z"
       id="path25" /><path
       d="M1559.4,333.7c-8.9,0.9-17.8,1.4-26.7,2.6c-3.8,0.5-7.6,1.4-11.4,1.9c-5,0.8-9.9,1.8-14.8,3c-0.1,0,0,0.1,0,0.1   c6.5-0.6,13.1-1.3,19.5-1c7.4,0.4,14.7,0.9,22.1,1.9c4.1,0.6,8.1,1.5,12.1,2.7c4.6,1.3,9.2,2.5,13.7,4c8,2.7,15.9,5.5,23.8,8.7   c3.6,1.5,7.1,3.2,10.5,4.9c2.3,1.1,4.5,2.4,6.8,3.6c2.1,1.1,4,2.8,6,4c4.3,2.7,8.4,5.7,12.5,8.6c3.9,2.9,7.9,5.6,11.8,8.5   c1.8,1.4,3.6,2.9,5.4,4.4c2,1.7,3.7,3.5,5.6,5.3c4.4,4.1,8.6,8.4,12.8,12.6c4.2,4.2,8.1,8.7,11.9,13.4c3.5,4.3,7.2,8.5,10.6,12.9   c15.6,20.7,28.7,43.2,39.1,66.9c6.8,16.6,11.5,34,14,51.7c0-0.3-0.1-0.5-0.1-0.8c0.6,4.2,1,8.4,1.4,12.7c0.1,0.8,1.3,0.8,1.3,0.1   c1.7-5.7,3.1-11.6,4.3-17.4c1.6-7.6,2.4-15.4,3.3-23.1c1.9-16.3,0.7-33.1-2-49.2c-2.8-16.7-8.8-32.7-16.5-47.7   c-4.1-8-9-15.5-14.4-22.7c-3-4-6.1-7.9-9.3-11.7c-2.9-3.4-6.3-6.5-9.5-9.5c-6.2-5.8-12.7-11.3-19.7-16.2c-2.6-1.9-5.3-3.6-8.1-5.2   c-2.1-1.2-4.1-2.6-6.1-3.8c-2.2-1.3-4.4-2.6-6.6-3.9c-8.2-4.6-16.9-8.3-25.8-11.4c-3.8-1.3-7.5-2.3-11.4-3.1   c-2.5-0.5-4.9-1.4-7.4-2.1c-2.5-0.7-5-1.2-7.5-1.8c-12.3-2.9-25.1-4.6-37.8-4.6C1568.2,333,1563.8,333.3,1559.4,333.7L1559.4,333.7   z M1548.1,342.3c0.3,0,0.7,0.1,1,0.1C1548.8,342.4,1548.4,342.3,1548.1,342.3L1548.1,342.3z"
       id="path27" /><path
       d="M1740.2,1232.3c-0.4,1-0.9,2-1.3,3c0-0.1,0.1-0.1,0.1-0.2c-8.6,19.9-19.4,38.8-32.4,56.1c-7.5,9.5-15.6,18.4-24.2,26.9   c-9.3,9.2-19.5,17.5-29.7,25.7c-10.2,7.6-20.9,14.6-31.6,21.5c-10.5,6.9-21.3,13.5-32.9,18.6c-2.6,1.1-5.3,2.1-7.9,3.2   c-4,1.6-8.1,3.1-12.1,4.7c0.2-0.1,0.5-0.2,0.7-0.3c-1,0.3-2,0.6-2.9,1c-0.7,0.2-1.4,0.5-2.1,0.8c-1.4,0.4-2.8,0.8-4.2,1.2   c-2.2,0.7-4.9,1-7.3,2c-7.8,1.7-15.6,3.4-23.5,4.5c-13.3,1.6-26.8,2.4-40.2,1.7c-0.1,0-0.1,0.1,0,0.1c11.8,4.9,23.7,9,36.2,11.7   c9.6,2.1,19.6,3.5,29.4,4c1.5,0.3,3.4,0.3,5,0.3c0.6,0,1.1,0,1.5,0c1.9,0.1,3.9,0.1,5.8,0.1c1.6,0.4,3.2,0.5,4.9,0.1   c4.2-0.1,8.3-0.2,12.5-0.5c5.2-0.4,10.3-1.2,15.4-2.1c9.9-1.7,19.9-3.9,29.4-7.1c10.5-3.6,20.9-7.8,30.3-13.6   c5.5-3.4,10.6-7.5,15.7-11.4c5.8-4.5,11.4-9.3,16.6-14.6c17.6-17.9,30.2-40,39-63.4C1739.4,1282.9,1742.6,1257.4,1740.2,1232.3   C1740.3,1232.3,1740.3,1232.3,1740.2,1232.3C1740.2,1232.3,1740.2,1232.3,1740.2,1232.3L1740.2,1232.3z M1528.7,1401.2   c-0.4,0.1-0.8,0.1-1.2,0.2C1527.9,1401.3,1528.3,1401.3,1528.7,1401.2L1528.7,1401.2z"
       id="path29" /><path
       d="M359,1199.3c-3.5,18.8-4.2,37.8-2.2,56.8c2,18.6,6.7,36.9,13.8,54.2c3.6,8.8,7.8,17.5,12.6,25.7   c4.2,7.3,9.1,14.1,14.1,20.9c11.6,15.9,26.7,28.9,42.8,40c14.8,10.2,31.4,17.8,48.1,24.1c17.8,6.7,36.8,10.1,55.7,11.3   c18.4,1.1,37.4-1,55.4-5.2c15.7-3.7,30.9-9.9,45.1-17.3c1.3-0.7,2.7-1.5,4-2.2c0,0,0,0,0,0c0.4-0.2,0.7-0.5,1-0.9c0,0,0,0,0,0   c0.5-0.2,0.9-0.6,1.2-1.1c0,0,0.1,0,0.1-0.1c0,0,0,0,0,0c0.4-0.3,0.8-0.6,1-1c0.1,0,0.1-0.1,0.2-0.1c0.1,0,0.1,0,0.2-0.1   c0.6-0.3,1-0.8,1.2-1.3c2.3-1.5,4.5-3,6.7-4.7c0,0,0,0,0,0c0.1-0.1,0.2-0.2,0.3-0.3c0.6-0.5,1.3-0.9,1.9-1.4   c0.4-0.3-0.1-0.9-0.5-0.7c-0.7,0.2-1.4,0.4-2.1,0.7c-0.1,0-0.2,0-0.3,0c-2.7,0.9-5.3,1.7-8,2.6c-0.5-0.1-1.1-0.1-1.7,0.1   c-0.4-0.1-0.9,0-1.4,0.1c-0.1,0-0.3,0.1-0.4,0.1c-0.4,0-0.8,0-1.3,0.1c-0.5,0-0.9,0-1.4,0.1c-11.6,3.5-23.3,6.1-35.3,7.9   c-9.8,1.2-19.7,1.9-29.5,2c-10.6,0.1-21.1-0.8-31.6-2.1c-19.9-2.9-39.4-8.2-58-15.8c-15.7-7-30.3-16.2-44-26.6   c-4.1-3.3-8-6.7-11.8-10.2c-4.3-4-8.8-7.9-12.9-12.1c-6.6-6.6-12.8-13.4-18.6-20.7c-11-14.6-20.3-30.2-27.6-46.9   c-7.3-18-12.3-36.7-14.9-55.9C360,1212.8,359.4,1206.1,359,1199.3C359.1,1199.3,359.1,1199.3,359,1199.3   C359,1199.3,359,1199.3,359,1199.3L359,1199.3z M611.1,1407.7c-0.3,0-0.5,0.1-0.8,0.1C610.6,1407.8,610.8,1407.8,611.1,1407.7   L611.1,1407.7z"
       id="path31" /><path
       d="M497.6,342.7c-11.3,1-22.5,3.5-33.3,6.9c-12.8,4-25.2,9.6-36.6,16.7c-6,3.7-11.1,8.5-16.6,12.9c-4.9,4-9.4,8.5-13.6,13.3   c-4.9,5.6-9,12-13.1,18.2c-3.6,5.6-6.9,11.6-9.9,17.5c-5.7,11.4-10.4,23.5-13.3,36c-0.8,3.4-1.5,6.8-2.1,10.2   c-0.3,1.4-0.5,2.8-0.7,4.3c-0.2,1.4-0.4,2.8-0.6,4.2c0.1,2.4-0.3,4.8-0.5,7.3c-0.2,2.4-0.2,4.9-0.3,7.3c-0.3,4.6-0.3,9.2-0.6,13.9   c-0.4,6.6-0.8,13.2-0.9,19.8c0,0.1,0.1,0.1,0.1,0c1-6,2.1-11.9,3.7-17.8c1-3.7,2.6-7.2,4.1-10.7c2.2-5,4.8-9.9,7.6-14.7   c0,0.1-0.1,0.1-0.1,0.2c1.6-2.2,2.8-4.6,4.2-7c2.1-3.7,4.4-7.3,6.8-10.8c4.4-6.6,9-13,13.8-19.3c5.3-6.6,10.7-12.9,16.7-18.9   c6.2-6.3,12.9-12.1,19.3-18.2c3.1-2.9,6.1-5.8,9.2-8.7c1.3-1.2,2.9-2.3,4.3-3.5c2-1.7,4-3.4,6-5.1c6.7-5.7,13.3-11.3,20.2-16.7   c8.8-6.6,18-12.7,27.4-18.3c8.7-5.2,17.7-10.3,26.9-14.6c0.9-0.4,1.3-1.2,1.3-1.9c0.8-0.3,1.6-0.6,2.4-0.9c0,0,0-0.1,0-0.1   c-0.9,0-1.9-0.1-2.8-0.1c-0.4-0.7-1.2-1.3-2.1-1.3c0,0,0-0.1,0-0.1c-4.8-0.3-9.6-0.5-14.4-0.5C506,342.2,501.8,342.3,497.6,342.7   L497.6,342.7z M363.8,502.1c-0.1,0.2-0.2,0.4-0.2,0.6C363.6,502.5,363.7,502.3,363.8,502.1L363.8,502.1z"
       id="path33" /><path
       d="M362.1,1178.6c-2.7,14.9-5.1,29.9-7.1,44.9c0,0,0,0,0,0c0,0,0,0.1,0,0.1c-0.1,0.6-0.2,1.2-0.2,1.9c0-0.3,0.1-0.5,0.1-0.8   c-2.9,21.2-5.2,42.4-6.7,63.7c-1.4,20-1.5,39.9-0.5,59.9c0.5,9.5,1.1,19,2,28.4c1.1,10.6,2.6,21.1,4.3,31.6   c1.2,7.3,2.5,14.5,3.9,21.7c0.7,3.6,1.5,7.2,2.3,10.7c0.2,1.1,0.3,2.7,0.9,3.8c0.4,1.5,0.7,3,1,4.6c0,0,0.1,0,0.1,0   c0.3-1.6,0.6-3.1,1-4.6c0.3-0.6,0.3-1.2,0.5-1.8c0.8-3.7,1.6-7.4,2.4-11.1c1.6-7.8,2.9-15.6,4.2-23.4c3.3-19.9,5.4-39.9,6.3-60   c1-20,1-39.9-0.5-59.9c-1.6-21.3-3.8-42.5-6.7-63.7c0,0.3,0.1,0.5,0.1,0.8c-0.1-0.6-0.2-1.2-0.2-1.9c0,0,0-0.1,0-0.1c0,0,0,0,0,0   C367.3,1208.4,365,1193.5,362.1,1178.6C362.2,1178.6,362.2,1178.5,362.1,1178.6C362.2,1178.5,362.2,1178.6,362.1,1178.6   L362.1,1178.6z M354.9,1224.5c0-0.3,0.1-0.7,0.1-1c0,0,0,0,0-0.1C355,1223.8,355,1224.2,354.9,1224.5L354.9,1224.5z M369.3,1223.5   c0,0.4,0.1,0.7,0.1,1C369.4,1224.2,369.4,1223.8,369.3,1223.5C369.3,1223.5,369.3,1223.5,369.3,1223.5L369.3,1223.5z"
       id="path35" /><path
       d="M362.1,1378.1c-2.2,14.1-3.8,28.4-3.7,42.7c0.1,13.1,1.5,26.3,3.6,39.3c0,0.1,0.1,0.1,0.2,0.1c0.2,0,0.4-0.1,0.6-0.1   c0,0,0-0.1,0-0.1c-0.2,0-0.3-0.1-0.5-0.1c2.1-12.9,3.4-26,3.6-39.1C366.2,1406.6,364.4,1392.2,362.1,1378.1   C362.2,1378.1,362.2,1378.1,362.1,1378.1C362.2,1378.1,362.1,1378.1,362.1,1378.1L362.1,1378.1z"
       id="path37" /><path
       d="M1737.1,1229.8c-9.8,30.4-16,61.7-18,93.6c-0.9,15,0.5,30.1,2.1,44.9c0.6,5.7,1.2,11.4,2.2,17.1c0.9,5,2.1,10,3,15   c0.4,3.2,1.2,6.2,2.1,9.3c0.6,2.1,1.1,4.4,1.9,6.5c1,2.7,1.8,5.5,2.7,8.2c1.3,4,2.8,7.9,4,11.9c0,0,0.1,0,0.1,0   c2-6.6,4.4-13.1,6.6-19.7c1.7-5.3,3.5-10.8,4.1-16.3c0.7-4.1,1.7-8.1,2.5-12.1c1.2-5.9,2-11.8,2.6-17.8c1.4-14.5,2.9-29,2.4-43.6   c-0.5-16.5-2.9-33.2-5.8-49.4C1746.7,1261.3,1742.3,1245.4,1737.1,1229.8C1737.2,1229.8,1737.2,1229.8,1737.1,1229.8   C1737.2,1229.8,1737.2,1229.8,1737.1,1229.8L1737.1,1229.8z"
       id="path39" /><path
       d="M1737.2,1205.3c-0.6,0-1.3,0.2-1.5,0.8c-0.1,0.2-0.2,0.5-0.2,0.8c-2.6,19-6.1,37.8-9.1,56.7c-1.3,8.1-2.7,16.3-4.3,24.4   c-0.9,4.4-1.7,8.9-2.6,13.3c-1.6,1.9-3,4-3.9,6.2c-0.4,0.9-0.7,1.9-1,2.9c-0.4,1.5-0.7,2.9-0.8,4.4c-0.2,2.6,0,5.2,0.7,7.8   c-0.7,2.6-0.9,5.3-0.6,7.8c0,0,0,0.1,0,0.1c0,2,0.2,4,0.8,6.1c0.3,0.9,0.6,1.8,0.9,2.7c0,0,0,0,0,0.1c0.7,7.5,1.3,14.9,2.1,22.4   c1.2,10.6,2.7,21.1,4,31.6c1.1,9,2.9,17.9,4.6,26.8c1.3,6.8,2.7,13.5,4.1,20.3c0.1,2.3,1.2,4.8,1.7,6.9c0.6,2.5,1.3,5,2,7.5   c-2.1,0.6-4.1,1.1-6.2,1.7c0,0,0,0.1,0,0.1c2.9,0.7,5.7,1.5,8.5,2.3c1.3,0.3,2.6-0.4,3-1.7c0.8-2.9,1.5-5.8,2.3-8.7   c0.4-1.4,0.6-2.8,1.1-4.2c0.4-1.2,0.8-2.6,0.9-3.8c3-14.3,6-28.6,8.2-43c1.6-10.7,2.8-21.4,4.1-32.2c1-8.6,1.7-17.2,2.5-25.9   c0-0.1,0.1-0.1,0.1-0.2c1.1-2.8,1.7-5.7,1.7-8.7c0.3-2.5,0.1-5.2-0.6-7.8c0.7-2.6,0.9-5.2,0.7-7.8c-0.1-1.4-0.4-2.9-0.8-4.4   c-0.3-1-0.6-2-1-2.9c-1-2.4-2.4-4.5-4.1-6.5c-0.6-3.3-1.1-6.6-1.8-9.8c-1.8-9.2-3.4-18.4-4.9-27.7c-3-18.9-6.5-37.7-9.1-56.7   c0-0.3,0-0.6-0.2-0.8C1738.5,1205.5,1737.9,1205.3,1737.2,1205.3C1737.2,1205.3,1737.2,1205.3,1737.2,1205.3L1737.2,1205.3z"
       id="path41" /><path
       d="M644.4,1589.7c-20.6,1.5-40.9,5-61.1,8.7c-9.6,1.7-19.2,3.2-28.8,5c-4.3,0.8-8.7,1.7-13,2.5c-1.9,0.3-3.8,0.7-5.7,1   c-1.3,0.2-2.7,0.5-4,0.7c-1.2,0.4-2.4,0.8-3.7,1.2c-1.6,0.5-2.2,1.7-2.1,2.8c-0.1,1.2,0.5,2.4,2.1,2.9c1.9,0.6,3.7,1.2,5.7,1.5   c2,0.3,3.9,0.7,5.9,1.1c4.1,0.7,8.2,1.5,12.3,2.3c10.5,1.9,20.9,3.6,31.4,5.5c21,3.8,42.1,7.4,63.5,8.9c10.3,0.7,20.6,0.7,31,0.7   c11.6,0,23.3-0.1,34.9,0c12.6,0,25.2,0,37.7,0c9.4,0,18.9,0,28.3,0c22.1,0,44.1,0.2,66.2-0.1c23.1-0.3,46.2-0.5,69.3-0.8   c45.1-0.7,90.2-1.7,135.3-2.5c42.8-0.7,85.7-1.3,128.5-2.3c42.6-1,85.1-1.9,127.7-2.6c10-0.2,19.9-0.4,29.9-0.6   c10.7-0.3,21.5-0.9,32.2-1.2c20.2-0.6,40.5-0.9,60.7-1.1c20.6-0.2,41.3,0,62-0.4c20.8-0.4,41.7-1.5,62.5-2.9   c29.8-2,59.6-4.6,89.2-8.4c0.1,0,0.1-0.1,0-0.1c-30.4-3.8-61.1-6.4-91.7-8.5c-20.8-1.4-41.6-2.4-62.4-2.8   c-20.6-0.4-41.1-0.2-61.6-0.4c-20.3-0.2-40.6-0.5-61-1.1c-9.9-0.3-19.9-0.8-29.8-1.1c-10.7-0.4-21.5-0.5-32.3-0.6   c-42.7-0.7-85.5-1.6-128.2-2.6c-42.8-1-85.6-1.5-128.4-2.2c-45.1-0.7-90.2-1.7-135.3-2.4c-23.1-0.4-46.2-0.5-69.4-0.8   c-22-0.3-44.1-0.1-66.1-0.1c-9.5,0-19.1,0-28.6,0c-12.4,0-24.8,0-37.2,0c-5.9,0-11.8,0-17.7-0.1c-4.9,0-9.8-0.1-14.7-0.1   C666.6,1588.8,655.5,1589,644.4,1589.7L644.4,1589.7z"
       id="path43" /><path
       d="M529.5,1738.1c-16,0.4-31.9,1.1-47.9,1.9c-28.4,1.5-56.7,3.9-84.9,7.5c-0.5-0.1-0.9,0.2-1.2,0.6c-0.2,0.3-0.4,0.6-0.4,1   c0,0.4,0.1,0.7,0.4,1c0.3,0.4,0.8,0.7,1.2,0.6c38.9,5.1,78.1,7.6,117.3,9c20.2,0.7,40.4,0.9,60.6,0.7c21.2-0.2,42.3-0.2,63.5-0.4   c20.8-0.2,41.5-0.2,62.3-0.4c21-0.2,42.1-0.3,63.1-0.4c41.7-0.3,83.5-0.6,125.3-1c84.1-0.6,168.3-0.9,252.4-1.2   c84-0.3,168.1-0.6,252.1-0.2c29,0.1,57.9,0.4,86.9,0.6c30,0.2,60,0.2,90,0.2c14.2,0,28.4-0.2,42.6-0.7c14.3-0.5,28.7-0.9,43-1.5   c12.3-0.6,24.5-1.6,36.8-2.6c7-0.6,14-1.2,20.9-1.8c6.8-0.6,13.5-1.4,20.3-1.9c0.1,0,0.1-0.1,0-0.1c-8-0.6-16-1.6-24-2.3   c-10.1-0.9-20.2-1.7-30.3-2.5c-17.1-1.3-34.1-2.1-51.3-2.5c-20.1-0.6-40.2-1.2-60.3-1.2c-8.2,0-16.4,0-24.6,0   c-12.3,0-24.6,0-36.9,0c-40.1,0.2-80.2,0.6-120.2,0.8c-41.7,0.2-83.5,0.1-125.2,0c-84.9-0.2-169.9-0.2-254.8-0.7   c-41.7-0.3-83.4-0.4-125.1-0.7c-41.6-0.3-83.2-0.7-124.9-1c-61.3-0.4-122.7-0.8-184-1.2c-4.6,0-9.3-0.1-13.9-0.1   C548.7,1737.8,539.1,1737.9,529.5,1738.1L529.5,1738.1z"
       id="path45" /><path
       d="M550.9,1968.3c-15.1,0.3-30.2,0.9-45.3,1.7c-31.9,1.8-63.8,4.6-95.6,8.3c-0.1,0-0.1,0.1,0,0.1c21.4,2.5,42.8,4.6,64.2,6.2   c21.2,1.6,42.4,2.9,63.6,3.5c10.5,0.2,20.9,0.6,31.4,0.6c10.7,0.1,21.5-0.1,32.2-0.2c22-0.2,43.9-0.4,65.9-0.4   c84.1-0.3,168.1-0.6,252.2-0.9c84.3-0.3,168.6-0.8,252.9-0.5c42,0.1,84,0.2,126,0.5c21.2,0.1,42.4,0.3,63.6,0.4   c20.3,0.1,40.5-0.1,60.8-0.1c29.1-0.1,58.1,0,87.2,0.3c13.4,0.1,26.8,0.2,40.2,0.4c15,0.2,30,0.5,45,0.3c49-0.7,98-4.8,146.7-10.1   c0.1,0,0.1-0.1,0-0.1c-30.4-3.3-60.8-6.2-91.3-7.9c-20.2-1.1-40.4-2-60.6-2.3c-19.3-0.2-38.6,0.3-57.8,0.5   c-19.3,0.2-38.6,0.4-57.8,0.5c-20.3,0.1-40.7,0-61,0c-41.7-0.1-83.5,0.1-125.2,0.4c-83.9,0.6-167.9,0.8-251.8,0.4   c-42.4-0.2-84.8-0.3-127.3-0.5c-41.7-0.2-83.5-0.2-125.2-0.4c-62.5-0.3-124.9-0.4-187.4-0.9c-7.6-0.1-15.1-0.1-22.7-0.1   S558.5,1968.1,550.9,1968.3L550.9,1968.3z"
       id="path47" /><path
       d="M1899.3,629.2c-1.6,17.9-3.4,35.9-4.8,53.8c-1.5,19.6-2.7,39.2-3.7,58.8c-1.8,37.4-2.5,74.8-2.8,112.3   c-0.1,18.9-0.3,37.8-0.6,56.7c-0.1,8.9-0.1,17.7-0.3,26.6c-0.2,9.6-0.6,19.1-0.6,28.7c-0.2,19.2-0.1,38.4-0.1,57.6   c0,18.9-0.2,37.8-0.3,56.6c0,18.2-0.3,36.4-0.1,54.6c0.2,18.8,0.4,37.6,0.6,56.4c0.3,39,0.2,77.9,0.6,116.9   c0.4,37.3,1.3,74.6,1.6,111.9c0.3,38.8,1,77.6,1.6,116.5c0.2,12.5,0,25,0.1,37.5c0.1,12.9,0.2,25.7,0.3,38.6   c0.3,25.3,0.4,50.5,0.6,75.8c0.1,11.9,0.3,23.8,0.6,35.7c0.3,10.6,0.5,21.3,1.1,31.9c0.6,11,1.3,22,2.1,33c0.6,8,0.8,16.1,1.9,24.1   c0-0.1,0-0.3-0.1-0.4c0.5,4.7,0.5,9.4,1.2,14.1c0-0.1,0-0.2,0-0.3c0.6,5.4,0.7,10.8,1,16.1c0,0.1,0.1,0.1,0.1,0   c0.3-5.4,0.5-10.8,1-16.1c0,0.1,0,0.2,0,0.3c0.7-4.6,0.7-9.4,1.2-14.1c0,0.2-0.1,0.4-0.1,0.6c0.7-5.2,1-10.4,1.3-15.6   c0.6-8,1.2-16,1.7-24c1.1-15.7,1.5-31.5,2-47.3c0.6-18.7,0.6-37.4,0.8-56.2c0.2-19.2,0.3-38.3,0.5-57.5c0.2-19.1,0.4-38.3,0.4-57.4   c0-19.8,0.4-39.5,0.7-59.3c0.3-19.5,0.6-39.1,0.8-58.6c0.3-18.2,0.4-36.4,0.7-54.6c0.6-38,1.1-75.9,1.4-113.9   c0.2-19.6,0.1-39.2,0.2-58.7c0.1-19.2,0.3-38.4,0.6-57.6c0.4-36.6,0-73.3-0.3-109.9c-0.1-19.4,0.1-38.8,0.1-58.1   c0-18.6-0.7-37.2-0.9-55.9c-0.2-24.9-0.7-49.7-0.8-74.6c-0.1-24.7-0.7-49.4-1.3-74.1c-0.6-25.3-2-50.5-3.6-75.8   C1904.1,679.2,1901.7,654.2,1899.3,629.2C1899.4,629.2,1899.4,629.2,1899.3,629.2C1899.4,629.2,1899.3,629.2,1899.3,629.2   L1899.3,629.2z"
       id="path49" /><path
       d="M208.8,640c-0.3,0-0.5,0.2-0.5,0.5c-0.5,7.6-0.6,15.2-0.8,22.8c-0.3,9.6-0.7,19.2-0.9,28.9c-0.5,18.6-0.8,37.1-1,55.7   c-0.5,37.2-0.3,74.4-0.3,111.7c-0.1,75.9-0.3,151.9-0.5,227.8c-0.2,74.3-0.2,148.7-0.6,223c-0.1,18.6-0.4,37.2-0.4,55.9   c0,18.7-0.1,37.3-0.1,56c0,18.8-0.2,37.5-0.3,56.3c-0.1,8.9-0.4,17.9-0.6,26.8c-0.2,9.5-0.2,19-0.3,28.4c-0.1,20.4,0,40.9-0.1,61.3   c0,19.5-0.3,39-0.1,58.5c0.1,10,0.1,20,0.2,29.9c0,0.5-0.1,0.9-0.1,1.4c-1,11.8-1.9,23.7-1.8,35.6c0,2.9-0.2,5.8-0.2,8.7   c-0.1,3.2-0.2,6.5-0.2,9.7c-0.1,2.7-0.1,5.3-0.1,8c0,1.1,0.1,2.2,0.1,3.3c0.1,0.8,0.2,1.5,0.3,2.3c0.1,0.6,0.2,1.3,0.3,1.9   c0.2,7.3,0.1,14.6,0.1,21.8c0,7.2-0.1,14.4,0.2,21.6c0,0.1,0,0.2,0,0.3c0.1,1.9,0.9,3.8,2.3,5.2c0.2,0.2,0.3,0.3,0.5,0.5   c0,0,0,0,0,0c0,0,0.1,0.1,0.1,0.1c0.3,0.2,0.6,0.5,1,0.7c0.7,0.4,1.5,0.7,2.3,0.9c0,0,0,0,0,0c0,0,0.1,0,0.1,0   c1.2,0.2,2.4,0.2,3.6-0.1c0.4-0.1,0.8-0.2,1.1-0.4c0,0,0.1,0,0.1,0c0,0,0.1,0,0.1-0.1c0.1,0,0.1-0.1,0.2-0.1c0,0,0,0,0,0   c0.1-0.1,0.2-0.1,0.3-0.2c2.4-1.4,3.9-4,3.9-6.8c0.3-7.2,0.2-14.4,0.2-21.6c0-7.3-0.1-14.5,0.1-21.8c0.3-2,0.6-3.9,0.6-5.9   c0.1-2.5,0.1-5,0-7.5c-0.1-6.1-0.3-12.2-0.4-18.3c-0.1-2.5,0-5.1-0.1-7.7c0-3.3-0.2-6.6-0.4-9.9c-0.4-6.1-0.8-12.2-1.3-18.2   c-0.1-1.3-0.2-2.5-0.3-3.8c0-5.3,0.1-10.7,0.1-16c0.3-35.5-0.1-70.9-0.1-106.4c0-18.5,0.1-36.9-0.3-55.4   c-0.2-8.9-0.4-17.9-0.6-26.8c-0.2-9.7-0.1-19.5-0.2-29.2c-0.2-37.4,0-74.8-0.4-112.1c-0.7-74.3-0.6-148.6-0.7-222.9   c-0.1-37.3-0.2-74.7-0.2-112c0-38.4-0.3-76.7-0.3-115.1c0-21.2,0-42.4,0-63.5c0-20.7,0-41.5-0.1-62.2c-0.2-21-0.6-42-1-63   c-0.2-10.3-0.5-20.6-0.9-30.9c-0.3-9-0.4-18.1-1-27.1C209.3,640.1,209.1,640,208.8,640C208.8,640,208.8,640,208.8,640L208.8,640z"
       id="path51" /><path
       d="M206.2,1779c-0.9,5.5-1.5,11.1-1.6,16.7c-0.2,6.5,0.8,13.1,1.8,19.5c1.7,10.3,5.8,20.2,10.9,29.3c1.5,3.2,4.7,5.1,8.1,5.6   c2.7,0.5,5.5,0,7.9-1.4c2.6-1.5,4.6-4,5.4-7c0.5-1.8,0.5-3.4,0.2-4.9c-0.2-1.4-0.7-2.8-1.4-4.1C229.1,1813.6,218.3,1796,206.2,1779   C206.2,1779,206.2,1779,206.2,1779C206.2,1779,206.2,1779,206.2,1779L206.2,1779z"
       id="path53" /><path
       d="M206.2,1779c-0.6,12.3-0.3,24.5,1.5,36.7c1.9,12.8,5.1,25.3,9.3,37.5c3.4,9.8,7.4,19.5,12.1,28.7   c5,9.8,11.1,18.8,17.8,27.5c-1-1.3-2-2.6-3-3.9c6.4,8.5,13.1,16.7,20.5,24.4c7,7.4,14.8,13.7,23.1,19.8   c15.4,11.4,33.3,19.5,51.3,25.9c-1-0.4-2.1-0.9-3.1-1.3c16.4,6.7,34.2,9.8,51.7,10.9c18.2,1.2,36.3-1,54.4-2.6c0,0,0.1-0.1,0-0.1   c-5.4-1.4-10.6-3-15.8-4.9c-1.6-0.7-3.3-1.4-4.9-2c-15.4-6.6-29.9-15-44.3-23.7c-13.3-8-26.3-16.6-38.8-26   c-7.3-5.7-14.5-11.6-21.6-17.6c-9-7.6-18.1-15.1-26.8-23c-8.8-8.1-17.3-16.6-25.3-25.5c-7.5-8.2-14.9-16.3-21.8-25   C229,1817.2,216.9,1798.5,206.2,1779C206.2,1779,206.2,1779,206.2,1779C206.2,1779,206.2,1779,206.2,1779L206.2,1779z M421,1975.6   c0.3,0.1,0.6,0.2,0.8,0.4C421.5,1975.9,421.3,1975.7,421,1975.6L421,1975.6z"
       id="path55" /><path
       d="M215,1605.9c6,27.3,17.5,52.9,33.9,75.6c0.8,1.7,1.9,3.2,3.3,4.5c6.4,8.3,13.1,16.2,20.6,23.5c8.2,8.1,17.5,15.1,26.9,21.8   c18.4,13.1,39.3,22,61.2,27.5c11.3,2.8,22.9,4.4,34.5,5.4c10.3,0.9,20.6,0.7,30.9-0.4c23.6-2.5,46.3-8.8,68.3-17.2c0,0,0-0.1,0-0.1   c-8.4-0.2-16.7-0.9-25.1-2c-8.3-1.2-16.6-2.7-24.8-4.7c-8.5-2-16.9-4.6-25.3-7.1c-15-4.5-29.8-9.8-44.3-15.7   c-7.6-3.3-15.1-6.9-22.6-10.5c-9.1-4.4-18.1-8.7-27-13.5c-17.7-9.5-34.6-20.3-50.8-32.1c-0.2-0.1-0.3-0.2-0.5-0.3   c-0.5-0.4-1-0.7-1.5-1.1c-0.2-0.1-0.3-0.2-0.5-0.3c-1-0.7-2-1.5-2.9-2.2C249.7,1641.7,231.5,1624.6,215,1605.9   C215,1605.9,215,1605.9,215,1605.9C215,1605.9,215,1605.9,215,1605.9L215,1605.9z"
       id="path57" /><path
       d="M1896.4,1555.4c-1.8,5.9-4.1,11.7-6.5,17.5c0-0.1,0.1-0.2,0.1-0.3c-0.4,1-0.8,2-1.3,3c0-0.1,0.1-0.2,0.1-0.3   c-4.5,10.6-9.7,21-15.3,31.1c-6.4,11.5-13.8,22.4-21.8,32.9c-17.8,22.8-38.5,43.5-61.3,61.3c0.2-0.2,0.4-0.3,0.6-0.5   c-0.3,0.2-0.5,0.4-0.8,0.6c-0.3,0.3-0.7,0.5-1,0.8c0.3-0.2,0.5-0.4,0.8-0.6c-22.1,16.8-46.3,30.8-71.8,41.6   c-10.6,4.4-21.4,8.2-32.4,11.5c0,0,0,0.1,0,0.1c26.1-1.4,51.7-7.2,75.8-17.3c24.3-10.3,46.9-25.4,66.1-43.6   c9.3-8.8,17.6-18.7,25.2-28.9c7.8-10.4,14.4-21.6,20.2-33.2c5.4-10.8,10.1-22,13.9-33.4c3.8-11.3,6.3-23,8.2-34.7   c0.3-1.8,0.6-3.7,0.9-5.5c0,0,0,0,0,0.1C1896.2,1556.8,1896.3,1556.1,1896.4,1555.4C1896.5,1555.3,1896.4,1555.3,1896.4,1555.4   C1896.4,1555.3,1896.4,1555.3,1896.4,1555.4L1896.4,1555.4z M1719,1742.1c-0.2,0.1-0.4,0.2-0.6,0.3   C1718.6,1742.3,1718.8,1742.2,1719,1742.1L1719,1742.1z M1790,1700.8c0.1-0.1,0.2-0.1,0.3-0.2c0.1,0,0.1-0.1,0.2-0.1   C1790.3,1700.6,1790.2,1700.7,1790,1700.8L1790,1700.8z"
       id="path59" /><path
       d="M1900.3,1806.4c-9.7,21.2-21.7,41-35.9,59.5c-15.8,20.1-33.9,38.4-54,54.1c-11.6,8.9-23.7,17.3-36.2,24.8   c-13,7.9-26.7,14.5-40.7,20.5c-11.3,4.7-22.8,8.8-34.6,12.2c-11,3.1-22.1,5.5-33.4,7.3c-0.1,0,0,0.1,0,0.1   c25.8,1.4,51.9-1.1,76.8-8.1c12.5-3.5,24.6-8.4,36.2-14c12.1-5.8,23.7-12.8,34.4-20.8c22.1-16.4,40.9-37,55.9-60   C1884,1859,1894.5,1833.1,1900.3,1806.4C1900.4,1806.4,1900.4,1806.3,1900.3,1806.4C1900.4,1806.3,1900.4,1806.3,1900.3,1806.4   L1900.3,1806.4z M1735.1,1964.6c-0.2,0.1-0.3,0.1-0.5,0.2C1734.8,1964.7,1735,1964.6,1735.1,1964.6L1735.1,1964.6z"
       id="path61" /><path
       d="M366.6,458.7c-15.6,5.6-30.6,12.7-44.9,21.2c-14.2,8.5-27.4,18.6-39.6,29.8c-24.6,22.6-44.6,50.1-58.1,80.6   c-10.4,23.5-17.1,48.4-19.8,74c-1.3,12.1-1.5,24.3-0.9,36.4c0.6,12.6,2.4,25.1,4.9,37.4c0,0,0.1,0,0.1,0   c-1.8-20.8-1.2-41.9,1.5-62.6c0,0.2,0,0.3-0.1,0.5c3.4-24.9,9.7-49.2,19.3-72.4c4.8-11.3,10.3-22.3,16.4-32.9   c6.4-11,13.6-21.5,21.3-31.5c-0.1,0.1-0.1,0.2-0.2,0.3c0.2-0.3,0.4-0.5,0.6-0.8c0-0.1,0.1-0.1,0.1-0.2c0,0,0,0-0.1,0.1   c7-9,14.5-17.5,22.6-25.5c8.4-8.4,17.5-16.2,26.9-23.5c-0.2,0.1-0.4,0.3-0.6,0.4c7.7-5.9,15.7-11.5,24-16.7   C348.6,467.9,357.5,463.1,366.6,458.7C366.6,458.7,366.6,458.7,366.6,458.7C366.6,458.7,366.6,458.7,366.6,458.7L366.6,458.7z    M228.9,603.6c-0.1,0.3-0.3,0.6-0.4,0.9C228.6,604.2,228.8,603.9,228.9,603.6L228.9,603.6z M267,538.7c-0.1,0.2-0.3,0.3-0.4,0.5   c0.2-0.2,0.3-0.4,0.5-0.6C267.1,538.6,267.1,538.6,267,538.7L267,538.7z"
       id="path63" /><path
       d="M1740,448.2c17.2,8.5,33.5,18.7,48.7,30.4c19,14.9,36,32.3,50.8,51.4c-0.3-0.4-0.6-0.8-0.9-1.2   c17.3,22.6,31.4,47.4,42.5,73.6c6.1,14.6,11.2,29.7,14.9,45.1c0,0,0,0,0,0c0.1,0.3,0.2,0.5,0.3,0.7c0.5,1.8,0.9,3.5,1.4,5.3   c0.2,1,0.5,2,0.7,3c0.1,0.3,0.1,0.8,0.3,1.1c0.3,1.3,0.6,2.6,0.8,3.9c0,0,0,0,0,0c0,0,0,0,0,0c0,0,0,0,0,0c0,0.2,0.3,0.1,0.3-0.1   c0,0,0,0,0,0c0-1.4,0-2.7-0.1-4.1c0.1-0.4,0-0.9,0-1.1c0-1,0-2.1-0.1-3.1c-0.1-1.8-0.2-3.6-0.3-5.4c0.1-0.2,0.2-0.5,0.1-0.8   c-1-10.4-2.4-20.7-4.7-30.9c-2.4-10.7-5.5-21.2-9.5-31.5c-4.2-10.8-9.3-21.2-15.1-31.1c-5.4-9.2-11.6-18-18.2-26.4   c-13.9-17.8-30.7-33.2-49-46.3c-18.2-13.1-38.2-23.6-59.3-31.3C1742.7,449,1741.4,448.5,1740,448.2   C1740,448.1,1740,448.1,1740,448.2C1740,448.1,1740,448.1,1740,448.2L1740,448.2z M1788.1,478.1c0.1,0.1,0.2,0.2,0.3,0.2   C1788.3,478.3,1788.2,478.2,1788.1,478.1L1788.1,478.1z"
       id="path65" /><path
       d="M367.7,1433.8c2.3,13.4,5.6,26.5,10.2,39.2c4.5,12.5,10.2,24.5,16.8,36.1c13.3,23.3,30.4,44.6,51.3,61.5   c21.3,17.3,45.9,29.9,72,38.1c25.7,8.1,52.6,11.1,79.5,10.6c0.1,0,0.1-0.1,0-0.1c-19-3.5-37.4-9.3-55.3-16.7   c-12.9-5.5-25.4-11.8-37.5-19c-12.1-7.2-23.8-15.2-34.9-23.7c-23.6-18.4-45.8-38.9-64.2-62.6   C390.5,1477.6,377.9,1456.3,367.7,1433.8C367.8,1433.8,367.8,1433.8,367.7,1433.8C367.8,1433.8,367.7,1433.8,367.7,1433.8   L367.7,1433.8z"
       id="path67" /><path
       d="M360,1399.5c-0.6,19.4,2.4,38.6,9.5,56.7c1.9,4.8,4.2,9.4,6.6,14c1.4,2.6,2.9,5.1,4.4,7.5c1.4,2.3,3.1,4.4,4.6,6.7   c6,9,12.6,17.6,19.8,25.7c0,0,0.1,0,0.1-0.1c-4.8-8.9-9.2-17.9-13.3-27.1c-1.2-2.8-2.2-5.7-3.3-8.6c-1.5-3.9-3-7.8-4.4-11.7   c-2.8-7.5-5.6-15-8.6-22.5C370.2,1426.6,365,1413.1,360,1399.5C360.1,1399.4,360.1,1399.4,360,1399.5   C360,1399.4,360,1399.4,360,1399.5L360,1399.5z"
       id="path69" /><path
       d="M1736.9,1446.6c-0.6,1.8-1.1,3.6-1.7,5.4c0,0.1,0.1,0.1,0.2,0C1735.9,1450.3,1736.4,1448.5,1736.9,1446.6   C1737,1446.6,1736.9,1446.6,1736.9,1446.6C1736.9,1446.6,1736.9,1446.6,1736.9,1446.6L1736.9,1446.6z"
       id="path71" /><path
       d="M1740.3,1434.2c-10.9,20.4-23.2,39.8-37.2,58.2c-14.4,18.2-30.8,34.5-47.3,50.8c-17.5,17.4-35.7,34-55.2,49.2   c-15.9,12.1-32.5,23.4-50.5,32.2c0,0,0,0.1,0,0.1c23.4-0.9,46.9-4.4,68.9-12.5c12.3-4.5,24.2-10.2,35.3-17.1   c11.5-7.2,22.2-15.9,31.8-25.5c9.2-9.2,17-20.1,23.9-31.2c6.6-10.7,11.7-22,16.5-33.6C1735.8,1482.6,1740.2,1458.2,1740.3,1434.2   C1740.4,1434.2,1740.3,1434.2,1740.3,1434.2C1740.3,1434.2,1740.3,1434.2,1740.3,1434.2L1740.3,1434.2z M1702.1,1493.6   c-0.2,0.2-0.4,0.5-0.5,0.7C1701.8,1494.1,1702,1493.8,1702.1,1493.6L1702.1,1493.6z"
       id="path73" /></g><text
     xml:space="preserve"
     style="font-style:normal;font-variant:normal;font-weight:normal;font-stretch:normal;font-size:225px;line-height:125%;font-family:Chalkboard;-inkscape-font-specification:'Chalkboard, Normal';text-align:start;letter-spacing:0px;word-spacing:0px;writing-mode:lr-tb;text-anchor:start;fill:#000000;fill-opacity:1;stroke:none;stroke-width:1px;stroke-linecap:butt;stroke-linejoin:miter;stroke-opacity:1"
     x="805.51105"
     y="903.74408"
     id="text3370"
     sodipodi:linespacing="125%"><tspan
       sodipodi:role="line"
       id="tspan3372"
       x="805.51105"
       y="903.74408">Help</tspan></text>
</svg>