<?xml version="1.0" encoding="UTF-8" standalone="no"?>
<!-- Generator: Adobe Illustrator 20.1.0, SVG Export Plug-In . SVG Version: 6.00 Build 0)  -->

<svg
   xmlns:dc="http://purl.org/dc/elements/1.1/"
   xmlns:cc="http://creativecommons.org/ns#"
   xmlns:rdf="http://www.w3.org/1999/02/22-rdf-syntax-ns#"
   xmlns:svg="http://www.w3.org/2000/svg"
   xmlns="http://www.w3.org/2000/svg"
   xmlns:sodipodi="http://sodipodi.sourceforge.net/DTD/sodipodi-0.dtd"
   xmlns:inkscape="http://www.inkscape.org/namespaces/inkscape"
   version="1.1"
   x="0px"
   y="0px"
   viewBox="0 0 1146.9 970.3"
   style="enable-background:new 0 0 1146.9 970.3;"
   xml:space="preserve"
   id="svg2"
   inkscape:version="0.91 r13725"
   sodipodi:docname="piggybank_home.svg"><metadata
     id="metadata187"><rdf:RDF><cc:Work
         rdf:about=""><dc:format>image/svg+xml</dc:format><dc:type
           rdf:resource="http://purl.org/dc/dcmitype/StillImage" /></cc:Work></rdf:RDF></metadata><defs
     id="defs185" /><sodipodi:namedview
     pagecolor="#ffffff"
     bordercolor="#666666"
     borderopacity="1"
     objecttolerance="10"
     gridtolerance="10"
     guidetolerance="10"
     inkscape:pageopacity="0"
     inkscape:pageshadow="2"
     inkscape:window-width="1300"
     inkscape:window-height="799"
     id="namedview183"
     showgrid="false"
     inkscape:zoom="0.67572501"
     inkscape:cx="544.26539"
     inkscape:cy="232.56108"
     inkscape:window-x="0"
     inkscape:window-y="1"
     inkscape:window-maximized="0"
     inkscape:current-layer="svg2" /><style
     type="text/css"
     id="style4">
	.st0{display:none;}
	.st1{opacity:0.12;fill:#FFB5B9;}
	.st2{opacity:0.22;fill:#FFD783;}
</style><g
     id="Layer_1"
     class="st0" /><g
     id="Layer_2"><path
       class="st1"
       d="M829.4,511.1c-4.6,3.6-8.9,7.5-13.3,11.4c-4.5,4-8.9,8.1-13.5,12c-8.9,7.7-17.6,15.5-26.7,23   c-14.6,10.9-29.5,21.4-44.3,32c-8.1,5.8-16.3,11.5-24.4,17.3c-3.9,2.8-8,5.3-12,7.9c-2,1.3-3.9,2.5-5.9,3.7   c-1.3,0.8-2.5,1.6-3.7,2.4c-3.6,2.3-1.3-1-9,6.6c-17.1,11.2-33,24.2-48,38c-12.6,11.6-25.8,22.7-39,33.5   c-8.7,6.5-17.4,13.1-25.9,20c-1.2,0.9-2.4,1.9-3.6,2.8c-5.9,3.9-12.2,7.3-18,11.3c-5.1,3.5-9.3,7.8-14,11.6c-1.7,1.2-3.7,2.2-5.6,3   c0,0,0,0,0.1,0c0,0-0.1,0-0.1,0c-0.1,0-0.2,0.1-0.3,0.1c0.1,0,0.1-0.1,0.2-0.1c-0.4,0.2-0.8,0.3-1.2,0.5c-0.6,0.1-0.6,0.9-0.2,1.3   c2.4,1.7,5.1,3.4,7.8,4.6c3.8,1.5,7.9,1.3,11.9,1.2c4.8,0,9.5,0,14.2,0.2c10.2,0.4,20.3,0.1,30.5-0.5c22.4-1.4,44.5-5.3,66.2-10.6   c13.1-3.2,25.9-7.2,38.4-12.3c9.6-3.9,19.2-7.8,28.1-13.3c6.4-3.9,12.4-8.5,18.2-13.4c3.2-2,6.1-4.3,8.8-6.9c0.7-0.7,1.3-1.4,2-2.1   c1.5-1.6,3-3.2,4.4-4.9c5.9-7,11.4-14.2,16.7-21.7c5.5-7.7,10-16.1,14.3-24.6c9-17.9,15.6-36.9,23.2-55.4   c3.9-9.2,7.8-18.3,11.4-27.6c3.2-8.1,6.2-16.3,9.5-24.3c1.4-3.3,2.8-6.6,4.1-9.9c3.3-7.5,6.3-15.4,11-22.2c1-1.2,1.9-2.2,3.1-3.2   c0.2-0.1,0.3-0.2,0.5-0.3c0,0,0,0,0,0c-0.1,0-0.2,0-0.3,0C839.4,502.5,833.7,507.8,829.4,511.1L829.4,511.1z M527.7,745   c-0.1,0.1-0.2,0.2-0.4,0.3C527.4,745.2,527.5,745.1,527.7,745L527.7,745z M529.7,754.5c-0.3-0.1-0.5-0.2-0.8-0.4   c-0.2-0.1-0.3-0.1-0.5-0.2C528.9,754.1,529.3,754.3,529.7,754.5L529.7,754.5z M522.5,747.7C522.5,747.7,522.5,747.7,522.5,747.7   c0.1,0,0.1,0,0.1,0C522.6,747.7,522.5,747.7,522.5,747.7L522.5,747.7z"
       id="path8" /><path
       class="st1"
       d="M816.4,634.7c-3.5,1-6.5,2.7-9,5.2c-4.7,3.7-8.2,8.8-11.8,13.5c-1.4,1.8-2.7,3.6-4,5.5   c-2.1,2.9-4.3,5.8-6.4,8.8c-0.1,0.2-0.3,0.4-0.4,0.6c-5.9,0.9-11.2,5.1-15.9,8.5c-6.7,4.8-12.9,10.3-18.8,16   c-3.2,3.1-6,6.5-8.7,9.9c-0.4,0.2-0.8,0.4-1.2,0.6c0,0,0,0.1,0,0c0.3-0.1,0.6-0.2,0.9-0.3c-1.9,2.5-3.8,5.1-5.6,7.7   c-1.5,1-3,1.9-4.4,3c-3,2.2-6,4.4-8.6,7c-4.1,4.1-6.5,8.5-6.6,14.4c0,3.6,1.3,6.9,3.5,9.4c-3,4.1-5.4,8.5-7.5,13.2c0,0,0,0,0,0   c3.1-3.8,6.6-7.4,10.5-10.5c3.5,2.4,7.9,3.3,12.2,2.1c1.2-0.3,2.4-0.8,3.5-1.5c1.1-0.6,2.1-1.3,3.1-2.1c8.2-5.3,16.7-10,25.5-14.3   c3.8-1.9,7.6-3.8,11.4-5.7c2.4-1.2,4.8-2.4,7.2-3.6c4.7-2.4,9.8-5,13.6-8.7c6.3-4.5,12.2-9.6,17.2-15.7c4.4-5.3,8.2-11,11.9-16.9   c2.3-3.7,4.5-7.4,7-10.9c0.4-0.4,0.8-0.9,1.2-1.3c0.3-0.3,0.5-0.6,0.8-0.9c0.1-0.6,0.2-1.2,0.3-1.8c0.8-7.1,1.6-14.2,2.5-21.3   c-0.9-1.7-2.1-3.4-3.5-4.8c-3.8-3.8-9-6-14.4-6C820,634.2,818.2,634.5,816.4,634.7L816.4,634.7z"
       id="path10" /><path
       class="st1"
       d="M501.1,721.8c-7.5,2.9-14.5,6.9-21.3,11.2c-3.2,2-6.2,4.1-9.3,6.2c-1.3,0.9-2.6,1.7-3.8,2.5   c-2.1,1.4-4.2,2.3-6,4.1c-3.6,3.5-0.8,9.5,4,9.6c2.3,0,4.4-0.1,6.7-0.7c2.2-0.6,4.4-1.6,6.6-2.4c2.1-0.8,4.2-1.7,6.3-2.5   c1.3-0.5,2.6-1.1,3.9-1.6c-1.5,1.2-3,2.4-4.5,3.6c0,0,0,0.1,0,0c2.7-1.7,5.3-3.4,8-5.1c1.3-0.5,2.6-1,3.8-1.6c7.3-3,14.7-6,22-9   c0,0,0-0.1,0,0c-1.4,0.2-2.8,0.4-4.2,0.6c0,0,0,0,0,0c-2.9,0.4-5.8,0.7-8.8,1.1c0.8-0.7,1.6-1.3,2.5-2c2.1-1.8,4.3-3.5,6.3-5.4   c1.8-1.7,3.1-3.8,4.5-5.8c0.5-0.7,0.4-2-0.3-2.6c-0.7-0.7-1.6-1.7-2.5-2.1c-1.4-0.7-2.2-0.9-3.8-1c-0.1,0-0.3,0-0.4,0   C507.4,718.7,504,720.7,501.1,721.8L501.1,721.8z M512.3,723.9c0.2,0,0.3,0.1,0.5,0.1c0.1,0.1,0.2,0.1,0.3,0.2   c-0.5,0.9-1,1.8-1.5,2.6c-3.3,4.1-7.2,7.9-11.3,11.4c-2.1,0.3-4.1,0.5-6.2,0.8c-3.5,0.5-7.1,0.9-10.6,1.5c-0.5,0.1-1,0.2-1.5,0.3   c8.7-6.1,17.8-11.7,27.4-16.3c0.6-0.2,1.3-0.4,1.9-0.6C511.7,723.9,512,723.9,512.3,723.9L512.3,723.9z M509.4,724.5   c-0.2,0.1-0.4,0.2-0.6,0.3C509,724.7,509.2,724.6,509.4,724.5L509.4,724.5z"
       id="path12" /><path
       class="st1"
       d="M713.9,252.8c2,0.4,3.9,0.7,5.9,1.1c3.1,0.4,6.2,0.9,9.3,1.4c-4.1-3-7.5-4.9-13.8-7.4   C715,249.5,714.6,251.2,713.9,252.8L713.9,252.8z"
       id="path14" /><path
       class="st1"
       d="M694,311.2c-8.1,0.1-16.1,1.2-24.1,2c-16,1.5-32,2.7-47.9,4.6c-12.7,1.9-25.2,4.1-37.8,6.4   c-8.8,1.6-17.5,3.3-26.4,4.6c-3.7,0.5-7.3,1-11,1.5c-1,0.1-2,0.2-2.9,0.3c-0.9,0-1.8-0.1-2.7-0.2c-5.3,0-10.3-1.4-14.8-4   c-2.1-0.9-3.9-2.2-5.6-3.7c-10.5,9.2-19.2,20.1-27.9,31c-2.3,3.1-4.6,6.3-6.9,9.5c-2.8,4-5.1,8.3-7.6,12.5   c-2.3,4.1-4.3,8.3-6.3,12.5c-1,2.2-2,4.4-3,6.6c-3.3,7.2-7.7,14.8-15.3,18.2c-2.8,1.6-5.7,2.8-8.8,3.4c2.8,0.3,5.6,0.8,8.1,1.7   c3.4,1.2,6.9,2.6,10.1,4.1c9.5,4.6,17.6,13.3,22.8,22.3c5.8,10.2,9.8,21.6,10,33.4c0.1,8.2-1.6,16.1-5.3,23.4   c-3.3,6.5-8.4,11.1-14.3,15.3c-4.5,3.1-9.5,5.1-14.6,7.1c-2.6,1-5.2,1.9-7.9,2.5c-6.6,1.4-13.2,2.1-19.9,2.5   c-8.1,0.6-16.8-0.2-24.7-1.9c-4.9-1.1-10-3-14.4-5.4c-3.2-1.8-5.7-3.9-8.7-6.3c-1.3-1.1-2.7-2.1-3.8-3.5   c-3.9-4.9-7.8-9.7-10.1-15.5c-0.3,0.1-0.5,0.3-0.8,0.4c-2.5,4.6-6.3,8.5-10.9,11.2c-4.6,2.7-9.5,4-14.8,4c-2.6-0.3-5.2-0.7-7.8-1   c-4.7-0.8-9.3-3-13.5-5.1c-1.8-0.9-3.7-1.8-5.4-3c-6.7-4.4-12.2-9-16.5-15.7c-3.7-5.7-6.3-13.3-6-20.2c0.1-3.5,0.5-6.9,1.4-10.3   c0.6-2.3,2.6-6.5,4-9.2c1.4-2.8,2.9-5.7,4.6-8.3c2.2-3.4,4.7-6.5,7.3-9.8c0.9-1.2,1.9-2.4,3-3.5c2.6-2.4,5.4-4.5,8.3-6.7   c0,0,0,0,0,0c-0.7-0.6-1.3-1.3-1.9-1.9c-1.2-1.4-2.4-2.9-3.7-4.3c-2.8-3.3-5.8-6.4-8.7-9.7c-2.1-2.4-4.3-4.7-6.6-6.7   c-0.3-0.2-0.5-0.4-0.8-0.6c-2.6-1.9-5.2-3.9-7.7-6c-1.8-2.1-3.5-4.3-5-6.6c0,0,0-0.1-0.1-0.1c-1.1,0.9-2.2,1.8-3.3,2.7   c-7.1,5.9-14.2,11.9-20.6,18.6c-3.5,3.7-6.6,7.8-10,11.7c-8.9,10.3-19.6,20-32.9,24.1c-1.6,0.5-3.2,0.8-4.8,1.1   c0.1,0.3,0.2,0.6,0.3,0.9c0.5,1.7,0.7,3.4,1,5.1c0.7,4.9,1.3,9.9,1.9,14.8c0.1,0.5,0.2,1,0.2,1.6c2.4-0.4,4.7-0.7,7.1-0.7   c2.7-0.1,5.5,0.2,8.1,0.8c0.8,0,1.6-0.1,2.4,0c4,0,7.6,0.6,11.6,1.2c7.9,1.2,16,7.1,19.6,14.2c3.7,7.2,5.2,14.7,3,22.6   c-1.4,5-3.9,9.3-7.6,13c-4.1,4.8-10.3,6.9-16,9.1c-1.7,0.7-3.4,1.3-5.2,1.8c-3.9,1.2-7.9,2.3-11.7,3.8c-6.4,2.5-13.1,4.2-19.6,6.5   c-0.7,0.4-1.5,0.8-2.2,1.2c-0.4,0.8-0.8,1.6-1.2,2.5c-1.6,4.1-2.9,8.3-4,12.6c-0.9,3.4-1.5,6.8-2,10.3c-1.9,17.5-2.7,35.2-1,52.8   c0.7,3.3,1.4,6.5,2.4,9.6c0.7,1.2,1.4,2.4,2.1,3.6c4.5,5.1,9.5,9.6,14.9,13.8c3,2.3,6,4.7,9,7c7,5.2,14.4,10.1,21.4,15.3   c7.9,5.8,15.6,12,24.3,16.6c7.8,2.8,15.9,4.9,24,6.5c6.7,1.4,13.4,3.2,19.3,6.9c4.7,3,8.9,6.9,11.7,11.7c1.6,2.7,3.3,5.6,3.8,8.7   c0.7,4.6,1.7,9.7,0.9,14.5c2.3,0.4,4.6,0.7,6.9,1.1c6.8,1.1,13.5,3,20.2,4.5c5.9,1.3,11.8,2.5,17.7,3.5c7.7,0.8,15.5,1.4,23.3,2.2   c12.7,1.4,27,2,36.6,11.7c5.7,5.7,9.8,14.6,8.8,22.8c-0.4,3.2-0.9,6.5-1.3,9.7c0.1-0.9,0.2-1.8,0.4-2.7c-0.6,4.4-1.3,7.3-3.5,11.9   c1.3,0.2,2.5,0.3,3.8,0.5c6.9,0.9,13.7,2.1,20.6,3.2c9.5,1.1,18.9,1.9,28.5,1.4c7.5-1.4,14.7-3.3,22-5.4c4.3-1.3,8.5-3,12.7-4.6   c5.6-2.1,11-3.8,17.2-4c8.7-0.3,17.5,2.9,23.7,9.1c0.6,0.6,1,1.1,1.5,1.7c1.7,0.8,3.5,1.5,5.2,2.4c4,2.2,8.8,5.9,11.9,10   c7.6,0,15.2,0,22.7,0c0.9-0.1,1.8-0.2,2.7-0.4c2.9-0.3,5.8-0.5,8.7-0.7c5.2-0.4,10.4-0.7,15.6-1.2c4.9-1,9.6-2.4,14.4-3.8   c2.6-0.8,5.2-1.6,7.8-2.5c0.6-3.6,1.8-7.1,3.7-10.3c6.1-10.4,17.1-15.7,28.8-16c0.9,0,1.7,0,2.6,0c0.6,0,1.3,0.1,1.9,0.1   c1-0.2,2-0.4,3.1-0.6c3.5-0.8,6.4-1.2,9.3-1.2c2.9,0,5.9,0.4,9.5,1.1c1.4,0.3,2.7,0.6,4.1,1c3.1,0.8,6.1,1.5,9.2,2.1   c2.7,0.6,5.4,1.3,8,2.1c0.5-0.1,0.9-0.1,1.4-0.2c7-1,14.2-2.3,21.3-2.7c7.6-0.4,15.5,3.3,20.8,8.6c2.4,2.5,4.4,5.3,5.9,8.4   c0.5-0.2,1.1-0.4,1.7-0.6c2.3-1.6,4.6-3.2,6.9-4.8c2.7-1.8,5.4-3.8,8.1-5.8c4.7-1.8,9.4-3.7,14.1-5.7c-0.5-2.2-0.8-4.5-0.8-6.8   c0.4-2.6,0.7-5.2,1-7.8c1.3-6.6,3.2-13.1,4.5-19.8c1.1-11.8,0.9-23.7,1.8-35.6c1.1-13.2,3-26.3,4.8-39.4   c1.3-11.7,2.5-23.3,4.7-34.9c1.4-7.7,3.1-15.3,4.4-23c0.6-6,0.9-12,1.4-18c0.7-9.2,2-18.4,3.4-27.5c2-12.3,4.7-24.5,6.6-36.8   c0.6-6.8,0.8-13.4,0.3-20.2c-1.2-5.8-2.9-11.3-5-16.8c-1.2-2.6-2.4-5.2-3.7-7.8c-2.6-5.5-5.4-11.6-6.4-17.6   c-1.2-6.6-2.1-13.1-1.8-19.8c0.1-3.1,0.3-6.1,0.3-9.2c-2.8-4.5-3.1-9.2-3.7-14.5c-0.7-5.6,2-10.4,4.1-15.2   c1.6-3.6,7.4-8.9,10.7-10.7c2.5-1.3,5-2.2,7.6-3.2c3-1.3,6-2.4,9.3-2.9c-2-4.8-4.2-10-6.5-14.3c-3.4-6.3-8.1-12.6-13.6-18.3   c-0.2,0.2-0.4,0.4-0.6,0.7c-3.7,3.6-8,6.2-13,7.6c-8.8,3-18.7-0.1-27.5-2.1c-1.6-0.4-3.2-0.7-4.8-0.9c-4.1-0.4-8.3-0.7-12.4-0.9   c-0.9-0.1-1.8-0.1-2.7-0.2c-0.8,0-1.5-0.1-2.3-0.1c-7.5-0.4-9-1.1-15.8-4.1c-7.3-3.3-13.8-12.2-15.2-20.1c-0.5-3.3-0.9-5.5-1-8.1   c-3.3-2.1-6.8-4-10.4-5.7c-11.2-4.1-22.7-7.2-34.3-9.7c-4.3-0.3-8.7-0.5-13.1-0.5C695.6,311.1,694.8,311.1,694,311.2L694,311.2z"
       id="path16" /><path
       class="st1"
       d="M414.8,362.9c-0.2,0-0.5-0.1-0.7-0.1c0.2,0.2,0.3,0.4,0.5,0.6c1-0.6,2-1.2,3-1.8c0.9-0.5,1.8-1,2.8-1.4   c0.1,0,0.2-0.1,0.3-0.1c0.8-1.7,1.5-3.4,2.3-5C420.2,357.7,417.5,360.3,414.8,362.9L414.8,362.9z"
       id="path18" /><path
       class="st2"
       d="M624.3,127.5c-2.8,0.3-5.3,0.7-8,1.4c-2.4,0.7-5.2,2-7.4,3c-4.4,2.1-8.2,4.9-11.9,8c-1.9,1.6-3.4,3.9-4.9,5.8   c-0.9,1.2-1.8,2.5-2.6,3.8c-2.1,3.5-3.5,7.5-5,11.2c-0.6,1.6-1.2,3.1-1.8,4.7c-5.2,5.9-9.8,12.3-13.2,19.4   c-4.1,8.5-7,17.3-7.2,26.8c-0.1,2.6,0.5,5.5,0.8,7.9c0.3,1.7,0.6,3.3,1,5c0.4,1.6,1.1,3.2,1.7,4.8c1,2.4,2,4.7,3.2,7   c1.9,3.6,4.7,6.7,7.3,9.8c3,3.4,6.8,6.2,10.6,8.6c3.4,2.2,7.5,3.7,11.3,5.2c4,1.5,8.4,1.9,12.6,2.4c4.5,0.5,9.1-0.2,13.6-0.8   c3.9-0.5,7.6-1.5,11.3-3c4.1-1.6,8-3.4,11.8-5.6c1.7-1,3.3-2.1,4.8-3.3c1-0.5,2.1-1,3.1-1.5c3.9-1.9,7.3-4.6,10.6-7.2   c2.7-2.1,5.1-4.4,7.3-6.9c2.8-3.3,5.4-6.8,7.4-10.6c1.3-2.4,2.2-4.9,3.2-7.4c0.8-2,1.3-4,1.7-6.1c0.8-4.4,1.1-8.8,0.7-13.3   c-0.4-4.5-1.1-8.9-2.5-13.2c-1.4-4.3-3.5-8.4-5.6-12.4c-2.3-4.2-5.1-8-8.1-11.7c-0.8-1-1.7-2-2.6-2.9c-0.2-0.4-0.5-0.7-0.7-1   c-2.5-3.6-5.3-7.1-8.3-10.4c-3.2-3.7-6.8-6.8-10.7-9.7c-5.9-4.5-13.3-8-20.9-8C626.1,127.4,625.2,127.4,624.3,127.5L624.3,127.5z"
       id="path20" /></g><g
     id="Layer_3"><path
       d="M402.3,422.5c-1.4,0.8-2.6,1.6-3.8,2.6c-2.2,1.8-4.1,4-5.9,6.2c-1.9,2.2-3.7,4.6-5.4,7c-1.7,2.4-3.4,4.9-4.7,7.5   c-1.6,3.1-3,6.1-4.3,9.3c-1.1,2.9-1.8,6-2.3,9c-0.6,3.7-1,7.6-1.1,11.3c0,4.4,1.1,8.9,2.1,13.3c0.2,1,0.5,2,0.8,3.1   c0.6,1.9,1.6,3.9,2.6,5.6c1,1.7,2.2,3.4,3.4,4.9c2.1,2.7,4.2,5.5,6.7,7.8c2.5,2.4,5.1,4.8,8,6.8c5.3,3.7,11,6.8,17.2,8.9   c3.3,1.1,6.9,1.4,10.3,1.8c3.1,0.4,6.2,0.6,9.4,0.7c1.5,0,3.1-0.2,4.6-0.4c2-0.2,3.9-0.6,5.8-0.9c1.4-0.2,2.8-0.5,4.1-0.8   c1.6-0.4,3.1-0.9,4.7-1.4c1.7-0.6,3.4-1.4,5.1-2.2c3.1-1.5,6-3.3,8.7-5.5c6.5-5.1,11.9-11.9,15-19.7c1.1-2.7,2.2-5.4,3.1-8.2   c0.6-2.1,1.3-4.2,1.8-6.3c0.8-3.7,1.2-7.6,1.3-11.4c0.2-5.9,0.5-11.9-1.1-17.7c-1-3.9-3-7.4-5.4-10.6c-1.1-1.5-2.3-3-3.6-4.5   c-1.4-1.7-3.1-3.2-4.8-4.5c-3.2-2.6-6.7-4.3-10.5-5.8c-4.2-1.7-8.9-2.4-13.4-2.8c-4.1-0.4-8.3-0.3-12.4,0.4c-1.8,0.3-3.6,1-5.3,1.8   c-2.1,0.9-4.2,2-6.1,3.3c-2.4,1.5-4.7,3.1-7.1,4.6c-1.5,0.9-3,1.9-4.4,2.9c0,0,0,0.1,0,0c1.6-0.8,3.2-1.5,4.8-2.2   c2.8-1.2,5.6-2.5,8.4-3.7c0,0,0,0,0,0c2.8-1.1,5.7-2,8.6-2.5c2.7-0.3,5.3,0,8,0.3c-0.2,0-0.4-0.1-0.7-0.1c5,0.7,9.8,1.9,14.4,3.7   c3.1,1.4,6,3,8.7,5c2.1,1.7,4,3.6,5.7,5.7c2.1,2.7,4,5.5,5.5,8.6c0.7,1.9,1.3,3.8,1.6,5.8c0.3,3,0.3,6.1,0.1,9.1   c-0.1,2.6-0.3,5.2-0.5,7.7c-0.4,2.5-0.9,5-1.8,7.4c-0.4,1.1-0.9,2.3-1.3,3.5c-0.5,1.3-1.1,2.5-1.7,3.7c-1.5,3.1-3.1,6.1-5.1,8.9   c-2,2.4-4.3,4.7-6.8,6.7c-2.4,1.7-4.8,3.2-7.5,4.4c-1.8,0.7-3.7,1.4-5.6,1.9c-2.1,0.6-4.3,1-6.5,1.3c-1.6,0.2-3.2,0.4-4.8,0.4   c-1.9,0.1-3.8,0-5.7-0.2c-4.8-0.7-9.5-1.7-14-3.4c-4.3-2-8.3-4.6-12.1-7.3c-2.4-2-4.7-4.2-6.9-6.4c-2.2-2.2-4.2-4.6-6.1-7.1   c-1-1.3-1.9-2.7-2.6-4.1c-0.5-1.4-1.1-2.9-1.6-4.3c-0.8-2.3-1.6-4.5-2.1-6.9c-0.3-2.8-0.3-5.7-0.4-8.5c0-2.8,0-5.6,0.2-8.3   c1.1-7,3-13.8,5.7-20.3c2-4.2,4-8.5,6.9-12.2c0.7-0.8,1.4-1.6,2.2-2.4c0.2-0.1,0.4-0.2,0.6-0.3c0.1,0,0.2,0.1,0.3,0.1   c0,0.1,0,0.2,0,0.3c0,0,0,0,0,0c0,0.1,0,0.1,0,0.2c0,0,0,0,0.1,0c0-0.2,0-0.3,0.1-0.5c0,0,0-0.1,0-0.1c-0.3-0.2-0.4-0.3-0.6-0.3   C402.8,422.3,402.6,422.4,402.3,422.5L402.3,422.5z M402.6,422.9C402.6,422.9,402.6,422.9,402.6,422.9   C402.6,422.9,402.6,422.9,402.6,422.9L402.6,422.9z"
       id="path23" /><path
       d="M421.7,416.9c-3.6,0.8-7.1,2.1-10.4,3.6c-3.5,1.5-6.8,3.4-10,5.6c-2.7,1.9-5.1,4.1-7.1,6.7c-1.1,1.4-2.4,3.6-0.9,5.2   c0,0,0,0,0,0c0-0.1-0.1-0.2-0.1-0.3c-0.1-0.3-0.1-0.7-0.1-1c0-0.2,0.1-0.3,0.1-0.5c0.2-0.3,0.4-0.7,0.6-0.9c0,0,0,0,0,0.1   c0.4-0.5,0.9-0.9,1.4-1.3c3-2.3,6.2-3.9,9.6-5.4c5-2.1,10-3.8,15.2-5.2c5.4-1.5,11-2.8,16.5-3.6c2.4-0.3,4.8-0.5,7.3-0.5   c2.4,0,4.8,0.2,7.1,0.5c1.8,0.2,3.6,0.4,5.5,0.6c0,0,0,0,0,0c0.3,0.1,0.7,0.1,1.1,0.2c0,0,0,0,0,0c-1.3-0.5-2.6-1-4-1.4   c-2.8-0.9-5.6-1.8-8.5-2.5c-3.2-0.7-6.5-1.1-9.9-1.1C430.7,415.3,426.1,415.9,421.7,416.9L421.7,416.9z M436.9,419.5   c-0.1,0-0.2,0-0.3,0C436.7,419.6,436.8,419.5,436.9,419.5L436.9,419.5z M436.5,419.6c-0.1,0-0.1,0-0.2,0   C436.4,419.6,436.5,419.6,436.5,419.6L436.5,419.6z M393.1,436.4C393.1,436.4,393.1,436.5,393.1,436.4   C393.1,436.5,393.1,436.4,393.1,436.4L393.1,436.4z M393.2,437.6C393.2,437.6,393.2,437.6,393.2,437.6   C393.2,437.6,393.2,437.6,393.2,437.6L393.2,437.6z M456.5,420.2C456.5,420.2,456.5,420.2,456.5,420.2   C456.5,420.2,456.5,420.2,456.5,420.2L456.5,420.2z"
       id="path25" /><path
       d="M341.3,404.5c-0.9,0.4-1.8,0.6-2.8,0.6c-1,0.4-2.1,0.8-3.1,1.3c-1.7,0.8-3.4,1.6-5,2.6c-3.1,1.9-6,4.2-8.7,6.7   c-2.7,2.4-5,5-7.1,7.9c-2,2.6-3.4,5.6-4.6,8.6c-1.4,3.3-1.7,6.7-2,10.2c-0.2,2.5,0,5,0,7.4c0,1.5,0,3.1,0.1,4.6c0,0,0,0,0,0   c1.1-4.3,2.4-8.6,4-12.7c0.9-2,1.9-3.8,3.1-5.6c1.9-2.4,4.1-4.5,6.4-6.4c4.2-3.1,8.8-5.6,13.6-7.7c1.5-0.6,3-1.1,4.5-1.7   c1.6-0.5,3.1-1,4.6-1.7c1.3-0.4,2.6-0.7,4-0.9c2.8-0.2,5.5-0.1,8.3,0.1c6.9,1.1,13.7,2.7,20.2,5.2c3,1.3,5.7,2.9,8.4,4.9   c1.8,1.5,3.6,3,5.3,4.6c0,0,0,0,0,0c-0.7-2.5-1.6-4.9-2.7-7.2c-1.4-3-3.6-5.7-5.9-8c-2.9-2.9-6.6-4.9-10.2-6.9   c-2.3-1.2-4.7-2.4-7.1-3.4c-1.7-0.7-3.3-1.3-5-1.9c-2.6-0.9-5.4-1.2-8.1-1.6c-0.8-0.1-1.7-0.2-2.5-0.2   C346.6,403.4,343.9,403.9,341.3,404.5L341.3,404.5z"
       id="path27" /><path
       d="M301.6,441.9c-2.1,0.3-3.4,2.5-4.4,4.1c-1.6,2.7-2.5,5.8-3.4,8.8c-0.9,3.2-1.5,6.4-1.9,9.7c-0.5,3.9-0.2,7.8,0.5,11.7   c1.2,7,4.5,13.5,8.3,19.3c3.9,5.8,8.8,10.9,15.1,14.1c3.2,1.6,6.5,2.6,10,3c1.5,0.2,3,0.3,4.5,0.3c2,0,4.1-0.3,6.1-0.7   c5.2-0.8,10.2-2.5,15.1-4.4c4.8-1.9,9.6-3.9,14.4-5.9c0,0,0-0.1,0,0c-4.3,0.4-8.6,0.8-12.9,1.3c-2,0.2-4,0.4-6,0.6   c-2.5,0.2-5.1,0.3-7.7,0.3c-3.1,0-6.2,0-9.4-0.3c-2.6-0.4-5.1-1.1-7.6-2c-2.7-1.2-5.3-2.7-7.7-4.4c-3.5-2.9-6.6-6.2-9.4-9.8   c-2.4-3.1-4.6-6.4-6.2-10c-1.2-3.1-2.1-6.3-2.6-9.5c-0.5-4.4-0.3-8.9,0.2-13.3c0.4-3,0.9-6,1.9-8.9c0.4-0.8,0.7-1.6,1.2-2.3   c0,0,0,0,0,0c0.3-0.4,0.6-0.8,1.1-1.1c0,0,0,0,0,0c0.2-0.1,0.4-0.2,0.6-0.3h0C301.4,442,301.5,442,301.6,441.9   C301.6,441.9,301.6,441.9,301.6,441.9C301.6,441.9,301.6,441.9,301.6,441.9L301.6,441.9z M299.1,477.8c0,0.1,0.1,0.2,0.1,0.3   C299.2,478,299.2,477.9,299.1,477.8L299.1,477.8z M299.8,443.4C299.8,443.4,299.8,443.4,299.8,443.4   C299.8,443.4,299.8,443.4,299.8,443.4L299.8,443.4z"
       id="path29" /><path
       d="M351.4,450.5c-1.8,0.5-3.5,1.7-4.9,2.9c-2,1.7-3.6,3.8-5,6c-1.5,2.3-2.5,5-3.3,7.7c-0.4,1.4-0.6,2.9-0.7,4.4   c-0.1,1.4,0.1,2.8,0.3,4.1c0.2,1.1,0.6,2.1,1.2,3c0.2,0.5,0.4,0.9,0.7,1.3c0.4,0.7,1,1.3,1.5,2c1.8,2.1,4.6,3.3,7.2,4   c2.7,0.7,5.7,0.6,8.4-0.3c2.7-0.9,5.2-2.6,7.3-4.5c3.9-3.4,5.9-8.7,5.9-13.8c0-1.1-0.1-2.1-0.5-3.1c-0.3-1-1.1-1.7-1.9-2.3   c-1.2-1-2.9-1.6-4.5-1.7c0,0,0,0,0,0c0.3,0.1,0.6,0.3,0.9,0.5c0,0,0,0,0,0c0.7,0.6,1.3,1.2,1.9,1.8c0.3,0.4,0.5,0.8,0.7,1.2   c0-0.1-0.1-0.2-0.1-0.3c0.2,0.4,0.3,0.8,0.4,1.2c0,0.2,0,0.3,0,0.5c-0.2,1-0.5,2-0.9,3c-0.7,1.4-1.5,2.8-2.4,4.1   c-0.8,1-1.6,1.8-2.6,2.6c-1.4,1-2.9,1.8-4.5,2.5c-1,0.4-2,0.7-3,0.9c-0.7,0.1-1.5,0.1-2.2,0c-1-0.2-1.9-0.4-2.8-0.7   c-0.6-0.3-1.1-0.6-1.6-0.9c-0.5-0.4-0.9-0.9-1.4-1.4c0,0,0-0.1-0.1-0.1c-0.2-0.4-0.3-0.8-0.5-1.2c-0.3-0.9-0.6-1.8-0.8-2.8   c-0.1-1.5-0.1-3,0.1-4.5c0.4-2.1,0.9-4.1,1.7-6c0.7-1.6,1.6-3,2.6-4.5c0.8-1,1.7-1.9,2.7-2.8c0.5-0.4,1-0.7,1.6-0.9   c0.3-0.1,0.7-0.2,1-0.2c-0.1,0-0.2,0-0.3,0c0.2,0,0.3,0,0.5,0c0.1,0,0.2,0,0.3,0.1c0.1,0,0.1,0.1,0.2,0.1c0,0.1,0.1,0.2,0.1,0.2   c0,0.1,0,0.2,0,0.3c-0.5,2.5-1.3,4.9-2.2,7.3c0,0,0,0,0-0.1c-0.5,1.1-1.1,2.2-1.7,3.3c0,0,0,0.1,0,0c1.2-1.7,2.3-3.3,3.1-5.2   c0.4-0.9,0.8-1.8,1.1-2.7c0.4-1,0.8-2,1-3c0.1-0.6-0.2-1.1-0.6-1.6c-0.5-0.7-1.3-0.9-2.2-0.9C352.7,450.2,352,450.3,351.4,450.5   L351.4,450.5z M367,464.8C367,464.9,367,464.9,367,464.8C367,464.9,367,464.9,367,464.8C367,464.9,367,464.9,367,464.8L367,464.8z    M367,464.9C367,464.9,367,464.9,367,464.9C367,464.9,367,464.9,367,464.9C367,464.9,367,464.9,367,464.9L367,464.9z M364.2,460.7   C364.2,460.7,364.2,460.7,364.2,460.7C364.2,460.7,364.2,460.7,364.2,460.7L364.2,460.7z"
       id="path31" /><path
       d="M421.4,457.1c-0.8,0.3-1,0.8-1.4,1.5c0,0,0,0,0,0c0.3-0.2,0.5-0.3,0.8-0.5c0.2,0,0.5-0.1,0.7-0.1c1,0.4,1.8,1,2.7,1.7   c1.8,1.5,3.5,3.1,5,4.9c0.8,1,1.4,2.1,1.9,3.3c0.4,1.1,0.7,2.2,1,3.3c0.1,0.9,0,1.7,0,2.5c-0.1,0.6-0.3,1.3-0.5,1.9   c-0.3,0.5-0.6,1-0.9,1.5c-0.9,1-1.8,1.9-2.8,2.8c-0.8,0.5-1.6,1-2.4,1.4c-1.6,0.6-3.2,1-4.9,1.3c-0.5,0.1-1.1,0.1-1.6,0.2   c-0.5-0.1-1-0.1-1.5-0.2c-0.7,0-1.4,0-2.1,0c-1.1,0-2.2-0.1-3.3-0.2c-1.7-0.3-3.4-0.7-5-1.3c-0.9-0.4-1.7-0.9-2.6-1.5   c-0.6-0.5-1.1-1-1.6-1.5c-0.5-0.7-0.8-1.3-1.2-2.1c-0.3-0.9-0.5-1.7-0.7-2.6c-0.2-2.1-0.1-4.2,0.1-6.3c0.1-0.4,0.1-0.8,0.2-1.2   c0.1,1.7,0.3,3.5,0.4,5.2c0,0,0,0,0.1,0c0.3-3,0.6-6,1-9c0.2-0.8,0.2-1.3-0.1-2c-0.3-0.7-1.4-0.8-2-0.3c-2.8,2.8-4.3,6.5-5.6,10.2   c-1.5,4.2-1.3,9,0.5,13c1.8,4.1,5.2,7.2,9,9.4c2.1,1.2,4.6,2,6.9,2.6c1.2,0.3,2.5,0.4,3.8,0.6c0.7,0.1,1.4,0.1,2.1,0.2   c0.7,0,1.4-0.1,2.1-0.3c2.8-0.2,5.5-0.6,8.1-1.5c3.1-1.1,5.8-2.8,8.1-5.1c1.1-1.1,2-2.4,2.9-3.7c0.8-1.2,1.5-2.6,2-4   c1.1-3.1,1-6.3,0.3-9.5c-0.3-1.4-1-2.7-1.6-3.9c-0.7-1.2-1.6-2.4-2.5-3.4c-1.8-2.2-4.4-3.7-7-4.9c-2-0.9-4.2-1.5-6.4-2   c-0.4-0.1-1-0.2-1.5-0.2C421.8,457,421.5,457,421.4,457.1L421.4,457.1z"
       id="path33" /><path
       d="M561.3,308.7c-10.5,1.9-20.9,5.4-30.5,10c-4.4,2.1-8.7,4.6-12.9,7.1c-4.5,2.7-8.6,5.8-12.8,9c-5.4,4.1-10.6,8.5-15.4,13.3   c-4.5,4.6-8.1,9.9-11.9,15c-3.2,4.1-6.4,8.2-9.4,12.5c-2.8,4.1-5.2,8.5-7.4,12.9c-2.2,4.4-4.2,8.9-5.7,13.6   c-1.7,5.4-2.5,11-3.1,16.6c0,0,0,0,0,0c4.1-5.9,8-12,12.4-17.8c0.4-0.5,0.8-1.1,1.2-1.6c-0.1,0.1-0.2,0.3-0.3,0.4   c1.8-2.3,3.6-4.7,5.4-7.1c0.6-0.8,1.2-1.6,1.9-2.4c-0.2,0.3-0.4,0.6-0.7,0.9c4.1-5.2,8.9-9.7,14.1-13.8c3-2.3,6-4.6,9-7   c5.5-4.1,11.1-8.1,16.6-12.3c6.2-4.7,12.4-9.3,19-13.3c6.7-4.1,13.4-8,20.5-11.4c6.8-3.2,13.5-6.5,20.3-9.5c1.2-0.5,2.5-1,3.7-1.6   c1.7-0.7,3.4-1.4,5.1-2.2c-0.6,0.3-1.2,0.5-1.8,0.7c6.9-2.8,13.9-5.4,21-7.3c6.6-1.8,13.5-3,20.4-3.9c0,0,0,0,0,0   c0.7-0.1,1.5-0.2,2.2-0.3c0,0,0,0,0,0c-10-2.1-20-3.8-30.2-3.8c0,0-0.1,0-0.1,0C581.8,305.5,571.4,306.9,561.3,308.7L561.3,308.7z    M465.9,399.4c0.1-0.1,0.1-0.2,0.2-0.3C466,399.2,466,399.3,465.9,399.4L465.9,399.4z M466.1,399.1c0.1-0.1,0.1-0.2,0.2-0.3   C466.2,399,466.2,399.1,466.1,399.1L466.1,399.1z"
       id="path35" /><path
       d="M656.8,295.7c-7.9,0.1-15.7,1-23.5,2.1c-7.5,1-14.9,3.1-22.2,5.1c-1.8,0.5-3.5,1.1-5.3,1.7c-2,0.6-4,1.2-5.9,2   c-5,2.1-10.1,4.3-15,6.6c0,0,0,0.1,0,0c5.3-1,10.7-2,16-3c3.7-0.5,7.4-1,11-1.5c4.4-0.4,8.9-1,13.3-1.3c4.7-0.4,9.4-0.5,14.1-0.5   c8.9,0,17.8,0.9,26.6,1.8c1.1,0.2,2.3,0.3,3.4,0.5c6.6,1.1,13.3,2.3,19.9,3.5c6.5,1.2,12.7,3.3,19.1,4.7c3.3,0.7,6.6,1.3,9.9,2.1   c3.3,0.8,6.6,1.7,9.9,2.6c6.2,1.7,12.2,3.7,18.2,6.1c3.9,1.6,7.8,3.2,11.7,4.7c3.5,1.6,6.7,3.7,10,5.7c3.3,2.1,6.8,3.6,10.4,5.1   c0,0-0.1,0-0.1,0c0.9,0.4,1.6,0.8,2.4,1.3c0,0,0,0,0,0c-1.2-1.6-2.8-2.9-4.3-4.2c-1.4-1.3-2.8-2.6-4.1-4c-2.5-2.6-4.8-5.5-7.4-8   c-2.5-2.4-5.6-4.3-8.5-6.3c-3-2.1-6-4.1-9.2-5.9c-6.8-3.7-13.8-7-21.1-9.6c-7.1-2.6-14.5-4.3-21.8-6s-14.9-2.5-22.4-3.5   c-4.2-0.6-8.4-1.2-12.6-1.5c-3.2-0.2-6.5-0.3-9.7-0.3C658.5,295.7,657.7,295.7,656.8,295.7L656.8,295.7z M612.6,308.5   c-0.1,0-0.1,0-0.2,0C612.4,308.6,612.5,308.5,612.6,308.5L612.6,308.5z"
       id="path37" /><path
       d="M724.6,323.3c3.4,1.2,6.7,2.5,10,3.8c4.1,1.9,8.1,3.9,12,6.2c2.2,1.3,4.3,2.5,6.4,3.8c2,1.3,4,2.6,5.9,4   c8.1,6.7,15.5,14.4,22.2,22.6c7.2,8.8,14.3,17.5,21.4,26.4c0.7,0.9,1.3,1.7,2,2.6c3.1,4.2,6,8.4,9,12.7c2.9,4.1,5.9,8.1,8.8,12.1   c2.9,4,5.9,8,8.8,12c3.2,4.3,6.6,8.6,9.1,13.4c0,0,0.1,0,0,0c-0.4-3.8-1.3-7.5-2.4-11.2c-1-3.5-2.2-6.9-3.4-10.4   c-2.7-7.5-5.9-14.8-9.3-22c-6.9-14.2-16.4-26.8-27.4-38c-4.8-4.9-9.9-9.5-15.3-13.7c-5.2-4-10.6-8-16.5-10.9   c-6.1-3-12.4-5.6-18.8-7.8c-1.8-0.6-3.7-1.3-5.5-1.9c-1.7-0.6-3.4-1-5.1-1.4C732.7,324.5,728.6,323.9,724.6,323.3   C724.6,323.3,724.6,323.3,724.6,323.3C724.6,323.3,724.6,323.3,724.6,323.3L724.6,323.3z M805.3,393.6c0.1,0.2,0.2,0.3,0.4,0.5   C805.5,393.9,805.4,393.8,805.3,393.6L805.3,393.6z"
       id="path39" /><path
       d="M494.7,476.8c0.5,2.6,1.4,5,2.9,7.1c2,2.9,5.2,4.4,8.4,5.6c0.9,0.1,1.7,0.3,2.6,0.4c1,0.1,2,0.1,3.1,0   c1.1,0,2.3-0.3,3.4-0.5c1.8-0.3,3.5-0.8,5.1-1.4c0,0,0,0,0,0c-0.9-0.3-1.8-0.7-2.8-1c-5-2.3-10.2-4-15.3-5.9   C499.6,479.9,497.1,478.4,494.7,476.8C494.8,476.8,494.8,476.8,494.7,476.8C494.7,476.8,494.7,476.8,494.7,476.8L494.7,476.8z"
       id="path41" /><path
       d="M528.9,461.3c-1.1,2.4-2.9,4.7-4.3,7c-2.6,4.2-4.5,8.7-6.4,13.3c0-0.1,0.1-0.1,0.1-0.2c0,0.1-0.1,0.2-0.1,0.3   c0,0.1-0.1,0.2-0.1,0.4c0-0.1,0.1-0.1,0.1-0.2c-1,2.4-2,4.8-3.4,7c0,0,0,0,0,0c2.3-0.4,4.7-1.6,6.5-3.1c2.8-2.4,5.8-5.6,6.9-9.2   C529.5,471.7,530.2,466.2,528.9,461.3C528.9,461.3,528.9,461.3,528.9,461.3C528.9,461.3,528.9,461.3,528.9,461.3L528.9,461.3z    M518.1,481.8c0,0,0-0.1,0.1-0.1c0,0,0,0,0-0.1C518.2,481.6,518.1,481.7,518.1,481.8L518.1,481.8z"
       id="path43" /><path
       d="M501.6,433.9c-1.5,1.8-1.7,4.3-1.8,6.6c-0.2,3.7,1,7.4,2.8,10.6c2,3.4,5.3,5.9,8.4,8.2c3.8,2.7,8.4,3.9,12.9,5   c2.4,0.6,5.1,0.3,7.5,0c2.2-0.3,4.2-0.8,6.3-1.6c4.1-1.5,7.6-3.9,10.7-6.9c2.6-2.6,4.4-6,6.1-9.2c0.9-1.7,1.7-3.5,2.5-5.3   c0,0,0,0,0,0c-4.1,2.8-8.3,5.5-12.9,7.6c-2.4,0.9-4.8,1.5-7.3,1.9c-2.9,0.3-5.8,0.3-8.7,0c-1-0.1-2.1-0.3-3.1-0.4   c-3.8-0.8-7.5-1.8-11.2-3.2c-1.9-0.8-3.7-1.8-5.4-2.9c-1.3-1.1-2.4-2.3-3.5-3.6c-1.1-1.5-2-2.9-2.7-4.6c-0.1-0.4-0.3-0.8-0.4-1.2   C501.7,434.4,501.7,434.2,501.6,433.9C501.6,433.9,501.6,433.9,501.6,433.9C501.6,433.9,501.6,433.9,501.6,433.9L501.6,433.9z"
       id="path45" /><path
       d="M507.7,411.7c-3.1,1-5.7,2.9-7.9,5.3c-2.2,2.4-3.5,5.3-4.5,8.3c-0.4,1.3-0.6,2.5-0.8,3.8c-0.2,1.4,0.2,2.5,0.8,3.7   c1.1,1.9,3.4,2.1,5.4,2.4c0,0,0,0,0,0c-1-0.5-2-0.9-3-1.6c-0.1-0.1-0.3-0.3-0.4-0.4c-0.1-0.1-0.2-0.3-0.3-0.4c0,0.1,0,0.1,0.1,0.2   c-0.2-0.4-0.4-0.9-0.5-1.4c0-0.2,0-0.5,0-0.7c0.1-0.7,0.3-1.4,0.6-2.1c0.8-1.8,1.9-3.4,3-5c0.9-1.1,1.9-2.2,3.1-3.2   c1.4-1,2.9-1.9,4.6-2.6c0.8-0.3,1.5-0.6,2.3-0.8c0.8-0.2,1.5-0.3,2.3-0.5c1.6-0.2,3.1-0.2,4.6,0c1.9,0.3,3.7,0.8,5.5,1.5   c2.4,1.1,4.8,2.3,7.2,3.6c1.3,0.7,2.6,1.4,3.9,2.2c0,0,0,0,0,0c-2.1-2.9-4.6-5.7-7.3-8.1c-1-0.9-2.2-1.7-3.3-2.5   c-1.4-0.9-3.2-1.5-4.9-2c-1.4-0.4-2.9-0.6-4.4-0.6C511.7,410.7,509.6,411,507.7,411.7L507.7,411.7z M497.6,433.5   C497.6,433.5,497.6,433.5,497.6,433.5C497.6,433.5,497.6,433.5,497.6,433.5L497.6,433.5z"
       id="path47" /><path
       d="M527.1,416.1c-2.4,1.4-4.3,3.2-5.5,5.7c-0.6,1.3-0.9,3.3-0.3,4.7c0,0,0,0,0,0c0-0.1,0.1-0.2,0.1-0.3   c0.2-0.3,0.4-0.6,0.6-0.8c0.5-0.6,1.1-1.2,1.8-1.6c-0.1,0.1-0.2,0.1-0.2,0.2c0.4-0.2,0.7-0.4,1.1-0.6c1.6-0.5,3.1-0.8,4.7-1   c4.9-0.6,9.8-0.8,14.7-1.6c2.9-0.5,5.9-1.1,8.8-1.8c3.4-0.8,6.8-1.8,10.2-2.3c0,0-0.1,0-0.1,0c0.3,0,0.6,0,1-0.1c0,0,0,0,0,0   c-2.2-1.5-4.8-2.3-7.4-3c-3-0.8-6.1-1.3-9.2-1.7c-1.2-0.1-2.4-0.2-3.6-0.2C537.9,411.5,532.1,413.2,527.1,416.1L527.1,416.1z"
       id="path49" /><path
       d="M556.7,413.5c2.5,4.5,5.1,9,7.9,13.3c5.1,7.9,9.7,16.2,13.7,24.8c0.8,2,1.7,4,2.5,5.9c0-0.1-0.1-0.2-0.1-0.2   c1.3,3.1,2.8,6.2,4.1,9.4c0.4,1.7,1.1,3.4,1.7,5.1c0.7,2.2,1.3,4.4,1.8,6.6c0.9,3.8,1.5,7.7,2.1,11.6c1.6,13,2.3,26.2,1.7,39.3   c0,0,0,0,0,0c3.2-6.6,6.2-13.2,8.9-20c1.5-3.8,2.6-7.7,3.6-11.6c1.3-4.9,2-10,2.3-15c0.4-5.5-0.1-10.9-1.2-16.3   c-0.6-2.7-1.6-5.1-3-7.4c-0.5-0.9-1-2.1-1.5-3.1c-0.9-1.7-1.8-3.4-2.7-5c-2.6-4.8-5.4-9.5-8.9-13.8c-2.9-3.5-6.1-6.6-9.6-9.5   c-3-2.4-6.1-4.8-9.4-6.7C566,418.2,561.4,415.8,556.7,413.5C556.7,413.5,556.7,413.5,556.7,413.5   C556.7,413.5,556.7,413.5,556.7,413.5L556.7,413.5z"
       id="path51" /><path
       d="M549.5,451C549.4,451,549.5,451.1,549.5,451c0.2,0,0.4-0.1,0.6-0.1c0.4,0,0.9,0,1.3-0.1c-0.1,0-0.1,0-0.2,0   c0.9,0,1.8,0.3,2.5,0.7c-0.1,0-0.2-0.1-0.3-0.1c0.4,0.2,0.8,0.5,1.2,0.7c-0.1-0.1-0.2-0.2-0.3-0.3c0.6,0.4,1.1,0.9,1.5,1.4   c1.6,2.3,2.8,4.8,3.9,7.4c1.7,4.4,3.1,8.8,4,13.4c0.6,3,1,6.1,1.5,9.2c0.5,4.3,1.6,8.4,2.3,12.7c0.7,4.3,1.5,8.7,2.3,12.9   c0.2,1.4,0.4,2.9,0.6,4.3c0.2,2,0.4,4,0.6,6c0.1,2.3,0,4.5-0.1,6.8c0,0,0,0,0,0c1.5-2.4,2.8-4.7,4-7.3c1.1-2.4,1.8-4.9,2.5-7.4   c0.7-2.7,1.2-5.5,1.6-8.3c0.4-3,0.8-6.1,0.8-9.1c0-2.9,0-5.8-0.4-8.7c-0.7-5.5-1.9-10.9-4.1-16c-2.8-6.7-7.3-12.6-13.1-17   c-2-1.5-4.3-3.1-6.9-3.2c-0.2,0-0.3,0-0.5,0C552.8,448.9,551,449.3,549.5,451L549.5,451z M555.9,453.4c0.1,0.1,0.2,0.2,0.2,0.3   C556,453.6,556,453.5,555.9,453.4L555.9,453.4z"
       id="path53" /><path
       d="M542.1,456.1c-0.2,0.4-0.3,0.7-0.5,1.1c0,0,0,0,0,0c0.4-0.3,0.8-0.6,1.2-1c0,0,0.1,0,0.1-0.1c0.1,0,0.2,0,0.2,0.1   c0.1,0,0.1,0.1,0.2,0.1c0,0.1,0.1,0.3,0.1,0.4c0.1,0.7,0,1.4,0,2.1c-0.3,1.7-0.6,3.4-0.9,5.1c-0.5,2.6-1.3,5.2-2,7.8   c-1.3,5.2-2.2,10.5-3.1,15.8c-0.4,2.3-0.9,4.7-1.4,7c-0.4,2.2-1,4.4-1.7,6.4c0,0,0,0,0,0c2.1-2.1,3.7-4.6,5.3-7.2   c3.1-5,5.3-10.6,6.4-16.4c1.2-6.4,1.6-13.2-0.1-19.6c-0.2-0.6-0.5-1.5-0.9-1.9c-0.6-0.6-0.6-0.6-1.3-0.8c-0.1,0-0.2,0-0.3,0   C542.7,455.1,542.3,455.6,542.1,456.1L542.1,456.1z"
       id="path55" /><path
       d="M534.7,498.1c0.6,4.2,1.8,8.1,3.5,12c0.8,1.9,1.9,3.7,3.2,5.2c0.7,0.9,1.5,1.8,2.4,2.6c1,1,2.4,2.3,3.7,3   c4,2.4,8.2,4.1,12.8,5.1c3.1,0.7,6.3,0.7,9.4,0.3c0,0,0,0,0,0c-1.6-1-3.2-2-4.7-3.1c-2.6-2.2-5.1-4.5-7.7-6.8   c-1.3-1.1-2.5-2.2-3.8-3.3c-1.5-1.3-3.3-2.4-4.9-3.6C543.9,505.8,539.5,501.8,534.7,498.1C534.8,498.1,534.8,498.1,534.7,498.1   C534.7,498.1,534.7,498.1,534.7,498.1L534.7,498.1z"
       id="path57" /><path
       d="M594.5,510.9c-2.6,5.2-4.8,10.6-6.4,16.3c-1.8,6.4-2.8,13.2-2.9,19.9c-0.1,4.9,0.5,9.9,1.2,14.7c0.2,1.8,0.5,3.7,1,5.5   c0.5,1.8,0.9,3.6,1.5,5.3c1.5,4.1,3.2,8,5.1,12c1.5,3.1,3.3,6,5.2,8.8c1.2,1.9,2.5,3.7,3.7,5.6c1.5,2.3,2.5,4.9,3.6,7.4   c0.5,1.2,1,2.4,1.4,3.6c0,0,0,0,0,0c0.1-2.4,0.2-4.9,0.2-7.3c0.1-4.2-0.8-8.2-1.9-12.2c-1.3-5-2.5-10.1-3.7-15.1   c-1.2-4.8-2.1-9.7-3-14.6c-0.5-2.6-1-5.2-1.6-7.8c-0.7-3.2-1.3-6.5-1.8-9.8C594.9,532.4,594.6,521.7,594.5,510.9   C594.6,510.9,594.6,510.9,594.5,510.9C594.5,510.9,594.5,510.9,594.5,510.9L594.5,510.9z M606.5,606.4   C606.5,606.4,606.5,606.5,606.5,606.4C606.5,606.5,606.5,606.4,606.5,606.4L606.5,606.4z"
       id="path59" /><path
       d="M599.9,582.3c-0.9,3.7-1.7,7.4-2.4,11.1c-0.6,3.1-0.8,6.4-1,9.6c-0.5,5.9-0.8,11.7-1.4,17.6c-0.6,3.6-1.2,7.1-2.3,10.5   c-1,3.6-2.3,7-3.6,10.5c-1.2,2.6-2.4,5.2-3.7,7.7c-1.5,2.9-3.2,5.7-4.9,8.6c-4.8,7.9-9.7,15.8-15.3,23.2   c-5.3,6.6-11.1,12.8-17.4,18.5c-4.1,3.8-8.5,7.3-12.8,10.9c-4.7,3.8-9.3,7.7-14.1,11.4c0,0,0,0,0,0c-0.3,0.2-0.6,0.4-0.9,0.6   c0,0,0,0.1,0,0c4.6-1.6,9.2-3.4,13.8-5.1c7.7-2.9,15.4-5.7,22.9-9c6.3-2.9,12.4-6.5,17.9-10.7c5.5-4.2,10.7-8.8,14.9-14.2   c2-2.6,4.1-5.2,6-7.9c1.6-2.4,3.1-4.8,4.5-7.3c1.3-2.2,2.3-4.5,3.4-6.9c1.2-2.7,2.4-5.5,3.2-8.4c0.7-2.4,1.3-4.9,1.8-7.4   c0.7-3.2,1-6.4,1.4-9.6c0.7-5.4,0.3-11.2-0.5-16.6c-0.8-5.3-2-10.5-3.5-15.6c-0.9-3.3-1.9-6.5-2.9-9.7c-0.5-1.5-0.8-3-1.2-4.5   C601.2,587.2,600.5,584.8,599.9,582.3C599.9,582.3,599.9,582.3,599.9,582.3C599.9,582.3,599.9,582.3,599.9,582.3L599.9,582.3z    M521,721.9C521,721.9,521.1,721.9,521,721.9C521.1,721.9,521,721.9,521,721.9L521,721.9z"
       id="path61" /><path
       d="M308,696.4c-0.2,0.7,0.1,1.3,0.4,1.9c0.7,1.5,1.5,3,2.4,4.4c2,3.2,4.5,6,7.3,8.5c3.9,3.5,8.3,6.3,12.8,9   c4.6,2.9,9.5,5.4,14.4,7.8c5.8,2.8,11.8,5.5,17.8,7.9c5.5,2.3,11.2,4.2,16.9,5.9c5.7,1.7,11.4,3.2,17.2,4.5   c2.9,0.6,5.7,1.2,8.6,1.7c3.5,0.6,7,1.1,10.5,1.5c2.7,0.3,5.5,0.7,8.2,0.8c2.9,0.2,5.8,0.5,8.7,0.6c3.5,0.1,7,0.2,10.4,0.3   c3.1,0.1,6.3-0.1,9.5-0.1c5.5-0.1,11-0.4,16.5-0.9c2.8-0.2,5.5-0.5,8.3-0.8c3.7-0.5,7.5-0.9,11.2-1.6c3.1-0.6,6.1-1.2,9.2-1.9   c1.3-0.3,2.5-0.7,3.7-1c1.8-0.5,3.6-1,5.4-1.6c2.9-0.9,5.8-2,8.6-3.2c4.1-1.7,8.1-3.7,12-6c3.4-2,6.6-4.2,9.7-6.6   c2.8-2.1,5.6-4.3,8-6.8c4.3-4.5,8.5-9,12.5-13.8c0,0,0-0.1,0,0c-7.3,4.5-14.8,8.9-22.7,12.3c-9.1,3.7-18.5,6.4-28.2,8.2   c-4.1,0.8-8.2,1.3-12.4,1.9c-11.3,1.2-22.6,2.7-34,3.3c-2.8,0.1-5.6,0.3-8.3,0.3c-3.1,0-6.1,0.2-9.2,0.1c-3.5-0.1-7-0.2-10.6-0.3   c-3-0.1-5.9-0.4-8.9-0.6c-3.5-0.2-7-0.7-10.4-1.1c-2.5-0.4-5-0.8-7.5-1.2c-3-0.5-6.1-1.2-9.1-1.8c-2.9-0.6-5.7-1.3-8.6-2   c-2.8-0.7-5.5-1.4-8.3-2.2c-2.7-0.7-5.4-1.5-8.2-2.3c-2.7-0.8-5.5-1.5-8.2-2.2c-5.7-1.5-11.4-2.9-17.1-4.4   c-7.5-1.9-15.1-3.7-22.4-6.5c-3.1-1.4-6.1-2.9-8.9-5c-1.9-1.5-3.6-3.2-5.2-5.1c0.9,0.7,1.8,1.3,2.8,1.8c0,0,0.1,0,0,0   c-0.5-0.3-1-0.7-1.5-1.1c0,0,0,0,0,0c-0.8-0.7-1.6-1.3-2.3-2.2c0,0,0,0,0,0.1c-0.2-0.2-0.3-0.4-0.5-0.6c-0.1-0.1-0.2-0.2-0.3-0.2   C308.2,696.1,308.1,696.2,308,696.4L308,696.4z M311.4,699.1C311.4,699.1,311.4,699.1,311.4,699.1   C311.4,699.1,311.4,699.1,311.4,699.1L311.4,699.1z"
       id="path63" /><path
       d="M617.6,783.4c0,3.1,2.6,5.7,5.7,5.7s5.7-2.6,5.7-5.7c0-3.1-2.6-5.7-5.7-5.7S617.6,780.3,617.6,783.4L617.6,783.4z"
       id="path65" /><path
       d="M282.2,381.1c-4,0.7-7.8,2.6-11.4,4.4c-3.9,2-7.4,4.7-10.8,7.4c-3.3,2.6-6,6-8.3,9.5c-2.9,4.3-5.1,9.2-7.1,14   c-1.4,3.3-2,6.8-2.3,10.4c-0.3,3.6,0.4,7,1.4,10.4c0,0,0,0,0,0c0.3-2.2,0.9-4.2,1.6-6.2c1.1-2.5,2.5-4.9,4.1-7.1   c2.1-2.6,4.5-5,6.9-7.3c2.7-2.6,5.3-5.3,8.2-7.6c4.4-3.1,9.2-5.4,14-7.6c5.1-2,10.3-3.6,15.7-4.5c2.8-0.2,5.6-0.3,8.3,0   c3,0.6,5.9,1.5,8.8,2.6c5,2.2,10.1,4.3,14.5,7.5c-0.1-0.1-0.2-0.2-0.3-0.2c0.6,0.5,1.2,1,1.7,1.5c0.1,0.2,0.3,0.5,0.4,0.7   c0,0.2,0,0.3,0,0.5c-0.4,0.7-0.9,1.4-1.4,2.1c0,0,0,0,0,0c0.6-0.4,1.1-0.8,1.6-1.2c0.3-0.2,0.6-0.4,0.7-0.7c0.3-1,0.3-1,0.1-2.1   c-0.1-0.9-0.8-2.1-1.2-2.9c-1.3-2.5-2.9-4.8-4.6-7c-1.9-2.4-3.9-4.7-6-6.9c-5.8-6.1-13.7-9.8-22-10.6c-1.1-0.1-2.2-0.1-3.3-0.1   C288.7,380.2,285.5,380.6,282.2,381.1L282.2,381.1z"
       id="path67" /><path
       d="M233.8,418.6c-4.8,0.7-9,2.9-12.6,6.2c-2.1,1.9-3.8,4.5-5.1,6.9c-0.6,1.2-1.1,2.4-1.6,3.6c-0.6,1.5-1.4,3.6-1.3,5.3   c0,1.3-0.1,2.6-0.1,4c-0.1,1.4,0.1,2.7,0.3,4.1c0.4,2.9,1.2,5.6,2.4,8.3c1.1,2.3,2.3,4.4,3.9,6.4c1.8,2.1,3.9,3.7,6.4,4.8   c5,2.2,10.8,2.1,16.1,2.6c0,0,0,0,0,0c-1.4-1.1-2.9-2.2-4.4-3.3c-2.2-1.5-4.6-3-6.8-4.6c-1-0.8-1.9-1.7-2.7-2.7   c-0.8-1.2-1.5-2.5-2.1-3.9c-1-2.7-1.7-5.4-2.2-8.2c-0.2-1.8-0.2-3.6-0.1-5.4c0.2-1,0.4-2,0.5-3c0.4-2.6,1-5.1,2-7.6   c0.7-1.6,1.6-3.2,2.7-4.6c1.1-1.3,2.2-2.4,3.5-3.5c1.2-0.8,2.4-1.4,3.7-2c1.1-0.4,2.1-0.7,3.2-0.9c1-0.1,1.8-0.1,2.8,0   c0.3,0.1,0.6,0.1,0.9,0.2c0.2,0.1,0.5,0.2,0.7,0.3c0.2,0.2,0.4,0.3,0.6,0.5c0.1,0.2,0.2,0.4,0.3,0.6c0,0.2-0.1,0.5-0.1,0.7   c-0.1,0.2-0.2,0.4-0.3,0.7c0,0,0,0,0,0c-0.2,0.4-0.4,0.8-0.5,1.2c0,0,0,0.1,0,0c0.4-0.5,1.1-1.1,1.3-1.7c0-0.1,0.4-0.7,0.3-1   c-0.2-0.7-0.3-1.4-0.9-1.9c-2.1-1.8-4.6-2.3-7.2-2.3C236.2,418.3,235,418.5,233.8,418.6L233.8,418.6z M242.4,421.1   C242.4,421.1,242.4,421.1,242.4,421.1C242.4,421.1,242.4,421.1,242.4,421.1L242.4,421.1z"
       id="path69" /><path
       d="M287,423.2c-2,0.6-3.9,1.8-5.7,2.8c-2.6,1.4-4.9,3.4-7.1,5.4c-2.4,2.3-4.3,5.2-5.9,8.1c-0.8,1.5-1.3,3.1-1.9,4.7   c-0.5,1.3-0.6,2.6-0.8,3.9c-0.5,3.2-1,6.4-2.1,9.6c-1.4,3-3,5.9-4.9,8.6c-1.8,2.1-3.7,3.9-5.8,5.7c-2.2,1.6-4.4,3.2-6.8,4.5   c0,0,0,0,0,0c3.6,0.6,7.1,0.4,10.7-0.1c5-0.7,9.2-3.4,13.1-6.6c1.8-1.5,3.5-3.5,4.8-5.5c1.6-2.2,2.6-4.6,3.5-7.2   c0.9-2.4,1-5,1.9-7.5c0.2-1,0.5-2.1,0.7-3.1c0.3-1.3,0.8-2.5,1.3-3.8c1.4-2.9,2.9-5.6,4.8-8.2c1.4-1.7,2.7-3.3,4.3-4.8   c0,0,0.1,0,0.1-0.1c0.3,0,0.5,0,0.8,0c3.4,0.7,6.6,2.2,9.8,3.4c0,0,0,0,0,0c-1.6-2-3.2-4-4.8-6c-1.2-1.5-2.5-2.7-4.2-3.6   c-0.9-0.5-1.9-0.7-2.9-0.7C289,422.7,288,422.9,287,423.2L287,423.2z"
       id="path71" /><path
       d="M280.2,464.4c-0.1,0.5-0.1,0.9-0.1,1.4c0,0,0,0,0,0c0.1-0.1,0.1-0.2,0.2-0.4c0,0,0,0,0,0c0,0,0.1-0.1,0.1-0.1   c0.6,2.3,1.2,4.5,2.4,6.7c1.3,2.4,3.7,3.9,6,5.2c3.1,1.7,6.5,2.3,9.8,3.3c0,0,0,0,0,0c-1.1-1.4-2.3-2.6-3.6-3.8   c-2.4-2.1-5-4-7.5-5.9c-2.5-2-4.3-4.4-6.5-6.7c-0.1-0.1-0.2-0.1-0.3-0.1C280.4,464,280.2,464.2,280.2,464.4L280.2,464.4z"
       id="path73" /><path
       d="M266.8,472.3c-2,5.3,1.4,11.2,5.4,14.6c2.8,2.4,6,4.1,9.3,5.7c0,0,0,0,0,0c-1.1-2.5-2.3-4.9-3.7-7.2   c-0.9-1.4-1.9-2.6-2.9-3.8c-1-1.3-2.4-2.4-3.5-3.5c-1.1-1.1-2.1-2.1-3-3.3C267.8,474,267.3,473.2,266.8,472.3   C266.9,472.3,266.9,472.3,266.8,472.3C266.8,472.3,266.8,472.3,266.8,472.3L266.8,472.3z"
       id="path75" /><path
       d="M280.3,491.7c-2.9,0.7-5.3,2.3-7.5,4.1c-1.8,1.5-2.9,3.8-3.7,5.9c-0.8,2.1-0.5,4.4,0.3,6.4c0,0,0,0,0.1,0   c0.1-0.3,0.2-0.5,0.3-0.8c0.4-0.8,0.9-1.6,1.4-2.4c0.9-1,1.8-1.9,2.9-2.7c4.7-3.6,9.3-7.1,13.1-11.6c0,0,0,0,0,0   C284.8,490.8,282.6,491.1,280.3,491.7L280.3,491.7z"
       id="path77" /><path
       d="M385.3,502.2c-1.4,0.8-2.8,1.5-4.2,2.2c-3.9,1.6-8,2.7-12.1,3.6c-2.8,0.7-5.6,1.2-8.5,1.6c-3.4,0.4-6.9,0.8-10.3,1.3   c-0.4,0-0.7,0.1-1.1,0.1c0.2,0,0.4-0.1,0.6-0.1c-0.4,0.1-0.9,0.1-1.3,0.2c-0.5,0.1-0.9,0.1-1.4,0.2c-0.4,0.1-0.8,0.1-1.1,0.2   c0.2,0,0.4-0.1,0.6-0.1c-1.7,0.2-3.3,0.3-5,0.4c-1.8,0.1-3.6,0.1-5.4,0.3c-8.5,0.2-16.9-0.3-25.4-0.3c-8.1,0-16.3-0.5-24.3,0.9   c0,0,0,0,0,0c7.5,3.6,15,7.1,22.9,10c4.3,1.6,8.7,3.1,13.1,4.2c4.6,1.2,9.6,2.1,14.4,2c0.8,0.1,1.7,0.1,2.6,0   c1.4-0.1,3-0.4,4.4-0.7c1.8-0.3,3.5-1,5.2-1.7c3.9-1.6,7.5-3.4,11.3-5.3c3.6-1.8,7.2-3.5,10.5-5.7c1.8-1.2,3.6-2.5,5.4-3.7   C379.7,509.2,382.9,506.2,385.3,502.2C385.3,502.2,385.3,502.2,385.3,502.2C385.3,502.2,385.3,502.2,385.3,502.2L385.3,502.2z    M349.7,511C349.7,511,349.8,511,349.7,511C349.8,511,349.7,511,349.7,511L349.7,511z M349.8,511c0.1,0,0.3,0,0.4-0.1   C350,511,349.9,511,349.8,511L349.8,511z M350.2,510.9C350.2,510.9,350.2,510.9,350.2,510.9C350.2,510.9,350.2,510.9,350.2,510.9   C350.2,510.9,350.2,510.9,350.2,510.9L350.2,510.9z"
       id="path79" /><path
       d="M233.7,504.7c-4.6,0.6-8.9,2.5-12.9,4.9c-5,3-8.9,7.4-12.4,12c-1.4,1.8-2.6,3.6-3.9,5.5c-2.5,3.7-4.1,8-5.7,12.2   c-1.6,4.3-2.7,8.8-3.7,13.3c-1.1,4.5-1.6,9.1-2.3,13.6c-0.7,5-1.4,10.1-1.7,15.2c-0.5,8.8-0.6,17.7-0.3,26.5   c0.4,9.8,2.1,19.6,5.9,28.6c1.2,2.8,2.3,5.5,3.7,8.2c1,1.9,2.1,3.7,3.1,5.5c0.9,1.6,1.9,3.2,3,4.7c1.1,1.7,2.4,3.4,3.7,5   c2.1,2.5,4.5,4.5,7,6.4c7,5.3,14.1,10.7,21.4,15.6c3.7,2.5,7.6,4.7,11.6,6.7c4,2,8.2,3.7,12.3,5.5c4.7,2,9.3,3.9,14.2,5.2   c4.9,1.3,9.8,2.4,14.9,3.1c2.1,0.3,4.2,0.6,6.3,0.7c1.1,0.1,2.2,0.1,3.2,0.1c2.6,0,5.1-0.3,7.7-0.7c3.6-0.5,7-1.9,10.3-3.3   c2.3-1,4.5-2,6.6-3.2c6-3.3,11.7-7,17.1-11c5.9-4.4,11.7-8.8,17.5-13.4c2.3-1.8,4.7-3.5,7.1-5.2c2.9-2.1,5.7-4.3,8.5-6.6   c3.6-2.7,7.2-5.4,10.6-8.3c4.3-3.6,8.7-7.2,12.2-11.6c3.1-4,5.7-8.3,7.7-13c1.9-4.6,3.1-9.3,4.1-14.2c1.2-6,1.8-12.2,1.2-18.3   c-0.6-5.5-1.8-11-3-16.5c-1-5-2.9-9.8-5.3-14.3c-2-4-4.7-7.6-7.3-11.2c-2.5-3.5-5.2-7-8.3-10c-4.5-4.5-9.9-8.1-15.8-10.6   c-6.4-2.7-13.2-4.2-20-4.6c-4.4-0.3-8.8,0.1-13.2,0.3c-5,0.2-10,0.5-15,0.9c0,0,0,0,0,0c3.9,0.6,7.8,1.3,11.7,2   c2.5,0.5,4.9,0.9,7.4,1.3c4.8,0.9,9.5,2.1,14,3.8c4.6,2,9,4.4,13.1,7.3c3.3,2.7,6.2,5.7,8.9,9c2.1,2.9,4,6,5.9,9   c2.3,3.7,4.6,7.5,6.5,11.5c2.6,6.9,3.7,14.3,4.9,21.6c0.4,4.1,0.3,8-0.1,12.1c-0.9,5.4-2.1,10.7-4,15.8c-1.6,3.2-3.4,6.4-5.5,9.3   c-1.9,2.3-4.2,4.3-6.4,6.2c-2.2,1.9-4.5,3.8-6.7,5.6c-3.7,2.8-7.4,5.7-11,8.6c-2.6,1.9-5.4,3.6-8,5.5c-2.6,1.9-5.1,3.9-7.7,5.8   c-10.3,7.6-20.9,14.8-32.6,20.2c-3,1.2-6,2.2-9.2,2.8c-3.4,0.3-6.7,0.1-10-0.3c-7-1.1-13.8-3.1-20.4-5.6c-2-0.9-4.1-1.8-6.1-2.8   c-2.5-1.1-5-2.2-7.4-3.5c-4.8-2.6-9.3-5.5-13.6-8.7c-3-2.4-6-4.9-8.8-7.5c-1.7-1.5-3.3-3.1-5-4.7c-2-1.8-4-3.7-5.8-5.7   c-2.7-4-4.7-8.5-6.7-12.9c-2.8-7.2-4.7-14.6-6-22.2c-0.4-3.8-0.4-7.7-0.5-11.5c-0.1-4.6-0.1-9.3,0-13.9c0.1-4.6,0.2-9.1,0.5-13.7   c0.3-4.4,0.9-8.7,1.4-13c1-6.7,2.4-13.4,4.8-19.8c1.7-3.5,3.8-6.8,6.1-10c2-2.5,4.1-4.8,6.6-6.8c1.7-1.2,3.5-2.2,5.4-3.1   c8-3,16.5-4.4,24.9-5.7c6.1-0.7,12.1-1,18.2-0.8c6.6,0.2,13.2,1,19.7,1.4c0,0,0,0,0-0.1c-8.7-3.4-17.4-6.8-26.5-9   c-9-2.2-18.1-2.9-27.3-2.9c0,0-0.1,0-0.1,0C243.6,503.5,238.7,504,233.7,504.7L233.7,504.7z"
       id="path81" /><path
       d="M454.8,742.5c-4.1,11.8-7,24.1-7.2,36.6c0,1.5,0,2.9,0,4.4c0,1.8,0.5,3.7,0.8,5.5c0.4,1.9,1.1,3.7,1.9,5.5   c1.2,2.7,2.8,5.7,5.5,7.3c1.3,0.8,2.6,1.3,4.1,1.8c2,0.7,4.2,0.1,6.2-0.2c1.4-0.3,3-1.3,4.2-2c1.2-0.7,2.3-1.8,3.4-2.7   c1.5-1.2,2.7-2.7,4-4.1c1.9-2.1,3.7-4.2,5.5-6.4c0,0,0,0,0,0c-5.6,1.4-11,3.4-16.6,4.5c0.4-0.1,0.8-0.1,1.3-0.2   c-1,0.2-2.1,0.3-3.1,0.2c-0.2,0-0.3-0.1-0.5-0.1c0,0,0,0-0.1,0c-0.1-0.1-0.1-0.1-0.2-0.2c-0.1-0.1-0.1-0.2-0.2-0.3   c-0.4-1.5-0.8-2.9-1-4.4c-0.5-4.6-0.5-9.2-1-13.7c-0.4-3.4-0.7-6.7-1.2-10.1C459.5,756.6,457.4,749.5,454.8,742.5   C454.8,742.5,454.8,742.5,454.8,742.5C454.8,742.5,454.8,742.5,454.8,742.5L454.8,742.5z M463.2,790.7c0.2,0.4,0.3,0.8,0.5,1.2   C463.5,791.5,463.3,791.1,463.2,790.7L463.2,790.7z M463,792.1c0.2,0.1,0.4,0.2,0.6,0.3C463.4,792.3,463.2,792.2,463,792.1   L463,792.1z M464.8,792.7c0.4,0.1,0.8,0.1,1.2,0.2C465.6,792.9,465.2,792.8,464.8,792.7L464.8,792.7z"
       id="path83" /><path
       d="M530.7,750c-1.2,3.6-2.3,7.2-3.2,10.8c-1.2,4.6-1.6,9.4-2.1,14c-0.2,1.5-0.4,2.9-0.5,4.4c-0.2,1.2-0.5,2.3-0.8,3.4   c-0.1,0.3-0.3,0.5-0.4,0.8c-0.4,0.2-0.8,0.4-1.2,0.6c-0.1,0-0.2,0.1-0.3,0.1c-2.1,0.2-4.1,0.7-6.2,1.1c-2.7,0.3-5.5,0.4-8.2,0.2   c-0.9-0.2-1.8-0.4-2.7-0.7c-1-0.5-2-1.1-3-1.8c-2-1.6-3.9-3.2-6-4.7c-1.2-0.9-3.3-2-4.9-1.9c-1.3,0.1-1.7,0.1-2.9,0.5   c-0.6,0.2-1.1,0.6-1.6,0.8c-0.1,0-0.2,0.1-0.4,0.1c-0.1,0-0.1,0-0.2,0c-0.1,0-0.1-0.1-0.2-0.1c-0.6-0.9-1.1-2-1.6-3c0,0,0,0,0,0   c0.1,0.6,0.3,1.2,0.4,1.8c0.1,0.6,0.2,1.3,0.4,1.8c0.6,1.3,2,1.3,3.3,1.4c0.2,0.1,0.5,0.1,0.7,0.2c0.3,0.2,0.5,0.3,0.8,0.5   c0.2,0.2,0.4,0.3,0.5,0.5c1.4,2.1,2.4,4.5,3.5,6.9c1.5,3.4,3.6,6.3,6.6,8.5c3.6,2.8,8.1,4,12.6,4.6c2.3,0.3,4.4,0.4,6.7,0.2   c1.1-0.1,2.3-0.3,3.4-0.4c1.3-0.2,2.4-0.7,3.5-1.2c3-1.1,5.8-2.7,7.9-5.2c2.7-3.2,3.6-7.3,3.6-11.3c0-1.8-0.4-3.7-0.7-5.5   c-0.3-1.7-0.7-3.3-1.1-4.9c-0.6-2.2-1.3-4.3-1.9-6.4c-0.8-2.7-1.6-5.5-2.4-8.2C531.7,755.2,531.2,752.6,530.7,750   C530.7,750,530.7,750,530.7,750C530.7,750,530.7,750,530.7,750L530.7,750z M490.7,780.9c0.1,0.1,0.1,0.2,0.2,0.3   C490.9,781.1,490.8,781,490.7,780.9L490.7,780.9z"
       id="path85" /><path
       d="M533.3,726.5c-0.1,7.8,0.4,15.5,2,23.1c0.6,3.2,1.3,6.4,2.3,9.5c1.6,4.5,3.3,9,5.5,13.2c4.3,8.4,10.9,14.8,18.7,20   c3.4,2.2,7.1,4,10.7,5.8c5.9,2.8,12,6,18.5,7c0,0,0,0,0,0c-4.1-3.6-7.2-8-10.7-12.1c-4.2-5-8.8-9.6-12.9-14.7   c-4.4-5.9-8.1-12.2-11.8-18.6c-2-3.4-4.2-6.7-6.2-10.1c-2-3.4-4.3-6.6-6.4-9.8C539.9,735.2,536.7,730.8,533.3,726.5   C533.3,726.5,533.3,726.5,533.3,726.5C533.3,726.5,533.3,726.5,533.3,726.5L533.3,726.5z"
       id="path87" /><path
       d="M606.5,803.4c-0.3,1.2-0.6,2.3-1,3.4c-0.5,1.2-1.2,2.3-1.9,3.4c-0.5,0.6-1.1,1.1-1.7,1.7c-0.9,0.6-1.7,1.2-2.6,1.6   c-0.1,0-0.3,0.1-0.4,0.1c-0.5,0-1,0.1-1.4,0.1c-0.1,0-0.2,0-0.3-0.1c-0.1,0-0.1-0.1-0.2-0.1c-0.9-0.8-1.7-1.7-2.5-2.6   c-1.7-2.2-3.2-4.6-4.8-6.9c0,0,0,0,0,0c-0.6,3.8-0.9,7.7,0.4,11.3c0.6,1.7,1.5,3.3,2.9,4.5c1.7,1.5,3.9,1.8,6.1,1.9   c2.1,0.1,3.8-1.2,5.4-2.4c1.8-1.4,2.9-3.8,3.7-5.9C609.1,810.2,608.1,806.4,606.5,803.4C606.5,803.4,606.5,803.4,606.5,803.4   C606.5,803.4,606.5,803.4,606.5,803.4L606.5,803.4z M597.7,813.8c0.2,0,0.3,0,0.5,0.1C598,813.9,597.8,813.8,597.7,813.8   L597.7,813.8z"
       id="path89" /><path
       d="M667.2,776.5c-2.3,6-4.7,12.1-7.2,18c-1.1,2.4-2.3,4.6-3.8,6.8c-0.7,0.7-1.3,1.4-2.1,2.1c-0.6,0.4-1.3,0.8-1.9,1.2   c-0.7,0.2-1.4,0.4-2.2,0.6c-1.5,0.1-3,0-4.5-0.1c-3.4-0.5-6.6-1.2-9.9-2.2c-1.7-0.5-3.4-1.2-5.1-1.8c-3.2-1.1-6.3-2.3-9.5-3.3   c-1.6-0.5-3.3-0.9-4.9-1.3c-1.3-0.3-2.6-0.6-4-0.9c-1.4-0.3-3.5-0.7-4.9-0.2c-1.1,0.4-2.8,1.1-2.7,2.6c0.1,1.3,1.4,2,2.3,2.6   c0,0,0,0,0,0c-0.2-0.6-0.4-1.1-0.6-1.7c0-0.1,0-0.2,0-0.3c0,0,0,0,0,0c0,0,0.1,0,0.1,0c0.2,0.1,0.4,0.1,0.6,0.2   c0.6,0.3,1.2,0.7,1.8,1.1c4,3.2,7.8,6.7,11.8,9.9c2.2,1.8,4.4,3.5,6.7,5.1c4.2,2.9,8.8,4.9,13.7,6.2c3.6,0.9,7.2,1.4,10.9,0.7   c3.4-0.6,6.6-2.1,9.3-4.3c4.7-3.9,7.3-9.5,8-15.5c0.7-5.7-0.1-11.5-0.8-17.2C668.1,781.9,667.7,779.2,667.2,776.5   C667.3,776.5,667.3,776.5,667.2,776.5C667.3,776.5,667.2,776.5,667.2,776.5L667.2,776.5z M659.9,794.8c-0.1,0.3-0.2,0.5-0.3,0.8   C659.7,795.3,659.8,795.1,659.9,794.8L659.9,794.8z"
       id="path91" /><path
       d="M686.7,725.6c-4.5,1.7-8.4,4.7-11.6,8.1c-3.8,4.1-6.5,9.1-8.1,14.4c-0.5,1.7-0.9,3.5-1.1,5.3c0,0,0,0,0,0   c-0.7,1.2-0.8,2.4-0.9,3.8c-0.1,0.6-0.1,1.2-0.1,1.8c-0.1,1.7-0.1,3.3,0,5c0,3.2,0.2,6.4,0.4,9.6c0.2,3.4,0.7,6.7,1.2,10   c0.2,1.5,0.5,3,0.8,4.5c0.2,1.3,0.6,2.5,0.9,3.7c0.3,1.1,0.8,2.3,1.7,3c0.1,0.1,0.3,0.1,0.5,0c0.1,0,0.4-0.2,0.5-0.3   c0.2-0.5,0.4-1,0.6-1.5c0.4-1,0.7-1.9,1-2.9c0,0,0,0,0,0c-0.6,1.2-1.1,2.5-1.9,3.6c-0.1,0.1-0.2,0.2-0.2,0.3c0,0,0,0,0,0   c0,0,0-0.1-0.1-0.1c-0.2-0.5-0.3-0.9-0.3-1.4c0,0.1,0,0.1,0,0.2c-0.1-2.8,0.2-5.5,0.5-8.3c0.4-2.3,0.8-4.6,1.3-6.8   c0.5-2.4,1.2-4.7,2-7c0.7-2.4,1.5-4.7,2.4-7.1c0.4-1.2,0.8-2.4,1.2-3.6c0.2-0.5,0.3-1,0.5-1.5c0.2-0.8,0.3-1.5,0.2-2.3   c0.2-0.8,0.4-1.6,0.7-2.4c0.6-2.1,1-4.3,1.7-6.4c0.6-1.9,1.2-3.8,2-5.6c0.8-1.8,1.6-3.5,2.6-5.2c1-1.9,2.3-3.7,3.6-5.5   c1-1.3,2.2-2.5,3.4-3.5c1.6-1.1,3.2-2.2,4.9-3.2c0,0,0,0,0,0c-0.3,0-0.6,0-1,0C692.7,724.3,689.6,724.5,686.7,725.6L686.7,725.6z    M670.5,793.9C670.5,793.9,670.5,794,670.5,793.9C670.5,794,670.5,793.9,670.5,793.9L670.5,793.9z"
       id="path93" /><path
       d="M840.2,571.8c-2.8,5.1-5.8,10-8.8,14.9c-2.7,4.4-5.5,8.9-8.5,13.2c-6.7,9.6-13.5,19.2-20.5,28.6c-2.8,3.5-5.6,6.9-8.3,10.4   c-3.1,4-6,8.1-9,12.1c-3.3,4-6.8,7.8-10.2,11.7c-3.6,4.2-7.3,8.4-11.1,12.4c-7.2,7.7-14.2,15.7-22.3,22.6c-1.4,1-2.9,2.1-4.4,2.9   c-2.1,1.2-4.2,2.3-6.4,3.3c-6,2.5-12.1,4.9-18.2,7.1c-3.4,1.2-6.9,2.4-10.3,3.8c-3.5,1.4-7,3-10.4,4.6c-0.9,0.4-1.7,0.7-2.5,1.1   c-4.2,1.8-8.3,3.8-12.5,5.6c-3.2,1.2-6.4,1.9-9.8,2.5c0,0,0,0,0,0c1.4,0.4,2.7,0.8,4.1,1.2c2.7,0.7,5.4,0.9,8.2,0.8   c2.8,0,5.7-0.3,8.5-0.5c2.3-0.1,4.5-0.2,6.8-0.4c2.3-0.2,4.5-0.5,6.7-0.7c4.8-0.5,9.6-0.6,14.3-0.9c5.5-0.4,10.9-1.2,16.3-2.2   c4.9-0.8,9.6-2.2,14.2-4.1c2.9-1.2,5.8-2.5,8.5-4.2c2.6-1.7,5.2-3.6,7.5-5.7c6.9-6.2,13-13.4,19.2-20.3c3.1-3.5,6.3-6.9,9.3-10.4   c3.6-4.1,6.9-8.5,10.2-12.9c2.9-3.8,5.4-7.8,7.8-12c2.6-4.3,5.1-8.6,7.4-13.1c5.1-9.8,9-20.1,12.8-30.5c3.4-9.5,5.8-19.4,8.4-29.2   C838.2,579.7,839.3,575.7,840.2,571.8C840.3,571.8,840.3,571.8,840.2,571.8C840.3,571.8,840.3,571.8,840.2,571.8L840.2,571.8z    M689.1,720.5c-0.2,0.1-0.3,0.1-0.5,0.2C688.8,720.7,689,720.6,689.1,720.5L689.1,720.5z"
       id="path95" /><path
       d="M830.3,423.1c2.9,10.3,5.9,20.6,7.5,31.3c1.1,8.9,1.8,17.9,2.1,26.9c0.2,5.3,0.4,10.6,0.8,15.9c-0.1,0.4-0.1,0.9-0.1,1.3   c0.1,0.6,0.1,1.1,0.2,1.6c0.1,0.7,0.2,1.5,0.2,2.2c0.4,3.7,0.7,7.5,0.9,11.2c0.3,4.4,0.4,8.8,0.4,13.2c-0.1,4.3-0.5,8.7-0.9,13   c-0.6,4.2-1.2,8.5-1.7,12.8c0-0.3,0.1-0.6,0.1-0.9c-1.2,7.5-2.3,15-3.9,22.5c0,0,0,0,0,0c4.3-8,8.5-16.1,12.4-24.3   c3.7-7.8,7.1-15.7,9.3-24.1c1.7-6.3,2.6-12.8,3.3-19.3c0.3-3.1,0.7-6.5,0.2-9.6c0-3.3,0-6.6-0.3-9.8c-0.4-4.6-1-9.3-1.7-13.9   c-0.7-4.1-1.9-8.2-3.2-12.1c-2.5-7.8-6-15.2-10.9-21.8C840.8,433.2,835.8,428,830.3,423.1C830.4,423,830.4,423,830.3,423.1   C830.3,423,830.3,423.1,830.3,423.1L830.3,423.1z"
       id="path97" /><path
       d="M824,356.9c0.3,0,0.7-0.1,1-0.1c-5.3,0.2-10.8,0.7-16,1.7c-4.1,0.6-8.1,1.4-12,2.5c0,0,0,0,0,0c9.6,5,20.4,8.4,31.3,7.1   c4.8-0.5,9.3-2,13.8-3.6c3.9-1.5,8-3,11.5-5.3c0,0,0,0,0,0c-0.3,0-0.5,0-0.8-0.1c-4.4-0.7-8.8-1.4-13.3-1.8   c-2.4-0.2-4.7-0.3-7.1-0.4c-1.5-0.1-3.1-0.2-4.6-0.2C826.5,356.7,825.3,356.8,824,356.9L824,356.9z M852.8,359.1   C852.8,359.1,852.8,359.1,852.8,359.1C852.8,359.1,852.8,359.1,852.8,359.1L852.8,359.1z"
       id="path99" /><path
       d="M917.7,296.7c-0.6,2.3-0.9,4.7-1.3,7.1c-0.5,3.4-1.5,6.7-2.7,9.9c-1.1,2.5-2.5,4.8-4,7c-2.4,2.9-5.1,5.6-7.8,8.3   c-2,2-4.1,3.9-6.3,5.7c-3.4,2.4-7,4.2-10.7,5.9c-0.6,0.2-1.1,0.5-1.7,0.7c0,0-0.1,0.1-0.1,0.1c-2.7,0.9-5.4,1.7-8.3,2.2   c-4.4,0.4-8.8,0.4-13.3,0.5c-4.5,0-9,0-13.5-0.4c-2.5-0.4-4.8-1-7.2-1.9c-0.6-0.3-1.3-0.7-1.9-1.1c-0.8-0.6-1.5-1.3-2.1-2   c-1.5-2.3-2.9-4.6-4-7.1c0,0,0,0,0,0c-0.3,1.7-0.5,3.5-0.4,5.2c0,0.6,0.1,1.3,0.1,1.9c0,2.4,0.8,4.4,1.7,6.5c1,2.2,3.1,4.1,4.9,5.7   c1.7,1.5,3.6,2.9,5.5,3.9c2.6,1.4,5.4,2.6,8.2,3.6c4.3,1.6,8.8,2.9,13.3,4c3.2,0.7,6.3,1.3,9.6,1.6c3.5,0.3,7-0.2,10.4-0.8   c2.9-0.5,5.8-1.5,8.4-2.7c3-1.3,5.7-3.2,8.3-5.2c1.2-0.9,2.3-1.8,3.4-2.8c2.1-1.9,3.8-4.2,5.5-6.5c1.5-2.1,3-4.2,4.1-6.5   c1.8-3.5,3.4-7,4.7-10.7c2.2-6.1,2.4-12.5,1.4-18.8C921.1,305.3,918.8,301.2,917.7,296.7C917.7,296.6,917.7,296.6,917.7,296.7   C917.7,296.6,917.7,296.6,917.7,296.7L917.7,296.7z M839.2,341c0.1,0,0.1,0.1,0.2,0.1C839.4,341.1,839.3,341,839.2,341L839.2,341z    M882.4,341.8c-0.1,0-0.2,0.1-0.3,0.1C882.2,341.9,882.3,341.9,882.4,341.8L882.4,341.8z M841.1,341.9c0.1,0,0.2,0.1,0.3,0.1   C841.3,342,841.2,341.9,841.1,341.9L841.1,341.9z"
       id="path101" /><path
       d="M907,286.6c-3.2,7.6-5.5,15.5-8.6,23.1c-1.6,3.6-3.5,6.9-5.7,10.1c-2.2,2.4-4,5.2-5.9,7.8c-3.6,4.6-7.3,9.1-11,13.6   c-2.8,3.4-5.9,6.7-9.2,9.6c0,0,0,0,0,0c9.7-1.9,18.7-5.9,26.8-11.4c2.2-1.5,4.2-3.2,6.2-4.9c1.1-1,2.1-2.1,3.1-3.2   c1.2-1.4,2.1-3,3.1-4.5c1.6-2.4,2.7-5.2,3.6-7.8c1.1-3.2,1.4-6.8,1.5-10.1C911.3,301.3,909.2,293.7,907,286.6   C907,286.6,907,286.6,907,286.6C907,286.6,907,286.6,907,286.6L907,286.6z"
       id="path103" /><path
       d="M854.1,315.6c-6.2,1.3-13.2,4.7-16.1,10.8c-0.8,1.7-1.3,3.2-1.4,5c-0.1,2.1,0.3,3.9,1.2,5.8c0.5,1.1,1.3,2.2,2.1,3.1   c1.7,1.7,3.9,2.6,6.1,3.4c2.4,0.9,5.1,1.3,7.7,1.5c4.4,0.4,8.5-0.1,12.7-1.3c5-1.4,9.8-4,14.3-6.5c0,0,0,0,0,0   c-4.8-0.1-9.6-0.1-14.4-0.6c-2.3-0.4-4.5-0.9-6.7-1.7c-1.9-0.9-3.8-2-5.6-3.1c0,0,0.1-0.1,0.1-0.1c1.6-1.1,3.2-2.1,4.9-3   c1.6-0.6,3.2-1,4.8-1.3c2.5-0.2,4.9-0.1,7.4,0.1c3,0.4,6,1,8.8,2.1c1.1,0.6,1.9,1.2,2.9,1.9c0,0,0,0,0,0c0.3,0.3,0.7,0.6,1,0.9   c0,0,0,0,0,0c-0.6-2.1-1.3-4-2.5-5.8c-1.7-2.5-4.2-4.4-6.6-6.2c-4.5-3.4-10.3-5.5-16-5.5C857.2,315.1,855.6,315.2,854.1,315.6   L854.1,315.6z M850.8,329.3c0.2,0.3,0.5,0.6,0.7,1C851.2,330,851,329.7,850.8,329.3L850.8,329.3z M852.2,334c0,0.1,0,0.2-0.1,0.4   C852.2,334.2,852.2,334.1,852.2,334L852.2,334z"
       id="path105" /><path
       d="M879.5,364.5c-1.2,0.1-1,0.1-1.7,1.2c0,0,0,0,0,0c0.3-0.1,0.6-0.2,0.8-0.3c0.1,0,0.1,0.1,0.2,0.1c0,0.1,0,0.3,0,0.4   c-1.7,3.8-3.9,7.2-6.3,10.5c-4.6,5.8-10.1,10.7-15.2,16c-2.8,2.9-5.6,5.7-8.5,8.5c-4.8,4.6-9.4,9.4-13.8,14.3c0,0,0,0,0,0   c7.7-1.8,15.3-4.6,22.2-8.5c2.6-1.4,5-3,7.4-4.9c4.1-3.2,7.5-7,10.4-11.3c2.9-4.2,4.8-9.2,5.7-14.2c0.5-2.5,0.5-5.1,0.3-7.7   c-0.1-1.5-0.2-2.7-1-3.9C880,364.6,879.8,364.5,879.5,364.5C879.6,364.5,879.5,364.5,879.5,364.5L879.5,364.5z"
       id="path107" /><path
       d="M880.3,364.2c-3.4,3-6,6.6-8.1,10.5c0,0,0,0,0,0c1.8-1.4,3.5-2.8,4.8-4.6C878.5,368.3,879.4,366.3,880.3,364.2   C880.4,364.2,880.4,364.2,880.3,364.2C880.4,364.2,880.3,364.2,880.3,364.2L880.3,364.2z"
       id="path109" /><path
       d="M899.3,284.3c-0.4,1.2-0.5,2.5-0.4,3.7c0.1,0.8,0.2,1.6,0.3,2.5c0.2,0.9,0.7,1.6,1.2,2.3c0.7,2.4,1.6,4.8,2.5,7.2   c0.6,1.6,1.3,3.2,1.9,4.8c1.1,2.9,1.9,5.9,2.3,8.9c0,0,0,0.1,0,0.1c0,0.1,0,0.3,0,0.4c0.4,4.2,0.3,8.4-0.1,12.6   c-0.1,1-0.3,2-0.5,3.1c0,0,0,0,0,0c6-5.5,9.7-13.3,10.2-21.5c0.2-2.6-0.3-5.3-0.8-7.9c-0.3-1.3-0.6-2.6-0.9-4   c-0.1-0.4-0.2-0.8-0.3-1.2c0-2-0.2-4.1-0.9-6c-0.6-1.7-1.3-3.3-1.8-5c-0.9-2.8-3.4-4.9-6.4-4.9   C902.7,279.5,900.2,281.5,899.3,284.3L899.3,284.3z"
       id="path111" /><path
       d="M847.6,303.9c-2.4,0.6-4.7,1.7-7,2.8c-2.6,1.2-4.7,3.2-6.6,5.3c-3.6,3.9-6,9.1-6.3,14.3c-0.1,2.6,0.2,5.1,0.7,7.7   c0.4,1.3,0.8,2.5,1.4,3.7c0.7,1.4,1.6,3.1,2.7,4.1c1.6,1.5,3.1,2.5,5.1,3.3c1.6,0.6,3.3,0.7,5,1c3.3,0.5,6.8,1,10.1,1   c3.2,0.1,6.5,0,9.7-0.4c3.8-0.5,7.4-1.4,11.1-2.4c0,0,0,0,0,0c-3.8-1.5-7.6-2.9-11.4-4.4c-2.7-1.2-5.4-2.4-8-3.7   c-2.7-1.4-5.6-2.6-8.3-4.1c0-0.7,0-1.4,0-2.1c0.1-0.6,0.3-1.1,0.5-1.6c0.4-0.7,0.8-1.4,1.3-2c0.8-0.8,1.6-1.6,2.4-2.3   c1.7-1.1,3.5-2.1,5.3-3c2.9-1.1,5.8-1.9,8.8-2.4c2-0.2,4-0.2,6,0c2.9,0.5,5.8,1.1,8.5,2.1c0.9,0.4,1.7,0.9,2.5,1.4   c1,0.8,1.8,1.7,2.6,2.6c1.2,1.6,2.2,3.3,3,5.1c0.2,0.4,0.3,0.9,0.5,1.3c0,0,0,0,0,0c1.2-4,1.1-8.1-0.3-12.1   c-1.9-5.3-6.6-8.6-11.1-11.6c-5.2-3.4-11.4-4.8-17.6-4.8C854.7,302.6,851.1,303.1,847.6,303.9L847.6,303.9z M845.6,331   c0,0.2,0,0.4,0.1,0.5C845.6,331.4,845.6,331.2,845.6,331L845.6,331z M844.7,331.1c0.1,0.2,0.3,0.3,0.4,0.5c0,0,0,0,0,0   C844.9,331.4,844.8,331.2,844.7,331.1L844.7,331.1z M845.8,332.3c0.1,0,0.1,0.1,0.2,0.1C846,332.4,845.9,332.3,845.8,332.3   C845.8,332.3,845.8,332.3,845.8,332.3L845.8,332.3z"
       id="path113" /><path
       d="M874.8,331.6c-1.6,2-1.7,4.5-1.2,6.9c0,0,0,0,0,0c0.4-0.8,0.7-1.7,0.9-2.6C874.8,334.4,874.7,333,874.8,331.6   C874.8,331.6,874.8,331.6,874.8,331.6C874.8,331.6,874.8,331.6,874.8,331.6L874.8,331.6z"
       id="path115" /><path
       d="M592.8,771.5c-9.5,0.9-18.7,3.3-27.7,6.3c0,0,0,0,0,0c11.4,3.9,23.2,6.5,35.2,8.1c2.8,0.4,5.6,0.8,8.4,1.1   c0.8,0.1,1.7,0.2,2.5,0.3c2.3,0.7,5.1,0.6,7.5,0.8c2,0.1,3.9,0.1,5.9,0.1c4.4,0,8.9-0.5,13.1-1.3c4.3-0.7,8.5-1.8,12.7-3.1   c1.7-0.5,3.4-1.1,5.1-1.7c1.9-0.7,3.9-1.5,5.9-1.9c0,0,0,0,0,0c-6.6-2.3-13.6-3-20.4-4.2c-7.8-1.4-15.7-3-23.5-4.3   c-2.4-0.4-4.8-0.5-7.2-0.7c-2.1-0.2-4.2-0.2-6.3-0.3c-0.3,0-0.6,0-0.9,0C599.7,770.9,596.3,771.1,592.8,771.5L592.8,771.5z"
       id="path117" /><path
       d="M464.7,768C464.7,768,464.6,768.1,464.7,768c10.6,6.3,22.5,11,34.8,12.3c4.7,0.5,9.5,0.5,14.3,0.2c5.1-0.3,10.2-1,15.1-2.6   c0,0,0,0,0,0c-1.8-0.7-3.6-1.4-5.5-2.1c-1.1-0.5-2.1-0.9-3.2-1.3c-3.6-1.6-7.3-3-11-4.4c-3.7-1.3-7.5-2.5-11.3-3   c-4.5-0.8-9.1-1.1-13.7-1.1C477.7,765.9,471.2,766.7,464.7,768L464.7,768z"
       id="path119" /><path
       d="M701.4,747.4c-3.6,0.2-7.1,0.9-10.7,1.4c-5,0.8-9.8,2.3-14.5,4c0,0,0,0,0,0c8.3,3.6,17,5.7,26.1,5.4c2.4,0.3,5-0.5,7.4-1   c2.6-0.6,5.2-1.5,7.7-2.5c2.3-0.9,4.5-2,6.6-3.2c1.7-0.9,3.3-2.1,4.6-3.6c0,0,0,0,0,0c-0.3,0.1-0.6,0.1-0.8,0.1   c-1.7,0.1-3.3,0.1-5-0.1c-2.3-0.2-4.6-0.3-6.9-0.5c-2.5-0.2-5-0.3-7.6-0.4c-1,0-2.2-0.1-3.4-0.1C703.7,747,702.5,747.1,701.4,747.4   L701.4,747.4z M727.8,748.1C727.8,748.1,727.8,748.1,727.8,748.1C727.8,748.1,727.8,748.1,727.8,748.1L727.8,748.1z"
       id="path121" /><path
       d="M715.5,727.4c-0.2,5.6,0.1,11,1.5,16.5c1.5,6.1,4.6,11.8,8.5,16.6c3.6,4.5,7.8,8.7,12.3,12.3c4.1,3.4,8.2,6.9,12.7,9.7   c4.9,3.1,11.2,3.9,16.9,3.1c2.5-0.4,4.9-0.9,7.3-1.9c2.1-0.9,3.6-2,5.2-3.7c0,0,0,0,0,0c-0.5,0.1-0.9,0.2-1.4,0.3   c-1.2,0.1-2.2,0.1-3.3,0c-2.6-0.5-5.1-1.2-7.5-2.1c-2.3-1-4.5-2.2-6.5-3.6c-5.7-4.9-9.7-11.6-15.7-16.2c-2.8-2.5-5.6-4.8-8.5-7.2   c-6.2-5.2-11.5-11.2-16.5-17.5C718.7,731.6,717.2,729.4,715.5,727.4C715.6,727.3,715.6,727.3,715.5,727.4   C715.5,727.3,715.5,727.3,715.5,727.4L715.5,727.4z"
       id="path123" /><path
       d="M826.3,737.7c-0.9,2.3-1.9,4.6-2.8,6.9c0,0,0-0.1,0-0.1c-0.6,1.5-1.3,3.1-1.9,4.6c0.1-0.3,0.2-0.5,0.3-0.8   c-1.3,3.1-2.5,6.1-3.8,9.2c-1.1,2.6-2.4,5.1-4,7.5c-0.8,0.9-1.6,1.7-2.5,2.5c-0.3,0.2-0.7,0.4-1,0.6c-0.9,0.3-1.7,0.5-2.6,0.7   c-3.5,0.3-7,0.3-10.5-0.1c-1.6-0.3-3.1-0.6-4.6-1.2c-0.7-0.4-1.5-0.8-2.2-1.3c-0.9-0.8-1.8-1.7-2.7-2.6c-0.9-1-1.6-2-2.5-3   c-1-1.1-2.4-1.6-3.8-2c-1.9-0.5-3.6,0.5-5.2,1.3c-1.5,0.8-10.4,6.2-6.2,8.3c0,0,0,0,0,0c0-0.1-0.1-0.2-0.1-0.2   c-0.1-0.2-0.1-0.5-0.2-0.7c0.1-0.1,0.2-0.3,0.3-0.4c0.2-0.1,0.3-0.2,0.5-0.4c1.2-0.4,2.4-0.7,3.7-0.8c1.3-0.1,2.6-0.2,3.9-0.2   c0.2,1.1,0.4,2.2,0.6,3.3c0.4,2,1.4,4,2.4,5.8c1.1,2,2.8,3.8,4.6,5.2c2.5,2,5.3,3.2,8.3,4.3c2.6,0.9,5.5,1.4,8.2,1.6   c1.2,0.1,2.4,0.2,3.7,0.2c1.9,0,3.8-0.3,5.6-0.6c1.1-0.2,2.1-0.6,3.2-1c2-0.8,3.5-1.6,5.1-3c2.3-1.9,4.1-4.2,5.6-6.8   c2.5-4.4,3.1-9.7,3.1-14.6c0-3.1-0.3-6.3-0.6-9.4C827.7,746.3,827.1,742,826.3,737.7C826.4,737.7,826.4,737.7,826.3,737.7   C826.3,737.7,826.3,737.7,826.3,737.7L826.3,737.7z M823.7,744.1c0,0.1-0.1,0.2-0.1,0.3C823.6,744.3,823.7,744.2,823.7,744.1   L823.7,744.1z M774.9,765.8c-0.1,0-0.3,0-0.4,0.1C774.7,765.8,774.8,765.8,774.9,765.8L774.9,765.8z M770.1,768.2   C770.1,768.2,770.1,768.2,770.1,768.2C770.1,768.2,770.1,768.2,770.1,768.2L770.1,768.2z"
       id="path125" /><path
       d="M841.9,542.1c-0.5,3.3-1.2,6.5-2,9.7c-0.7,2.9-1.3,5.7-2,8.6c-1.3,5.7-2.3,11.4-3.4,17.1c-1,5.5-1.9,11.1-2.7,16.6   c-0.9,6.3-1.8,12.6-2.6,18.8c-1.4,11.2-2.3,22.5-3,33.7c-0.4,6-0.7,11.9-1,17.9c-0.4,5.8-0.9,11.7-1.2,17.5   c-0.4,5.6-0.4,11.1-0.3,16.7c0,1.4,0.2,2.8,0.2,4.3c0.1,1.2,0.1,2.5,0.3,3.7c0.4,3.5,0.8,6.9,1.3,10.3c1.8,11.4,4,22.8,6.7,34   c1.1,4.8,2.2,9.7,3.5,14.5c0.1,0.4,0.7,0.3,0.7-0.1c0-0.1,0-0.1,0-0.2c0.4-6.2,0.8-12.3,1-18.5c0.2-5.5,0.4-11,0.5-16.4   c0.1-5.9,0.1-11.8,0-17.6c-0.1-5.6,0.2-11.1,0.5-16.7c0.7-11.9,1.3-23.8,1.6-35.8c0.3-11.1,0.4-22.2,0.8-33.3c0.2-6,0.5-12,0.6-18   c0.1-5.7,0-11.4-0.2-17.2c-0.3-11.7-0.3-23.4,0.5-35.1c0.3-4.9,0.9-9.7,0.9-14.6c0-0.2-0.2-0.4-0.4-0.4   C842,541.8,841.9,541.9,841.9,542.1L841.9,542.1z"
       id="path127" /><path
       d="M839.6,727.6c-2.5,1.3-5.2,2.4-7.8,3.5c-3.2,1.3-6.3,2.7-9.6,3.7c-3.8,1.2-7.6,2.4-11.4,3.4c-1.6,0.4-3.2,1-4.8,1.3   c-2.3,0.5-4.6,1-6.8,1.6c-2,0.5-4,0.7-6,1.1c-1.4,0.3-2.9,0.5-4.3,1c-2.5,0.5-5,1-7.4,1.6c-1.4,0.3-2.7,0.7-4.1,1   c-4.5,0.9-8.9,2-13.3,3.3c-3,0.8-6.1,1.5-9.1,2.3c-5.5,1.4-10.9,3-16.4,4.7c0,0,0,0,0,0c5.5,0.8,11,1.3,16.6,1.7   c3.2,0.2,6.4,0.4,9.7,0.3c4.7-0.2,9.3-0.6,14-1c4.3-0.4,8.5-1.4,12.7-2.3c1.9-0.2,3.6-0.8,5.5-1.4c2.2-0.7,4.4-1.4,6.5-2.3   c2.4-1,4.9-2,7.2-3.2c2.4-1.2,4.8-2.5,7.1-3.8c2-1.1,4-2.5,5.9-3.7c1.9-1.2,3.7-2.6,5.5-3.9C832.9,733.8,836.4,730.8,839.6,727.6   C839.7,727.7,839.7,727.6,839.6,727.6C839.6,727.6,839.6,727.6,839.6,727.6L839.6,727.6z M832.1,731.1c-0.1,0-0.2,0.1-0.3,0.1   C831.9,731.1,832,731.1,832.1,731.1L832.1,731.1z"
       id="path129" /><path
       d="M675,770.1c-0.6,0.8-1.4,1.8-1.5,2.8c-0.2,1.5-0.1,1.6,0.1,3.1c0.2,1,1,1.9,1.5,2.7c2.9,3.9,8.4,5.8,13,6.5   c4.8,0.8,9.6-0.4,13.5-3.3c3.2-2.3,4.5-6.5,4.6-10.3c0,0,0,0,0,0c-0.2,0.3-0.4,0.6-0.6,0.9c-0.9,1.2-1.9,2.2-3,3.2   c-1,0.7-1.9,1.2-3,1.7c-0.8,0.3-1.6,0.5-2.5,0.6c-3.2,0.3-6.4,0.1-9.6-0.3c-2.9-0.4-5.8-0.9-8.6-1.8c0.2,0.1,0.4,0.2,0.6,0.3   c-0.9-0.3-1.7-0.7-2.5-1.2c0.1,0.1,0.3,0.2,0.4,0.3c-0.8-0.5-1.4-1.1-1.9-1.9c0.1,0.1,0.1,0.2,0.2,0.3c-0.2-0.3-0.3-0.7-0.5-1   c-0.1-0.3-0.1-0.6-0.2-0.9C675.1,771.2,675.1,770.7,675,770.1C675.1,770.1,675.1,770.1,675,770.1C675.1,770.1,675,770.1,675,770.1   L675,770.1z M675.2,771.8c0,0,0,0.1,0,0.1C675.2,771.9,675.2,771.8,675.2,771.8L675.2,771.8z M697.1,778.1c-0.2,0-0.5,0.1-0.7,0.1   C696.6,778.2,696.9,778.1,697.1,778.1L697.1,778.1z"
       id="path131" /><path
       d="M694.7,764.3C694.6,764.4,694.6,764.4,694.7,764.3c0.5,0.2,1.1,0.4,1.6,0.6c0,0,0,0,0,0c0.8,0.4,1.6,0.8,2.4,1.3   c1,0.9,1.8,1.9,2.7,2.9c1.8,2.4,3.6,4.7,5.6,6.9c3.6,3.8,7.9,6.5,13,7.6c6.2,1.4,12.9-0.7,16.6-6.1c2.3-3.4,3.9-7.1,5.1-11   c0,0,0,0,0,0c-0.4,0.3-0.7,0.6-1.1,0.8c-3,2.2-6.2,4.4-9.5,6c-0.9,0.3-1.7,0.6-2.6,0.8c-1,0.1-2,0.1-3.1,0c-3.1-0.6-6.1-1.5-9-2.7   c-3-1.4-5.9-2.9-8.7-4.5c-2.1-1.2-4.2-2.3-6.5-3.1c-0.8-0.3-1.7-0.4-2.5-0.4C697.3,763.6,695.9,763.9,694.7,764.3L694.7,764.3z    M696.1,764.9C696.1,764.9,696.1,764.9,696.1,764.9C696.1,764.9,696.1,764.9,696.1,764.9L696.1,764.9z M715.5,771.2   c0.1,0.1,0.3,0.1,0.4,0.2C715.7,771.3,715.6,771.2,715.5,771.2L715.5,771.2z"
       id="path133" /><path
       d="M491.5,778.8c-1.7,1-3.3,2.5-4.8,3.8c-1.4,1.3-2.8,2.5-4,4c-2.4,3-4.5,6-6.3,9.4c0,0,0,0.1,0,0c3.5-2,6.6-4.4,9.3-7.3   c1.2-1.3,2.2-3,3.1-4.5C489.9,782.5,490.5,780.5,491.5,778.8C491.6,778.8,491.6,778.8,491.5,778.8   C491.5,778.8,491.5,778.8,491.5,778.8L491.5,778.8z"
       id="path135" /><path
       d="M581.6,794.2c-0.1,0-0.1,0-0.2,0c-0.2,0-0.3,0.3-0.3,0.5c-0.1,1,0.3,2,0.7,2.9c0,0.1,0,0.2,0,0.3c0,0,0,0,0,0   c0,0,0-0.1,0-0.1c0.4,0.7,0.8,1.3,1.2,1.9c0.7,1.2,1.6,2.3,2.3,3.5c0.7,1.1,1.5,2.2,2.2,3.3c1.5,2.1,3,4,5.2,5.4   c0.6,0.3,1.1,0.5,1.7,0.6c0.6,0.3,1.2,0.5,1.9,0.5c1.3,0.3,2.6,0.3,3.9,0.1c3.1-0.5,5.8-1.9,8.2-3.9c1.9-1.5,3.3-3.6,4.6-5.5   c0.9-1.5,1.8-2.9,2.1-4.7c0,0,0,0,0,0c-0.3,0.4-0.7,0.7-1.1,1c0,0,0.1,0,0.1-0.1c-2.7,1.9-5.7,3.6-8.7,5c-1.7,0.7-3.4,1.1-5.2,1.5   c-0.9,0.1-1.7,0.1-2.6,0c-0.3-0.1-0.6-0.1-0.8-0.2c-0.7-0.4-1.3-0.7-2-1c-0.8-0.4-1.6-1-2.4-1.5c-1-0.7-1.9-1.4-2.9-2.1   c-1.5-1.1-3-2.2-4.4-3.3c0,0,0,0,0,0c-1-0.8-1.9-1.6-2.7-2.6c-0.1-0.1-0.2-0.3-0.2-0.4c0-0.2,0-0.4-0.1-0.6   C582.1,794.3,581.9,794.2,581.6,794.2C581.7,794.2,581.6,794.2,581.6,794.2L581.6,794.2z M582.3,795.4c0,0,0.1,0.1,0.1,0.1   C582.4,795.5,582.4,795.4,582.3,795.4L582.3,795.4z"
       id="path137" /><path
       d="M353.2,371.2c-3.4,0.5-6.3,2-9.3,3.5c-3,1.6-5.6,3.8-8.1,5.9c-2.6,2.2-5,4.7-7.3,7.3c0,0,0,0,0,0c4.2-0.4,8.3-1,12.4-1.9   c4.4-0.9,8.8-2.1,13.3-3c2.2-0.2,4.5-0.1,6.7,0.1c1.3,0.2,2.6,0.5,3.8,1c1.1,0.6,2.2,1.3,3.2,2c2.8,2.3,5.5,4.8,8,7.4c0,0,0,0,0,0   c-0.5-3.2-1.3-6.3-2.2-9.5c-1.5-5.4-5.4-9.8-10.6-11.8c-1.7-0.7-3.2-1.1-5-1.3c-0.7-0.1-1.3-0.1-2-0.1   C355.2,371,354.2,371.1,353.2,371.2L353.2,371.2z"
       id="path139" /><path
       d="M430,376c-1.4,0.5-2.7,1-4,1.6c-1.8,0.8-3.5,2.4-5.1,3.5c-5.7,4.2-10.5,9.7-14.7,15.3c0,0,0,0,0,0   c4.8-0.9,9.5-2.1,14.1-3.8c2.1-0.8,4.1-1.6,6.2-2.5c1.9-0.8,3.6-1.8,5.5-2.6c0.2,0,0.4-0.1,0.6-0.1c0.7-0.1,1.4-0.1,2.2,0   c0.2,0.1,0.5,0.1,0.7,0.2c0.9,0.4,1.6,1,2.4,1.6c-0.3-0.2-0.6-0.5-0.9-0.7c1.7,1.4,3.5,2.6,5.3,4c-0.2-0.2-0.4-0.3-0.7-0.5   c3,2.3,6.1,4.5,9.2,6.8c0,0,0,0,0,0c-0.8-2.5-1.7-4.9-2.7-7.4c-1-2.5-2.1-4.9-3.3-7.2c-0.6-1.2-1.3-2.3-2.1-3.3   c-1.2-1.5-2.4-2.5-4-3.5c-1.2-0.7-2.7-1.1-4.1-1.4c-0.8-0.2-1.7-0.3-2.6-0.3C431.2,375.7,430.5,375.8,430,376L430,376z"
       id="path141" /><path
       d="M296.7,632.2c-1.3,0.2-2.5,0.5-3.8,0.9c-1.3,0.4-2.3,1.3-3.4,2.1c0,0,0,0.1,0,0c1.2-0.2,2.3-0.2,3.5-0.1   c1.7,0.4,3.2,0.9,4.8,1.5c1.7,0.7,3.2,1.6,4.8,2.6c0,0,0,0,0.1,0.1c-2.6,1.5-5.3,2.9-8,4.1c-5.9,2.4-12,4.3-18.2,5.6   c0.3-0.3,0.6-0.5,0.9-0.8c2.5-1.9,5.3-3.3,8.1-4.7c2.1-0.8,4.2-1.6,6.4-2c0.2,0,0.5,0.1,0.7,0.1c0.1,0.1,0.1,0.1,0.2,0.2   c0,0.1,0.1,0.2,0.1,0.3c0,0.1-0.1,0.2-0.1,0.4c-0.2,0.3-0.4,0.6-0.6,0.9c0,0,0,0,0,0c0.5-0.3,1.3-0.6,1.5-1.2   c0.2-0.6,0-1.6-0.5-1.9c-1.1-0.8-1-0.7-2.4-1.1c-1.5-0.4-3.3-0.4-4.8-0.5c-3.3-0.3-6.9,0.4-10.1,1.1c-3.4,0.7-6.6,2.3-9.5,4   c-2.7,1.6-5.1,3.8-6,6.9c-0.4,1.3-0.4,3.4,0,4.7c0.3,1,0.6,1.9,1.1,2.8c0.6,0.8,1.2,1.6,1.9,2.3c1,1.1,2.5,1.8,3.8,2.4   c2.1,1,4.2,1.2,6.5,1.5c3.1,0.4,6.5-0.3,9.5-0.9c3.7-0.7,7.4-2.5,10.7-4.1c3.5-1.7,6.9-3.9,9.9-6.4c1.3-1.1,2.6-2.2,3.9-3.3   c1.4-1.2,3-2.8,4.1-4.4c0.8-1.3,1.3-2.3,1.6-3.7c0.3-1.6,0.2-3.6-0.7-5.1c-1.5-2.6-4.3-3.9-7.1-4.7c-1.3-0.4-2.8-0.3-4.2-0.4   c-0.2,0-0.3,0-0.5,0C299.5,631.8,298,632,296.7,632.2L296.7,632.2z M297.4,636.4c0.1,0,0.1,0.1,0.2,0.1   C297.5,636.5,297.5,636.5,297.4,636.4L297.4,636.4z M301.9,638.6c0.2,0.1,0.4,0.3,0.6,0.5C302.3,638.9,302.1,638.7,301.9,638.6   L301.9,638.6z M270.3,649c0.1,0,0.2,0.1,0.3,0.1C270.5,649,270.4,649,270.3,649L270.3,649z"
       id="path143" /><path
       d="M282.3,625.9C282.3,625.9,282.3,625.9,282.3,625.9c3.8,0.8,7.6,1.4,11.5,1.4c3.3,0,6.5-0.2,9.8-0.4c0,0,0,0,0-0.1   c-3.2-0.9-6.4-1.5-9.7-1.7c-0.8,0-1.5-0.1-2.3-0.1C288.6,625,285.4,625.4,282.3,625.9L282.3,625.9z"
       id="path145" /><path
       d="M337.7,543.6c-1.3,0.4-2.6,1.1-3.8,1.8c-1.7,0.9-3.3,2.1-4.8,3.2c-2.9,2.1-5.3,4.7-7.4,7.6c-2.2,3-3.7,6.2-4.9,9.7   c-0.6,1.7-1,3.5-1.3,5.3c-0.2,1-0.3,2-0.4,2.9c-0.1,0.6-0.1,1.2-0.2,1.7c0,0.7,0.1,1.3,0.3,1.9c0.1,3,0.6,6,1.8,8.8   c0.7,1.7,1.4,3.1,2.5,4.6c0.6,0.8,1.2,1.6,2,2.3c0.6,0.6,1.3,1.1,1.9,1.6c4.3,3.4,9.1,6.1,14.4,7.4c2.4,0.6,4.9,0.8,7.3,0.9   c2.6,0.2,5,0,7.5-0.7c3.9-1,7.4-3.5,10.3-6.3c0,0,0-0.1,0,0c-1.9,0.5-3.8,0.9-5.7,1.2c-1.9,0.2-3.7,0.2-5.6,0   c-2.7-0.5-5.2-1.5-7.7-2.5c-3.2-1.4-6.1-3.2-9-5.2c-0.4-0.3-0.8-0.7-1.3-1c-1.7-1.4-3.4-2.8-4.8-4.4c-0.7-1-1.3-2.1-1.8-3.2   c-0.6-1.5-1-3-1.3-4.5c0-0.3,0.1-0.6,0.1-0.9c-0.1-0.4-0.1-0.9-0.2-1.3c-0.4-3.4-0.4-6.9,0-10.3c0.3-2.1,0.9-4.1,1.7-6.1   c0.9-1.9,1.9-3.7,3.2-5.5c1.8-2.2,3.7-4.2,5.9-5.9c0,0,0,0-0.1,0.1c0.1-0.1,0.2-0.2,0.3-0.2c0.7-0.1,1.4-0.3,2.1-0.4   c0.8-0.2,1.7-0.4,2.5-0.7c0.4-0.2,0.8-0.5,0.9-1c0-0.5-0.3-0.9-0.8-1.1c-0.4-0.2-0.8-0.2-1.2-0.2   C339.4,543,338.5,543.3,337.7,543.6L337.7,543.6z M341.1,544.3c-0.1,0-0.1,0-0.2,0c0.1,0,0.2,0,0.3,0c0,0,0.1,0,0.1,0   c0,0,0.1,0.1,0.1,0.1c0,0.1,0,0.1,0,0.2c-0.1,0.1-0.2,0.2-0.3,0.3c-0.2,0.1-0.4,0.2-0.6,0.3c0,0,0,0,0,0c-1.1,0.3-2.3,0.6-3.4,0.8   c0.9-0.6,1.7-1.1,2.7-1.5c-0.1,0-0.1,0.1-0.2,0.1C340.2,544.5,340.6,544.3,341.1,544.3L341.1,544.3z M351.2,597.4   c0.1,0,0.2,0,0.3,0C351.4,597.4,351.3,597.4,351.2,597.4L351.2,597.4z"
       id="path147" /><path
       d="M357.7,552.9c-3.9,1.2-7.4,3.7-10.3,6.5c-1.6,1.5-2.9,3.4-4.1,5.2c-1.5,2.3-2.6,4.8-3.4,7.4c-1.1,3.7-0.7,8.2,1.9,11.2   c1.5,1.8,3,3,5,4.2c1.1,0.7,2.3,1.2,3.5,1.8c0,0,0,0,0,0c-1.6-2.3-3.3-4.5-4.4-7c-0.3-0.7-0.5-1.4-0.6-2.2c-0.1-0.9-0.1-1.7,0-2.5   c0.3-1.5,0.8-2.9,1.4-4.3c1.4-3.1,2.7-6.1,4.2-9.2c1.6-3.3,3.5-6.5,5.6-9.5C356.9,553.9,357.3,553.4,357.7,552.9   C357.8,552.9,357.8,552.9,357.7,552.9C357.8,552.9,357.8,552.9,357.7,552.9L357.7,552.9z M356.6,554.3   C356.5,554.4,356.5,554.4,356.6,554.3C356.5,554.4,356.5,554.4,356.6,554.3L356.6,554.3z M356.5,554.4   C356.5,554.4,356.5,554.4,356.5,554.4C356.5,554.4,356.5,554.4,356.5,554.4L356.5,554.4z M346.9,572.5c0,0.1-0.1,0.2-0.1,0.3   C346.8,572.7,346.9,572.6,346.9,572.5L346.9,572.5z"
       id="path149" /><path
       d="M347.3,554.2C347.3,554.2,347.3,554.2,347.3,554.2c1-0.5,1.9-1,2.9-1.5c0.3-0.1,0.5-0.1,0.8-0.2c0.2,0,0.4,0,0.6,0   c0.1,0,0.3,0.1,0.4,0.1c2.1,1.1,4.3,2.4,6.2,3.8c1.1,0.9,2.1,1.9,3,2.9c0.7,0.9,1.2,1.8,1.7,2.8c0.7,2,1.1,4.1,1.4,6.2   c-0.1,1.8,0,3.6-0.2,5.4c-0.2,1-0.5,2-0.8,3c-0.7,1.4-1.5,2.8-2.4,4.1c-1,1.2-2,2.3-3.2,3.3c-1,0.7-2,1.3-3.1,1.9   c-0.9,0.4-1.6,0.6-2.6,0.8c-0.2,0-0.4,0-0.6,0.1c0,0,0,0,0,0c0.6-0.3,1.2-0.6,1.9-0.9c0,0,0,0,0,0c-0.9,0.2-1.8,0.3-2.8,0.6   c-0.2,0.1-0.4,0.3-0.3,0.5c0.3,0.6,0.3,0.6,0.9,0.9c0.8,0.4,1.9,0.4,2.8,0.4c1.5,0.1,3.2-0.4,4.6-0.7c1.8-0.4,3.6-1.4,5.2-2.3   c3.2-1.8,6-4.6,7.9-7.8c0.8-1.4,1.4-3.1,1.8-4.6c0.1-0.3,0.1-0.6,0.2-0.9c0.1-0.8,0.3-1.6,0.4-2.5c-0.1-1.3-0.2-2.5-0.4-3.8   c-0.3-2.1-0.8-4-1.6-5.9c-0.7-1.7-1.8-3.1-3.1-4.5c-1.3-1.4-3-2.4-4.6-3.3c-1.7-0.9-3.6-1.4-5.4-1.8c-2.1-0.4-4.3-0.6-6.4-0.6   C349.9,549.7,348.5,552.2,347.3,554.2L347.3,554.2z M350.4,552.6c0,0-0.1,0-0.1,0.1C350.3,552.6,350.3,552.6,350.4,552.6   L350.4,552.6z M364.4,569c0,0.2,0.1,0.5,0.1,0.7C364.5,569.5,364.4,569.2,364.4,569L364.4,569z M361.3,580.4   c-0.1,0.1-0.2,0.3-0.3,0.4C361.1,580.7,361.2,580.5,361.3,580.4L361.3,580.4z"
       id="path151" /><path
       d="M343.7,543.1c-2.5,0.7-4.7,2.1-6.4,4c0,0,0,0.1,0,0c0.9-0.3,1.9-0.5,2.8-0.7c1.3-0.1,2.6-0.1,3.9,0c2.5,0.4,4.9,1,7.3,1.9   c1.3,0.6,2.6,1.3,3.9,2.1c0.6,0.5,1.2,1.1,1.7,1.7c0.9,1.3,1.7,2.6,2.4,4c1.1,3.1,2,6.3,3,9.4c1,3,1.9,6,2.5,9.1   c0.2,1.8,0.2,3.5,0,5.3c0-0.1,0-0.1,0-0.2c0,0.2,0,0.4-0.1,0.5c0,0,0,0,0,0c-0.6,3.1-1.6,5.9-2.7,8.8c0,0,0,0,0,0   c-0.1,0.3-0.2,0.6-0.4,0.8c-1.1,2.4-2.2,4.8-3.5,7.1c-1.3,2.4-2.9,4.5-4.4,6.7c0,0,0,0,0,0c1.6-0.9,3.2-1.6,4.8-2.4   c1.8-1,3.5-2.3,5.1-3.6c3.2-2.5,6-5.4,8.5-8.5c2.8-3.5,4.8-7.6,5.8-12c0.5-2.3,0.6-4.7,0.5-7c-0.1-1.5-0.3-3-0.6-4.4   c-0.2-1.2-0.6-2.2-1-3.3c0.1,0.2,0.2,0.5,0.3,0.7c-1.2-2.9-2.5-5.7-4.2-8.4c-1.7-2.7-3.5-5.4-6-7.4c-2-1.6-3.9-3.1-6.3-4   c-2.6-1.1-5.4-1.3-8.2-1.5c-0.3,0-0.6,0-0.9,0C349,541.8,346.2,542.3,343.7,543.1L343.7,543.1z M376.4,561.3   c0.1,0.1,0.1,0.3,0.2,0.4C376.5,561.6,376.4,561.4,376.4,561.3L376.4,561.3z M365.1,578.2c0,0.2-0.1,0.4-0.1,0.6   C365,578.7,365,578.5,365.1,578.2L365.1,578.2z"
       id="path153" /><path
       d="M244.3,530c-3.6,0.7-6.9,2.8-9.8,5c-5.8,4.5-10.4,10.5-13.8,17.1c-1.8,3.5-3.2,7.3-4.2,11.2c-0.3,1.1-0.5,2.3-0.6,3.4   c-0.3,1.4-0.5,2.8-0.7,4.3c-0.1,2.3,0,4.6,0.5,6.9c0.4,1.6,0.9,3.5,1.8,4.9c0.6,1.2,1.4,2.3,2.3,3.3c0.8,1.1,1.8,2,3,2.7   c1.7,1.3,3.3,2.1,5.3,2.9c2.1,0.7,4.3,1,6.5,1.3c1.8,0.2,4-0.2,5.8-0.5c2.2-0.3,4.2-0.8,6.3-1.4c3.3-1,6.5-2.5,9.5-4.3   c2.8-1.6,5.8-3.9,7.5-6.7c1.8-2.9,2.8-5.9,3.3-9.3c0.4-2.7,0.5-5.4-0.1-8.1c-0.5-2.5-1.6-4.7-2.3-7.1c0,0,0,0,0,0   c-0.2,1.1-0.4,2.2-0.6,3.3c-0.3,1.7-0.8,3.3-1.4,4.9c-0.9,1.8-1.8,3.4-3,5.1c-0.9,1.1-1.9,2.1-3,3.1c-0.6,0.4-1.3,0.8-2,1.1   c-1.7,0.6-3.5,0.9-5.2,1.2c-3.4,0.3-6.7,0.3-10.1,0c-0.8-0.1-1.5-0.3-2.2-0.5c-0.3-0.1-0.5-0.3-0.8-0.5c-0.1-2-0.1-4,0.1-6   c0.8-4.3,1.9-8.4,3.5-12.5c1.6-3.6,3.4-7,5.6-10.2c1-1.2,2-2.3,3.2-3.3c1-0.7,2-1.4,3.2-1.9c0.5-0.2,1.1-0.3,1.6-0.4   c0.5,0,0.9,0,1.4,0c4.3,0.8,8.3,2.5,12.3,4.1c0,0,0,0,0,0c-1.8-2.7-3.6-5.4-5.8-7.9c-2.1-2.4-4.8-4.1-7.8-5.2   c-1.2-0.4-2.5-0.6-3.8-0.6C247.9,529.3,246,529.6,244.3,530L244.3,530z M253.1,538.8c-0.3,0-0.5,0.1-0.8,0.1c0,0,0,0,0,0   C252.6,538.9,252.9,538.8,253.1,538.8L253.1,538.8z M252.3,538.9C252.3,538.9,252.3,538.9,252.3,538.9   C252.3,538.9,252.3,538.9,252.3,538.9C252.3,538.9,252.3,538.9,252.3,538.9L252.3,538.9z M235.5,572.1c0,0.1,0,0.1,0.1,0.2   C235.6,572.2,235.5,572.1,235.5,572.1L235.5,572.1z M236.6,574.1c0.1,0.1,0.2,0.3,0.3,0.4C236.8,574.4,236.7,574.2,236.6,574.1   L236.6,574.1z"
       id="path155" /><path
       d="M255.9,541.5c-3.9,1.4-8,4-10.4,7.5c-1.3,1.8-2.1,3.7-2.6,5.9c-0.6,2.5-0.4,5,0.2,7.4c0.5,2.1,1.8,4.3,3.2,5.9   c2,2.3,4.6,3.7,7.6,3.9c2.1,0.1,4.1-0.2,6.1-0.8c2.3-0.7,4.3-2.1,6.1-3.6c1.5-1.2,2.5-3.1,3.2-4.8c1-2.4,1.4-4.7,1.2-7.3   c-0.1-3.3-1.5-6.4-2.8-9.4c0,0,0,0,0,0c0,0.4-0.1,0.8-0.1,1.2c0,0,0,0,0,0c-0.3,2.5-0.8,4.9-1.7,7.2c-0.5,1-1,1.9-1.6,2.8   c-0.4,0.5-0.9,1-1.4,1.4c-0.6,0.4-1.2,0.8-1.9,1.2c-0.7,0.2-1.4,0.4-2.1,0.5c-0.8,0.1-1.5,0.1-2.3,0c-0.3-0.1-0.7-0.1-1-0.2   c0,0-0.1-0.1-0.1-0.1c-0.6-0.9-1.1-1.8-1.5-2.7c-0.2-0.5-0.3-1.1-0.4-1.6c0-0.5,0-1,0-1.5c0.1-0.7,0.3-1.4,0.6-2.1   c0.6-1.2,1.3-2.4,2.1-3.5c1.2-1.5,2.5-2.8,3.9-4c0.5-0.3,1-0.6,1.5-0.9c-0.1,0.1-0.3,0.1-0.4,0.2c0.4-0.2,0.8-0.4,1.2-0.4   c0.2,0,0.3,0.1,0.5,0.1c0.1,0.1,0.2,0.2,0.3,0.3c0.1,0.2,0.1,0.5,0.2,0.7c0.1,1.2,0.1,2.4,0.2,3.6c0,0,0,0,0,0   c0.8-1.9,2.3-4.6,0.8-6.5c-0.6-0.8-1.8-1.2-2.8-1.2c-0.1,0-0.2,0-0.3,0C259.6,540.4,257.8,540.8,255.9,541.5L255.9,541.5z    M267.7,547.3C267.7,547.3,267.7,547.3,267.7,547.3C267.7,547.3,267.7,547.3,267.7,547.3L267.7,547.3z"
       id="path157" /><path
       d="M263.8,543.7c0,0.3,0.2,0.5,0.5,0.5c0.3,0,0.5-0.2,0.5-0.5s-0.2-0.5-0.5-0.5C264,543.2,263.8,543.4,263.8,543.7   L263.8,543.7z"
       id="path159" /><path
       d="M566,356.4c-1.3,0.4-3.2,1-3.1,2.7c0,0,0,0,0,0c0.1-0.1,0.1-0.2,0.2-0.2c0.3-0.1,0.5-0.2,0.8-0.3c0.2,0,0.5,0,0.7,0   c0.3,0.1,0.7,0.2,1,0.4c2.8,1.7,5.4,3.6,8.3,5.2c2.3,1.3,4.7,2.1,7.1,3.1c1.6,0.7,3,1.5,4.5,2.4c-0.1-0.1-0.2-0.1-0.3-0.2   c0.6,0.4,1.1,0.8,1.5,1.3c0.1,0.2,0.2,0.4,0.4,0.6c0.1,0.2,0.1,0.4,0.2,0.6c0,0,0,0,0.1,0c0.9-2.3-0.1-4.4-1.3-6.4   c-1.8-2.9-4.9-5.4-8-6.7c-2.1-0.9-4.2-1.6-6.4-2c-1.2-0.2-2.8-0.6-4.2-0.6C566.9,356.2,566.4,356.3,566,356.4L566,356.4z    M586.9,370.8C586.9,370.8,586.9,370.9,586.9,370.8C586.9,370.9,586.9,370.8,586.9,370.8L586.9,370.8z"
       id="path161" /><path
       d="M634.4,340.5c-2.8,0.1-5.6,0.8-8.4,1.5c-3.2,0.8-6.4,1.7-9.5,2.7c-5.8,1.9-11.5,4.3-16.8,7.1c-4.8,2.5-9.2,5.6-13.5,8.9   c-2,1.6-3.9,3.3-5.7,5.1c-0.9,0.9-1.8,1.9-2.7,2.9c-1,1.1-1.7,2.1-2.3,3.5c-0.2,0.6,0.2,1.3,0.8,1.1c1-0.3,1.9-0.9,2.8-1.4   c0.9-0.5,1.8-1,2.7-1.5c0,0,0-0.1,0,0c-1.1,0.4-2.1,0.7-3.2,1.1c3.5-2.2,7.1-4.1,10.9-5.7c9.8-4,20-6.6,30.4-8.7   c2.8-0.6,5.5-1.1,8.3-1.6c2.8-0.5,5.6-0.7,8.3-1.7c0.5-0.1,0.9-0.2,1.4-0.2c0.9-0.2,1.8-0.3,2.7-0.5c1.3-0.2,2.7-0.5,4-0.7   c2.4-0.4,4.9-0.8,7.3-1.2c4.4-0.5,8.8-1.1,13.2-1.8c3.5-0.4,6.9-0.8,10.3-1.3c2.8-0.3,5.6-0.7,8.5-1.1c2-0.2,4-0.5,6.1-0.8   c1.4-0.2,2.8-0.4,4.3-0.6c0.9-0.1,1.9-0.2,2.8-0.4c1.4-0.2,2.7-0.3,4.1-0.3c0.1,0,0.3,0.1,0.5,0.1c0.1,0,0.2,0.1,0.2,0.1   c0,0.1,0.1,0.2,0.1,0.3c0,0.2,0,0.4-0.1,0.7c0,0,0,0,0,0c0.4-0.6,0.9-1.3,0.2-1.9c-1.2-1.1-2.9-1.4-4.5-1.7   c-2.4-0.5-4.9-0.9-7.3-1.2c-7.9-1.1-15.9-1.8-23.8-2.3c-3.2-0.2-6.3-0.3-9.5-0.3C649.5,338.8,642,339.3,634.4,340.5L634.4,340.5z    M702,345.5C702,345.5,702,345.5,702,345.5C702,345.5,702,345.5,702,345.5L702,345.5z M676.6,347.9c-0.1,0-0.3,0-0.4,0.1   C676.3,347.9,676.4,347.9,676.6,347.9L676.6,347.9z M578.7,371.4C578.6,371.4,578.6,371.4,578.7,371.4   C578.6,371.4,578.6,371.4,578.7,371.4C578.6,371.4,578.6,371.4,578.7,371.4L578.7,371.4z"
       id="path163" /><path
       d="M642.6,320.6c-3.6,0-7.1,0.1-10.7,0.2c-2.6,0.1-5.3,0.5-7.9,0.8c-2.9,0.3-5.8,0.7-8.7,1.1c-3.8,0.3-7.6,1.4-11.3,2.4   c-4.1,1.1-8,2.5-12,4c-7.3,2.8-14.3,6.2-20.6,10.6c-2.7,1.9-5.2,4.1-7.5,6.6c-1,1.1-1.8,2.2-2.6,3.5c-0.7,1.1-0.9,2.2-1,3.5   c-0.1,1.2,1.3,1.6,2.3,1.5c2-0.2,3.9-0.8,5.9-1.3c0,0,0-0.1,0,0c-1.9,0.1-3.8,0.3-5.8,0.1c-0.1,0-0.3,0-0.4-0.1c0,0-0.1,0-0.1,0   c0,0,0-0.1-0.1-0.1c0,0,0,0,0,0c0.1-0.2,0.1-0.4,0.2-0.6c0.2-0.2,0.3-0.5,0.5-0.7c0.6-0.7,1.2-1.2,1.9-1.8c2.6-1.8,5.3-3.3,8.1-4.5   c6.7-2.7,13.7-4.5,20.7-6c3.7-0.8,7.4-1.5,11.1-2.3c2.1-0.4,4.2-0.8,6.3-1.2c2.1-0.4,4.2-0.6,6.2-1.3c0.7-0.2,1.6-0.2,2.4-0.4   c1.8-0.3,3.5-0.6,5.3-0.9c2.8-0.5,5.5-1,8.3-1.6c3.8-0.5,7.6-1.1,11.3-1.7c3-0.3,6-0.6,8.9-1c1.4-0.2,2.8-0.1,4.2-0.2   c1.4-0.1,2.8-0.2,4.2-0.2c6.2,0,12.4,0,18.5,0.5c-0.1,0-0.1,0-0.2,0c0.7,0,1.3,0.2,1.9,0.4c0.2,0.1,0.4,0.2,0.6,0.3   c0.1,0.1,0.2,0.3,0.4,0.4c0,0,0,0,0,0c-0.5-1.6-2.1-2.4-3.6-3.1c-1.2-0.6-2.5-1.1-3.8-1.6c-2.6-1-5.3-1.8-8-2.5   c-2.5-0.7-5.2-1.1-7.8-1.5c-3.1-0.4-6.1-0.8-9.2-1c-2.6-0.2-5.2-0.4-7.8-0.4C642.8,320.6,642.7,320.6,642.6,320.6L642.6,320.6z"
       id="path165" /><path
       d="M676.6,324.5c-1.4,0.3-2.2,1.4-3,2.5c-0.2,0.3-0.1,0.8,0.3,1c1.2,0.7,2.5,1.4,3.7,2c0,0,0.1,0,0,0   c-0.8-0.8-1.6-1.6-2.3-2.5c0.3-0.2,0.6-0.3,0.9-0.5c0.6-0.1,1.3,0,1.9,0.1c-0.1,0-0.3,0-0.4-0.1c2.9,0.6,5.8,1.4,8.5,2.5   c1.3,0.6,2.6,1.2,4,1.8c3,1.5,6,3.3,8.7,5.3c1.8,1.4,3.4,2.9,4.8,4.6c0-0.1-0.1-0.1-0.1-0.2c0.4,0.5,0.7,1,0.9,1.6c0,0,0,0,0,0   c0.1,0.3,0.2,0.6,0.2,0.9c0,0,0,0,0,0c0.9-2.8-0.3-5.5-1.7-7.9c-2.1-3.6-5.8-6.4-9.4-8.4c-1.5-0.9-3.1-1.5-4.7-2.1   c-2-0.6-4.2-0.8-6.2-1c-0.6,0-1.1-0.1-1.7-0.1C679.5,324.1,678,324.2,676.6,324.5L676.6,324.5z"
       id="path167" /><path
       d="M615.6,349.6c-3,0.1-5.9,0.5-8.9,1c-5.8,0.9-11.4,2.6-16.9,4.9c-2.5,1.1-5,2.2-7.4,3.5c-1.2,0.7-2.4,1.3-3.6,2.1   c-1.2,0.8-2.4,1.7-3.6,2.6c0,0,0,0.1,0,0c1.2-0.4,2.3-0.9,3.4-1.4c1.3-0.5,2.6-0.8,3.9-1.2c2.7-0.8,5.4-1.6,8.2-2.4   c5.4-1.5,10.9-2.8,16.4-4.2c2.7-0.7,5.4-1.4,8.2-2c2.4-0.6,4.9-0.9,7.3-1.3c1.9-0.3,3.7-0.6,5.6-0.9c0,0,0,0,0,0   c0.5-0.1,0.9-0.1,1.4-0.2c0,0,0,0,0,0c-2.4-0.2-4.7-0.3-7.1-0.4c-1.6-0.1-3.2-0.1-4.8-0.1C617,349.6,616.3,349.6,615.6,349.6   L615.6,349.6z M628.1,350.3C628.2,350.3,628.2,350.3,628.1,350.3C628.2,350.3,628.2,350.3,628.1,350.3L628.1,350.3z"
       id="path169" /><path
       d="M691.2,339.5C691.2,339.5,691.2,339.5,691.2,339.5c1.3,0,2.6-0.2,3.9-0.3c0,0,0-0.1,0-0.1   C693.8,339.2,692.5,339.3,691.2,339.5L691.2,339.5z"
       id="path171" /><path
       d="M680.1,326.6c-0.1,0.2-0.1,0.3-0.1,0.5c-0.2,0.7-0.3,1.4-0.5,2.1c-0.1,0.5-0.3,1-0.4,1.5c0,0,0,0,0-0.1   c-0.5,1.7-0.9,3.4-1.3,5.1c-0.2,0.9-0.4,1.9-0.5,2.9c-0.1,0.5-0.2,1-0.2,1.5c-0.1,1-0.1,1.9,0.1,2.8c0,0,0,0,0,0   c0-0.2,0-0.3,0.1-0.5c0,0,0,0,0,0c0.2-1.4,0.9-2.8,1.4-4.1c0.3-0.7,0.6-1.5,0.8-2.3c0.6-1.6,1-3.2,1.5-4.9c0,0,0,0.1,0,0.1   c0-0.1,0.1-0.2,0.1-0.3c0,0.1,0.1,0.2,0.1,0.3c0.6,1.1,1.2,2.2,1.8,3.4c0,0,0.1,0,0,0c-0.6-1.6-1.2-3.3-1.6-5   c0.2-0.9,0.2-1.8,0.2-2.8c0-0.5-0.3-0.7-0.7-0.7C680.5,326.1,680.2,326.3,680.1,326.6L680.1,326.6z"
       id="path173" /><path
       d="M691.9,338c-0.7,0-1.4,0-2.1,0c-1.5,0-3.1,0.1-4.6,0.1c-1.3,0-2.6,0.1-3.9,0.1c-2.2,0.1-4.6,0.1-6.7,0.7   c-0.2,0.1-0.3,0.3-0.2,0.4c0.2,0.3,0.1,0.4,0.5,0.5c0.2,0.1,0.5,0.1,0.7,0.1c0.5,0.1,0.9,0.2,1.4,0.3c0.9,0.2,1.8,0.4,2.7,0.6   c0,0,0,0,0,0c-1.4-0.4-2.8-0.8-4.2-1.3c0.8,0,1.6,0.1,2.4,0.2c2.5,0.3,5.1,0.7,7.6,1.1c-3.3,1.2-6.5,2.6-9.6,4.1c0,0,0,0,0,0   c2.7-0.4,5.4-0.8,8.1-1.2c1.5-0.2,3-0.4,4.5-0.6c1.3-0.1,2.7-0.2,4-0.4c1.6-0.2,3.2,0,4.8-0.4c2.1-0.5,2-3.6,0-4.2   c-1.1-0.3-2.2-0.3-3.4-0.3c-0.4-0.1-0.8-0.1-1.2-0.1C692.4,338,692.2,338,691.9,338L691.9,338z M677.9,339.8c0,0,0.1,0,0.1,0   C678,339.9,677.9,339.8,677.9,339.8L677.9,339.8z M692.1,341.8c0,0,0.1,0,0.1,0c0,0,0.1,0,0.1,0c0,0,0,0,0,0   C692.3,341.9,692.2,341.9,692.1,341.8L692.1,341.8z"
       id="path175" /><path
       d="M613.4,128.4c-3.6,0.6-7,1.8-10.4,3.1c-6.6,2.6-12.8,6.1-18.4,10.5c-2.5,2-4.9,4.1-7.1,6.5c-2.2,2.4-4.1,5.2-6,7.9   c-4.2,6.3-7.4,13.1-10.2,20.1c-5.7,14.2-9,29.8-7.7,45.2c1.3,16,7.8,31.5,19.4,42.8c2.8,2.7,6.1,5.1,9.3,7.4c3.2,2.2,7,3.7,10.7,5   c3.1,1.2,6.5,1.8,9.8,2.3c4.6,0.6,9.1,1,13.8,0.8c4-0.2,8.1-0.8,12-1.6c3.4-0.7,6.6-1.7,9.9-2.8c7.2-2.5,14-5.9,20.3-10.1   c5.8-3.8,11.3-8.3,16.3-13.1c5-4.7,9.5-10,12.9-16c2.8-5.1,4.4-10.8,5.6-16.5c0,0,0,0,0,0c-1.4,2.5-2.9,4.9-4.6,7.2   c-2.2,2.8-4.7,5.2-7.4,7.4c-5.5,4-11.6,6.9-17.8,9.6c-9.3,3.8-18.9,6.6-28.8,8.2c-7.2,0.8-14.4,1-21.6,0.3   c-4.4-0.7-8.7-1.8-12.9-3.3c-3.3-1.6-6.4-3.5-9.4-5.6c-2.6-2.1-4.9-4.4-7.1-7c-2.2-3.1-4.1-6.3-5.7-9.8c-1.6-4-2.7-8.1-3.4-12.4   c-0.7-6.8-0.5-13.6,0.3-20.4c1.5-9.8,3.9-19.3,7.6-28.5c1.9-4.5,4.2-8.7,7-12.7c3.2-4,6.7-7.5,10.7-10.7c4-3,8.2-5.6,12.8-7.7   c3.1-1.2,6.2-2.1,9.5-2.7c2.6-0.3,5-0.4,7.6-0.1c1.4,0.3,2.7,0.7,4.1,1.2c1.3,0.6,2.3,1.2,3.5,2.1c0.3,0.3,0.6,0.6,0.9,0.9   c0,0-0.1-0.1-0.1-0.1c0.6,0.7,1.1,1.4,1.4,2.1c0,0,0-0.1,0-0.1c0.2,0.4,0.3,0.8,0.5,1.2c0.1,1.2,0,2.3-0.1,3.4c0,0,0,0,0.1,0   c0.1-0.6,0.5-1.7,0.5-2.2c0.1-1.7,0.2-1-0.2-2.6c-0.4-1.8-1.7-3.3-3-4.6c-1.4-1.4-3.5-2.6-5.4-3.3c-3.3-1.2-6.5-1.6-10-1.8   c-0.4,0-0.8,0-1.2,0C618.7,127.5,616,128,613.4,128.4L613.4,128.4z M638.1,134.7C638.1,134.7,638.1,134.7,638.1,134.7   C638.1,134.7,638.1,134.7,638.1,134.7L638.1,134.7z M640.7,138.5C640.7,138.6,640.7,138.6,640.7,138.5   C640.7,138.6,640.7,138.6,640.7,138.5L640.7,138.5z M689.2,226.8C689.1,226.8,689.1,226.8,689.2,226.8   C689.1,226.8,689.1,226.8,689.2,226.8L689.2,226.8z"
       id="path177" /><path
       d="M647,145.5C647,145.5,647,145.5,647,145.5c0.9,0.4,1.8,0.7,2.7,1.1c0,0-0.1,0-0.1-0.1c2.6,1.4,5.2,2.8,7.6,4.6   c1.9,1.6,3.6,3.4,5.2,5.4c4.1,5.5,7.4,11.5,10.1,17.7c1.2,3.1,2.3,6.3,3.2,9.5c0.4,1.4,0.6,2.9,1,4.3c0.4,1.7,0.7,3.5,1,5.2   c0.2,1.7,0.3,3.3,0.3,5c0.1,1.8-0.1,3.6-0.4,5.4c-1.1,7.5-2.9,14.8-5.7,21.8c-1.3,3-3,5.8-4.9,8.4c-0.5,0.7-1.1,1.3-1.7,1.9   c0,0,0,0.1,0,0c3.2-2.1,6-4.6,8.5-7.4c1.4-1.6,2.6-3.3,3.8-5c1.8-2.6,3.4-5.2,4.9-8c1.2-2.1,2.1-4.4,3-6.7c1.2-2.9,2.1-6,2.8-9.1   c1-5.4,0.5-10.9-0.5-16.3c-0.3-0.9-0.6-1.9-0.9-2.8c-0.4-1.4-0.9-2.8-1.5-4.2c-1.1-2.8-2.4-5.6-4-8.2c-2.6-4.6-6.1-8.7-9.8-12.4   c-3.2-3.2-7.2-6.3-11.5-8c-3.8-1.5-7.9-2.3-12-2.3C648,145.5,647.5,145.5,647,145.5L647,145.5z M672.1,225.2c0,0.1,0,0.1-0.1,0.2   C672.1,225.3,672.1,225.3,672.1,225.2L672.1,225.2z M672,225.5c0,0,0,0.1,0,0.1C672,225.6,672,225.6,672,225.5L672,225.5z    M667.1,233.9C667.1,233.9,667.1,233.9,667.1,233.9C667.1,233.9,667.1,233.9,667.1,233.9L667.1,233.9z"
       id="path179" /><path
       d="M618.6,174c-6.4,2.6-11.5,7.7-15.5,13.2c-2.3,3.1-3.8,6.7-5.3,10.2c-1.4,3.6-2.9,7.9-2,11.8c0.8,3.2,2.3,6.1,4.5,8.7   c1.2,1.4,2.5,2.8,4,3.9c1.8,1.2,3.7,2.2,5.7,3.1c3.2,1.5,6.5,2.6,10,3.5c1.7,0.4,3.3,0.6,5,0.8c1.4,0.1,2.7-0.3,4-0.6   c0,0,0,0,0-0.1c-0.4,0-0.8-0.1-1.2-0.2c0,0,0.1,0,0.1,0c-0.9-0.1-1.8-0.4-2.7-0.8c0.1,0,0.1,0.1,0.2,0.1c-2.4-1.3-4.5-2.8-6.6-4.5   c0.2,0.1,0.3,0.3,0.5,0.4c-3.3-2.6-6.7-5.4-9.5-8.5c-1.2-1.6-2.2-3.3-3-5.1c-0.4-1-0.7-2.1-0.9-3.2c0-0.5,0-0.9,0-1.4   c1-6.2,2.8-12.4,5.1-18.2c1.7-3.8,3.6-7.4,5.9-10.9c0,0,0,0,0,0C617.3,175.6,618,174.8,618.6,174C618.7,174.1,618.7,174,618.6,174   C618.6,174,618.6,174,618.6,174L618.6,174z M605.8,207.1c0,0.3,0.1,0.5,0.1,0.8C605.9,207.6,605.8,207.4,605.8,207.1L605.8,207.1z"
       id="path181" /></g><text
     xml:space="preserve"
     style="font-style:normal;font-variant:normal;font-weight:normal;font-stretch:normal;font-size:93.75px;line-height:507.99999237%;font-family:'Chalkboard SE';-inkscape-font-specification:'Chalkboard SE, Normal';text-align:start;letter-spacing:0px;word-spacing:0px;writing-mode:lr-tb;text-anchor:start;fill:#000000;fill-opacity:1;stroke:none;stroke-width:1px;stroke-linecap:butt;stroke-linejoin:miter;stroke-opacity:1"
     x="606.75568"
     y="535.21173"
     id="text3519"
     sodipodi:linespacing="507.99999%"><tspan
       sodipodi:role="line"
       id="tspan3521"
       x="606.75568"
       y="535.21173">Home</tspan></text>
</svg>